<?xml version="1.0" encoding="UTF-8" standalone="no"?>
<svg
   width="771.87"
   height="176.38989"
   viewBox="0 0 771.87001 176.3899"
   version="1.2"
   id="svg356"
   sodipodi:docname="intervals 1-1.svg"
   xmlns:inkscape="http://www.inkscape.org/namespaces/inkscape"
   xmlns:sodipodi="http://sodipodi.sourceforge.net/DTD/sodipodi-0.dtd"
   xmlns="http://www.w3.org/2000/svg"
   xmlns:svg="http://www.w3.org/2000/svg">
  <defs
     id="defs360" />
  <sodipodi:namedview
     id="namedview358"
     pagecolor="#ffffff"
     bordercolor="#000000"
     borderopacity="0.25"
     inkscape:showpageshadow="2"
     inkscape:pageopacity="0.0"
     inkscape:pagecheckerboard="0"
     inkscape:deskcolor="#d1d1d1"
     showgrid="false" />
  <title
     id="title2">c major 2 oct 15 1 (1)</title>
  <desc
     id="desc4">Generated by MuseScore Studio 4.4.4</desc>
  <polyline
     class="StaffLines"
     fill="none"
     stroke="#000000"
     stroke-width="2.73"
     stroke-linejoin="bevel"
     points="1286.34,2423.48 2058.21,2423.48"
     id="polyline56"
     transform="translate(-1286.3399,-2387.5666)" />
  <polyline
     class="StaffLines"
     fill="none"
     stroke="#000000"
     stroke-width="2.73"
     stroke-linejoin="bevel"
     points="1286.34,2448.28 2058.21,2448.28"
     id="polyline58"
     transform="translate(-1286.3399,-2387.5666)" />
  <polyline
     class="StaffLines"
     fill="none"
     stroke="#000000"
     stroke-width="2.73"
     stroke-linejoin="bevel"
     points="1286.34,2473.08 2058.21,2473.08"
     id="polyline60"
     transform="translate(-1286.3399,-2387.5666)" />
  <polyline
     class="StaffLines"
     fill="none"
     stroke="#000000"
     stroke-width="2.73"
     stroke-linejoin="bevel"
     points="1286.34,2497.88 2058.21,2497.88"
     id="polyline62"
     transform="translate(-1286.3399,-2387.5666)" />
  <polyline
     class="StaffLines"
     fill="none"
     stroke="#000000"
     stroke-width="2.73"
     stroke-linejoin="bevel"
     points="1286.34,2522.68 2058.21,2522.68"
     id="polyline64"
     transform="translate(-1286.3399,-2387.5666)" />
  <polyline
     class="BarLine"
     fill="none"
     stroke="#000000"
     stroke-width="4.46"
     stroke-linejoin="bevel"
     points="2042.34,2422.12 2042.34,2524.04"
     id="polyline146"
     transform="translate(-1286.3399,-2387.5666)" />
  <polyline
     class="BarLine"
     fill="none"
     stroke="#000000"
     stroke-width="4.46"
     stroke-linejoin="bevel"
     points="2055.98,2422.12 2055.98,2524.04"
     id="polyline148"
     transform="translate(-1286.3399,-2387.5666)" />
  <path
     class="Note"
     d="m 160.24356,96.828405 c -13.6865,0 -18.5535,6.944005 -18.5535,13.392005 0,6.448 4.867,13.392 18.5535,13.392 13.6865,0 18.445,-6.944 18.445,-13.392 0,-6.448 -4.7585,-13.392005 -18.445,-13.392005 m 0.7905,23.606505 c -2.7745,0 -4.6655,-0.7905 -5.952,-3.2705 -1.2865,-2.48 -3.069,-8.928 -3.1775,-11.5165 -0.2015,-2.6815 0.7905,-4.2625 3.1775,-5.053 1.1935,-0.403 2.7745,-0.604505 4.371,-0.604505 2.666,0 4.464,0.604505 5.8435,3.286005 1.395,2.573 3.286,9.021 3.286,11.501 0,4.867 -3.5805,5.6575 -7.5485,5.6575"
     id="path244"
     style="stroke-width:0.992" />
  <path
     class="Note"
     d="m 305.45356,47.228405 c -13.6865,0 -18.5535,6.944 -18.5535,13.392 0,6.448 4.867,13.392 18.5535,13.392 13.6865,0 18.445,-6.944 18.445,-13.392 0,-6.448 -4.7585,-13.392 -18.445,-13.392 m 0.7905,23.6065 c -2.7745,0 -4.6655,-0.7905 -5.952,-3.2705 -1.2865,-2.48 -3.069,-8.928 -3.1775,-11.5165 -0.2015,-2.6815 0.7905,-4.2625 3.1775,-5.053 1.1935,-0.403 2.7745,-0.6045 4.371,-0.6045 2.666,0 4.464,0.6045 5.8435,3.286 1.395,2.573 3.286,9.021 3.286,11.501 0,4.867 -3.5805,5.6575 -7.5485,5.6575"
     id="path246"
     style="stroke-width:0.992" />
  <path
     class="Note"
     d="m 439.33006,113.23211 c 0,2.9837 2.1483,6.3147 7.7794,6.3147 7.2153,0 14.7886,-5.9024 14.7886,-12.011 0,-4.1013 -3.472,-6.3906 -7.7794,-6.3906 -6.7379,0 -14.7886,5.6962 -14.7886,12.0869"
     id="path248"
     style="stroke-width:0.6944" />
  <path
     class="Note"
     d="m 503.18006,100.83211 c 0,2.9837 2.1483,6.3147 7.7794,6.3147 7.2153,0 14.7886,-5.9024 14.7886,-12.011005 0,-4.1013 -3.472,-6.3906 -7.7794,-6.3906 -6.7379,0 -14.7886,5.6962 -14.7886,12.086905"
     id="path250"
     style="stroke-width:0.6944" />
  <path
     class="Note"
     d="m 567.03006,88.432105 c 0,2.9837 2.1483,6.3147 7.7794,6.3147 7.2153,0 14.7886,-5.9024 14.7886,-12.011 0,-4.1013 -3.472,-6.3906 -7.7794,-6.3906 -6.7379,0 -14.7886,5.6962 -14.7886,12.0869"
     id="path252"
     style="stroke-width:0.6944" />
  <path
     class="Note"
     d="m 630.89006,76.032105 c 0,2.9837 2.1483,6.3147 7.7794,6.3147 7.2153,0 14.7886,-5.9024 14.7886,-12.011 0,-4.1013 -3.472,-6.3906 -7.7794,-6.3906 -6.7379,0 -14.7886,5.6962 -14.7886,12.0869"
     id="path254"
     style="stroke-width:0.6944" />
  <path
     class="Note"
     d="m 694.74006,63.632105 c 0,2.9837 2.1483,6.3147 7.7794,6.3147 7.2153,0 14.7886,-5.9024 14.7886,-12.011 0,-4.1013 -3.472,-6.3906 -7.7794,-6.3906 -6.7379,0 -14.7886,5.6962 -14.7886,12.0869"
     id="path256"
     style="stroke-width:0.6944" />
  <path
     class="Clef"
     d="m 30.798555,161.19991 c 0,6.5565 4.96,15.19 18.352,15.19 4.6655,0 8.742,-1.1935 12.307,-3.379 5.363,-3.7665 6.7425,-10.323 6.7425,-16.5695 0,-3.8595 -0.589,-8.3235 -1.581,-13.981 -0.2945,-1.984 -0.899,-4.96 -1.488,-8.835 9.7185,-3.1775 16.957,-13.299 16.957,-23.5135 0,-14.973005 -10.6175,-25.094505 -25.0945,-25.094505 -0.992,-5.952 -1.984,-11.811 -2.7745,-17.36 10.416,-11.0205 17.6545,-23.4205 17.6545,-39.184 0,-9.0365 -2.7745,-16.368 -4.371,-19.9481 -2.3715,-5.0533 -5.2545,-8.5252999869552 -7.037,-8.5252999869552 -0.6975,0 -3.7665,1.1933999869552 -7.037,5.0532999869552 -6.355,7.5481 -8.1375,20.2426 -8.1375,28.5661 0,5.363 0.496,10.23 2.1855,21.3435 -0.1085,0.093 -5.27,5.3475 -7.347,7.037 -9.0365,8.339 -21.5295,20.429 -21.5295,40.284505 0,18.538 16.1665,33.1235 34.627,33.1235 2.8675,0 5.549,-0.2945 7.8275,-0.6975 1.891,9.5325 3.0845,16.4765 3.0845,21.731 0,10.323 -5.363,15.779 -15.376,15.779 -2.387,0 -4.464,-0.496 -4.6655,-0.496 -0.093,-0.1085 -0.2945,-0.2015 -0.2945,-0.2945 0,-0.2015 0.2015,-0.31 0.496,-0.31 4.6655,-0.7905 9.3155,-4.7585 9.3155,-11.098 0,-5.363 -4.061,-11.0205 -11.501,-11.0205 -6.944,0 -11.315,5.6575 -11.315,12.1985 m 20.739,-132.432005 c 0.899,-3.968 5.456,-14.384 10.6175,-14.384 1.488,0 3.8595,4.7585 3.8595,11.7025 0,10.323 -7.626,18.0575 -14.477,24.8 -0.589,-3.968 -1.085,-7.8275 -1.085,-11.997 0,-3.6735 0.2945,-7.0525 1.085,-10.1215 m 8.7265,101.974505 c -1.984,0.403 -3.8595,0.6045 -5.7505,0.6045 -14.1825,0 -26.288,-9.92 -26.288,-24.9085 0,-12.090005 8.525,-22.909005 17.267,-30.457505 1.674,-1.488 3.2705,-2.8675 4.7585,-4.3555 0.8835,5.3475 1.581,10.013 2.2785,14.0895 -9.0365,2.6815 -15.1745,12.1985 -15.1745,21.529505 0,6.944 5.456,16.461 13.392,16.461 0.7905,0 1.6895,-0.403 1.6895,-1.2865 0,-0.899 -0.992,-1.395 -2.1855,-2.1855 -3.875,-2.387 -6.0605,-4.96 -6.0605,-9.827 0,-6.045 4.5725,-10.912005 10.323,-12.291505 l 5.7505,32.627505 m 14.0895,-18.352 c 0,7.0525 -2.883,14.291 -9.92,17.174 -2.077,-11.904 -4.7585,-27.683 -5.456,-32.054005 8.928,0 15.376,6.060505 15.376,14.880005"
     id="path296"
     style="stroke-width:0.992" />
  <text
     xml:space="preserve"
     style="font-size:26.6667px;fill:#000000"
     x="441.29556"
     y="162.04132"
     id="text648"><tspan
       sodipodi:role="line"
       id="tspan646"
       x="441.29556"
       y="162.04132"
       style="font-size:26.6667px">1</tspan></text>
  <text
     xml:space="preserve"
     style="font-size:26.6667px;fill:#000000"
     x="505.55057"
     y="162.04132"
     id="text652"><tspan
       sodipodi:role="line"
       id="tspan650"
       x="505.55057"
       y="162.04132"
       style="font-size:26.6667px">2</tspan></text>
  <text
     xml:space="preserve"
     style="font-size:26.6667px;fill:#000000"
     x="568.00391"
     y="162.24152"
     id="text656"><tspan
       sodipodi:role="line"
       id="tspan654"
       x="568.00391"
       y="162.24152"
       style="font-size:26.6667px">3</tspan></text>
  <text
     xml:space="preserve"
     style="font-size:26.6667px;fill:#000000"
     x="632.45898"
     y="162.8421"
     id="text660"><tspan
       sodipodi:role="line"
       id="tspan658"
       x="632.45898"
       y="162.8421"
       style="font-size:26.6667px">4</tspan></text>
  <text
     xml:space="preserve"
     style="font-size:26.6667px;fill:#000000"
     x="694.91235"
     y="162.64191"
     id="text664"><tspan
       sodipodi:role="line"
       id="tspan662"
       x="694.91235"
       y="162.64191"
       style="font-size:26.6667px">5</tspan></text>
</svg>
