<?xml version="1.0" encoding="UTF-8" standalone="no"?>
<svg
   width="667.3501"
   height="176.38989"
   viewBox="0 0 667.35011 176.3899"
   version="1.2"
   id="svg356"
   sodipodi:docname="intervals 1-1.svg"
   xmlns:inkscape="http://www.inkscape.org/namespaces/inkscape"
   xmlns:sodipodi="http://sodipodi.sourceforge.net/DTD/sodipodi-0.dtd"
   xmlns="http://www.w3.org/2000/svg"
   xmlns:svg="http://www.w3.org/2000/svg">
  <defs
     id="defs360" />
  <sodipodi:namedview
     id="namedview358"
     pagecolor="#ffffff"
     bordercolor="#000000"
     borderopacity="0.25"
     inkscape:showpageshadow="2"
     inkscape:pageopacity="0.0"
     inkscape:pagecheckerboard="0"
     inkscape:deskcolor="#d1d1d1"
     showgrid="false" />
  <title
     id="title2">c major 2 oct 15 1 (1)</title>
  <desc
     id="desc4">Generated by MuseScore Studio 4.4.4</desc>
  <polyline
     class="StaffLines"
     fill="none"
     stroke="#000000"
     stroke-width="2.73"
     stroke-linejoin="bevel"
     points="1343.21,1448.84 2010.56,1448.84"
     id="polyline26"
     transform="translate(-1343.2099,-1412.9267)" />
  <polyline
     class="StaffLines"
     fill="none"
     stroke="#000000"
     stroke-width="2.73"
     stroke-linejoin="bevel"
     points="1343.21,1473.64 2010.56,1473.64"
     id="polyline28"
     transform="translate(-1343.2099,-1412.9267)" />
  <polyline
     class="StaffLines"
     fill="none"
     stroke="#000000"
     stroke-width="2.73"
     stroke-linejoin="bevel"
     points="1343.21,1498.44 2010.56,1498.44"
     id="polyline30"
     transform="translate(-1343.2099,-1412.9267)" />
  <polyline
     class="StaffLines"
     fill="none"
     stroke="#000000"
     stroke-width="2.73"
     stroke-linejoin="bevel"
     points="1343.21,1523.24 2010.56,1523.24"
     id="polyline32"
     transform="translate(-1343.2099,-1412.9267)" />
  <polyline
     class="StaffLines"
     fill="none"
     stroke="#000000"
     stroke-width="2.73"
     stroke-linejoin="bevel"
     points="1343.21,1548.04 2010.56,1548.04"
     id="polyline34"
     transform="translate(-1343.2099,-1412.9267)" />
  <polyline
     class="BarLine"
     fill="none"
     stroke="#000000"
     stroke-width="4.46"
     stroke-linejoin="bevel"
     points="1994.69,1447.47 1994.69,1549.4"
     id="polyline136"
     transform="translate(-1343.2099,-1412.9267)" />
  <polyline
     class="BarLine"
     fill="none"
     stroke="#000000"
     stroke-width="4.46"
     stroke-linejoin="bevel"
     points="2008.33,1447.47 2008.33,1549.4"
     id="polyline138"
     transform="translate(-1343.2099,-1412.9267)" />
  <path
     class="Note"
     d="m 204.81356,96.828275 c -13.6865,0 -18.5535,6.943995 -18.5535,13.391995 0,6.448 4.867,13.392 18.5535,13.392 13.6865,0 18.445,-6.944 18.445,-13.392 0,-6.448 -4.7585,-13.391995 -18.445,-13.391995 m 0.7905,23.606495 c -2.7745,0 -4.6655,-0.7905 -5.952,-3.2705 -1.2865,-2.48 -3.069,-8.928 -3.1775,-11.5165 -0.2015,-2.6815 0.7905,-4.2625 3.1775,-5.053 1.1935,-0.403 2.7745,-0.604495 4.371,-0.604495 2.666,0 4.464,0.604495 5.8435,3.285995 1.395,2.573 3.286,9.021 3.286,11.501 0,4.867 -3.5805,5.6575 -7.5485,5.6575"
     id="path226"
     style="stroke-width:0.992" />
  <path
     class="Note"
     d="m 364.25356,84.428275 c -13.6865,0 -18.5535,6.944 -18.5535,13.392 0,6.447995 4.867,13.391995 18.5535,13.391995 13.6865,0 18.445,-6.944 18.445,-13.391995 0,-6.448 -4.7585,-13.392 -18.445,-13.392 m 0.7905,23.606495 c -2.7745,0 -4.6655,-0.7905 -5.952,-3.2705 -1.2865,-2.48 -3.069,-8.927995 -3.1775,-11.516495 -0.2015,-2.6815 0.7905,-4.2625 3.1775,-5.053 1.1935,-0.403 2.7745,-0.6045 4.371,-0.6045 2.666,0 4.464,0.6045 5.8435,3.286 1.395,2.573 3.286,9.021 3.286,11.500995 0,4.867 -3.5805,5.6575 -7.5485,5.6575"
     id="path228"
     style="stroke-width:0.992" />
  <path
     class="Note"
     d="m 583.22006,100.83197 c 0,2.9837 2.1483,6.3147 7.7794,6.3147 7.2153,0 14.7886,-5.9024 14.7886,-12.010995 0,-4.1013 -3.472,-6.3906 -7.7794,-6.3906 -6.7379,0 -14.7886,5.6962 -14.7886,12.086895"
     id="path230"
     style="stroke-width:0.6944" />
  <path
     class="Note"
     d="m 512.36006,113.23197 c 0,2.9837 2.1483,6.3147 7.7794,6.3147 7.2153,0 14.7886,-5.9024 14.7886,-12.011 0,-4.1013 -3.472,-6.3906 -7.7794,-6.3906 -6.7379,0 -14.7886,5.6962 -14.7886,12.0869"
     id="path242"
     style="stroke-width:0.6944" />
  <path
     class="Clef"
     d="m 30.798561,161.19977 c 0,6.5565 4.96,15.19 18.352,15.19 4.6655,0 8.742,-1.1935 12.307,-3.379 5.363,-3.7665 6.7425,-10.323 6.7425,-16.5695 0,-3.8595 -0.589,-8.3235 -1.581,-13.981 -0.2945,-1.984 -0.899,-4.96 -1.488,-8.835 9.7185,-3.1775 16.957,-13.299 16.957,-23.5135 0,-14.972995 -10.6175,-25.094495 -25.0945,-25.094495 -0.992,-5.952 -1.984,-11.811 -2.7745,-17.36 10.416,-11.0205 17.6545,-23.4205 17.6545,-39.184 0,-9.0365 -2.7745,-16.368 -4.371,-19.9481 -2.3715,-5.0533 -5.2545,-8.52530002542 -7.037,-8.52530002542 -0.6975,0 -3.7665,1.19340002542 -7.037,5.05330002542 -6.355,7.5481 -8.1375,20.2426 -8.1375,28.5661 0,5.363 0.496,10.23 2.1855,21.3435 -0.1085,0.093 -5.27,5.3475 -7.347,7.037 -9.0365,8.339 -21.5295,20.429 -21.5295,40.284495 0,18.538 16.1665,33.1235 34.627,33.1235 2.8675,0 5.549,-0.2945 7.8275,-0.6975 1.891,9.5325 3.0845,16.4765 3.0845,21.731 0,10.323 -5.363,15.779 -15.376,15.779 -2.387,0 -4.464,-0.496 -4.6655,-0.496 -0.093,-0.1085 -0.2945,-0.2015 -0.2945,-0.2945 0,-0.2015 0.2015,-0.31 0.496,-0.31 4.6655,-0.7905 9.3155,-4.7585 9.3155,-11.098 0,-5.363 -4.061,-11.0205 -11.501,-11.0205 -6.944,0 -11.315,5.6575 -11.315,12.1985 m 20.739,-132.431995 c 0.899,-3.968 5.456,-14.384 10.6175,-14.384 1.488,0 3.8595,4.7585 3.8595,11.7025 0,10.323 -7.626,18.0575 -14.477,24.8 -0.589,-3.968 -1.085,-7.8275 -1.085,-11.997 0,-3.6735 0.2945,-7.0525 1.085,-10.1215 m 8.7265,101.974495 c -1.984,0.403 -3.8595,0.6045 -5.7505,0.6045 -14.1825,0 -26.288,-9.92 -26.288,-24.9085 0,-12.089995 8.525,-22.908995 17.267,-30.457495 1.674,-1.488 3.2705,-2.8675 4.7585,-4.3555 0.8835,5.3475 1.581,10.013 2.2785,14.0895 -9.0365,2.6815 -15.1745,12.1985 -15.1745,21.529495 0,6.944 5.456,16.461 13.392,16.461 0.7905,0 1.6895,-0.403 1.6895,-1.2865 0,-0.899 -0.992,-1.395 -2.1855,-2.1855 -3.875,-2.387 -6.0605,-4.96 -6.0605,-9.827 0,-6.045 4.5725,-10.911995 10.323,-12.291495 l 5.7505,32.627495 m 14.0895,-18.352 c 0,7.0525 -2.883,14.291 -9.92,17.174 -2.077,-11.904 -4.7585,-27.683 -5.456,-32.053995 8.928,0 15.376,6.060495 15.376,14.879995"
     id="path302"
     style="stroke-width:0.992" />
  <text
     xml:space="preserve"
     style="font-size:26.6667px;fill:#000000"
     x="514.05957"
     y="161.2692"
     id="text574"><tspan
       sodipodi:role="line"
       id="tspan572"
       x="514.05957"
       y="161.2692"
       style="font-size:26.6667px">1</tspan></text>
  <text
     xml:space="preserve"
     style="font-size:26.6667px;fill:#000000"
     x="584.5199"
     y="161.66959"
     id="text632"><tspan
       sodipodi:role="line"
       id="tspan630"
       x="584.5199"
       y="161.66959"
       style="font-size:26.6667px">2</tspan></text>
</svg>
