<?xml version="1.0" encoding="UTF-8" standalone="no"?>
<svg
   width="764.18005"
   height="176.38989"
   viewBox="0 0 764.18007 176.3899"
   version="1.2"
   id="svg356"
   sodipodi:docname="intervals 1-1.svg"
   xmlns:inkscape="http://www.inkscape.org/namespaces/inkscape"
   xmlns:sodipodi="http://sodipodi.sourceforge.net/DTD/sodipodi-0.dtd"
   xmlns="http://www.w3.org/2000/svg"
   xmlns:svg="http://www.w3.org/2000/svg">
  <defs
     id="defs360" />
  <sodipodi:namedview
     id="namedview358"
     pagecolor="#ffffff"
     bordercolor="#000000"
     borderopacity="0.25"
     inkscape:showpageshadow="2"
     inkscape:pageopacity="0.0"
     inkscape:pagecheckerboard="0"
     inkscape:deskcolor="#d1d1d1"
     showgrid="false" />
  <title
     id="title2">c major 2 oct 15 1 (1)</title>
  <desc
     id="desc4">Generated by MuseScore Studio 4.4.4</desc>
  <polyline
     class="StaffLines"
     fill="none"
     stroke="#000000"
     stroke-width="2.73"
     stroke-linejoin="bevel"
     points="1318.62,1773.72 2082.8,1773.72"
     id="polyline36"
     transform="translate(-1318.62,-1737.8066)" />
  <polyline
     class="StaffLines"
     fill="none"
     stroke="#000000"
     stroke-width="2.73"
     stroke-linejoin="bevel"
     points="1318.62,1798.52 2082.8,1798.52"
     id="polyline38"
     transform="translate(-1318.62,-1737.8066)" />
  <polyline
     class="StaffLines"
     fill="none"
     stroke="#000000"
     stroke-width="2.73"
     stroke-linejoin="bevel"
     points="1318.62,1823.32 2082.8,1823.32"
     id="polyline40"
     transform="translate(-1318.62,-1737.8066)" />
  <polyline
     class="StaffLines"
     fill="none"
     stroke="#000000"
     stroke-width="2.73"
     stroke-linejoin="bevel"
     points="1318.62,1848.12 2082.8,1848.12"
     id="polyline42"
     transform="translate(-1318.62,-1737.8066)" />
  <polyline
     class="StaffLines"
     fill="none"
     stroke="#000000"
     stroke-width="2.73"
     stroke-linejoin="bevel"
     points="1318.62,1872.92 2082.8,1872.92"
     id="polyline44"
     transform="translate(-1318.62,-1737.8066)" />
  <polyline
     class="BarLine"
     fill="none"
     stroke="#000000"
     stroke-width="4.46"
     stroke-linejoin="bevel"
     points="2066.93,1772.35 2066.93,1874.28"
     id="polyline168"
     transform="translate(-1318.62,-1737.8066)" />
  <polyline
     class="BarLine"
     fill="none"
     stroke="#000000"
     stroke-width="4.46"
     stroke-linejoin="bevel"
     points="2080.57,1772.35 2080.57,1874.28"
     id="polyline170"
     transform="translate(-1318.62,-1737.8066)" />
  <path
     class="Note"
     d="m 160.24353,96.8284 c -13.6865,0 -18.5535,6.944 -18.5535,13.392 0,6.448 4.867,13.392 18.5535,13.392 13.6865,0 18.445,-6.944 18.445,-13.392 0,-6.448 -4.7585,-13.392 -18.445,-13.392 m 0.7905,23.6065 c -2.7745,0 -4.6655,-0.7905 -5.952,-3.2705 -1.2865,-2.48 -3.069,-8.928 -3.1775,-11.5165 -0.2015,-2.6815 0.7905,-4.2625 3.1775,-5.053 1.1935,-0.403 2.7745,-0.6045 4.371,-0.6045 2.666,0 4.464,0.6045 5.8435,3.286 1.395,2.573 3.286,9.021 3.286,11.501 0,4.867 -3.5805,5.6575 -7.5485,5.6575"
     id="path232"
     style="stroke-width:0.992" />
  <path
     class="Note"
     d="m 340.84353,72.0284 c -13.6865,0 -18.5535,6.944 -18.5535,13.392 0,6.448 4.867,13.392 18.5535,13.392 13.6865,0 18.445,-6.944 18.445,-13.392 0,-6.448 -4.7585,-13.392 -18.445,-13.392 m 0.7905,23.6065 c -2.7745,0 -4.6655,-0.7905 -5.952,-3.2705 -1.2865,-2.48 -3.069,-8.928 -3.1775,-11.5165 -0.2015,-2.6815 0.7905,-4.2625 3.1775,-5.053 1.1935,-0.403 2.7745,-0.6045 4.371,-0.6045 2.666,0 4.464,0.6045 5.8435,3.286 1.395,2.573 3.286,9.021 3.286,11.501 0,4.867 -3.5805,5.6575 -7.5485,5.6575"
     id="path234"
     style="stroke-width:0.992" />
  <path
     class="Note"
     d="m 510.11003,113.2321 c 0,2.9837 2.1483,6.3147 7.7794,6.3147 7.2153,0 14.7886,-5.9024 14.7886,-12.011 0,-4.1013 -3.472,-6.3906 -7.7794,-6.3906 -6.7379,0 -14.7886,5.6962 -14.7886,12.0869"
     id="path236"
     style="stroke-width:0.6944" />
  <path
     class="Note"
     d="m 590.38003,100.8321 c 0,2.9837 2.1483,6.3147 7.7794,6.3147 7.2153,0 14.7886,-5.9024 14.7886,-12.011 0,-4.1013 -3.472,-6.3906 -7.7794,-6.3906 -6.7379,0 -14.7886,5.6962 -14.7886,12.0869"
     id="path238"
     style="stroke-width:0.6944" />
  <path
     class="Note"
     d="m 670.64003,88.4321 c 0,2.9837 2.1483,6.3147 7.7794,6.3147 7.2153,0 14.7886,-5.9024 14.7886,-12.011 0,-4.1013 -3.472,-6.3906 -7.7794,-6.3906 -6.7379,0 -14.7886,5.6962 -14.7886,12.0869"
     id="path240"
     style="stroke-width:0.6944" />
  <path
     class="Clef"
     d="m 30.798527,161.1999 c 0,6.5565 4.96,15.19 18.352,15.19 4.6655,0 8.742,-1.1935 12.307,-3.379 5.363,-3.7665 6.7425,-10.323 6.7425,-16.5695 0,-3.8595 -0.589,-8.3235 -1.581,-13.981 -0.2945,-1.984 -0.899,-4.96 -1.488,-8.835 9.7185,-3.1775 16.957,-13.299 16.957,-23.5135 0,-14.973 -10.6175,-25.0945 -25.0945,-25.0945 -0.992,-5.952 -1.984,-11.811 -2.7745,-17.36 10.416,-11.0205 17.6545,-23.4205 17.6545,-39.184 0,-9.0365 -2.7745,-16.368 -4.371,-19.9481003 -2.3715,-5.0533 -5.2545,-8.52529999906141 -7.037,-8.52529999906141 -0.6975,0 -3.7665,1.19339999906141 -7.037,5.05329999906141 -6.355,7.5481003 -8.1375,20.2426003 -8.1375,28.5661003 0,5.363 0.496,10.23 2.1855,21.3435 -0.1085,0.093 -5.27,5.3475 -7.347,7.037 -9.0365,8.339 -21.5295,20.429 -21.5295,40.2845 0,18.538 16.1665,33.1235 34.627,33.1235 2.8675,0 5.549,-0.2945 7.8275,-0.6975 1.891,9.5325 3.0845,16.4765 3.0845,21.731 0,10.323 -5.363,15.779 -15.376,15.779 -2.387,0 -4.464,-0.496 -4.6655,-0.496 -0.093,-0.1085 -0.2945,-0.2015 -0.2945,-0.2945 0,-0.2015 0.2015,-0.31 0.496,-0.31 4.6655,-0.7905 9.3155,-4.7585 9.3155,-11.098 0,-5.363 -4.061,-11.0205 -11.501,-11.0205 -6.944,0 -11.315,5.6575 -11.315,12.1985 m 20.739,-132.432 c 0.899,-3.968 5.456,-14.384 10.6175,-14.384 1.488,0 3.8595,4.7585 3.8595,11.7025 0,10.323 -7.626,18.0575 -14.477,24.8 -0.589,-3.968 -1.085,-7.8275 -1.085,-11.997 0,-3.6735 0.2945,-7.0525 1.085,-10.1215 m 8.7265,101.9745 c -1.984,0.403 -3.8595,0.6045 -5.7505,0.6045 -14.1825,0 -26.288,-9.92 -26.288,-24.9085 0,-12.09 8.525,-22.909 17.267,-30.4575 1.674,-1.488 3.2705,-2.8675 4.7585,-4.3555 0.8835,5.3475 1.581,10.013 2.2785,14.0895 -9.0365,2.6815 -15.1745,12.1985 -15.1745,21.5295 0,6.944 5.456,16.461 13.392,16.461 0.7905,0 1.6895,-0.403 1.6895,-1.2865 0,-0.899 -0.992,-1.395 -2.1855,-2.1855 -3.875,-2.387 -6.0605,-4.96 -6.0605,-9.827 0,-6.045 4.5725,-10.912 10.323,-12.2915 l 5.7505,32.6275 m 14.0895,-18.352 c 0,7.0525 -2.883,14.291 -9.92,17.174 -2.077,-11.904 -4.7585,-27.683 -5.456,-32.054 8.928,0 15.376,6.0605 15.376,14.88"
     id="path310"
     style="stroke-width:0.992" />
  <text
     xml:space="preserve"
     style="font-size:26.6667px;fill:#000000"
     x="511.4263"
     y="163.86943"
     id="text636"><tspan
       sodipodi:role="line"
       id="tspan634"
       x="511.4263"
       y="163.86943"
       style="font-size:26.6667px">1</tspan></text>
  <text
     xml:space="preserve"
     style="font-size:26.6667px;fill:#000000"
     x="592.6958"
     y="165.47075"
     id="text640"><tspan
       sodipodi:role="line"
       id="tspan638"
       x="592.6958"
       y="165.47075"
       style="font-size:26.6667px">2</tspan></text>
  <text
     xml:space="preserve"
     style="font-size:26.6667px;fill:#000000"
     x="671.96362"
     y="164.2697"
     id="text644"><tspan
       sodipodi:role="line"
       id="tspan642"
       x="671.96362"
       y="164.2697"
       style="font-size:26.6667px">3</tspan></text>
</svg>
