<?xml version="1.0" encoding="UTF-8" standalone="no"?>
<svg
   width="11.002764mm"
   height="7.1917281mm"
   viewBox="0 0 155.94468 101.93001"
   version="1.2"
   id="svg164"
   xmlns="http://www.w3.org/2000/svg"
   xmlns:svg="http://www.w3.org/2000/svg">
  <defs
     id="defs164" />
  <title
     id="title1">Piano</title>
  <desc
     id="desc1">Generated by MuseScore Studio 4.5.2</desc>
  <polyline
     class="StaffLines"
     fill="none"
     stroke="#000000"
     stroke-width="2.73"
     stroke-linejoin="bevel"
     points="2021.37,874.758 2764.6,874.758"
     id="polyline6-1-5-7-86"
     transform="matrix(0.2098202,0,0,1,-424.12425,-873.39299)" />
  <polyline
     class="StaffLines"
     fill="none"
     stroke="#000000"
     stroke-width="2.73"
     stroke-linejoin="bevel"
     points="2021.37,899.558 2764.6,899.558"
     id="polyline7-4-7-9-5"
     transform="matrix(0.2098202,0,0,1,-424.12425,-873.39299)" />
  <polyline
     class="StaffLines"
     fill="none"
     stroke="#000000"
     stroke-width="2.73"
     stroke-linejoin="bevel"
     points="2021.37,924.358 2764.6,924.358"
     id="polyline8-2-6-5-0"
     transform="matrix(0.2098202,0,0,1,-424.12425,-873.39299)" />
  <polyline
     class="StaffLines"
     fill="none"
     stroke="#000000"
     stroke-width="2.73"
     stroke-linejoin="bevel"
     points="2021.37,949.158 2764.6,949.158"
     id="polyline9-3-1-4-9"
     transform="matrix(0.2098202,0,0,1,-424.12425,-873.39299)" />
  <polyline
     class="StaffLines"
     fill="none"
     stroke="#000000"
     stroke-width="2.73"
     stroke-linejoin="bevel"
     points="2021.37,973.958 2764.6,973.958"
     id="polyline10-2-8-3-0"
     transform="matrix(0.2098202,0,0,1,-424.12425,-873.39299)" />
  <path
     class="Rest"
     d="m 75.092694,46.53631 c 9.0365,0 12.71,-6.2465 13.0975,-6.944 l -3.6735,14.9885 c -2.17,5.1615 -5.952,11.7955 -11.7025,13.392 1.1005,-1.395 1.395,-2.976 1.395,-4.7585 0,-3.968 -3.1775,-6.5565 -7.0525,-6.5565 -3.8595,0 -7.037,2.976 -7.037,6.944 0,5.1615 4.371,7.6415 9.6255,7.6415 5.2545,0 9.424,-2.883 12.4,-7.037 l -9.0365,36.9055 2.6815,0.589 23.0175,-94.2399999 c 0.1085,-0.1085 0.1085,-0.31 0.1085,-0.403 0,-0.589 -0.403,-0.992 -0.992,-1.1935 -0.1085,-0.093 -0.31,-0.093 -0.403,-0.093 -0.589,0 -0.992,0.3875 -1.2865,0.8835 -1.891,4.1694999 -6.448,10.0284999 -11.222,11.2219999 1.1935,-1.488 1.5035,-2.976 1.5035,-4.774 0,-3.7664999 -3.0845,-6.6339999 -6.9595,-6.6339999 -3.8595,0 -7.13,2.976 -7.13,7.1299999 0,2.976 2.17,5.859 4.8515,6.758 1.2865,0.496 2.6815,0.682 4.2625,0.7905 0.403,0 0.806,0 1.302,-0.1085 4.8515,-0.2945 8.8195,-3.069 11.6095,-6.944 l -3.875,15.9805 c -1.984,4.96 -6.2465,11.904 -11.811,13.299 1.1935,-1.488 1.488,-2.976 1.488,-4.774 0,-3.968 -3.2705,-6.634 -7.1455,-6.634 -3.8595,0 -6.944,3.069 -6.944,7.037 0,4.6655 4.464,7.533 8.928,7.533"
     id="path148-3"
     style="stroke-width:0.992" />
</svg>
