<?xml version="1.0" encoding="UTF-8" standalone="no"?>
<svg
   width="31.50234mm"
   height="14.674572mm"
   viewBox="0 0 446.48987 207.98607"
   version="1.2"
   id="svg440"
   xmlns="http://www.w3.org/2000/svg"
   xmlns:svg="http://www.w3.org/2000/svg">
  <defs
     id="defs440" />
  <title
     id="title1">examples2</title>
  <desc
     id="desc1">Generated by MuseScore Studio 4.5.2</desc>
  <polyline
     class="StaffLines"
     fill="none"
     stroke="#000000"
     stroke-width="2.73"
     stroke-linejoin="bevel"
     points="2194.11,2122.2 2640.6,2122.2"
     id="polyline13"
     transform="translate(-2194.1101,-1994.6899)" />
  <path
     class="MeasureNumber"
     d="m 17.359869,1.3657344e-4 h -1.15 C 13.999869,1.6401366 9.7698684,3.0301366 6.8798684,3.0301366 l -0.47,1.76 h 2.75 c 2.4400006,0 2.7200006,0.08 2.7200006,0.8 0,0.36 0,0.36 -0.39,1.8 L 7.2098684,23.390137 c -0.53,2 -0.56,2.12 -0.92,2.48 -0.41,0.39 -1.25,0.52 -3.36,0.56 h -1.72 l -0.20999996,1.88 H 15.799869 l 0.24,-1.88 h -2.16 c -2.59,0 -3.16,-0.2 -3.16,-1.07 0,-0.29 0.16,-1.21 0.36,-1.97 l 6.28,-23.39000042656 M 36.719869,14.640137 c -1,4.64 -3.68,12.59 -9.4,12.59 -1.16,0 -1.91,-0.48 -1.91,-1.2 0,-0.28 0.08,-0.39 0.39,-0.88 0.41,-0.51 0.61,-1 0.61,-1.56 0,-1.31 -1.05,-2.31 -2.41,-2.31 -1.59,0 -2.71,1.18 -2.71,2.95 0,2.72 2.56,4.67 6.12,4.67 8.75,0 14.34,-11.19 14.34,-18.79 0,-6.2400004 -3,-9.96000043 -7.95,-9.96000043 -5.95,0 -10.39,5.49000003 -10.39,11.21000043 0,3.79 2.91,6.67 6.8,6.67 2.64,0 4.67,-1.08 6.51,-3.39 m -2.95,-12.8000004 c 2.55,0 4.19,2.03 4.19,5.23 0,4.9600004 -2.72,8.6000004 -6.39,8.6000004 -2.53,0 -3.92,-1.72 -3.92,-4.72 0,-3.5900004 1.71,-9.1100004 6.12,-9.1100004"
     id="path21" />
  <polyline
     class="BarLine"
     fill="none"
     stroke="#000000"
     stroke-width="4.46"
     stroke-linejoin="bevel"
     points="2638.37,2071.23 2638.37,2173.16"
     id="polyline65"
     transform="translate(-2194.1101,-1994.6899)" />
  <polyline
     class="Stem"
     fill="none"
     stroke="#000000"
     stroke-width="2.48"
     stroke-linejoin="bevel"
     points="2327.83,2118.23 2327.83,2060.2"
     id="polyline153"
     transform="translate(-2194.1101,-1994.6899)" />
  <polyline
     class="Stem"
     fill="none"
     stroke="#000000"
     stroke-width="2.48"
     stroke-linejoin="bevel"
     points="2459.36,2118.23 2459.36,2060.2"
     id="polyline154"
     transform="translate(-2194.1101,-1994.6899)" />
  <polyline
     class="Stem"
     fill="none"
     stroke="#000000"
     stroke-width="2.48"
     stroke-linejoin="bevel"
     points="2528.53,2118.23 2528.53,2060.2"
     id="polyline156"
     transform="translate(-2194.1101,-1994.6899)" />
  <polyline
     class="Stem"
     fill="none"
     stroke="#000000"
     stroke-width="2.48"
     stroke-linejoin="bevel"
     points="2597.7,2118.23 2597.7,2060.2"
     id="polyline158"
     transform="translate(-2194.1101,-1994.6899)" />
  <path
     class="Note"
     d="m 372.59987,131.67964 c 0,4.2625 3.069,9.02102 11.11347,9.02102 10.30758,0 21.12653,-8.43202 21.12653,-17.15852 0,-5.859 -4.96,-9.12948 -11.11348,-9.12948 -9.62547,0 -21.12652,8.13748 -21.12652,17.26698"
     id="path235"
     style="stroke-width:0.992" />
  <path
     class="Note"
     d="m 303.42987,131.67964 c 0,4.2625 3.069,9.02102 11.11347,9.02102 10.30758,0 21.12653,-8.43202 21.12653,-17.15852 0,-5.859 -4.96,-9.12948 -11.11348,-9.12948 -9.62547,0 -21.12652,8.13748 -21.12652,17.26698"
     id="path267"
     style="stroke-width:0.992" />
  <path
     class="Note"
     d="m 234.25987,131.67964 c 0,4.2625 3.069,9.02102 11.11347,9.02102 10.30758,0 21.12653,-8.43202 21.12653,-17.15852 0,-5.859 -4.96,-9.12948 -11.11348,-9.12948 -9.62547,0 -21.12652,8.13748 -21.12652,17.26698"
     id="path268"
     style="stroke-width:0.992" />
  <path
     class="Note"
     d="m 102.73987,131.67964 c 0,4.2625 3.069,9.02102 11.11347,9.02102 10.30758,0 21.12653,-8.43202 21.12653,-17.15852 0,-5.859 -4.96,-9.12948 -11.11348,-9.12948 -9.62547,0 -21.12652,8.13748 -21.12652,17.26698"
     id="path270"
     style="stroke-width:0.992" />
  <path
     class="TimeSig"
     d="m 38.955344,98.441632 c -6.060426,0 -8.230426,1.782508 -9.625475,3.270508 -0.294525,-2.077003 -0.496,-3.673508 -0.496,-5.254508 0,-1.596495 0.201475,-2.976 0.496,-4.758545 0.589049,-3.673475 3.069049,-8.246 8.432,-8.246 2.48,0 3.968,0.806 4.96,1.89105 -2.076951,0.89895 -3.766525,3.56495 -3.766525,5.85895 0,3.56505 2.774525,6.339545 6.355049,6.339545 3.564951,0 6.448,-2.774495 6.448,-6.339545 v -0.201475 c 0,0 0,0 0,-0.108525 0,-0.883475 -0.201475,-2.371475 -0.604524,-3.162 -1.286525,-3.580425 -5.456,-8.83495 -15.376,-8.83495 -8.928,0 -15.376,8.52495 -17.36,13.097475 -0.992,2.371525 -2.48,7.238525 -2.48,12.787528 0,6.0605 1.689505,12.89605 7.533,18.05752 5.766049,4.37095 9.424049,4.57253 12.896049,4.57253 3.487475,0 16.476426,-4.07653 16.476426,-15.57755 0,-9.7185 -7.641475,-13.392008 -13.888,-13.392008 m -3.673475,24.799978 c -3.270525,0 -5.952,-4.464 -5.952,-10.02842 0,-5.54905 2.681475,-10.10605 5.952,-10.10605 3.270524,0 6.060524,4.557 6.060524,10.10605 0,5.56442 -2.79,10.02842 -6.060524,10.02842"
     id="path352"
     style="stroke-width:0.992" />
  <path
     class="TimeSig"
     d="m 46.306918,150.27763 c 3.270426,-2.48 5.548951,-5.65749 5.548951,-9.62549 0,-7.14548 -7.827476,-12.98905 -17.452951,-12.98905 -9.625574,0 -17.468544,5.84357 -17.468544,12.98905 0,3.968 0.992,7.533 5.657495,10.509 -4.464,2.5885 -6.944,6.262 -6.944,11.02047 0,8.02905 8.432,14.47705 18.755049,14.47705 10.307475,0 18.739475,-6.448 18.739475,-14.47705 0,-4.75847 -1.674,-9.22247 -6.835475,-11.90398 m -11.904,20.83198 c -6.355049,0 -11.811049,-3.472 -11.811049,-9.03642 0,-6.63405 5.161475,-8.23055 5.161475,-8.23055 6.742525,2.2785 16.368,5.6575 16.368,11.1135 0,2.68147 -3.472,6.15347 -9.718426,6.15347 m 6.339475,-23.51347 c -6.742524,-2.18551 -14.182524,-5.456 -14.182524,-9.92 0,-3.87505 3.565049,-5.456 7.843049,-5.456 6.153475,0 10.307475,2.88295 10.307475,7.44 0,4.75849 -2.17,7.037 -3.968,7.936"
     id="path353"
     style="stroke-width:0.992" />
  <path
     class="Beam"
     fill-rule="evenodd"
     d="m 264.00987,59.310137 h 140.82 v 12.4 h -140.82 v -12.4"
     id="path419" />
  <path
     class="NoteDot"
     d="m 147.35987,115.11014 c 0,2.7745 2.1855,4.96 4.96,4.96 2.7745,0 4.96,-2.1855 4.96,-4.96 0,-2.77451 -2.1855,-4.96 -4.96,-4.96 -2.7745,0 -4.96,2.18549 -4.96,4.96"
     id="path438"
     style="stroke-width:0.992" />
  <path
     style="fill:#000000;fill-opacity:0;stroke:#000000;stroke-width:2.83465;stroke-linecap:square;stroke-opacity:1;paint-order:stroke fill markers"
     d="m 92.445669,174.41644 -0.6182,30.2896 h 92.723301 l 2.4726,-28.4351"
     id="path462" />
  <path
     style="fill:#000000;fill-opacity:0;stroke:#000000;stroke-width:2.83465;stroke-linecap:square;stroke-opacity:1;paint-order:stroke fill markers"
     d="m 222.87637,176.88904 3.709,29.6715 189.7736,-1.2363 7.4178,-31.526"
     id="path463" />
</svg>
