<?xml version="1.0" encoding="UTF-8" standalone="no"?>
<svg
   width="25.753128mm"
   height="14.633251mm"
   viewBox="0 0 365.00497 207.40042"
   version="1.2"
   id="svg190"
   sodipodi:docname="aa5-2.svg"
   xmlns:inkscape="http://www.inkscape.org/namespaces/inkscape"
   xmlns:sodipodi="http://sodipodi.sourceforge.net/DTD/sodipodi-0.dtd"
   xmlns="http://www.w3.org/2000/svg"
   xmlns:svg="http://www.w3.org/2000/svg">
  <defs
     id="defs190" />
  <sodipodi:namedview
     id="namedview190"
     pagecolor="#505050"
     bordercolor="#eeeeee"
     borderopacity="1"
     inkscape:showpageshadow="0"
     inkscape:pageopacity="0"
     inkscape:pagecheckerboard="0"
     inkscape:deskcolor="#505050"
     inkscape:document-units="mm">
    <inkscape:page
       x="0"
       y="-1.9751022e-12"
       width="365.00497"
       height="207.40042"
       id="page2"
       margin="0"
       bleed="0" />
  </sodipodi:namedview>
  <title
     id="title1">test1 (2)</title>
  <desc
     id="desc1">Generated by MuseScore Studio 4.5.2</desc>
  <polyline
     class="StaffLines"
     fill="none"
     stroke="#000000"
     stroke-width="3.21"
     stroke-linejoin="bevel"
     points="2399.6,824.009 2764.6,824.009"
     id="polyline6"
     transform="translate(-2399.6001,-781.78176)" />
  <polyline
     class="StaffLines"
     fill="none"
     stroke="#000000"
     stroke-width="3.21"
     stroke-linejoin="bevel"
     points="2399.6,853.169 2764.6,853.169"
     id="polyline7"
     transform="translate(-2399.6001,-781.78176)" />
  <polyline
     class="StaffLines"
     fill="none"
     stroke="#000000"
     stroke-width="3.21"
     stroke-linejoin="bevel"
     points="2399.6,882.329 2764.6,882.329"
     id="polyline8"
     transform="translate(-2399.6001,-781.78176)" />
  <polyline
     class="StaffLines"
     fill="none"
     stroke="#000000"
     stroke-width="3.21"
     stroke-linejoin="bevel"
     points="2399.6,911.489 2764.6,911.489"
     id="polyline9"
     transform="translate(-2399.6001,-781.78176)" />
  <polyline
     class="StaffLines"
     fill="none"
     stroke="#000000"
     stroke-width="3.21"
     stroke-linejoin="bevel"
     points="2399.6,940.649 2764.6,940.649"
     id="polyline10"
     transform="translate(-2399.6001,-781.78176)" />
  <polyline
     class="BarLine"
     fill="none"
     stroke="#000000"
     stroke-width="5.25"
     stroke-linejoin="bevel"
     points="2761.98,822.405 2761.98,942.253"
     id="polyline85"
     transform="translate(-2399.6001,-781.78176)" />
  <path
     class="Accidental"
     d="m 159.59495,64.625733 c -0.2187,-0.236896 -0.5832,-0.346305 -0.92951,-0.346305 -0.10941,0 -0.3463,0.109409 -0.45559,0.109409 l -14.70763,4.0824 v -20.412 h -3.26228 v 57.736803 c 0,0.9295 0.69255,1.5127 1.64025,1.5127 0.10935,0 0.34628,0 0.45563,0 l 14.70763,-4.0824 v 20.412 h 3.1347 c 0,-19.35501 0,-37.780453 0,-57.736799 0,-0.455713 -0.2187,-1.038913 -0.5832,-1.275808 M 143.50222,97.284968 V 78.148706 l 13.54123,-3.845469 v 19.2456 l -13.54123,3.736131"
     id="path124"
     style="stroke-width:1.1664" />
  <path
     class="Note"
     d="m 189.28523,157.59143 c -16.09264,0 -21.81529,8.16486 -21.81529,15.74646 0,7.5816 5.72265,15.74645 21.81529,15.74645 16.09271,0 21.68781,-8.16485 21.68781,-15.74645 0,-7.5816 -5.5951,-15.74646 -21.68781,-15.74646 m 5.94141,27.04596 c -1.40329,0.47385 -3.2623,0.71074 -5.0119,0.71074 -3.26231,0 -5.4857,-0.92944 -6.9984,-3.84544 -1.51271,-2.916 -3.60849,-10.38825 -3.7361,-13.54119 -0.23689,-3.15291 0.92951,-5.01186 3.7361,-5.94135 1.40329,-0.47381 3.2623,-0.71082 5.0119,-0.71082 3.26231,0 5.37641,0.71082 6.9984,3.86376 1.64019,3.1347 3.7361,10.60695 3.7361,13.52295 0,3.02535 -0.92951,5.13945 -3.7361,5.94135"
     id="path131"
     style="stroke-width:1.1664" />
  <path
     class="Note"
     d="m 189.28523,70.111428 c -16.09264,0 -21.81529,8.164859 -21.81529,15.746459 0,7.5816 5.72265,15.746453 21.81529,15.746453 16.09271,0 21.68781,-8.164853 21.68781,-15.746453 0,-7.5816 -5.5951,-15.746459 -21.68781,-15.746459 m 5.94141,27.045959 c -1.40329,0.47385 -3.2623,0.710746 -5.0119,0.710746 -3.26231,0 -5.4857,-0.929446 -6.9984,-3.845446 -1.51271,-2.916 -3.60849,-10.38825 -3.7361,-13.541181 -0.23689,-3.152919 0.92951,-5.011869 3.7361,-5.94135 1.40329,-0.473815 3.2623,-0.710828 5.0119,-0.710828 3.26231,0 5.37641,0.710828 6.9984,3.863759 1.64019,3.1347 3.7361,10.60695 3.7361,13.52295 0,3.02535 -0.92951,5.13945 -3.7361,5.94135"
     id="path132"
     style="stroke-width:1.1664" />
  <path
     class="Clef"
     d="m 87.425234,132.14939 c 0,8.29238 -3.389792,16.80345 -11.664,20.19335 -2.442092,-13.99685 -5.594988,-32.5499 -6.4152,-37.68941 10.4976,0 18.0792,7.12602 18.0792,17.49606 m -16.566496,21.57845 c -2.3328,0.4738 -4.537996,0.71069 -6.761504,0.71069 -16.675788,0 -30.909565,-11.664 -30.909565,-29.28754 0,-14.21556 10.023773,-26.936553 20.302673,-35.812157 1.9683,-1.7496 3.845504,-3.371596 5.595104,-5.121196 1.038796,6.287596 1.858892,11.773291 2.678988,16.566493 -10.625088,3.1529 -17.842188,14.34311 -17.842188,25.31456 0,8.1648 6.4152,19.35495 15.7464,19.35495 0.929388,0 1.986496,-0.4738 1.986496,-1.51271 0,-1.05699 -1.1664,-1.64019 -2.569696,-2.56969 -4.556308,-2.80665 -7.126004,-5.832 -7.126004,-11.55465 0,-7.10775 5.2488,-12.83046 12.137792,-14.45246 l 6.761504,38.36371 M 60.598034,33.825541 c 1.057108,-4.6656 6.4152,-16.9128 12.484212,-16.9128 1.7496,0 4.537996,5.704396 4.537996,13.759787 0,12.137909 -8.9667,21.232213 -17.022208,29.16 -0.692492,-4.6656 -1.275692,-9.203595 -1.275692,-14.106091 0,-4.319296 0.346304,-8.292404 1.275692,-11.900896 m -24.4944,155.714399 c 0,7.7092 5.941408,17.8605 21.687808,17.8605 5.485696,0 10.2789,-1.4033 14.470592,-3.97311 6.305908,-4.42859 7.927904,-12.13779 7.927904,-19.48249 0,-4.538 -0.692492,-9.7868 -1.858892,-16.4389 -0.346304,-2.3328 -1.057108,-5.832 -1.7496,-10.3883 11.426988,-3.7361 19.938092,-15.637 19.938092,-27.64733 0,-17.60538 -12.484096,-29.506273 -29.506304,-29.506273 -1.1664,-6.9984 -2.3328,-13.887509 -3.389792,-20.412 12.374804,-12.958004 20.885792,-27.538004 20.885792,-46.0728 0,-10.625204 -3.262188,-19.2456 -5.139392,-23.455138 C 76.581446,4.0824575 73.191538,5.7434511e-5 71.095634,5.7434511e-5 70.275538,5.7434511e-5 66.667046,1.4032367 62.821542,5.9416991 55.349234,14.816837 53.253446,29.743141 53.253446,39.529937 c 0,6.305791 0.5832,12.0285 2.569696,25.095796 -0.127604,0.109408 -6.1965,6.287595 -8.638708,8.274208 -10.625088,9.9144 -25.314496,24.020492 -25.314496,47.366749 0,21.79715 19.008704,38.94685 40.714708,38.94685 3.371596,0 6.524492,-0.3463 9.203596,-0.8201 2.223392,11.20829 3.4992,19.37309 3.4992,25.5514 0,12.1379 -6.178304,18.5531 -17.951596,18.5531 -2.806708,0 -5.2488,-0.5832 -5.485812,-0.5832 -0.109292,-0.1276 -0.346188,-0.23701 -0.346188,-0.3463 0,-0.2369 0.236896,-0.3645 0.5832,-0.47391 5.485696,-0.82009 10.953196,-5.48569 10.953196,-12.93969 0,-6.30591 -4.775008,-12.958 -13.523008,-12.958 -8.1648,0 -13.4136,6.65209 -13.4136,14.3431"
     id="path146"
     style="stroke-width:1.1664" />
</svg>
