<?xml version="1.0" encoding="UTF-8" standalone="no"?>
<svg
   width="25.753128mm"
   height="14.633249mm"
   viewBox="0 0 365.00497 207.40039"
   version="1.2"
   id="svg190"
   sodipodi:docname="aa5-2.svg"
   xmlns:inkscape="http://www.inkscape.org/namespaces/inkscape"
   xmlns:sodipodi="http://sodipodi.sourceforge.net/DTD/sodipodi-0.dtd"
   xmlns="http://www.w3.org/2000/svg"
   xmlns:svg="http://www.w3.org/2000/svg">
  <defs
     id="defs190" />
  <sodipodi:namedview
     id="namedview190"
     pagecolor="#505050"
     bordercolor="#eeeeee"
     borderopacity="1"
     inkscape:showpageshadow="0"
     inkscape:pageopacity="0"
     inkscape:pagecheckerboard="0"
     inkscape:deskcolor="#505050"
     inkscape:document-units="mm">
    <inkscape:page
       x="0"
       y="0"
       width="365.00497"
       height="207.40039"
       id="page2"
       margin="0"
       bleed="0" />
  </sodipodi:namedview>
  <title
     id="title1">test1 (2)</title>
  <desc
     id="desc1">Generated by MuseScore Studio 4.5.2</desc>
  <polyline
     class="StaffLines"
     fill="none"
     stroke="#000000"
     stroke-width="3.21"
     stroke-linejoin="bevel"
     points="2399.6,416.718 2764.6,416.718"
     id="polyline1"
     transform="translate(-2399.6001,-374.49085)" />
  <polyline
     class="StaffLines"
     fill="none"
     stroke="#000000"
     stroke-width="3.21"
     stroke-linejoin="bevel"
     points="2399.6,445.878 2764.6,445.878"
     id="polyline2"
     transform="translate(-2399.6001,-374.49085)" />
  <polyline
     class="StaffLines"
     fill="none"
     stroke="#000000"
     stroke-width="3.21"
     stroke-linejoin="bevel"
     points="2399.6,475.038 2764.6,475.038"
     id="polyline3"
     transform="translate(-2399.6001,-374.49085)" />
  <polyline
     class="StaffLines"
     fill="none"
     stroke="#000000"
     stroke-width="3.21"
     stroke-linejoin="bevel"
     points="2399.6,504.198 2764.6,504.198"
     id="polyline4"
     transform="translate(-2399.6001,-374.49085)" />
  <polyline
     class="StaffLines"
     fill="none"
     stroke="#000000"
     stroke-width="3.21"
     stroke-linejoin="bevel"
     points="2399.6,533.358 2764.6,533.358"
     id="polyline5"
     transform="translate(-2399.6001,-374.49085)" />
  <polyline
     class="BarLine"
     fill="none"
     stroke="#000000"
     stroke-width="5.25"
     stroke-linejoin="bevel"
     points="2761.98,415.115 2761.98,534.962"
     id="polyline77"
     transform="translate(-2399.6001,-374.49085)" />
  <path
     class="Accidental"
     d="m 167.41344,73.719952 c 0.71081,-0.109408 1.29401,-0.929504 1.29401,-1.640308 v -6.870796 c 0,-0.929504 -0.71081,-1.640192 -1.64031,-1.640192 -0.10929,0 -0.10929,0 -0.2369,0 l -3.8455,0.820096 V 47.002044 h -3.26231 v 18.0792 l -10.38821,2.1141 V 50.738256 h -3.26228 v 17.149696 l -4.55625,0.929504 c -0.69255,0.127488 -1.27575,0.929388 -1.27575,1.640192 v 0.236896 6.761527 -0.236919 c 0,0.929469 0.69255,1.64025 1.64025,1.64025 0.10935,0 0.2187,0 0.34628,0 l 3.84547,-0.820131 v 19.245612 l -4.55625,0.929469 c -0.69255,0.109408 -1.27575,0.929504 -1.27575,1.640308 v 6.76139 c 0,0.9295 0.69255,1.62211 1.64025,1.62211 0.10935,0 0.2187,0 0.34628,0 l 3.84547,-0.8019 v 17.3684 h 3.26228 v -18.0792 l 10.38821,-2.09591 v 16.45721 h 3.26231 v -17.1497 l 4.4287,-0.82021 c 0.71081,-0.12749 1.29401,-0.92939 1.29401,-1.64019 v -6.870858 c 0,-0.9477 -0.71081,-1.64025 -1.64031,-1.64025 -0.10929,0 -0.10929,0 -0.2369,0 l -3.8455,0.820131 V 74.540071 l 4.4287,-0.820119 m -18.07922,3.60855 10.38821,-2.095881 v 19.245612 l -10.38821,2.22345 V 77.328502"
     id="path120"
     style="stroke-width:1.1664" />
  <path
     class="Note"
     d="m 197.79523,157.59134 c -16.09264,0 -21.81529,8.16486 -21.81529,15.74646 0,7.5816 5.72265,15.74646 21.81529,15.74646 16.09271,0 21.68781,-8.16486 21.68781,-15.74646 0,-7.5816 -5.5951,-15.74646 -21.68781,-15.74646 m 5.94141,27.04596 c -1.40329,0.47385 -3.2623,0.71075 -5.0119,0.71075 -3.26231,0 -5.4857,-0.92945 -6.9984,-3.84545 -1.51271,-2.916 -3.60849,-10.38825 -3.7361,-13.54118 -0.23689,-3.15292 0.92951,-5.01187 3.7361,-5.94135 1.40329,-0.47381 3.2623,-0.71083 5.0119,-0.71083 3.26231,0 5.37641,0.71083 6.9984,3.86376 1.64019,3.1347 3.7361,10.60695 3.7361,13.52295 0,3.02535 -0.92951,5.13945 -3.7361,5.94135"
     id="path127"
     style="stroke-width:1.1664" />
  <path
     class="Note"
     d="m 197.79523,70.111344 c -16.09264,0 -21.81529,8.164858 -21.81529,15.746458 0,7.5816 5.72265,15.746458 21.81529,15.746458 16.09271,0 21.68781,-8.164858 21.68781,-15.746458 0,-7.5816 -5.5951,-15.746458 -21.68781,-15.746458 m 5.94141,27.045958 c -1.40329,0.47385 -3.2623,0.710746 -5.0119,0.710746 -3.26231,0 -5.4857,-0.929446 -6.9984,-3.845446 -1.51271,-2.916 -3.60849,-10.38825 -3.7361,-13.541181 -0.23689,-3.152919 0.92951,-5.011869 3.7361,-5.94135 1.40329,-0.473815 3.2623,-0.710827 5.0119,-0.710827 3.26231,0 5.37641,0.710827 6.9984,3.863758 1.64019,3.1347 3.7361,10.60695 3.7361,13.52295 0,3.02535 -0.92951,5.13945 -3.7361,5.94135"
     id="path128"
     style="stroke-width:1.1664" />
  <path
     class="Clef"
     d="m 87.425234,132.1493 c 0,8.29238 -3.389792,16.80345 -11.664,20.19336 -2.442092,-13.99686 -5.594988,-32.54991 -6.4152,-37.68942 10.4976,0 18.0792,7.12603 18.0792,17.49606 m -16.566496,21.57846 c -2.3328,0.47379 -4.537996,0.71069 -6.761504,0.71069 -16.675788,0 -30.909565,-11.664 -30.909565,-29.28755 0,-14.21556 10.023773,-26.936548 20.302673,-35.812152 1.9683,-1.7496 3.845504,-3.371596 5.595104,-5.121196 1.038796,6.287596 1.858892,11.773292 2.678988,16.566498 -10.625088,3.15289 -17.842188,14.3431 -17.842188,25.31455 0,8.1648 6.4152,19.35495 15.7464,19.35495 0.929388,0 1.986496,-0.47379 1.986496,-1.5127 0,-1.05699 -1.1664,-1.64019 -2.569696,-2.5697 -4.556308,-2.80665 -7.126004,-5.832 -7.126004,-11.55465 0,-7.10775 5.2488,-12.83046 12.137792,-14.45245 l 6.761504,38.36371 M 60.598034,33.825456 c 1.057108,-4.6656 6.4152,-16.9128 12.484212,-16.9128 1.7496,0 4.537996,5.704396 4.537996,13.759788 0,12.137908 -8.9667,21.232212 -17.022208,29.16 -0.692492,-4.6656 -1.275692,-9.203596 -1.275692,-14.106092 0,-4.319296 0.346304,-8.292404 1.275692,-11.900896 m -24.4944,155.714404 c 0,7.7092 5.941408,17.8605 21.687808,17.8605 5.485696,0 10.2789,-1.4033 14.470592,-3.97311 6.305908,-4.42859 7.927904,-12.13779 7.927904,-19.4825 0,-4.53799 -0.692492,-9.78679 -1.858892,-16.43889 -0.346304,-2.3328 -1.057108,-5.832 -1.7496,-10.38831 11.426988,-3.73609 19.938092,-15.63699 19.938092,-27.64732 0,-17.60538 -12.484096,-29.506278 -29.506304,-29.506278 -1.1664,-6.9984 -2.3328,-13.887508 -3.389792,-20.412 12.374804,-12.958004 20.885792,-27.538004 20.885792,-46.0728 0,-10.625204 -3.262188,-19.2456 -5.139392,-23.455138 C 76.581446,4.0823728 73.191538,-2.7271118e-5 71.095634,-2.7271118e-5 70.275538,-2.7271118e-5 66.667046,1.403152 62.821542,5.9416144 55.349234,14.816752 53.253446,29.743056 53.253446,39.529852 c 0,6.305792 0.5832,12.0285 2.569696,25.095796 -0.127604,0.109408 -6.1965,6.287596 -8.638708,8.274208 -10.625088,9.9144 -25.314496,24.020492 -25.314496,47.366744 0,21.79716 19.008704,38.94686 40.714708,38.94686 3.371596,0 6.524492,-0.34631 9.203596,-0.8201 2.223392,11.20829 3.4992,19.37309 3.4992,25.55139 0,12.13791 -6.178304,18.55311 -17.951596,18.55311 -2.806708,0 -5.2488,-0.5832 -5.485812,-0.5832 -0.109292,-0.1276 -0.346188,-0.23701 -0.346188,-0.3463 0,-0.2369 0.236896,-0.3645 0.5832,-0.47391 5.485696,-0.8201 10.953196,-5.4857 10.953196,-12.93969 0,-6.30591 -4.775008,-12.95801 -13.523008,-12.95801 -8.1648,0 -13.4136,6.6521 -13.4136,14.34311"
     id="path148"
     style="stroke-width:1.1664" />
</svg>
