<?xml version="1.0" encoding="UTF-8" standalone="no"?>
<svg
   width="25.753128mm"
   height="14.977864mm"
   viewBox="0 0 365.00497 212.28469"
   version="1.2"
   id="svg190"
   sodipodi:docname="aa5-2.svg"
   xmlns:inkscape="http://www.inkscape.org/namespaces/inkscape"
   xmlns:sodipodi="http://sodipodi.sourceforge.net/DTD/sodipodi-0.dtd"
   xmlns="http://www.w3.org/2000/svg"
   xmlns:svg="http://www.w3.org/2000/svg">
  <defs
     id="defs190" />
  <sodipodi:namedview
     id="namedview190"
     pagecolor="#505050"
     bordercolor="#eeeeee"
     borderopacity="1"
     inkscape:showpageshadow="0"
     inkscape:pageopacity="0"
     inkscape:pagecheckerboard="0"
     inkscape:deskcolor="#505050"
     inkscape:document-units="mm">
    <inkscape:page
       x="0"
       y="-1.4990551e-12"
       width="365.00497"
       height="212.2847"
       id="page2"
       margin="0"
       bleed="0" />
  </sodipodi:namedview>
  <title
     id="title1">test1 (2)</title>
  <desc
     id="desc1">Generated by MuseScore Studio 4.5.2</desc>
  <polyline
     class="StaffLines"
     fill="none"
     stroke="#000000"
     stroke-width="3.21"
     stroke-linejoin="bevel"
     points="2399.6,1231.3 2764.6,1231.3"
     id="polyline11"
     transform="translate(-2399.6001,-1189.0728)" />
  <polyline
     class="StaffLines"
     fill="none"
     stroke="#000000"
     stroke-width="3.21"
     stroke-linejoin="bevel"
     points="2399.6,1260.46 2764.6,1260.46"
     id="polyline12"
     transform="translate(-2399.6001,-1189.0728)" />
  <polyline
     class="StaffLines"
     fill="none"
     stroke="#000000"
     stroke-width="3.21"
     stroke-linejoin="bevel"
     points="2399.6,1289.62 2764.6,1289.62"
     id="polyline13"
     transform="translate(-2399.6001,-1189.0728)" />
  <polyline
     class="StaffLines"
     fill="none"
     stroke="#000000"
     stroke-width="3.21"
     stroke-linejoin="bevel"
     points="2399.6,1318.78 2764.6,1318.78"
     id="polyline14"
     transform="translate(-2399.6001,-1189.0728)" />
  <polyline
     class="StaffLines"
     fill="none"
     stroke="#000000"
     stroke-width="3.21"
     stroke-linejoin="bevel"
     points="2399.6,1347.94 2764.6,1347.94"
     id="polyline15"
     transform="translate(-2399.6001,-1189.0728)" />
  <polyline
     class="BarLine"
     fill="none"
     stroke="#000000"
     stroke-width="5.25"
     stroke-linejoin="bevel"
     points="2761.98,1229.7 2761.98,1349.54"
     id="polyline94"
     transform="translate(-2399.6001,-1189.0728)" />
  <path
     class="Accidental"
     d="m 168.10495,64.625756 c -0.2187,-0.236896 -0.5832,-0.346304 -0.92951,-0.346304 -0.10941,0 -0.3463,0.109408 -0.45559,0.109408 l -14.70763,4.0824 v -20.412 h -3.26228 v 57.7368 c 0,0.9295 0.69255,1.5127 1.64025,1.5127 0.10935,0 0.34628,0 0.45563,0 l 14.70763,-4.0824 v 20.412 h 3.1347 c 0,-19.35501 0,-37.78045 0,-57.736795 0,-0.455713 -0.2187,-1.038913 -0.5832,-1.275809 M 152.01222,97.284991 V 78.14873 l 13.54123,-3.84547 v 19.2456 l -13.54123,3.736131"
     id="path117"
     style="stroke-width:1.1664" />
  <path
     class="Accidental"
     d="m 167.41344,161.20006 c 0.71081,-0.10941 1.29401,-0.92951 1.29401,-1.64031 v -6.8708 c 0,-0.9295 -0.71081,-1.64019 -1.64031,-1.64019 -0.10929,0 -0.10929,0 -0.2369,0 l -3.8455,0.8201 v -17.38671 h -3.26231 v 18.0792 l -10.38821,2.1141 v -16.45709 h -3.26228 v 17.1497 l -4.55625,0.9295 c -0.69255,0.12749 -1.27575,0.92939 -1.27575,1.64019 v 0.2369 6.76153 -0.23692 c 0,0.92947 0.69255,1.64025 1.64025,1.64025 0.10935,0 0.2187,0 0.34628,0 l 3.84547,-0.82013 v 19.24561 l -4.55625,0.92947 c -0.69255,0.10941 -1.27575,0.9295 -1.27575,1.64031 v 6.76138 c 0,0.92951 0.69255,1.62212 1.64025,1.62212 0.10935,0 0.2187,0 0.34628,0 l 3.84547,-0.8019 v 17.36839 h 3.26228 v -18.0792 l 10.38821,-2.0959 v 16.4572 h 3.26231 v -17.14969 l 4.4287,-0.82022 c 0.71081,-0.12748 1.29401,-0.92938 1.29401,-1.64019 v -6.87085 c 0,-0.9477 -0.71081,-1.64025 -1.64031,-1.64025 -0.10929,0 -0.10929,0 -0.2369,0 l -3.8455,0.82013 v -19.24561 l 4.4287,-0.82012 m -18.07922,3.60855 10.38821,-2.09588 v 19.24561 l -10.38821,2.22345 v -19.37318"
     id="path119"
     style="stroke-width:1.1664" />
  <path
     class="Note"
     d="m 197.79523,157.59145 c -16.09264,0 -21.81529,8.16486 -21.81529,15.74646 0,7.5816 5.72265,15.74646 21.81529,15.74646 16.09271,0 21.68781,-8.16486 21.68781,-15.74646 0,-7.5816 -5.5951,-15.74646 -21.68781,-15.74646 m 5.94141,27.04596 c -1.40329,0.47385 -3.2623,0.71074 -5.0119,0.71074 -3.26231,0 -5.4857,-0.92944 -6.9984,-3.84544 -1.51271,-2.916 -3.60849,-10.38825 -3.7361,-13.54118 -0.23689,-3.15292 0.92951,-5.01187 3.7361,-5.94135 1.40329,-0.47382 3.2623,-0.71083 5.0119,-0.71083 3.26231,0 5.37641,0.71083 6.9984,3.86376 1.64019,3.1347 3.7361,10.60695 3.7361,13.52295 0,3.02535 -0.92951,5.13945 -3.7361,5.94135"
     id="path135"
     style="stroke-width:1.1664" />
  <path
     class="Note"
     d="m 197.79523,70.111452 c -16.09264,0 -21.81529,8.164858 -21.81529,15.746458 0,7.5816 5.72265,15.74646 21.81529,15.74646 16.09271,0 21.68781,-8.16486 21.68781,-15.74646 0,-7.5816 -5.5951,-15.746458 -21.68781,-15.746458 m 5.94141,27.045958 c -1.40329,0.47385 -3.2623,0.710746 -5.0119,0.710746 -3.26231,0 -5.4857,-0.929446 -6.9984,-3.845446 -1.51271,-2.916 -3.60849,-10.38825 -3.7361,-13.54118 -0.23689,-3.15292 0.92951,-5.01187 3.7361,-5.94135 1.40329,-0.473815 3.2623,-0.710828 5.0119,-0.710828 3.26231,0 5.37641,0.710828 6.9984,3.863758 1.64019,3.1347 3.7361,10.60695 3.7361,13.52295 0,3.02535 -0.92951,5.13945 -3.7361,5.94135"
     id="path139"
     style="stroke-width:1.1664" />
  <path
     class="Clef"
     d="m 87.425234,132.14941 c 0,8.29238 -3.389792,16.80345 -11.664,20.19336 -2.442092,-13.99686 -5.594988,-32.54991 -6.4152,-37.68942 10.4976,0 18.0792,7.12603 18.0792,17.49606 m -16.566496,21.57846 c -2.3328,0.47379 -4.537996,0.71068 -6.761504,0.71068 -16.675788,0 -30.909565,-11.664 -30.909565,-29.28754 0,-14.21556 10.023773,-26.93655 20.302673,-35.812154 1.9683,-1.7496 3.845504,-3.371596 5.595104,-5.121196 1.038796,6.287596 1.858892,11.773292 2.678988,16.56649 -10.625088,3.1529 -17.842188,14.34311 -17.842188,25.31456 0,8.1648 6.4152,19.35495 15.7464,19.35495 0.929388,0 1.986496,-0.47379 1.986496,-1.51271 0,-1.05699 -1.1664,-1.64019 -2.569696,-2.56969 -4.556308,-2.80665 -7.126004,-5.832 -7.126004,-11.55465 0,-7.10775 5.2488,-12.83046 12.137792,-14.45246 l 6.761504,38.36372 M 60.598034,33.825565 c 1.057108,-4.6656 6.4152,-16.9128 12.484212,-16.9128 1.7496,0 4.537996,5.704395 4.537996,13.759787 0,12.137908 -8.9667,21.232213 -17.022208,29.16 -0.692492,-4.6656 -1.275692,-9.203596 -1.275692,-14.106092 0,-4.319295 0.346304,-8.292404 1.275692,-11.900895 m -24.4944,155.714395 c 0,7.70921 5.941408,17.8605 21.687808,17.8605 5.485696,0 10.2789,-1.40329 14.470592,-3.97311 6.305908,-4.42858 7.927904,-12.13779 7.927904,-19.48249 0,-4.538 -0.692492,-9.7868 -1.858892,-16.43889 -0.346304,-2.3328 -1.057108,-5.832 -1.7496,-10.38831 11.426988,-3.7361 19.938092,-15.63699 19.938092,-27.64733 0,-17.60538 -12.484096,-29.50627 -29.506304,-29.50627 -1.1664,-6.9984 -2.3328,-13.887508 -3.389792,-20.412 12.374804,-12.958004 20.885792,-27.538004 20.885792,-46.0728 0,-10.625204 -3.262188,-19.2456 -5.139392,-23.455137 C 76.581446,4.0824815 73.191538,8.1515059e-5 71.095634,8.1515059e-5 70.275538,8.1515059e-5 66.667046,1.4032607 62.821542,5.9417231 55.349234,14.81686 53.253446,29.743165 53.253446,39.52996 c 0,6.305792 0.5832,12.0285 2.569696,25.095796 -0.127604,0.109409 -6.1965,6.287596 -8.638708,8.274209 -10.625088,9.9144 -25.314496,24.020491 -25.314496,47.366745 0,21.79716 19.008704,38.94685 40.714708,38.94685 3.371596,0 6.524492,-0.3463 9.203596,-0.82009 2.223392,11.20828 3.4992,19.37308 3.4992,25.55139 0,12.13791 -6.178304,18.55311 -17.951596,18.55311 -2.806708,0 -5.2488,-0.5832 -5.485812,-0.5832 -0.109292,-0.12761 -0.346188,-0.23702 -0.346188,-0.34631 0,-0.23689 0.236896,-0.3645 0.5832,-0.47391 5.485696,-0.82009 10.953196,-5.48569 10.953196,-12.93969 0,-6.30591 -4.775008,-12.958 -13.523008,-12.958 -8.1648,0 -13.4136,6.65209 -13.4136,14.3431"
     id="path147"
     style="stroke-width:1.1664" />
</svg>
