<?xml version="1.0" encoding="UTF-8" standalone="no"?>
<svg
   width="121.46456mm"
   height="14.633247mm"
   viewBox="0 0 1721.545 207.40036"
   version="1.2"
   id="svg69"
   xmlns="http://www.w3.org/2000/svg"
   xmlns:svg="http://www.w3.org/2000/svg">
  <defs
     id="defs69" />
  <title
     id="title1">test1 (1)</title>
  <desc
     id="desc1">Generated by MuseScore Studio 4.5.2</desc>
  <polyline
     class="StaffLines"
     fill="none"
     stroke="#000000"
     stroke-width="3.21"
     stroke-linejoin="bevel"
     points="1043.06,2648.72 2764.6,2648.72"
     id="polyline11"
     transform="translate(-1043.0601,-2606.4929)" />
  <polyline
     class="StaffLines"
     fill="none"
     stroke="#000000"
     stroke-width="3.21"
     stroke-linejoin="bevel"
     points="1043.06,2677.88 2764.6,2677.88"
     id="polyline12"
     transform="translate(-1043.0601,-2606.4929)" />
  <polyline
     class="StaffLines"
     fill="none"
     stroke="#000000"
     stroke-width="3.21"
     stroke-linejoin="bevel"
     points="1043.06,2707.04 2764.6,2707.04"
     id="polyline13"
     transform="translate(-1043.0601,-2606.4929)" />
  <polyline
     class="StaffLines"
     fill="none"
     stroke="#000000"
     stroke-width="3.21"
     stroke-linejoin="bevel"
     points="1043.06,2736.2 2764.6,2736.2"
     id="polyline14"
     transform="translate(-1043.0601,-2606.4929)" />
  <polyline
     class="StaffLines"
     fill="none"
     stroke="#000000"
     stroke-width="3.21"
     stroke-linejoin="bevel"
     points="1043.06,2765.36 2764.6,2765.36"
     id="polyline15"
     transform="translate(-1043.0601,-2606.4929)" />
  <polyline
     class="BarLine"
     fill="none"
     stroke="#000000"
     stroke-width="5.25"
     stroke-linejoin="bevel"
     points="2745.94,2647.12 2745.94,2766.96"
     id="polyline27"
     transform="translate(-1043.0601,-2606.4929)" />
  <polyline
     class="BarLine"
     fill="none"
     stroke="#000000"
     stroke-width="5.25"
     stroke-linejoin="bevel"
     points="2761.98,2647.12 2761.98,2766.96"
     id="polyline28"
     transform="translate(-1043.0601,-2606.4929)" />
  <path
     class="Note"
     d="m 273.72527,157.59124 c -16.09264,0 -21.81529,8.16485 -21.81529,15.74645 0,7.5816 5.72265,15.74646 21.81529,15.74646 16.09271,0 21.68781,-8.16486 21.68781,-15.74646 0,-7.5816 -5.5951,-15.74645 -21.68781,-15.74645 m 5.94141,27.04595 c -1.40329,0.47385 -3.2623,0.71075 -5.0119,0.71075 -3.26231,0 -5.4857,-0.92945 -6.9984,-3.84545 -1.51271,-2.916 -3.60849,-10.38825 -3.7361,-13.54118 -0.23689,-3.15292 0.92951,-5.01187 3.7361,-5.94135 1.40329,-0.47381 3.2623,-0.71082 5.0119,-0.71082 3.26231,0 5.37641,0.71082 6.9984,3.86375 1.64019,3.1347 3.7361,10.60695 3.7361,13.52295 0,3.02535 -0.92951,5.13945 -3.7361,5.94135"
     id="path40"
     style="stroke-width:1.1664" />
  <path
     class="Note"
     d="m 454.41527,143.01124 c -16.09264,0 -21.81529,8.16485 -21.81529,15.74645 0,7.5816 5.72265,15.74646 21.81529,15.74646 16.09271,0 21.68781,-8.16486 21.68781,-15.74646 0,-7.5816 -5.5951,-15.74645 -21.68781,-15.74645 m 5.94141,27.04595 c -1.40329,0.47385 -3.2623,0.71075 -5.0119,0.71075 -3.26231,0 -5.4857,-0.92945 -6.9984,-3.84545 -1.51271,-2.916 -3.60849,-10.38825 -3.7361,-13.54118 -0.23689,-3.15292 0.92951,-5.01187 3.7361,-5.94135 1.40329,-0.47381 3.2623,-0.71082 5.0119,-0.71082 3.26231,0 5.37641,0.71082 6.9984,3.86375 1.64019,3.1347 3.7361,10.60695 3.7361,13.52295 0,3.02535 -0.92951,5.13945 -3.7361,5.94135"
     id="path41"
     style="stroke-width:1.1664" />
  <path
     class="Note"
     d="m 635.10527,128.43124 c -16.09264,0 -21.81529,8.16485 -21.81529,15.74645 0,7.5816 5.72265,15.74646 21.81529,15.74646 16.09271,0 21.68781,-8.16486 21.68781,-15.74646 0,-7.5816 -5.5951,-15.74645 -21.68781,-15.74645 m 5.94141,27.04595 c -1.40329,0.47385 -3.2623,0.71075 -5.0119,0.71075 -3.26231,0 -5.4857,-0.92945 -6.9984,-3.84545 -1.51271,-2.916 -3.60849,-10.38825 -3.7361,-13.54118 -0.23689,-3.15292 0.92951,-5.01187 3.7361,-5.94135 1.40329,-0.47381 3.2623,-0.71082 5.0119,-0.71082 3.26231,0 5.37641,0.71082 6.9984,3.86375 1.64019,3.1347 3.7361,10.60695 3.7361,13.52295 0,3.02535 -0.92951,5.13945 -3.7361,5.94135"
     id="path42"
     style="stroke-width:1.1664" />
  <path
     class="Note"
     d="m 815.79527,113.85124 c -16.09264,0 -21.81529,8.16485 -21.81529,15.74645 0,7.5816 5.72265,15.74646 21.81529,15.74646 16.09271,0 21.68781,-8.16486 21.68781,-15.74646 0,-7.5816 -5.5951,-15.74645 -21.68781,-15.74645 m 5.94141,27.04595 c -1.40329,0.47385 -3.2623,0.71075 -5.0119,0.71075 -3.26231,0 -5.4857,-0.92945 -6.9984,-3.84545 -1.51271,-2.916 -3.60849,-10.38825 -3.7361,-13.54118 -0.23689,-3.15292 0.92951,-5.01187 3.7361,-5.94135 1.40329,-0.47381 3.2623,-0.71082 5.0119,-0.71082 3.26231,0 5.37641,0.71082 6.9984,3.86375 1.64019,3.1347 3.7361,10.60695 3.7361,13.52295 0,3.02535 -0.92951,5.13945 -3.7361,5.94135"
     id="path43"
     style="stroke-width:1.1664" />
  <path
     class="Note"
     d="m 996.49527,99.271231 c -16.09264,0 -21.81529,8.164859 -21.81529,15.746459 0,7.5816 5.72265,15.74646 21.81529,15.74646 16.09263,0 21.68783,-8.16486 21.68783,-15.74646 0,-7.5816 -5.5952,-15.746459 -21.68783,-15.746459 m 5.94143,27.045959 c -1.4033,0.47385 -3.26232,0.71075 -5.01192,0.71075 -3.26231,0 -5.4857,-0.92945 -6.9984,-3.84545 -1.51271,-2.916 -3.60849,-10.38825 -3.7361,-13.54118 -0.23689,-3.15292 0.92951,-5.01187 3.7361,-5.94135 1.40329,-0.47381 3.2623,-0.71082 5.0119,-0.71082 3.26231,0 5.37642,0.71082 6.99842,3.86375 1.6401,3.1347 3.736,10.60695 3.736,13.52295 0,3.02535 -0.9295,5.13945 -3.736,5.94135"
     id="path44"
     style="stroke-width:1.1664" />
  <path
     class="Note"
     d="m 1177.1852,84.691231 c -16.0926,0 -21.8153,8.164858 -21.8153,15.746459 0,7.5816 5.7227,15.74646 21.8153,15.74646 16.0927,0 21.6879,-8.16486 21.6879,-15.74646 0,-7.581601 -5.5952,-15.746459 -21.6879,-15.746459 m 5.9415,27.045959 c -1.4033,0.47385 -3.2624,0.71075 -5.012,0.71075 -3.2623,0 -5.4856,-0.92945 -6.9984,-3.84545 -1.5127,-2.916 -3.6084,-10.388251 -3.736,-13.541181 -0.2369,-3.15292 0.9295,-5.01187 3.736,-5.94135 1.4033,-0.473815 3.2624,-0.710828 5.012,-0.710828 3.2623,0 5.3764,0.710828 6.9984,3.863758 1.6401,3.1347 3.736,10.606951 3.736,13.522951 0,3.02535 -0.9295,5.13945 -3.736,5.94135"
     id="path45"
     style="stroke-width:1.1664" />
  <path
     class="Note"
     d="m 1357.8752,70.111231 c -16.0926,0 -21.8153,8.164858 -21.8153,15.746458 0,7.5816 5.7227,15.746461 21.8153,15.746461 16.0927,0 21.6879,-8.164861 21.6879,-15.746461 0,-7.5816 -5.5952,-15.746458 -21.6879,-15.746458 m 5.9415,27.045958 c -1.4033,0.47385 -3.2624,0.710746 -5.012,0.710746 -3.2623,0 -5.4856,-0.929446 -6.9984,-3.845446 -1.5127,-2.916 -3.6084,-10.38825 -3.736,-13.54118 -0.2369,-3.15292 0.9295,-5.01187 3.736,-5.94135 1.4033,-0.473815 3.2624,-0.710828 5.012,-0.710828 3.2623,0 5.3764,0.710828 6.9984,3.863758 1.6401,3.1347 3.736,10.60695 3.736,13.52295 0,3.02535 -0.9295,5.13945 -3.736,5.94135"
     id="path46"
     style="stroke-width:1.1664" />
  <path
     class="Note"
     d="m 1538.5752,55.531231 c -16.0926,0 -21.8153,8.164858 -21.8153,15.746458 0,7.5816 5.7227,15.746459 21.8153,15.746459 16.0927,0 21.6879,-8.164859 21.6879,-15.746459 0,-7.5816 -5.5952,-15.746458 -21.6879,-15.746458 m 5.9415,27.045958 c -1.4033,0.47385 -3.2624,0.710746 -5.012,0.710746 -3.2623,0 -5.4856,-0.929446 -6.9984,-3.845446 -1.5127,-2.916 -3.6084,-10.38825 -3.736,-13.54118 -0.2369,-3.15292 0.9295,-5.01187 3.736,-5.94135 1.4033,-0.473815 3.2624,-0.710828 5.012,-0.710828 3.2623,0 5.3764,0.710828 6.9984,3.863758 1.6401,3.1347 3.736,10.60695 3.736,13.52295 0,3.02535 -0.9295,5.13945 -3.736,5.94135"
     id="path47"
     style="stroke-width:1.1664" />
  <path
     class="Clef"
     d="m 87.425274,132.14919 c 0,8.29238 -3.389792,16.80345 -11.664,20.19336 -2.442092,-13.99686 -5.594988,-32.54991 -6.4152,-37.68941 10.4976,0 18.0792,7.12602 18.0792,17.49605 m -16.566496,21.57846 c -2.3328,0.47379 -4.537996,0.71069 -6.761504,0.71069 -16.675788,0 -30.909565,-11.664 -30.909565,-29.28755 0,-14.21555 10.023773,-26.936551 20.302673,-35.812155 1.9683,-1.7496 3.845504,-3.371596 5.595104,-5.121196 1.038796,6.287596 1.858892,11.773292 2.678988,16.566501 -10.625088,3.1529 -17.842188,14.3431 -17.842188,25.31455 0,8.1648 6.4152,19.35495 15.7464,19.35495 0.929388,0 1.986496,-0.47379 1.986496,-1.5127 0,-1.05699 -1.1664,-1.64019 -2.569696,-2.5697 -4.556308,-2.80665 -7.126004,-5.832 -7.126004,-11.55465 0,-7.10775 5.2488,-12.83045 12.137792,-14.45245 l 6.761504,38.36371 M 60.598074,33.825344 c 1.057108,-4.6656 6.4152,-16.9128 12.484212,-16.9128 1.7496,0 4.537996,5.704395 4.537996,13.759787 0,12.137908 -8.9667,21.232213 -17.022208,29.16 -0.692492,-4.6656 -1.275692,-9.203596 -1.275692,-14.106092 0,-4.319295 0.346304,-8.292404 1.275692,-11.900895 m -24.4944,155.714406 c 0,7.7092 5.941408,17.8605 21.687808,17.8605 5.485696,0 10.2789,-1.4033 14.470592,-3.97311 6.305908,-4.42859 7.927904,-12.13779 7.927904,-19.4825 0,-4.53799 -0.692492,-9.78679 -1.858892,-16.43889 -0.346304,-2.3328 -1.057108,-5.832 -1.7496,-10.38831 11.426988,-3.73609 19.938092,-15.63699 19.938092,-27.64732 0,-17.60538 -12.484096,-29.506281 -29.506304,-29.506281 -1.1664,-6.9984 -2.3328,-13.887508 -3.389792,-20.412 12.374804,-12.958004 20.885792,-27.538004 20.885792,-46.0728 0,-10.625204 -3.262188,-19.2456 -5.139392,-23.455137 C 76.581486,4.0822602 73.191578,-1.3986617e-4 71.095674,-1.3986617e-4 c -0.820096,0 -4.428588,1.40317926617 -8.274092,5.94164166617 -7.472308,8.8751372 -9.568096,23.8014422 -9.568096,33.5882372 0,6.305792 0.5832,12.0285 2.569696,25.095796 -0.127604,0.109409 -6.1965,6.287596 -8.638708,8.274209 -10.625088,9.9144 -25.314496,24.020491 -25.314496,47.366746 0,21.79716 19.008704,38.94686 40.714708,38.94686 3.371596,0 6.524492,-0.34631 9.203596,-0.8201 2.223392,11.20829 3.4992,19.37309 3.4992,25.55139 0,12.13791 -6.178304,18.55311 -17.951596,18.55311 -2.806708,0 -5.2488,-0.5832 -5.485812,-0.5832 -0.109292,-0.1276 -0.346188,-0.23701 -0.346188,-0.3463 0,-0.2369 0.236896,-0.3645 0.5832,-0.47391 5.485696,-0.8201 10.953196,-5.4857 10.953196,-12.93969 0,-6.30591 -4.775008,-12.95801 -13.523008,-12.95801 -8.1648,0 -13.4136,6.6521 -13.4136,14.34311"
     id="path52"
     style="stroke-width:1.1664" />
  <path
     class="KeySig"
     d="m 145.54348,29.979839 c 0.71081,-0.109408 1.29401,-0.929504 1.29401,-1.640308 v -6.870796 c 0,-0.929504 -0.71081,-1.640191 -1.64031,-1.640191 -0.10929,0 -0.10929,0 -0.2369,0 l -3.8455,0.820095 V 3.261931 h -3.26231 v 18.0792 l -10.38821,2.1141 V 6.9981435 h -3.26228 V 24.147839 l -4.55625,0.929505 c -0.69255,0.127487 -1.27575,0.929387 -1.27575,1.640191 v 0.236896 6.761528 -0.23692 c 0,0.92947 0.69255,1.64025 1.64025,1.64025 0.10935,0 0.2187,0 0.34628,0 l 3.84547,-0.82013 V 53.54477 l -4.55625,0.929469 c -0.69255,0.109409 -1.27575,0.929505 -1.27575,1.640309 v 6.761387 c 0,0.929504 0.69255,1.622113 1.64025,1.622113 0.10935,0 0.2187,0 0.34628,0 l 3.84547,-0.8019 v 17.368396 h 3.26228 v -18.0792 l 10.38821,-2.095905 v 16.457205 h 3.26231 V 60.196948 l 4.4287,-0.820213 c 0.71081,-0.127487 1.29401,-0.929387 1.29401,-1.640191 v -6.870855 c 0,-0.9477 -0.71081,-1.64025 -1.64031,-1.64025 -0.10929,0 -0.10929,0 -0.2369,0 l -3.8455,0.820131 V 30.799959 l 4.4287,-0.82012 m -18.07922,3.60855 10.38821,-2.09588 V 50.73812 l -10.38821,2.22345 V 33.588389"
     id="path59"
     style="stroke-width:1.1664" />
  <path
     class="KeySig"
     d="m 177.49348,73.719839 c 0.71081,-0.109408 1.29401,-0.929504 1.29401,-1.640308 v -6.870796 c 0,-0.929504 -0.71081,-1.640191 -1.64031,-1.640191 -0.10929,0 -0.10929,0 -0.2369,0 l -3.8455,0.820095 V 47.001931 h -3.26231 v 18.0792 l -10.38821,2.1141 V 50.738144 h -3.26228 v 17.149695 l -4.55625,0.929505 c -0.69255,0.127487 -1.27575,0.929387 -1.27575,1.640191 v 0.236896 6.761528 -0.23692 c 0,0.92947 0.69255,1.64025 1.64025,1.64025 0.10935,0 0.2187,0 0.34628,0 l 3.84547,-0.82013 V 97.28477 l -4.55625,0.929469 c -0.69255,0.109409 -1.27575,0.929505 -1.27575,1.640309 v 6.761392 c 0,0.9295 0.69255,1.62211 1.64025,1.62211 0.10935,0 0.2187,0 0.34628,0 l 3.84547,-0.8019 v 17.3684 h 3.26228 v -18.0792 l 10.38821,-2.09591 v 16.45721 h 3.26231 v -17.1497 l 4.4287,-0.82021 c 0.71081,-0.12749 1.29401,-0.92939 1.29401,-1.64019 v -6.870861 c 0,-0.9477 -0.71081,-1.64025 -1.64031,-1.64025 -0.10929,0 -0.10929,0 -0.2369,0 l -3.8455,0.820131 V 74.539959 l 4.4287,-0.82012 m -18.07922,3.60855 10.38821,-2.09588 V 94.47812 l -10.38821,2.22345 V 77.328389"
     id="path60"
     style="stroke-width:1.1664" />
</svg>
