<?xml version="1.0" encoding="UTF-8" standalone="no"?>
<svg
   width="108.73916mm"
   height="13.187986mm"
   viewBox="0 0 1541.1849 186.91635"
   version="1.2"
   id="svg70"
   sodipodi:docname="dmaj-1.svg"
   xmlns:inkscape="http://www.inkscape.org/namespaces/inkscape"
   xmlns:sodipodi="http://sodipodi.sourceforge.net/DTD/sodipodi-0.dtd"
   xmlns="http://www.w3.org/2000/svg"
   xmlns:svg="http://www.w3.org/2000/svg">
  <defs
     id="defs70" />
  <sodipodi:namedview
     id="namedview70"
     pagecolor="#505050"
     bordercolor="#eeeeee"
     borderopacity="1"
     inkscape:showpageshadow="0"
     inkscape:pageopacity="0"
     inkscape:pagecheckerboard="0"
     inkscape:deskcolor="#505050"
     inkscape:document-units="mm">
    <inkscape:page
       x="0"
       y="2.1239009e-12"
       width="1541.1849"
       height="186.91635"
       id="page2"
       margin="0"
       bleed="0" />
  </sodipodi:namedview>
  <title
     id="title1">test1 (1)</title>
  <desc
     id="desc1">Generated by MuseScore Studio 4.5.2</desc>
  <polyline
     class="StaffLines"
     fill="none"
     stroke="#000000"
     stroke-width="2.89"
     stroke-linejoin="bevel"
     points="1223.42,2481.15 2764.6,2481.15"
     id="polyline11"
     transform="translate(-1223.42,-2443.0934)" />
  <polyline
     class="StaffLines"
     fill="none"
     stroke="#000000"
     stroke-width="2.89"
     stroke-linejoin="bevel"
     points="1223.42,2507.43 2764.6,2507.43"
     id="polyline12"
     transform="translate(-1223.42,-2443.0934)" />
  <polyline
     class="StaffLines"
     fill="none"
     stroke="#000000"
     stroke-width="2.89"
     stroke-linejoin="bevel"
     points="1223.42,2533.71 2764.6,2533.71"
     id="polyline13"
     transform="translate(-1223.42,-2443.0934)" />
  <polyline
     class="StaffLines"
     fill="none"
     stroke="#000000"
     stroke-width="2.89"
     stroke-linejoin="bevel"
     points="1223.42,2559.99 2764.6,2559.99"
     id="polyline14"
     transform="translate(-1223.42,-2443.0934)" />
  <polyline
     class="StaffLines"
     fill="none"
     stroke="#000000"
     stroke-width="2.89"
     stroke-linejoin="bevel"
     points="1223.42,2586.27 2764.6,2586.27"
     id="polyline15"
     transform="translate(-1223.42,-2443.0934)" />
  <polyline
     class="BarLine"
     fill="none"
     stroke="#000000"
     stroke-width="4.73"
     stroke-linejoin="bevel"
     points="2747.78,2479.7 2747.78,2587.72"
     id="polyline32"
     transform="translate(-1223.42,-2443.0934)" />
  <polyline
     class="BarLine"
     fill="none"
     stroke="#000000"
     stroke-width="4.73"
     stroke-linejoin="bevel"
     points="2762.24,2479.7 2762.24,2587.72"
     id="polyline33"
     transform="translate(-1223.42,-2443.0934)" />
  <path
     class="Note"
     d="m 246.69065,142.02677 c -14.50325,0 -19.6607,7.35845 -19.6607,14.19125 0,6.8328 5.15745,14.19125 19.6607,14.19125 14.5033,0 19.54581,-7.35845 19.54581,-14.19125 0,-6.8328 -5.04251,-14.19125 -19.54581,-14.19125 m 5.35461,24.37475 c -1.2647,0.42705 -2.94011,0.64055 -4.51691,0.64055 -2.9401,0 -4.94389,-0.83765 -6.3072,-3.46565 -1.3633,-2.628 -3.25209,-9.36225 -3.36709,-12.20378 -0.2135,-2.84152 0.8377,-4.51687 3.36709,-5.35455 1.2647,-0.42702 2.94011,-0.64062 4.51691,-0.64062 2.9401,0 4.8454,0.64062 6.3072,3.48215 1.47819,2.8251 3.36709,9.55935 3.36709,12.18735 0,2.72655 -0.8377,4.63185 -3.36709,5.35455"
     id="path40"
     style="stroke-width:1.0512" />
  <path
     class="Note"
     d="m 408.25065,128.88677 c -14.50325,0 -19.6607,7.35845 -19.6607,14.19125 0,6.8328 5.15745,14.19125 19.6607,14.19125 14.5033,0 19.54581,-7.35845 19.54581,-14.19125 0,-6.8328 -5.04251,-14.19125 -19.54581,-14.19125 m 5.35461,24.37475 c -1.2647,0.42705 -2.94011,0.64055 -4.51691,0.64055 -2.9401,0 -4.94389,-0.83765 -6.3072,-3.46565 -1.3633,-2.628 -3.25209,-9.36225 -3.36709,-12.20378 -0.2135,-2.84152 0.8377,-4.51687 3.36709,-5.35455 1.2647,-0.42702 2.94011,-0.64062 4.51691,-0.64062 2.9401,0 4.8454,0.64062 6.3072,3.48215 1.47819,2.8251 3.36709,9.55935 3.36709,12.18735 0,2.72655 -0.8377,4.63185 -3.36709,5.35455"
     id="path41"
     style="stroke-width:1.0512" />
  <path
     class="Note"
     d="m 569.80065,115.74677 c -14.50325,0 -19.6607,7.35845 -19.6607,14.19125 0,6.8328 5.15745,14.19125 19.6607,14.19125 14.5033,0 19.54581,-7.35845 19.54581,-14.19125 0,-6.8328 -5.04251,-14.19125 -19.54581,-14.19125 m 5.35461,24.37475 c -1.2647,0.42705 -2.94011,0.64055 -4.51691,0.64055 -2.9401,0 -4.94389,-0.83765 -6.3072,-3.46565 -1.3633,-2.628 -3.25209,-9.36225 -3.36709,-12.20378 -0.2135,-2.84152 0.8377,-4.51687 3.36709,-5.35455 1.2647,-0.42702 2.94011,-0.64062 4.51691,-0.64062 2.9401,0 4.8454,0.64062 6.3072,3.48215 1.47819,2.8251 3.36709,9.55935 3.36709,12.18735 0,2.72655 -0.8377,4.63185 -3.36709,5.35455"
     id="path42"
     style="stroke-width:1.0512" />
  <path
     class="Note"
     d="m 731.36065,102.60677 c -14.50325,0 -19.6607,7.35845 -19.6607,14.19125 0,6.8328 5.15745,14.19125 19.6607,14.19125 14.5033,0 19.54581,-7.35845 19.54581,-14.19125 0,-6.8328 -5.04251,-14.19125 -19.54581,-14.19125 m 5.35461,24.37475 c -1.2647,0.42705 -2.94011,0.64055 -4.51691,0.64055 -2.9401,0 -4.94389,-0.83765 -6.3072,-3.46565 -1.3633,-2.628 -3.25209,-9.36225 -3.36709,-12.20378 -0.2135,-2.84152 0.8377,-4.51687 3.36709,-5.35455 1.2647,-0.42702 2.94011,-0.64062 4.51691,-0.64062 2.9401,0 4.8454,0.64062 6.3072,3.48215 1.47819,2.8251 3.36709,9.55935 3.36709,12.18735 0,2.72655 -0.8377,4.63185 -3.36709,5.35455"
     id="path43"
     style="stroke-width:1.0512" />
  <path
     class="Note"
     d="m 892.91065,89.466768 c -14.50325,0 -19.6607,7.358452 -19.6607,14.191252 0,6.8328 5.15745,14.19125 19.6607,14.19125 14.5033,0 19.54581,-7.35845 19.54581,-14.19125 0,-6.8328 -5.04251,-14.191252 -19.54581,-14.191252 m 5.35461,24.374752 c -1.2647,0.42705 -2.94011,0.64055 -4.51691,0.64055 -2.9401,0 -4.94389,-0.83765 -6.3072,-3.46565 -1.3633,-2.628 -3.25209,-9.36225 -3.36709,-12.20378 -0.2135,-2.84152 0.8377,-4.51687 3.36709,-5.35455 1.2647,-0.427018 2.94011,-0.640622 4.51691,-0.640622 2.9401,0 4.8454,0.640622 6.3072,3.482152 1.47819,2.8251 3.36709,9.55935 3.36709,12.18735 0,2.72655 -0.8377,4.63185 -3.36709,5.35455"
     id="path44"
     style="stroke-width:1.0512" />
  <path
     class="Note"
     d="m 1054.4607,76.326768 c -14.5033,0 -19.6607,7.358452 -19.6607,14.191252 0,6.8328 5.1574,14.19125 19.6607,14.19125 14.5033,0 19.5458,-7.35845 19.5458,-14.19125 0,-6.8328 -5.0425,-14.191252 -19.5458,-14.191252 m 5.3546,24.374752 c -1.2647,0.42705 -2.9401,0.64055 -4.5169,0.64055 -2.9401,0 -4.9439,-0.83765 -6.3072,-3.46565 -1.3633,-2.628 -3.2521,-9.36225 -3.3671,-12.20378 -0.2135,-2.84152 0.8377,-4.51687 3.3671,-5.35455 1.2647,-0.427018 2.9401,-0.640622 4.5169,-0.640622 2.9401,0 4.8454,0.640622 6.3072,3.482152 1.4782,2.8251 3.3671,9.55935 3.3671,12.18735 0,2.72655 -0.8377,4.63185 -3.3671,5.35455"
     id="path45"
     style="stroke-width:1.0512" />
  <path
     class="Note"
     d="m 1216.0207,63.186768 c -14.5033,0 -19.6607,7.358452 -19.6607,14.191252 0,6.8328 5.1574,14.191253 19.6607,14.191253 14.5033,0 19.5458,-7.358453 19.5458,-14.191253 0,-6.8328 -5.0425,-14.191252 -19.5458,-14.191252 m 5.3546,24.374752 c -1.2647,0.42705 -2.9401,0.640549 -4.5169,0.640549 -2.9401,0 -4.9439,-0.837649 -6.3072,-3.465649 -1.3633,-2.628 -3.2521,-9.36225 -3.3671,-12.20378 -0.2135,-2.84152 0.8377,-4.51687 3.3671,-5.35455 1.2647,-0.427018 2.9401,-0.640622 4.5169,-0.640622 2.9401,0 4.8454,0.640622 6.3072,3.482152 1.4782,2.8251 3.3671,9.55935 3.3671,12.18735 0,2.72655 -0.8377,4.63185 -3.3671,5.35455"
     id="path46"
     style="stroke-width:1.0512" />
  <path
     class="Note"
     d="m 1377.5707,50.046768 c -14.5033,0 -19.6607,7.358452 -19.6607,14.191252 0,6.8328 5.1574,14.191253 19.6607,14.191253 14.5033,0 19.5458,-7.358453 19.5458,-14.191253 0,-6.8328 -5.0425,-14.191252 -19.5458,-14.191252 m 5.3546,24.374752 c -1.2647,0.42705 -2.9401,0.640549 -4.5169,0.640549 -2.9401,0 -4.9439,-0.837649 -6.3072,-3.465649 -1.3633,-2.628 -3.2521,-9.36225 -3.3671,-12.20378 -0.2135,-2.84152 0.8377,-4.51687 3.3671,-5.35455 1.2647,-0.427018 2.9401,-0.640622 4.5169,-0.640622 2.9401,0 4.8454,0.640622 6.3072,3.482152 1.4782,2.8251 3.3671,9.55935 3.3671,12.18735 0,2.72655 -0.8377,4.63185 -3.3671,5.35455"
     id="path47"
     style="stroke-width:1.0512" />
  <path
     class="Clef"
     d="m 78.79065,119.09752 c 0,7.47338 -3.054998,15.14385 -10.512,18.19895 -2.200898,-12.61445 -5.042397,-29.3351 -5.7816,-33.967 9.4608,0 16.2936,6.42222 16.2936,15.76805 m -14.930299,19.44725 c -2.1024,0.427 -4.089799,0.6405 -6.093701,0.6405 -15.028797,0 -27.856769,-10.512 -27.856769,-26.39495 0,-12.811552 9.033771,-24.27615 18.297471,-32.275151 1.7739,-1.5768 3.465701,-3.038599 5.042501,-4.615399 0.936199,5.666599 1.675298,10.610498 2.414397,14.930299 -9.575697,2.841499 -16.079997,12.926501 -16.079997,22.814351 0,7.3584 5.7816,17.44335 14.1912,17.44335 0.837597,0 1.790299,-0.427 1.790299,-1.3633 0,-0.9526 -1.0512,-1.4782 -2.315899,-2.3159 -4.106302,-2.52945 -6.422201,-5.256 -6.422201,-10.41345 0,-6.40575 4.7304,-11.56325 10.938998,-13.02505 l 6.093701,34.5747 M 54.61305,30.484672 c 0.952702,-4.2048 5.7816,-15.2424 11.251203,-15.2424 1.5768,0 4.089799,5.140998 4.089799,12.400796 0,10.939102 -8.0811,19.135204 -15.341002,26.28 -0.624098,-4.2048 -1.149698,-8.294599 -1.149698,-12.712898 0,-3.892698 0.312101,-7.473401 1.149698,-10.725498 M 32.53785,170.81987 c 0,6.9478 5.354602,16.0965 19.545802,16.0965 4.943899,0 9.2637,-1.2647 13.041398,-3.5807 5.683102,-3.9912 7.144901,-10.939 7.144901,-17.5583 0,-4.0898 -0.624098,-8.8202 -1.675298,-14.8153 -0.312101,-2.1024 -0.952702,-5.256 -1.5768,-9.3623 10.298397,-3.3671 17.968898,-14.0926 17.968898,-24.91673 0,-15.86657 -11.251099,-26.59207 -26.592101,-26.59207 -1.0512,-6.3072 -2.1024,-12.515902 -3.054998,-18.396 11.152601,-11.678201 18.822998,-24.818201 18.822998,-41.5224 0,-9.575801 -2.939997,-17.3448 -4.631798,-21.1385801 C 69.017853,3.6791771 65.962751,-2.291052e-5 64.07385,-2.291052e-5 63.334751,-2.291052e-5 60.082653,1.2645707 56.616952,5.3547899 49.88265,13.35337 47.993853,26.805472 47.993853,35.62567 c 0,5.682998 0.5256,10.8405 2.315899,22.617199 -0.115001,0.0986 -5.5845,5.666599 -7.785502,7.457003 -9.575697,8.9352 -22.814299,21.648097 -22.814299,42.688548 0,19.64435 17.131301,35.10025 36.693502,35.10025 3.038599,0 5.880098,-0.3121 8.294599,-0.7391 2.003798,10.1013 3.1536,17.4597 3.1536,23.0278 0,10.9391 -5.568101,16.7207 -16.178599,16.7207 -2.529502,0 -4.7304,-0.5256 -4.944003,-0.5256 -0.0985,-0.115 -0.311997,-0.2136 -0.311997,-0.3121 0,-0.2135 0.213499,-0.3285 0.5256,-0.4271 4.943899,-0.7391 9.871399,-4.9439 9.871399,-11.6617 0,-5.6831 -4.303402,-11.6782 -12.187402,-11.6782 -7.3584,0 -12.0888,5.9951 -12.0888,12.9265"
     id="path54"
     style="stroke-width:1.0512" />
  <path
     class="KeySig"
     d="m 131.16966,27.01897 c 0.6406,-0.0986 1.1662,-0.837701 1.1662,-1.478302 v -6.192199 c 0,-0.837701 -0.6406,-1.478197 -1.47831,-1.478197 -0.0985,0 -0.0985,0 -0.21349,0 l -3.46571,0.739098 V 2.9398681 h -2.9401 V 19.233468 l -9.36222,1.9053 V 6.307072 h -2.94008 V 21.76297 l -4.10625,0.837702 c -0.62415,0.114896 -1.14975,0.837596 -1.14975,1.478197 v 0.213499 6.093722 -0.21352 c 0,0.83767 0.62415,1.47825 1.47825,1.47825 0.0986,0 0.1971,0 0.31208,0 l 3.46567,-0.73913 v 17.344811 l -4.10625,0.837669 c -0.62415,0.0986 -1.14975,0.837702 -1.14975,1.478303 v 6.093596 c 0,0.837701 0.62415,1.461904 1.47825,1.461904 0.0986,0 0.1971,0 0.31208,0 l 3.46567,-0.7227 v 15.652999 h 2.94008 v -16.2936 l 9.36222,-1.888902 v 14.831802 h 2.9401 V 54.251673 l 3.99131,-0.739204 c 0.6406,-0.114896 1.1662,-0.837596 1.1662,-1.478197 V 45.84202 c 0,-0.8541 -0.6406,-1.47825 -1.47831,-1.47825 -0.0985,0 -0.0985,0 -0.21349,0 l -3.46571,0.739131 V 27.75809 l 3.99131,-0.73912 m -16.29363,3.25215 9.36222,-1.88888 v 17.344811 l -9.36222,2.00385 V 30.27112"
     id="path59"
     style="stroke-width:1.0512" />
  <path
     class="KeySig"
     d="m 159.96966,66.43897 c 0.6406,-0.0986 1.1662,-0.837701 1.1662,-1.478302 v -6.192199 c 0,-0.837701 -0.6406,-1.478197 -1.47831,-1.478197 -0.0985,0 -0.0985,0 -0.21349,0 l -3.46571,0.739098 V 42.359868 h -2.9401 v 16.2936 l -9.36222,1.9053 V 45.727072 h -2.94008 V 61.18297 l -4.10625,0.837702 c -0.62415,0.114896 -1.14975,0.837596 -1.14975,1.478197 v 0.213499 6.093722 -0.21352 c 0,0.83767 0.62415,1.47825 1.47825,1.47825 0.0985,0 0.1971,0 0.31208,0 l 3.46567,-0.73913 v 17.344811 l -4.10625,0.837669 c -0.62415,0.0986 -1.14975,0.837702 -1.14975,1.478303 v 6.093596 c 0,0.837701 0.62415,1.461904 1.47825,1.461904 0.0985,0 0.1971,0 0.31208,0 l 3.46567,-0.7227 v 15.652997 h 2.94008 V 96.184672 l 9.36222,-1.888902 v 14.8318 h 2.9401 V 93.671673 l 3.99131,-0.739204 c 0.6406,-0.114896 1.1662,-0.837596 1.1662,-1.478197 V 85.26202 c 0,-0.8541 -0.6406,-1.47825 -1.47831,-1.47825 -0.0985,0 -0.0985,0 -0.21349,0 l -3.46571,0.739131 V 67.17809 l 3.99131,-0.73912 m -16.29363,3.25215 9.36222,-1.88888 v 17.344811 l -9.36222,2.00385 V 69.69112"
     id="path60"
     style="stroke-width:1.0512" />
</svg>
