<?xml version="1.0" encoding="UTF-8" standalone="no"?>
<svg
   width="46.327129mm"
   height="14.633247mm"
   viewBox="0 0 656.60499 207.40036"
   version="1.2"
   id="svg98"
   sodipodi:docname="aa5-1.svg"
   xmlns:inkscape="http://www.inkscape.org/namespaces/inkscape"
   xmlns:sodipodi="http://sodipodi.sourceforge.net/DTD/sodipodi-0.dtd"
   xmlns="http://www.w3.org/2000/svg"
   xmlns:svg="http://www.w3.org/2000/svg">
  <defs
     id="defs98" />
  <sodipodi:namedview
     id="namedview98"
     pagecolor="#505050"
     bordercolor="#eeeeee"
     borderopacity="1"
     inkscape:showpageshadow="0"
     inkscape:pageopacity="0"
     inkscape:pagecheckerboard="0"
     inkscape:deskcolor="#505050"
     inkscape:document-units="mm">
    <inkscape:page
       x="0"
       y="0"
       width="656.60498"
       height="207.40036"
       id="page2"
       margin="0"
       bleed="0" />
  </sodipodi:namedview>
  <title
     id="title1">test1 (1)</title>
  <desc
     id="desc1">Generated by MuseScore Studio 4.5.2</desc>
  <polyline
     class="StaffLines"
     fill="none"
     stroke="#000000"
     stroke-width="3.21"
     stroke-linejoin="bevel"
     points="2108,3294.88 2764.6,3294.88"
     id="polyline26"
     transform="translate(-2108.0001,-3252.6529)" />
  <polyline
     class="StaffLines"
     fill="none"
     stroke="#000000"
     stroke-width="3.21"
     stroke-linejoin="bevel"
     points="2108,3324.04 2764.6,3324.04"
     id="polyline27"
     transform="translate(-2108.0001,-3252.6529)" />
  <polyline
     class="StaffLines"
     fill="none"
     stroke="#000000"
     stroke-width="3.21"
     stroke-linejoin="bevel"
     points="2108,3353.2 2764.6,3353.2"
     id="polyline28"
     transform="translate(-2108.0001,-3252.6529)" />
  <polyline
     class="StaffLines"
     fill="none"
     stroke="#000000"
     stroke-width="3.21"
     stroke-linejoin="bevel"
     points="2108,3382.36 2764.6,3382.36"
     id="polyline29"
     transform="translate(-2108.0001,-3252.6529)" />
  <polyline
     class="StaffLines"
     fill="none"
     stroke="#000000"
     stroke-width="3.21"
     stroke-linejoin="bevel"
     points="2108,3411.52 2764.6,3411.52"
     id="polyline30"
     transform="translate(-2108.0001,-3252.6529)" />
  <polyline
     class="BarLine"
     fill="none"
     stroke="#000000"
     stroke-width="5.25"
     stroke-linejoin="bevel"
     points="2761.98,3293.28 2761.98,3413.12"
     id="polyline47"
     transform="translate(-2108.0001,-3252.6529)" />
  <path
     class="Note"
     d="m 372.28525,40.951309 c -16.09265,0 -21.8153,8.164858 -21.8153,15.746458 0,7.5816 5.72265,15.746458 21.8153,15.746458 16.0927,0 21.68781,-8.164858 21.68781,-15.746458 0,-7.5816 -5.59511,-15.746458 -21.68781,-15.746458 m 5.94141,27.045958 c -1.4033,0.47385 -3.26231,0.710746 -5.01191,0.710746 -3.2623,0 -5.48569,-0.929446 -6.9984,-3.845446 -1.5127,-2.916 -3.60849,-10.38825 -3.73609,-13.541181 -0.2369,-3.152919 0.9295,-5.011869 3.73609,-5.94135 1.4033,-0.473815 3.26231,-0.710827 5.01191,-0.710827 3.2623,0 5.3764,0.710827 6.9984,3.863758 1.64019,3.1347 3.73609,10.60695 3.73609,13.52295 0,3.02535 -0.9295,5.13945 -3.73609,5.94135"
     id="path69"
     style="stroke-width:1.1664" />
  <path
     class="Note"
     d="m 372.28525,113.85131 c -16.09265,0 -21.8153,8.16486 -21.8153,15.74646 0,7.5816 5.72265,15.74646 21.8153,15.74646 16.0927,0 21.68781,-8.16486 21.68781,-15.74646 0,-7.5816 -5.59511,-15.74646 -21.68781,-15.74646 m 5.94141,27.04596 c -1.4033,0.47385 -3.26231,0.71074 -5.01191,0.71074 -3.2623,0 -5.48569,-0.92944 -6.9984,-3.84544 -1.5127,-2.916 -3.60849,-10.38825 -3.73609,-13.54118 -0.2369,-3.15292 0.9295,-5.01187 3.73609,-5.94135 1.4033,-0.47382 3.26231,-0.71083 5.01191,-0.71083 3.2623,0 5.3764,0.71083 6.9984,3.86376 1.64019,3.1347 3.73609,10.60695 3.73609,13.52295 0,3.02535 -0.9295,5.13945 -3.73609,5.94135"
     id="path72"
     style="stroke-width:1.1664" />
  <path
     class="Clef"
     d="m 87.425245,132.14927 c 0,8.29238 -3.389791,16.80345 -11.664,20.19336 -2.442091,-13.99686 -5.594987,-32.54991 -6.4152,-37.68942 10.4976,0 18.0792,7.12603 18.0792,17.49606 M 70.85875,153.72773 c -2.3328,0.47379 -4.537996,0.71068 -6.761505,0.71068 -16.675787,0 -30.909565,-11.664 -30.909565,-29.28754 0,-14.21556 10.023774,-26.936553 20.302674,-35.812157 1.9683,-1.7496 3.845504,-3.371596 5.595104,-5.121196 1.038796,6.287596 1.858892,11.773292 2.678987,16.566493 -10.625087,3.1529 -17.842187,14.34311 -17.842187,25.31456 0,8.1648 6.4152,19.35495 15.7464,19.35495 0.929387,0 1.986496,-0.47379 1.986496,-1.51271 0,-1.05699 -1.1664,-1.64019 -2.569696,-2.56969 -4.556308,-2.80665 -7.126004,-5.832 -7.126004,-11.55465 0,-7.10775 5.2488,-12.83046 12.137791,-14.45246 l 6.761505,38.36372 M 60.598045,33.825421 c 1.057109,-4.6656 6.4152,-16.9128 12.484213,-16.9128 1.7496,0 4.537996,5.704396 4.537996,13.759788 0,12.137908 -8.9667,21.232212 -17.022209,29.16 -0.692491,-4.6656 -1.275691,-9.203596 -1.275691,-14.106092 0,-4.319296 0.346304,-8.292404 1.275691,-11.900896 m -24.4944,155.714399 c 0,7.70921 5.941409,17.8605 21.687809,17.8605 5.485696,0 10.2789,-1.40329 14.470591,-3.97311 6.305909,-4.42858 7.927905,-12.13779 7.927905,-19.48249 0,-4.538 -0.692492,-9.7868 -1.858892,-16.43889 -0.346304,-2.3328 -1.057108,-5.832 -1.7496,-10.38831 11.426987,-3.7361 19.938092,-15.63699 19.938092,-27.64733 0,-17.60538 -12.484096,-29.506273 -29.506305,-29.506273 -1.1664,-6.9984 -2.3328,-13.887508 -3.389791,-20.412 12.374804,-12.958004 20.885791,-27.538004 20.885791,-46.0728 0,-10.625204 -3.262187,-19.2456 -5.139391,-23.455137 C 76.581458,4.0823379 73.19155,-6.2076224e-5 71.095645,-6.2076224e-5 70.27555,-6.2076224e-5 66.667058,1.4031171 62.821554,5.9415795 55.349245,14.816717 53.253458,29.743021 53.253458,39.529817 c 0,6.305792 0.5832,12.0285 2.569696,25.095796 -0.127604,0.109408 -6.1965,6.287596 -8.638709,8.274208 -10.625087,9.9144 -25.314495,24.020492 -25.314495,47.366749 0,21.79716 19.008704,38.94685 40.714708,38.94685 3.371596,0 6.524492,-0.3463 9.203596,-0.82009 2.223391,11.20828 3.4992,19.37308 3.4992,25.55139 0,12.13791 -6.178304,18.55311 -17.951596,18.55311 -2.806708,0 -5.2488,-0.5832 -5.485813,-0.5832 -0.109291,-0.12761 -0.346187,-0.23702 -0.346187,-0.34631 0,-0.23689 0.236896,-0.3645 0.5832,-0.47391 5.485696,-0.82009 10.953196,-5.48569 10.953196,-12.93969 0,-6.30591 -4.775009,-12.958 -13.523009,-12.958 -8.1648,0 -13.4136,6.65209 -13.4136,14.3431"
     id="path74"
     style="stroke-width:1.1664" />
</svg>
