<?xml version="1.0" encoding="UTF-8" standalone="no"?>
<svg
   width="46.327129mm"
   height="14.633264mm"
   viewBox="0 0 656.60499 207.40059"
   version="1.2"
   id="svg98"
   sodipodi:docname="aa5-1.svg"
   xmlns:inkscape="http://www.inkscape.org/namespaces/inkscape"
   xmlns:sodipodi="http://sodipodi.sourceforge.net/DTD/sodipodi-0.dtd"
   xmlns="http://www.w3.org/2000/svg"
   xmlns:svg="http://www.w3.org/2000/svg">
  <defs
     id="defs98" />
  <sodipodi:namedview
     id="namedview98"
     pagecolor="#505050"
     bordercolor="#eeeeee"
     borderopacity="1"
     inkscape:showpageshadow="0"
     inkscape:pageopacity="0"
     inkscape:pagecheckerboard="0"
     inkscape:deskcolor="#505050"
     inkscape:document-units="mm">
    <inkscape:page
       x="0"
       y="0"
       width="656.60498"
       height="207.40059"
       id="page2"
       margin="0"
       bleed="0" />
  </sodipodi:namedview>
  <title
     id="title1">test1 (1)</title>
  <desc
     id="desc1">Generated by MuseScore Studio 4.5.2</desc>
  <polyline
     class="StaffLines"
     fill="none"
     stroke="#000000"
     stroke-width="3.21"
     stroke-linejoin="bevel"
     points="2108,3675.04 2764.6,3675.04"
     id="polyline31"
     transform="translate(-2108.0001,-3632.8128)" />
  <polyline
     class="StaffLines"
     fill="none"
     stroke="#000000"
     stroke-width="3.21"
     stroke-linejoin="bevel"
     points="2108,3704.2 2764.6,3704.2"
     id="polyline32"
     transform="translate(-2108.0001,-3632.8128)" />
  <polyline
     class="StaffLines"
     fill="none"
     stroke="#000000"
     stroke-width="3.21"
     stroke-linejoin="bevel"
     points="2108,3733.36 2764.6,3733.36"
     id="polyline33"
     transform="translate(-2108.0001,-3632.8128)" />
  <polyline
     class="StaffLines"
     fill="none"
     stroke="#000000"
     stroke-width="3.21"
     stroke-linejoin="bevel"
     points="2108,3762.52 2764.6,3762.52"
     id="polyline34"
     transform="translate(-2108.0001,-3632.8128)" />
  <polyline
     class="StaffLines"
     fill="none"
     stroke="#000000"
     stroke-width="3.21"
     stroke-linejoin="bevel"
     points="2108,3791.68 2764.6,3791.68"
     id="polyline35"
     transform="translate(-2108.0001,-3632.8128)" />
  <polyline
     class="BarLine"
     fill="none"
     stroke="#000000"
     stroke-width="5.25"
     stroke-linejoin="bevel"
     points="2761.98,3673.44 2761.98,3793.29"
     id="polyline41"
     transform="translate(-2108.0001,-3632.8128)" />
  <path
     class="Accidental"
     d="m 338.35736,47.585369 c -0.69261,-4.538055 -3.4992,-8.85735 -9.44061,-8.85735 -5.832,0 -9.22185,3.608491 -9.80505,4.319295 l 0.47385,-37.4524037 c 0,-0.9293875 -0.69255,-1.6219958 -1.64025,-1.6219958 h -1.3851 c -0.9477,0 -1.64025,0.6926083 -1.64025,1.6219958 l 0.5832,70.1116037 c 0,0.929505 0.69255,1.622113 1.64025,1.622113 0.2187,0 0.69255,-0.109408 0.92948,-0.2187 0.45562,-0.237013 8.03722,-3.973108 14.34307,-11.080858 4.42871,-5.0301 6.17831,-10.734531 6.17831,-15.5277 0,-1.038831 -0.10941,-1.9683 -0.2369,-2.916 m -8.03731,4.55625 c 0,1.7496 -0.47379,7.10775 -3.38979,11.55465 -1.98656,3.02535 -5.94138,6.178245 -8.16483,7.927845 l 0.34627,-22.744776 c 0.23693,-1.05705 1.98653,-4.428728 6.65213,-4.428728 4.21003,0 4.55622,3.954878 4.55622,6.415259 0,0.5832 0,0.929469 0,1.27575"
     id="path53"
     style="stroke-width:1.1664" />
  <path
     class="Note"
     d="m 367.70525,40.95141 c -16.09265,0 -21.8153,8.164859 -21.8153,15.746459 0,7.5816 5.72265,15.746458 21.8153,15.746458 16.0927,0 21.68781,-8.164858 21.68781,-15.746458 0,-7.5816 -5.59511,-15.746459 -21.68781,-15.746459 m 5.94141,27.045959 c -1.4033,0.47385 -3.26231,0.710745 -5.01191,0.710745 -3.2623,0 -5.48569,-0.929445 -6.9984,-3.845445 -1.5127,-2.916 -3.60849,-10.38825 -3.73609,-13.541181 -0.2369,-3.152919 0.9295,-5.011869 3.73609,-5.94135 1.4033,-0.473815 3.26231,-0.710828 5.01191,-0.710828 3.2623,0 5.3764,0.710828 6.9984,3.863759 1.64019,3.1347 3.73609,10.60695 3.73609,13.52295 0,3.02535 -0.9295,5.13945 -3.73609,5.94135"
     id="path64"
     style="stroke-width:1.1664" />
  <path
     class="Note"
     d="m 367.70525,113.85141 c -16.09265,0 -21.8153,8.16486 -21.8153,15.74646 0,7.5816 5.72265,15.74646 21.8153,15.74646 16.0927,0 21.68781,-8.16486 21.68781,-15.74646 0,-7.5816 -5.59511,-15.74646 -21.68781,-15.74646 m 5.94141,27.04596 c -1.4033,0.47385 -3.26231,0.71075 -5.01191,0.71075 -3.2623,0 -5.48569,-0.92945 -6.9984,-3.84545 -1.5127,-2.916 -3.60849,-10.38825 -3.73609,-13.54118 -0.2369,-3.15292 0.9295,-5.01187 3.73609,-5.94135 1.4033,-0.47381 3.26231,-0.71083 5.01191,-0.71083 3.2623,0 5.3764,0.71083 6.9984,3.86376 1.64019,3.1347 3.73609,10.60695 3.73609,13.52295 0,3.02535 -0.9295,5.13945 -3.73609,5.94135"
     id="path65"
     style="stroke-width:1.1664" />
  <path
     class="Clef"
     d="m 87.425245,132.14937 c 0,8.29238 -3.389791,16.80345 -11.664,20.19336 -2.442091,-13.99686 -5.594987,-32.54991 -6.4152,-37.68942 10.4976,0 18.0792,7.12603 18.0792,17.49606 M 70.85875,153.72783 c -2.3328,0.47379 -4.537996,0.71069 -6.761505,0.71069 -16.675787,0 -30.909565,-11.664 -30.909565,-29.28755 0,-14.21556 10.023774,-26.936551 20.302674,-35.812156 1.9683,-1.7496 3.845504,-3.371595 5.595104,-5.121195 1.038796,6.287595 1.858892,11.773291 2.678987,16.566501 -10.625087,3.15289 -17.842187,14.3431 -17.842187,25.31455 0,8.1648 6.4152,19.35495 15.7464,19.35495 0.929387,0 1.986496,-0.47379 1.986496,-1.5127 0,-1.05699 -1.1664,-1.64019 -2.569696,-2.5697 -4.556308,-2.80665 -7.126004,-5.832 -7.126004,-11.55465 0,-7.10775 5.2488,-12.83046 12.137791,-14.45245 l 6.761505,38.36371 M 60.598045,33.825523 c 1.057109,-4.6656 6.4152,-16.9128 12.484213,-16.9128 1.7496,0 4.537996,5.704396 4.537996,13.759787 0,12.137909 -8.9667,21.232213 -17.022209,29.16 -0.692491,-4.6656 -1.275691,-9.203596 -1.275691,-14.106091 0,-4.319296 0.346304,-8.292405 1.275691,-11.900896 m -24.4944,155.714407 c 0,7.7092 5.941409,17.8605 21.687809,17.8605 5.485696,0 10.2789,-1.4033 14.470591,-3.97311 6.305909,-4.42859 7.927905,-12.13779 7.927905,-19.4825 0,-4.53799 -0.692492,-9.78679 -1.858892,-16.43889 -0.346304,-2.3328 -1.057108,-5.832 -1.7496,-10.38831 11.426987,-3.73609 19.938092,-15.63699 19.938092,-27.64732 0,-17.60538 -12.484096,-29.506281 -29.506305,-29.506281 -1.1664,-6.9984 -2.3328,-13.887509 -3.389791,-20.412 12.374804,-12.958005 20.885791,-27.538005 20.885791,-46.0728 0,-10.625205 -3.262187,-19.2456 -5.139391,-23.455138 C 76.581458,4.0824395 73.19155,3.9457478e-5 71.095645,3.9457478e-5 70.27555,3.9457478e-5 66.667058,1.4032187 62.821554,5.9416811 55.349245,14.816819 53.253458,29.743123 53.253458,39.529919 c 0,6.305791 0.5832,12.0285 2.569696,25.095795 -0.127604,0.109409 -6.1965,6.287596 -8.638709,8.274209 -10.625087,9.9144 -25.314495,24.020491 -25.314495,47.366747 0,21.79716 19.008704,38.94686 40.714708,38.94686 3.371596,0 6.524492,-0.34631 9.203596,-0.8201 2.223391,11.20829 3.4992,19.37309 3.4992,25.55139 0,12.13791 -6.178304,18.55311 -17.951596,18.55311 -2.806708,0 -5.2488,-0.5832 -5.485813,-0.5832 -0.109291,-0.1276 -0.346187,-0.23701 -0.346187,-0.3463 0,-0.2369 0.236896,-0.3645 0.5832,-0.47391 5.485696,-0.8201 10.953196,-5.4857 10.953196,-12.93969 0,-6.30591 -4.775009,-12.95801 -13.523009,-12.95801 -8.1648,0 -13.4136,6.6521 -13.4136,14.34311"
     id="path78"
     style="stroke-width:1.1664" />
</svg>
