<?xml version="1.0" encoding="UTF-8" standalone="no"?>
<svg
   width="340.90002"
   height="176.38989"
   viewBox="0 0 340.90003 176.3899"
   version="1.2"
   id="svg330"
   sodipodi:docname="c major 2 oct 15 1.svg"
   xmlns:inkscape="http://www.inkscape.org/namespaces/inkscape"
   xmlns:sodipodi="http://sodipodi.sourceforge.net/DTD/sodipodi-0.dtd"
   xmlns="http://www.w3.org/2000/svg"
   xmlns:svg="http://www.w3.org/2000/svg">
  <defs
     id="defs334" />
  <sodipodi:namedview
     id="namedview332"
     pagecolor="#ffffff"
     bordercolor="#000000"
     borderopacity="0.25"
     inkscape:showpageshadow="2"
     inkscape:pageopacity="0.0"
     inkscape:pagecheckerboard="0"
     inkscape:deskcolor="#d1d1d1"
     showgrid="false" />
  <title
     id="title2">c major 2 oct 15 1</title>
  <desc
     id="desc4">Generated by MuseScore Studio 4.4.4</desc>
  <polyline
     class="StaffLines"
     fill="none"
     stroke="#000000"
     stroke-width="2.73"
     stroke-linejoin="bevel"
     points="770.4,3723 1111.3,3723"
     id="polyline96"
     inkscape:export-filename="order\descending.svg"
     inkscape:export-xdpi="96"
     inkscape:export-ydpi="96"
     transform="translate(-770.40001,-3687.0868)" />
  <polyline
     class="StaffLines"
     fill="none"
     stroke="#000000"
     stroke-width="2.73"
     stroke-linejoin="bevel"
     points="770.4,3747.8 1111.3,3747.8"
     id="polyline98"
     transform="translate(-770.40001,-3687.0868)" />
  <polyline
     class="StaffLines"
     fill="none"
     stroke="#000000"
     stroke-width="2.73"
     stroke-linejoin="bevel"
     points="770.4,3772.6 1111.3,3772.6"
     id="polyline100"
     transform="translate(-770.40001,-3687.0868)" />
  <polyline
     class="StaffLines"
     fill="none"
     stroke="#000000"
     stroke-width="2.73"
     stroke-linejoin="bevel"
     points="770.4,3797.4 1111.3,3797.4"
     id="polyline102"
     transform="translate(-770.40001,-3687.0868)" />
  <polyline
     class="StaffLines"
     fill="none"
     stroke="#000000"
     stroke-width="2.73"
     stroke-linejoin="bevel"
     points="770.4,3822.2 1111.3,3822.2"
     id="polyline104"
     transform="translate(-770.40001,-3687.0868)" />
  <polyline
     class="BarLine"
     fill="none"
     stroke="#000000"
     stroke-width="4.46"
     stroke-linejoin="bevel"
     points="1095.42,3721.64 1095.42,3823.57"
     id="polyline144"
     transform="translate(-770.40001,-3687.0868)" />
  <polyline
     class="BarLine"
     fill="none"
     stroke="#000000"
     stroke-width="4.46"
     stroke-linejoin="bevel"
     points="1109.06,3721.64 1109.06,3823.57"
     id="polyline146"
     transform="translate(-770.40001,-3687.0868)" />
  <path
     class="Clef"
     d="m 30.798508,161.19967 c 0,6.5565 4.96,15.19 18.352,15.19 4.66548,0 8.742,-1.1935 12.30696,-3.379 5.36304,-3.7665 6.74252,-10.323 6.74252,-16.5695 0,-3.8595 -0.58895,-8.3235 -1.58095,-13.981 -0.29453,-1.984 -0.89905,-4.96 -1.488,-8.835 9.71843,-3.1775 16.95695,-13.299 16.95695,-23.5135 0,-14.972999 -10.61748,-25.094499 -25.09452,-25.094499 -0.992,-5.952 -1.984,-11.811 -2.77443,-17.36 10.416,-11.0205 17.65443,-23.4205 17.65443,-39.184 0,-9.0365 -2.77443,-16.368 -4.37096,-19.9480995 -2.37147,-5.0533 -5.25452,-8.52530000336 -7.03704,-8.52530000336 -0.69748,0 -3.76643,1.19340000336 -7.03696,5.05330000336 -6.35504,7.5480995 -8.13747,20.2425995 -8.13747,28.5660995 0,5.363 0.496,10.23 2.18547,21.3435 -0.10852,0.093 -5.27,5.3475 -7.34704,7.037 -9.03643,8.339 -21.52948,20.429 -21.52948,40.284499 0,18.538 16.16652,33.1235 34.62705,33.1235 2.86747,0 5.54895,-0.2945 7.82747,-0.6975 1.89096,9.5325 3.08453,16.4765 3.08453,21.731 0,10.323 -5.36305,15.779 -15.376,15.779 -2.38705,0 -4.464,-0.496 -4.66557,-0.496 -0.093,-0.1085 -0.29443,-0.2015 -0.29443,-0.2945 0,-0.2015 0.20147,-0.31 0.496,-0.31 4.66547,-0.7905 9.31547,-4.7585 9.31547,-11.098 0,-5.363 -4.06104,-11.0205 -11.50104,-11.0205 -6.944,0 -11.31496,5.6575 -11.31496,12.1985 M 51.537468,28.767671 c 0.89904,-3.968 5.456,-14.384 10.61757,-14.384 1.488,0 3.85947,4.7585 3.85947,11.7025 0,10.323 -7.626,18.0575 -14.47704,24.8 -0.58896,-3.968 -1.08496,-7.8275 -1.08496,-11.997 0,-3.6735 0.29453,-7.0525 1.08496,-10.1215 m 8.72652,101.974499 c -1.984,0.403 -3.85948,0.6045 -5.75052,0.6045 -14.18243,0 -26.28798,-9.92 -26.28798,-24.9085 0,-12.089999 8.52502,-22.908999 17.26702,-30.457499 1.674,-1.488 3.27053,-2.8675 4.75853,-4.3555 0.88347,5.3475 1.58095,10.013 2.27843,14.0895 -9.03643,2.6815 -15.17443,12.1985 -15.17443,21.529499 0,6.944 5.456,16.461 13.392,16.461 0.79043,0 1.68947,-0.403 1.68947,-1.2865 0,-0.899 -0.992,-1.395 -2.18547,-2.1855 -3.87505,-2.387 -6.06053,-4.96 -6.06053,-9.827 0,-6.045 4.57253,-10.911999 10.32296,-12.291499 l 5.75052,32.627499 m 14.08948,-18.352 c 0,7.0525 -2.88296,14.291 -9.92,17.174 -2.07696,-11.904 -4.75843,-27.683 -5.456,-32.053999 8.928,0 15.376,6.060499 15.376,14.879999"
     id="path300"
     style="stroke-width:0.992" />
  <path
     class="Note"
     d="m 192.46749,96.464771 c -13.6865,0 -18.5535,6.944099 -18.5535,13.392099 0,6.448 4.867,13.392 18.5535,13.392 13.6865,0 18.445,-6.944 18.445,-13.392 0,-6.448 -4.7585,-13.392099 -18.445,-13.392099 m 0.7905,23.606599 c -2.7745,0 -4.6655,-0.7905 -5.952,-3.2705 -1.2865,-2.48 -3.069,-8.928 -3.1775,-11.5165 -0.2015,-2.6815 0.7905,-4.2625 3.1775,-5.053 1.1935,-0.402999 2.7745,-0.604599 4.371,-0.604599 2.666,0 4.464,0.604599 5.8435,3.286099 1.395,2.573 3.286,9.021 3.286,11.501 0,4.867 -3.5805,5.6575 -7.5485,5.6575"
     id="path494"
     style="stroke-width:0.992" />
  <path
     class="Note"
     d="m 192.46769,34.752271 c -13.6865,0 -18.5535,6.9441 -18.5535,13.3921 0,6.448 4.867,13.392 18.5535,13.392 13.6865,0 18.445,-6.944 18.445,-13.392 0,-6.448 -4.7585,-13.3921 -18.445,-13.3921 m 0.7905,23.6066 c -2.7745,0 -4.6655,-0.7905 -5.952,-3.2705 -1.2865,-2.48 -3.069,-8.928 -3.1775,-11.5165 -0.2015,-2.6815 0.7905,-4.2625 3.1775,-5.053 1.1935,-0.403 2.7745,-0.6046 4.371,-0.6046 2.666,0 4.464,0.6046 5.8435,3.2861 1.395,2.573 3.286,9.021 3.286,11.501 0,4.867 -3.5805,5.6575 -7.5485,5.6575"
     id="path496"
     style="stroke-width:0.992" />
</svg>
