<?xml version="1.0" encoding="UTF-8" standalone="no"?>
<svg
   width="36.349586mm"
   height="12.445299mm"
   viewBox="0 0 515.19099 176.39007"
   version="1.2"
   id="svg229"
   sodipodi:docname="qual examples.svg"
   xmlns:inkscape="http://www.inkscape.org/namespaces/inkscape"
   xmlns:sodipodi="http://sodipodi.sourceforge.net/DTD/sodipodi-0.dtd"
   xmlns="http://www.w3.org/2000/svg"
   xmlns:svg="http://www.w3.org/2000/svg">
  <defs
     id="defs229" />
  <sodipodi:namedview
     id="namedview229"
     pagecolor="#505050"
     bordercolor="#eeeeee"
     borderopacity="1"
     inkscape:showpageshadow="0"
     inkscape:pageopacity="0"
     inkscape:pagecheckerboard="0"
     inkscape:deskcolor="#505050"
     inkscape:document-units="mm">
    <inkscape:page
       x="0"
       y="8.9069512e-13"
       width="515.19098"
       height="176.39008"
       id="page2"
       margin="0"
       bleed="0" />
  </sodipodi:namedview>
  <title
     id="title1">test1</title>
  <desc
     id="desc1">Generated by MuseScore Studio 4.5.2</desc>
  <polyline
     class="StaffLines"
     fill="none"
     stroke="#000000"
     stroke-width="2.73"
     stroke-linejoin="bevel"
     points="212.598,2350.2 727.789,2350.2"
     id="polyline26"
     transform="translate(-212.59801,-2314.2866)" />
  <polyline
     class="StaffLines"
     fill="none"
     stroke="#000000"
     stroke-width="2.73"
     stroke-linejoin="bevel"
     points="212.598,2375 727.789,2375"
     id="polyline27"
     transform="translate(-212.59801,-2314.2866)" />
  <polyline
     class="StaffLines"
     fill="none"
     stroke="#000000"
     stroke-width="2.73"
     stroke-linejoin="bevel"
     points="212.598,2399.8 727.789,2399.8"
     id="polyline28"
     transform="translate(-212.59801,-2314.2866)" />
  <polyline
     class="StaffLines"
     fill="none"
     stroke="#000000"
     stroke-width="2.73"
     stroke-linejoin="bevel"
     points="212.598,2424.6 727.789,2424.6"
     id="polyline29"
     transform="translate(-212.59801,-2314.2866)" />
  <polyline
     class="StaffLines"
     fill="none"
     stroke="#000000"
     stroke-width="2.73"
     stroke-linejoin="bevel"
     points="212.598,2449.4 727.789,2449.4"
     id="polyline30"
     transform="translate(-212.59801,-2314.2866)" />
  <polyline
     class="BarLine"
     fill="none"
     stroke="#000000"
     stroke-width="4.46"
     stroke-linejoin="bevel"
     points="725.557,2348.84 725.557,2450.76"
     id="polyline90"
     transform="translate(-212.59801,-2314.2866)" />
  <polyline
     class="LedgerLine"
     fill="none"
     stroke="#000000"
     stroke-width="3.97"
     stroke-linejoin="bevel"
     points="346.1,2474.2 399.467,2474.2"
     id="polyline118"
     transform="translate(-212.59801,-2314.2866)" />
  <path
     class="Note"
     d="m 160.23949,146.42834 c -13.68649,0 -18.5535,6.94406 -18.5535,13.39206 0,6.44801 4.86701,13.39207 18.5535,13.39207 13.68654,0 18.44507,-6.94406 18.44507,-13.39207 0,-6.448 -4.75853,-13.39206 -18.44507,-13.39206 m 5.05305,23.00207 c -1.19347,0.403 -2.77452,0.60448 -4.26253,0.60448 -2.77452,0 -4.66548,-0.79048 -5.952,-3.27048 -1.28653,-2.48 -3.06896,-8.83501 -3.17748,-11.51652 -0.20148,-2.68149 0.79052,-4.26249 3.17748,-5.053 1.19347,-0.40297 2.77453,-0.60455 4.26253,-0.60455 2.77452,0 4.57253,0.60455 5.952,3.28606 1.39495,2.666 3.17748,9.02101 3.17748,11.50101 0,2.573 -0.79052,4.371 -3.17748,5.053"
     id="path148"
     style="stroke-width:0.992001" />
  <path
     class="Note"
     d="m 343.56649,121.62834 c -13.68649,0 -18.5535,6.94406 -18.5535,13.39206 0,6.44801 4.86701,13.39207 18.5535,13.39207 13.68654,0 18.44507,-6.94406 18.44507,-13.39207 0,-6.448 -4.75853,-13.39206 -18.44507,-13.39206 m 5.05305,23.00207 c -1.19347,0.403 -2.77452,0.60448 -4.26253,0.60448 -2.77452,0 -4.66548,-0.79048 -5.952,-3.27048 -1.28653,-2.48 -3.06896,-8.83501 -3.17748,-11.51652 -0.20148,-2.68149 0.79052,-4.26249 3.17748,-5.053 1.19347,-0.40297 2.77453,-0.60455 4.26253,-0.60455 2.77452,0 4.57253,0.60455 5.952,3.28606 1.39495,2.666 3.17748,9.02101 3.17748,11.50101 0,2.573 -0.79052,4.371 -3.17748,5.053"
     id="path161"
     style="stroke-width:0.992001" />
  <path
     class="Clef"
     d="m 74.353524,112.39041 c 0,7.05251 -2.882954,14.29101 -9.92001,17.17406 -2.076953,-11.90406 -4.758431,-27.68307 -5.456006,-32.054132 8.928009,0 15.376016,6.060552 15.376016,14.880072 m -14.08949,18.35206 c -1.984002,0.40296 -3.859479,0.60443 -5.75053,0.60443 -14.18244,0 -26.287997,-9.92001 -26.287997,-24.9085 0,-12.090066 8.525028,-22.909027 17.267037,-30.457559 1.674002,-1.488002 3.270528,-2.867478 4.75853,-4.35548 0.883476,5.347481 1.580952,10.012961 2.278428,14.089489 -9.036435,2.681478 -15.174441,12.198538 -15.174441,21.52955 0,6.94401 5.456005,16.46102 13.392013,16.46102 0.790427,0 1.689477,-0.40295 1.689477,-1.28653 0,-0.89895 -0.992001,-1.39495 -2.185477,-2.18548 -3.875054,-2.387 -6.060531,-4.96 -6.060531,-9.82701 0,-6.045 4.464004,-10.91206 10.322961,-12.291537 l 5.75053,32.627607 M 51.537501,28.767843 c 0.89905,-3.968004 5.456005,-14.384015 10.617585,-14.384015 1.488001,0 3.859479,4.85148 3.859479,11.702438 0,10.32306 -7.626008,18.057592 -14.477064,24.800025 -0.588951,-3.968004 -1.084952,-7.827484 -1.084952,-11.996963 0,-3.673479 0.294525,-7.052532 1.084952,-10.121485 M 30.70548,161.19998 c 0,6.55653 5.053054,15.19002 18.445068,15.19002 4.66548,0 8.742009,-1.19348 12.306963,-3.37906 5.363055,-3.76643 6.742531,-10.32296 6.742531,-16.56949 0,-3.85948 -0.588951,-8.32348 -1.580952,-13.98096 -0.294525,-1.98401 -0.89905,-4.96001 -1.488001,-8.83506 9.718435,-3.17748 16.956967,-13.29897 16.956967,-23.51353 0,-14.97304 -10.617486,-25.094525 -25.09455,-25.094525 C 56.001505,79.065369 55.009504,73.206313 54.110553,67.657357 64.635088,56.636821 71.873521,44.236809 71.873521,28.473318 71.873521,19.436784 69.099093,12.105301 67.502566,8.52517 65.131089,3.4719169 62.248036,-8.6642206e-5 60.46551,-8.6642206e-5 c -0.697476,0 -3.76643,1.193377242206 -7.036958,5.053253142206 -6.355056,7.5481355 -8.137483,20.2426725 -8.137483,28.5661565 0,5.362956 0.496,10.23001 2.185477,21.343496 -0.108525,0.09305 -5.270005,5.347481 -7.347057,7.037057 -9.036435,8.432009 -21.529497,20.428971 -21.529497,40.284524 0,18.53806 16.166541,33.12355 34.627085,33.12355 2.867478,0 5.548956,-0.29452 7.827483,-0.69747 1.890952,9.53243 2.976003,16.47644 2.976003,21.73097 0,10.32306 -5.25453,15.77907 -15.267491,15.77907 -2.387052,0 -4.464004,-0.496 -4.665579,-0.496 -0.09295,-0.10853 -0.294426,-0.20158 -0.294426,-0.29453 0,-0.20147 0.201476,-0.31 0.496001,-0.40305 4.66548,-0.69748 9.315484,-4.66548 9.315484,-11.00496 0,-5.36306 -4.061053,-11.02054 -11.501061,-11.02054 -6.944007,0 -11.408011,5.65748 -11.408011,12.19854"
     id="path167"
     style="stroke-width:0.992001" />
</svg>
