<?xml version="1.0" encoding="UTF-8" standalone="no"?>
<svg
   width="36.349518mm"
   height="12.445299mm"
   viewBox="0 0 515.19002 176.39007"
   version="1.2"
   id="svg229"
   sodipodi:docname="qual examples.svg"
   xmlns:inkscape="http://www.inkscape.org/namespaces/inkscape"
   xmlns:sodipodi="http://sodipodi.sourceforge.net/DTD/sodipodi-0.dtd"
   xmlns="http://www.w3.org/2000/svg"
   xmlns:svg="http://www.w3.org/2000/svg">
  <defs
     id="defs229" />
  <sodipodi:namedview
     id="namedview229"
     pagecolor="#505050"
     bordercolor="#eeeeee"
     borderopacity="1"
     inkscape:showpageshadow="0"
     inkscape:pageopacity="0"
     inkscape:pagecheckerboard="0"
     inkscape:deskcolor="#505050"
     inkscape:document-units="mm">
    <inkscape:page
       x="0"
       y="8.9069512e-13"
       width="515.19"
       height="176.39008"
       id="page2"
       margin="0"
       bleed="0" />
  </sodipodi:namedview>
  <title
     id="title1">test1</title>
  <desc
     id="desc1">Generated by MuseScore Studio 4.5.2</desc>
  <polyline
     class="StaffLines"
     fill="none"
     stroke="#000000"
     stroke-width="2.73"
     stroke-linejoin="bevel"
     points="1223.79,2350.2 1738.98,2350.2"
     id="polyline31"
     transform="translate(-1223.79,-2314.2866)" />
  <polyline
     class="StaffLines"
     fill="none"
     stroke="#000000"
     stroke-width="2.73"
     stroke-linejoin="bevel"
     points="1223.79,2375 1738.98,2375"
     id="polyline32"
     transform="translate(-1223.79,-2314.2866)" />
  <polyline
     class="StaffLines"
     fill="none"
     stroke="#000000"
     stroke-width="2.73"
     stroke-linejoin="bevel"
     points="1223.79,2399.8 1738.98,2399.8"
     id="polyline33"
     transform="translate(-1223.79,-2314.2866)" />
  <polyline
     class="StaffLines"
     fill="none"
     stroke="#000000"
     stroke-width="2.73"
     stroke-linejoin="bevel"
     points="1223.79,2424.6 1738.98,2424.6"
     id="polyline34"
     transform="translate(-1223.79,-2314.2866)" />
  <polyline
     class="StaffLines"
     fill="none"
     stroke="#000000"
     stroke-width="2.73"
     stroke-linejoin="bevel"
     points="1223.79,2449.4 1738.98,2449.4"
     id="polyline35"
     transform="translate(-1223.79,-2314.2866)" />
  <polyline
     class="BarLine"
     fill="none"
     stroke="#000000"
     stroke-width="4.46"
     stroke-linejoin="bevel"
     points="1736.75,2348.84 1736.75,2450.76"
     id="polyline101"
     transform="translate(-1223.79,-2314.2866)" />
  <path
     class="Accidental"
     d="m 318.61304,127.2704 c -0.58905,-3.85953 -2.976,-7.53301 -8.02906,-7.53301 -4.96,0 -7.84301,3.06895 -8.33901,3.67348 l 0.403,-31.852563 c 0,-0.790427 -0.589,-1.379477 -1.395,-1.379477 h -1.178 c -0.806,0 -1.395,0.58905 -1.395,1.379477 l 0.496,59.628593 c 0,0.79052 0.589,1.37957 1.395,1.37957 0.186,0 0.589,-0.0931 0.79051,-0.186 0.38749,-0.20157 6.8355,-3.37905 12.1985,-9.42406 3.76653,-4.278 5.25453,-9.12951 5.25453,-13.20601 0,-0.88351 -0.0931,-1.674 -0.20147,-2.48 m -6.83558,3.875 c 0,1.488 -0.40295,6.04501 -2.88296,9.82701 -1.68952,2.573 -5.05302,5.25448 -6.94402,6.74248 l 0.29449,-19.344 c 0.20151,-0.899 1.68951,-3.76655 5.65751,-3.76655 3.58055,0 3.87498,3.36355 3.87498,5.45606 0,0.496 0,0.79049 0,1.085"
     id="path118"
     style="stroke-width:0.992001" />
  <polyline
     class="LedgerLine"
     fill="none"
     stroke="#000000"
     stroke-width="3.97"
     stroke-linejoin="bevel"
     points="1357.29,2474.2 1410.66,2474.2"
     id="polyline120"
     transform="translate(-1223.79,-2314.2866)" />
  <path
     class="Note"
     d="m 343.56346,121.62834 c -13.68649,0 -18.55349,6.94406 -18.55349,13.39206 0,6.44801 4.867,13.39207 18.55349,13.39207 13.68654,0 18.44507,-6.94406 18.44507,-13.39207 0,-6.448 -4.75853,-13.39206 -18.44507,-13.39206 m 5.05306,23.00207 c -1.19348,0.403 -2.77453,0.60448 -4.26253,0.60448 -2.77453,0 -4.66548,-0.79048 -5.95201,-3.27048 -1.28652,-2.48 -3.06895,-8.83501 -3.17748,-11.51652 -0.20147,-2.68149 0.79053,-4.26249 3.17748,-5.053 1.19348,-0.40297 2.77453,-0.60455 4.26253,-0.60455 2.77453,0 4.57253,0.60455 5.95201,3.28606 1.39495,2.666 3.17748,9.02101 3.17748,11.50101 0,2.573 -0.79053,4.371 -3.17748,5.053"
     id="path144"
     style="stroke-width:0.992001" />
  <path
     class="Note"
     d="m 160.24346,146.42834 c -13.68649,0 -18.55349,6.94406 -18.55349,13.39206 0,6.44801 4.867,13.39207 18.55349,13.39207 13.68654,0 18.44507,-6.94406 18.44507,-13.39207 0,-6.448 -4.75853,-13.39206 -18.44507,-13.39206 m 5.05306,23.00207 c -1.19348,0.403 -2.77453,0.60448 -4.26253,0.60448 -2.77453,0 -4.66548,-0.79048 -5.95201,-3.27048 -1.28652,-2.48 -3.06895,-8.83501 -3.17748,-11.51652 -0.20147,-2.68149 0.79053,-4.26249 3.17748,-5.053 1.19348,-0.40297 2.77453,-0.60455 4.26253,-0.60455 2.77453,0 4.57253,0.60455 5.95201,3.28606 1.39495,2.666 3.17748,9.02101 3.17748,11.50101 0,2.573 -0.79053,4.371 -3.17748,5.053"
     id="path160"
     style="stroke-width:0.992001" />
  <path
     class="Clef"
     d="m 74.353497,112.39041 c 0,7.05251 -2.882953,14.29101 -9.92001,17.17406 -2.076952,-11.90406 -4.75843,-27.68307 -5.456005,-32.054132 8.928009,0 15.376015,6.060552 15.376015,14.880072 m -14.089489,18.35206 c -1.984002,0.40296 -3.859479,0.60443 -5.750531,0.60443 -14.18244,0 -26.287997,-9.92001 -26.287997,-24.9085 0,-12.090066 8.525029,-22.909027 17.267038,-30.457559 1.674001,-1.488002 3.270528,-2.867478 4.758529,-4.35548 0.883476,5.347481 1.580952,10.012961 2.278428,14.089489 -9.036435,2.681478 -15.174441,12.198538 -15.174441,21.52955 0,6.94401 5.456006,16.46102 13.392014,16.46102 0.790426,0 1.689477,-0.40295 1.689477,-1.28653 0,-0.89895 -0.992001,-1.39495 -2.185478,-2.18548 -3.875053,-2.387 -6.060531,-4.96 -6.060531,-9.82701 0,-6.045 4.464005,-10.91206 10.322961,-12.291537 l 5.750531,32.627607 M 51.537474,28.767843 c 0.899051,-3.968004 5.456006,-14.384015 10.617585,-14.384015 1.488002,0 3.859479,4.85148 3.859479,11.702438 0,10.32306 -7.626007,18.057592 -14.477064,24.800025 -0.588951,-3.968004 -1.084951,-7.827484 -1.084951,-11.996963 0,-3.673479 0.294525,-7.052532 1.084951,-10.121485 M 30.705453,161.19998 c 0,6.55653 5.053055,15.19002 18.445068,15.19002 4.66548,0 8.742009,-1.19348 12.306963,-3.37906 5.363055,-3.76643 6.742532,-10.32296 6.742532,-16.56949 0,-3.85948 -0.588951,-8.32348 -1.580952,-13.98096 -0.294525,-1.98401 -0.899051,-4.96001 -1.488002,-8.83506 9.718436,-3.17748 16.956968,-13.29897 16.956968,-23.51353 0,-14.97304 -10.617486,-25.094525 -25.09455,-25.094525 C 56.001479,79.065369 55.009478,73.206313 54.110526,67.657357 64.635062,56.636821 71.873495,44.236809 71.873495,28.473318 71.873495,19.436784 69.099066,12.105301 67.50254,8.52517 65.131062,3.4719169 62.24801,-8.6642206e-5 60.465483,-8.6642206e-5 59.768007,-8.6642206e-5 56.699054,1.1932906 53.428526,5.0531665 47.07347,12.601302 45.291042,25.295839 45.291042,33.619323 c 0,5.362956 0.496001,10.23001 2.185478,21.343496 -0.108525,0.09305 -5.270006,5.347481 -7.347057,7.037057 -9.036435,8.432009 -21.529497,20.428971 -21.529497,40.284524 0,18.53806 16.166541,33.12355 34.627084,33.12355 2.867478,0 5.548956,-0.29452 7.827483,-0.69747 1.890953,9.53243 2.976003,16.47644 2.976003,21.73097 0,10.32306 -5.25453,15.77907 -15.26749,15.77907 -2.387052,0 -4.464005,-0.496 -4.665579,-0.496 -0.09295,-0.10853 -0.294426,-0.20158 -0.294426,-0.29453 0,-0.20147 0.201475,-0.31 0.496,-0.40305 4.66548,-0.69748 9.315485,-4.66548 9.315485,-11.00496 0,-5.36306 -4.061054,-11.02054 -11.501061,-11.02054 -6.944007,0 -11.408012,5.65748 -11.408012,12.19854"
     id="path165"
     style="stroke-width:0.992001" />
</svg>
