<?xml version="1.0" encoding="UTF-8" standalone="no"?>
<svg
   width="37.367634mm"
   height="13.613275mm"
   viewBox="0 0 529.62001 192.94405"
   version="1.2"
   id="svg229"
   sodipodi:docname="cise.svg"
   xmlns:inkscape="http://www.inkscape.org/namespaces/inkscape"
   xmlns:sodipodi="http://sodipodi.sourceforge.net/DTD/sodipodi-0.dtd"
   xmlns="http://www.w3.org/2000/svg"
   xmlns:svg="http://www.w3.org/2000/svg">
  <defs
     id="defs229" />
  <sodipodi:namedview
     id="namedview229"
     pagecolor="#505050"
     bordercolor="#eeeeee"
     borderopacity="1"
     inkscape:showpageshadow="0"
     inkscape:pageopacity="0"
     inkscape:pagecheckerboard="0"
     inkscape:deskcolor="#505050"
     inkscape:document-units="mm">
    <inkscape:page
       x="0"
       y="-5.1864321e-20"
       width="529.62"
       height="192.94405"
       id="page1"
       margin="0"
       bleed="0" />
  </sodipodi:namedview>
  <title
     id="title1">test1</title>
  <desc
     id="desc1">Generated by MuseScore Studio 4.5.2</desc>
  <polyline
     class="StaffLines"
     fill="none"
     stroke="#000000"
     stroke-width="2.73"
     stroke-linejoin="bevel"
     points="2234.98,2350.2 2764.6,2350.2"
     id="polyline36"
     transform="translate(-2234.98,-2314.2865)" />
  <polyline
     class="StaffLines"
     fill="none"
     stroke="#000000"
     stroke-width="2.73"
     stroke-linejoin="bevel"
     points="2234.98,2375 2764.6,2375"
     id="polyline37"
     transform="translate(-2234.98,-2314.2865)" />
  <polyline
     class="StaffLines"
     fill="none"
     stroke="#000000"
     stroke-width="2.73"
     stroke-linejoin="bevel"
     points="2234.98,2399.8 2764.6,2399.8"
     id="polyline38"
     transform="translate(-2234.98,-2314.2865)" />
  <polyline
     class="StaffLines"
     fill="none"
     stroke="#000000"
     stroke-width="2.73"
     stroke-linejoin="bevel"
     points="2234.98,2424.6 2764.6,2424.6"
     id="polyline39"
     transform="translate(-2234.98,-2314.2865)" />
  <polyline
     class="StaffLines"
     fill="none"
     stroke="#000000"
     stroke-width="2.73"
     stroke-linejoin="bevel"
     points="2234.98,2449.4 2764.6,2449.4"
     id="polyline40"
     transform="translate(-2234.98,-2314.2865)" />
  <polyline
     class="BarLine"
     fill="none"
     stroke="#000000"
     stroke-width="4.46"
     stroke-linejoin="bevel"
     points="2762.37,2348.84 2762.37,2450.76"
     id="polyline109"
     transform="translate(-2234.98,-2314.2865)" />
  <path
     class="Accidental"
     d="m 142.38062,149.49748 c 0.60453,-0.0931 1.10053,-0.79052 1.10053,-1.39505 v -5.84348 c 0,-0.79052 -0.60453,-1.39495 -1.39505,-1.39495 -0.093,0 -0.093,0 -0.20148,0 l -3.27053,0.69748 v -14.78707 h -2.77452 v 15.37602 l -8.83498,1.798 v -13.99644 h -2.77451 v 14.58549 l -3.87501,0.79052 c -0.589,0.10843 -1.085,0.79043 -1.085,1.39496 v 0.20147 5.75055 -0.20149 c 0,0.79049 0.589,1.395 1.39501,1.395 0.093,0 0.186,0 0.2945,0 l 3.2705,-0.69751 v 16.36803 l -3.87501,0.79049 c -0.589,0.093 -1.085,0.79053 -1.085,1.39506 v 5.75043 c 0,0.79052 0.589,1.37957 1.39501,1.37957 0.093,0 0.186,0 0.2945,0 l 3.2705,-0.682 v 14.77149 h 2.77451 v -15.37601 l 8.83498,-1.78253 v 13.99654 h 2.77452 v -14.58549 l 3.76653,-0.69758 c 0.60453,-0.10842 1.10053,-0.79042 1.10053,-1.39495 v -5.84353 c 0,-0.806 -0.60453,-1.395 -1.39505,-1.395 -0.093,0 -0.093,0 -0.20148,0 l -3.27053,0.69751 v -16.36803 l 3.76653,-0.6975 m -15.37603,3.06901 8.83498,-1.78251 v 16.36803 l -8.83498,1.891 v -16.47652"
     id="path117"
     style="stroke-width:0.992001" />
  <polyline
     class="LedgerLine"
     fill="none"
     stroke="#000000"
     stroke-width="3.97"
     stroke-linejoin="bevel"
     points="2382.91,2474.2 2436.28,2474.2"
     id="polyline119"
     transform="translate(-2234.98,-2314.2865)" />
  <path
     class="Note"
     d="m 174.67357,146.42843 c -13.68649,0 -18.5535,6.94406 -18.5535,13.39206 0,6.44801 4.86701,13.39207 18.5535,13.39207 13.68654,0 18.44507,-6.94406 18.44507,-13.39207 0,-6.448 -4.75853,-13.39206 -18.44507,-13.39206 m 5.05305,23.00207 c -1.19347,0.403 -2.77453,0.60448 -4.26253,0.60448 -2.77452,0 -4.66548,-0.79048 -5.952,-3.27048 -1.28653,-2.48 -3.06896,-8.83501 -3.17748,-11.51652 -0.20148,-2.68149 0.79052,-4.26249 3.17748,-5.053 1.19347,-0.40297 2.77452,-0.60455 4.26253,-0.60455 2.77452,0 4.57253,0.60455 5.952,3.28606 1.39495,2.666 3.17748,9.02101 3.17748,11.50101 0,2.573 -0.79052,4.371 -3.17748,5.053"
     id="path158"
     style="stroke-width:0.992001" />
  <path
     class="Note"
     d="m 357.99357,121.62843 c -13.68649,0 -18.5535,6.94406 -18.5535,13.39206 0,6.44801 4.86701,13.39207 18.5535,13.39207 13.68654,0 18.44507,-6.94406 18.44507,-13.39207 0,-6.448 -4.75853,-13.39206 -18.44507,-13.39206 m 5.05305,23.00207 c -1.19347,0.403 -2.77453,0.60448 -4.26253,0.60448 -2.77452,0 -4.66548,-0.79048 -5.952,-3.27048 -1.28653,-2.48 -3.06896,-8.83501 -3.17748,-11.51652 -0.20148,-2.68149 0.79052,-4.26249 3.17748,-5.053 1.19347,-0.40297 2.77452,-0.60455 4.26253,-0.60455 2.77452,0 4.57253,0.60455 5.952,3.28606 1.39495,2.666 3.17748,9.02101 3.17748,11.50101 0,2.573 -0.79052,4.371 -3.17748,5.053"
     id="path162"
     style="stroke-width:0.992001" />
  <path
     class="Clef"
     d="m 74.353607,112.3905 c 0,7.05251 -2.882953,14.29101 -9.92001,17.17406 -2.076952,-11.90406 -4.75843,-27.68307 -5.456005,-32.054135 8.928009,0 15.376015,6.060555 15.376015,14.880075 m -14.089489,18.35206 c -1.984002,0.40296 -3.859479,0.60443 -5.750531,0.60443 -14.18244,0 -26.287996,-9.92001 -26.287996,-24.9085 0,-12.090069 8.525028,-22.90903 17.267037,-30.457562 1.674001,-1.488002 3.270528,-2.867478 4.758529,-4.35548 0.883476,5.347481 1.580952,10.012961 2.278428,14.089489 -9.036434,2.681478 -15.174441,12.198538 -15.174441,21.529553 0,6.94401 5.456006,16.46102 13.392014,16.46102 0.790426,0 1.689477,-0.40295 1.689477,-1.28653 0,-0.89895 -0.992001,-1.39495 -2.185478,-2.18548 -3.875053,-2.387 -6.060531,-4.96 -6.060531,-9.82701 0,-6.045 4.464005,-10.912063 10.322961,-12.29154 l 5.750531,32.62761 M 51.537584,28.76793 c 0.899051,-3.968004 5.456006,-14.384015 10.617585,-14.384015 1.488002,0 3.859479,4.85148 3.859479,11.702438 0,10.32306 -7.626007,18.057592 -14.477064,24.800025 -0.588951,-3.968004 -1.084951,-7.827484 -1.084951,-11.996963 0,-3.673479 0.294525,-7.052532 1.084951,-10.121485 M 30.705563,161.20007 c 0,6.55653 5.053055,15.19002 18.445068,15.19002 4.66548,0 8.742009,-1.19348 12.306963,-3.37906 5.363055,-3.76643 6.742532,-10.32296 6.742532,-16.56949 0,-3.85948 -0.588951,-8.32348 -1.580952,-13.98096 -0.294525,-1.98401 -0.899051,-4.96001 -1.488002,-8.83506 9.718436,-3.17748 16.956968,-13.29897 16.956968,-23.51353 0,-14.973043 -10.617486,-25.094528 -25.09455,-25.094528 C 56.001589,79.065456 55.009588,73.2064 54.110636,67.657444 64.635172,56.636908 71.873605,44.236896 71.873605,28.473405 71.873605,19.436871 69.099176,12.105388 67.50265,8.5252566 65.131172,3.4720035 62.24812,0 60.465593,0 59.768117,0 56.699164,1.1933772 53.428636,5.0532531 47.07358,12.601389 45.291152,25.295926 45.291152,33.61941 c 0,5.362956 0.496001,10.23001 2.185478,21.343496 -0.108525,0.09305 -5.270006,5.347481 -7.347057,7.037057 -9.036435,8.432009 -21.529497,20.428971 -21.529497,40.284527 0,18.53806 16.166541,33.12355 34.627084,33.12355 2.867478,0 5.548956,-0.29452 7.827483,-0.69747 1.890953,9.53243 2.976003,16.47644 2.976003,21.73097 0,10.32306 -5.25453,15.77907 -15.26749,15.77907 -2.387052,0 -4.464005,-0.496 -4.665579,-0.496 -0.09295,-0.10853 -0.294426,-0.20158 -0.294426,-0.29453 0,-0.20147 0.201475,-0.31 0.496,-0.40305 4.66548,-0.69748 9.315485,-4.66548 9.315485,-11.00496 0,-5.36306 -4.061054,-11.02054 -11.501061,-11.02054 -6.944007,0 -11.408012,5.65748 -11.408012,12.19854"
     id="path171"
     style="stroke-width:0.992001" />
  <path
     class="Accidental"
     d="m 334.35076,127.12673 c -0.58905,-3.85953 -2.976,-7.53301 -8.02906,-7.53301 -4.96,0 -7.84301,3.06895 -8.33901,3.67348 l 0.403,-31.852563 c 0,-0.79043 -0.589,-1.37948 -1.395,-1.37948 h -1.178 c -0.806,0 -1.395,0.58905 -1.395,1.37948 l 0.496,59.628593 c 0,0.79052 0.589,1.37957 1.395,1.37957 0.186,0 0.589,-0.0931 0.79051,-0.186 0.38749,-0.20157 6.8355,-3.37905 12.1985,-9.42406 3.76653,-4.278 5.25453,-9.12951 5.25453,-13.20601 0,-0.88351 -0.0931,-1.674 -0.20147,-2.48 m -6.83558,3.875 c 0,1.488 -0.40295,6.04501 -2.88296,9.82701 -1.68952,2.573 -5.05302,5.25448 -6.94402,6.74248 l 0.29449,-19.34399 c 0.20151,-0.899 1.68951,-3.76655 5.65751,-3.76655 3.58055,0 3.87498,3.36354 3.87498,5.45605 0,0.49601 0,0.7905 0,1.08501"
     id="path118"
     style="stroke-width:0.992001" />
</svg>
