<?xml version="1.0" encoding="UTF-8" standalone="no"?>
<svg
   width="37.064243mm"
   height="12.445299mm"
   viewBox="0 0 525.31999 176.39007"
   version="1.2"
   id="svg229"
   sodipodi:docname="cisg.svg"
   inkscape:version="1.4 (86a8ad7, 2024-10-11)"
   xmlns:inkscape="http://www.inkscape.org/namespaces/inkscape"
   xmlns:sodipodi="http://sodipodi.sourceforge.net/DTD/sodipodi-0.dtd"
   xmlns="http://www.w3.org/2000/svg"
   xmlns:svg="http://www.w3.org/2000/svg"
   xmlns:rdf="http://www.w3.org/1999/02/22-rdf-syntax-ns#"
   xmlns:cc="http://creativecommons.org/ns#"
   xmlns:dc="http://purl.org/dc/elements/1.1/">
  <defs
     id="defs229" />
  <sodipodi:namedview
     id="namedview229"
     pagecolor="#505050"
     bordercolor="#eeeeee"
     borderopacity="1"
     inkscape:showpageshadow="0"
     inkscape:pageopacity="0"
     inkscape:pagecheckerboard="0"
     inkscape:deskcolor="#505050"
     inkscape:document-units="mm"
     inkscape:zoom="12.984943"
     inkscape:cx="70.00416"
     inkscape:cy="23.527251"
     inkscape:window-width="1920"
     inkscape:window-height="1111"
     inkscape:window-x="-9"
     inkscape:window-y="-9"
     inkscape:window-maximized="1"
     inkscape:current-layer="svg229">
    <inkscape:page
       x="0"
       y="1.0227818e-12"
       width="525.32001"
       height="176.39008"
       id="page2"
       margin="0"
       bleed="0" />
  </sodipodi:namedview>
  <title
     id="title1">test1</title>
  <desc
     id="desc1">Generated by MuseScore Studio 4.5.2</desc>
  <polyline
     class="StaffLines"
     fill="none"
     stroke="#000000"
     stroke-width="2.73"
     stroke-linejoin="bevel"
     points="1225.94,2693.4 1751.26,2693.4"
     id="polyline46"
     transform="translate(-1225.9399,-2657.4866)" />
  <polyline
     class="StaffLines"
     fill="none"
     stroke="#000000"
     stroke-width="2.73"
     stroke-linejoin="bevel"
     points="1225.94,2718.2 1751.26,2718.2"
     id="polyline47"
     transform="translate(-1225.9399,-2657.4866)" />
  <polyline
     class="StaffLines"
     fill="none"
     stroke="#000000"
     stroke-width="2.73"
     stroke-linejoin="bevel"
     points="1225.94,2743 1751.26,2743"
     id="polyline48"
     transform="translate(-1225.9399,-2657.4866)" />
  <polyline
     class="StaffLines"
     fill="none"
     stroke="#000000"
     stroke-width="2.73"
     stroke-linejoin="bevel"
     points="1225.94,2767.8 1751.26,2767.8"
     id="polyline49"
     transform="translate(-1225.9399,-2657.4866)" />
  <polyline
     class="StaffLines"
     fill="none"
     stroke="#000000"
     stroke-width="2.73"
     stroke-linejoin="bevel"
     points="1225.94,2792.6 1751.26,2792.6"
     id="polyline50"
     transform="translate(-1225.9399,-2657.4866)" />
  <polyline
     class="BarLine"
     fill="none"
     stroke="#000000"
     stroke-width="4.46"
     stroke-linejoin="bevel"
     points="1749.03,2692.04 1749.03,2793.96"
     id="polyline100"
     transform="translate(-1225.9399,-2657.4866)" />
  <path
     class="Note"
     d="m 352.62356,96.82839 c -13.68649,0 -18.55349,6.94405 -18.55349,13.39206 0,6.44801 4.867,13.39206 18.55349,13.39206 13.68654,0 18.44507,-6.94405 18.44507,-13.39206 0,-6.44801 -4.75853,-13.39206 -18.44507,-13.39206 m 5.05306,23.00207 c -1.19348,0.403 -2.77453,0.60448 -4.26253,0.60448 -2.77453,0 -4.66548,-0.79048 -5.95201,-3.27048 -1.28653,-2.48 -3.06895,-8.83501 -3.17748,-11.51652 -0.20147,-2.6815 0.79053,-4.2625 3.17748,-5.053 1.19348,-0.40297 2.77453,-0.604547 4.26253,-0.604547 2.77453,0 4.57253,0.604547 5.95201,3.286047 1.39495,2.66601 3.17747,9.02101 3.17747,11.50102 0,2.573 -0.79052,4.371 -3.17747,5.053"
     id="path159"
     style="stroke-width:0.992001" />
  <path
     class="Clef"
     d="m 74.353602,112.39045 c 0,7.05251 -2.882953,14.29102 -9.92001,17.17407 -2.076953,-11.90406 -4.758431,-27.68308 -5.456006,-32.05413 8.928009,0 15.376016,6.06055 15.376016,14.88006 m -14.08949,18.35207 c -1.984002,0.40295 -3.859479,0.60443 -5.75053,0.60443 -14.18244,0 -26.287997,-9.92001 -26.287997,-24.9085 0,-12.090063 8.525029,-22.909024 17.267037,-30.457557 1.674002,-1.488001 3.270528,-2.867478 4.75853,-4.355479 0.883476,5.34748 1.580952,10.01296 2.278428,14.089489 -9.036435,2.681478 -15.174441,12.198537 -15.174441,21.529547 0,6.944 5.456005,16.46101 13.392013,16.46101 0.790427,0 1.689477,-0.40295 1.689477,-1.28652 0,-0.89895 -0.992001,-1.39495 -2.185477,-2.18548 -3.875054,-2.387 -6.060531,-4.96 -6.060531,-9.82701 0,-6.04501 4.464005,-10.912058 10.322961,-12.291534 l 5.75053,32.627604 M 51.537579,28.767895 c 0.89905,-3.968004 5.456005,-14.384014 10.617585,-14.384014 1.488001,0 3.859479,4.85148 3.859479,11.702437 0,10.32306 -7.626008,18.057593 -14.477064,24.800025 -0.588951,-3.968004 -1.084952,-7.827483 -1.084952,-11.996962 0,-3.673479 0.294525,-7.052532 1.084952,-10.121486 M 30.705558,161.20003 c 0,6.55653 5.053055,15.19001 18.445068,15.19001 4.66548,0 8.742009,-1.19347 12.306963,-3.37905 5.363055,-3.76643 6.742531,-10.32296 6.742531,-16.56949 0,-3.85948 -0.588951,-8.32349 -1.580952,-13.98097 -0.294525,-1.984 -0.89905,-4.96 -1.488001,-8.83506 9.718435,-3.17747 16.956967,-13.29896 16.956967,-23.51352 0,-14.973037 -10.617485,-25.094523 -25.09455,-25.094523 C 56.001583,79.065421 55.009582,73.206366 54.110631,67.65741 64.635166,56.636874 71.873599,44.236861 71.873599,28.47337 c 0,-9.036534 -2.774428,-16.368016 -4.370954,-19.948148 C 65.131167,3.4719689 62.248114,-3.4602799e-5 60.465588,-3.4602799e-5 c -0.697476,0 -3.76643,1.193377202799 -7.036958,5.053253102799 -6.355056,7.5481355 -8.137483,20.2426735 -8.137483,28.5661565 0,5.362956 0.496,10.230011 2.185477,21.343497 -0.108525,0.09305 -5.270005,5.347481 -7.347057,7.037057 C 31.093133,70.431937 18.60007,82.4289 18.60007,102.28444 c 0,18.53807 16.166542,33.12356 34.627085,33.12356 2.867478,0 5.548956,-0.29452 7.827483,-0.69748 1.890952,9.53244 2.976003,16.47645 2.976003,21.73098 0,10.32306 -5.25453,15.77906 -15.267491,15.77906 -2.387052,0 -4.464004,-0.496 -4.665579,-0.496 -0.09295,-0.10852 -0.294426,-0.20157 -0.294426,-0.29452 0,-0.20148 0.201476,-0.31 0.496001,-0.40305 4.66548,-0.69748 9.315485,-4.66548 9.315485,-11.00496 0,-5.36306 -4.061054,-11.02054 -11.501062,-11.02054 -6.944007,0 -11.408011,5.65748 -11.408011,12.19854"
     id="path174"
     style="stroke-width:0.992001" />
  <path
     class="Accidental"
     d="m 139.36055,146.47309 c 0.60452,-0.0931 1.10052,-0.79053 1.10052,-1.39505 v -5.84348 c 0,-0.79053 -0.60452,-1.39495 -1.39505,-1.39495 -0.093,0 -0.093,0 -0.20147,0 l -3.27053,0.69747 v -14.78706 h -2.77453 v 15.37601 l -8.83498,1.798 V 126.92759 H 121.21 v 14.58549 l -3.875,0.79053 c -0.589,0.10843 -1.085,0.79043 -1.085,1.39495 v 0.20148 5.75055 -0.2015 c 0,0.7905 0.589,1.395 1.395,1.395 0.093,0 0.186,0 0.29451,0 l 3.27049,-0.6975 v 16.36802 l -3.875,0.7905 c -0.589,0.093 -1.085,0.79053 -1.085,1.39505 v 5.75043 c 0,0.79053 0.589,1.37958 1.395,1.37958 0.093,0 0.186,0 0.29451,0 l 3.27049,-0.682 v 14.77149 h 2.77451 v -15.37602 l 8.83498,-1.78252 v 13.99653 h 2.77453 v -14.58548 l 3.76653,-0.69758 c 0.60452,-0.10843 1.10052,-0.79043 1.10052,-1.39495 v -5.84353 c 0,-0.806 -0.60452,-1.395 -1.39505,-1.395 -0.093,0 -0.093,0 -0.20147,0 l -3.27053,0.6975 v -16.36802 l 3.76653,-0.6975 m -15.37604,3.069 8.83498,-1.7825 v 16.36802 l -8.83498,1.891 v -16.47652"
     id="path117"
     style="stroke-width:0.992001" />
  <polyline
     class="LedgerLine"
     fill="none"
     stroke="#000000"
     stroke-width="3.97"
     stroke-linejoin="bevel"
     points="2382.91,2474.2 2436.28,2474.2"
     id="polyline119"
     transform="translate(-2238,-2317.3109)" />
  <path
     class="Note"
     d="m 171.65349,143.40404 c -13.68649,0 -18.55349,6.94405 -18.55349,13.39206 0,6.44801 4.867,13.39206 18.55349,13.39206 13.68654,0 18.44507,-6.94405 18.44507,-13.39206 0,-6.44801 -4.75853,-13.39206 -18.44507,-13.39206 m 5.05306,23.00207 c -1.19348,0.403 -2.77453,0.60448 -4.26253,0.60448 -2.77453,0 -4.66548,-0.79048 -5.95201,-3.27048 -1.28652,-2.48001 -3.06895,-8.83501 -3.17747,-11.51652 -0.20148,-2.6815 0.79052,-4.2625 3.17747,-5.053 1.19348,-0.40298 2.77453,-0.60455 4.26253,-0.60455 2.77453,0 4.57253,0.60455 5.95201,3.28605 1.39495,2.66601 3.17748,9.02101 3.17748,11.50101 0,2.57301 -0.79053,4.37101 -3.17748,5.05301"
     id="path158"
     style="stroke-width:0.992001" />
  <metadata
     id="metadata1">
    <rdf:RDF>
      <cc:Work
         rdf:about="">
        <dc:title>test1</dc:title>
      </cc:Work>
    </rdf:RDF>
  </metadata>
</svg>
