<?xml version="1.0" encoding="UTF-8" standalone="no"?>
<svg
   width="1436.4"
   height="248.48695"
   viewBox="0 0 1436.4 248.48696"
   version="1.2"
   id="svg356"
   xmlns="http://www.w3.org/2000/svg"
   xmlns:svg="http://www.w3.org/2000/svg"
   xmlns:rdf="http://www.w3.org/1999/02/22-rdf-syntax-ns#"
   xmlns:cc="http://creativecommons.org/ns#"
   xmlns:dc="http://purl.org/dc/elements/1.1/">
  <defs
     id="defs360" />
  <title
     id="title2">c major 2 oct 15 1 (1)</title>
  <desc
     id="desc4">Generated by MuseScore Studio 4.4.4</desc>
  <polyline
     class="StaffLines"
     fill="none"
     stroke="#000000"
     stroke-width="2.73"
     stroke-linejoin="bevel"
     points="770.4,799.077 2206.8,799.077"
     id="polyline6"
     transform="translate(-770.4,-691.06656)" />
  <polyline
     class="StaffLines"
     fill="none"
     stroke="#000000"
     stroke-width="2.73"
     stroke-linejoin="bevel"
     points="770.4,823.877 2206.8,823.877"
     id="polyline8"
     transform="translate(-770.4,-691.06656)" />
  <polyline
     class="StaffLines"
     fill="none"
     stroke="#000000"
     stroke-width="2.73"
     stroke-linejoin="bevel"
     points="770.4,848.677 2206.8,848.677"
     id="polyline10"
     transform="translate(-770.4,-691.06656)" />
  <polyline
     class="StaffLines"
     fill="none"
     stroke="#000000"
     stroke-width="2.73"
     stroke-linejoin="bevel"
     points="770.4,873.477 2206.8,873.477"
     id="polyline12"
     transform="translate(-770.4,-691.06656)" />
  <polyline
     class="StaffLines"
     fill="none"
     stroke="#000000"
     stroke-width="2.73"
     stroke-linejoin="bevel"
     points="770.4,898.277 2206.8,898.277"
     id="polyline14"
     transform="translate(-770.4,-691.06656)" />
  <polyline
     class="BarLine"
     fill="none"
     stroke="#000000"
     stroke-width="4.46"
     stroke-linejoin="bevel"
     points="2190.93,797.713 2190.93,899.641"
     id="polyline174"
     transform="translate(-770.4,-691.06656)" />
  <polyline
     class="BarLine"
     fill="none"
     stroke="#000000"
     stroke-width="4.46"
     stroke-linejoin="bevel"
     points="2204.57,797.713 2204.57,899.641"
     id="polyline176"
     transform="translate(-770.4,-691.06656)" />
  <polyline
     class="LedgerLine"
     fill="none"
     stroke="#000000"
     stroke-width="3.97"
     stroke-linejoin="bevel"
     points="903.902,923.077 957.268,923.077"
     id="polyline180"
     transform="translate(-770.4,-691.06656)" />
  <polyline
     class="LedgerLine"
     fill="none"
     stroke="#000000"
     stroke-width="3.97"
     stroke-linejoin="bevel"
     points="1923.28,774.277 1976.65,774.277"
     id="polyline190"
     transform="translate(-770.4,-691.06656)" />
  <polyline
     class="LedgerLine"
     fill="none"
     stroke="#000000"
     stroke-width="3.97"
     stroke-linejoin="bevel"
     points="2008.23,774.277 2061.6,774.277"
     id="polyline192"
     transform="translate(-770.4,-691.06656)" />
  <polyline
     class="LedgerLine"
     fill="none"
     stroke="#000000"
     stroke-width="3.97"
     stroke-linejoin="bevel"
     points="2093.18,774.277 2146.54,774.277"
     id="polyline194"
     transform="translate(-770.4,-691.06656)" />
  <polyline
     class="LedgerLine"
     fill="none"
     stroke="#000000"
     stroke-width="3.97"
     stroke-linejoin="bevel"
     points="2093.18,749.477 2146.54,749.477"
     id="polyline198"
     transform="translate(-770.4,-691.06656)" />
  <path
     class="Note"
     d="m 160.23948,218.52539 c -13.68648,0 -18.55348,6.94405 -18.55348,13.39205 0,6.448 4.867,13.39205 18.55348,13.39205 13.68652,0 18.44504,-6.94405 18.44504,-13.39205 0,-6.448 -4.75852,-13.39205 -18.44504,-13.39205 m 0.79052,23.60653 c -2.77452,0 -4.66548,-0.79048 -5.952,-3.27048 -1.28652,-2.48 -3.06895,-8.928 -3.17748,-11.5165 -0.20147,-2.6815 0.79053,-4.2625 3.17748,-5.053 1.19348,-0.40298 2.77452,-0.60455 4.37105,-0.60455 2.666,0 4.464,0.60455 5.84347,3.28605 1.39496,2.573 3.286,9.021 3.286,11.501 0,4.867 -3.58052,5.65748 -7.54852,5.65748"
     id="path258"
     style="stroke-width:0.992" />
  <path
     class="Note"
     d="m 245.1875,206.12539 c -13.6865,0 -18.5535,6.94405 -18.5535,13.39205 0,6.448 4.867,13.39205 18.5535,13.39205 13.6865,0 18.445,-6.94405 18.445,-13.39205 0,-6.448 -4.7585,-13.39205 -18.445,-13.39205 m 0.7905,23.60653 c -2.7745,0 -4.6655,-0.79048 -5.952,-3.27048 -1.2865,-2.48 -3.069,-8.928 -3.1775,-11.5165 -0.2015,-2.6815 0.7905,-4.2625 3.1775,-5.053 1.1935,-0.40298 2.7745,-0.60455 4.371,-0.60455 2.666,0 4.464,0.60455 5.8435,3.28605 1.395,2.573 3.286,9.021 3.286,11.501 0,4.867 -3.5805,5.65748 -7.5485,5.65748"
     id="path260"
     style="stroke-width:0.992" />
  <path
     class="Note"
     d="m 330.1335,193.72539 c -13.6865,0 -18.5535,6.94405 -18.5535,13.39205 0,6.448 4.867,13.39205 18.5535,13.39205 13.6865,0 18.445,-6.94405 18.445,-13.39205 0,-6.448 -4.7585,-13.39205 -18.445,-13.39205 m 0.7905,23.60653 c -2.7745,0 -4.6655,-0.79048 -5.952,-3.27048 -1.2865,-2.48 -3.069,-8.928 -3.1775,-11.5165 -0.2015,-2.6815 0.7905,-4.2625 3.1775,-5.053 1.1935,-0.40298 2.7745,-0.60455 4.371,-0.60455 2.666,0 4.464,0.60455 5.8435,3.28605 1.395,2.573 3.286,9.021 3.286,11.501 0,4.867 -3.5805,5.65748 -7.5485,5.65748"
     id="path262"
     style="stroke-width:0.992" />
  <path
     class="Note"
     d="m 415.0835,181.32539 c -13.6865,0 -18.5535,6.94405 -18.5535,13.39205 0,6.448 4.867,13.39205 18.5535,13.39205 13.6865,0 18.445,-6.94405 18.445,-13.39205 0,-6.448 -4.7585,-13.39205 -18.445,-13.39205 m 0.7905,23.60653 c -2.7745,0 -4.6655,-0.79048 -5.952,-3.27048 -1.2865,-2.48 -3.069,-8.928 -3.1775,-11.5165 -0.2015,-2.6815 0.7905,-4.2625 3.1775,-5.053 1.1935,-0.40298 2.7745,-0.60455 4.371,-0.60455 2.666,0 4.464,0.60455 5.8435,3.28605 1.395,2.573 3.286,9.021 3.286,11.501 0,4.867 -3.5805,5.65748 -7.5485,5.65748"
     id="path264"
     style="stroke-width:0.992" />
  <path
     class="Note"
     d="m 500.0335,168.92539 c -13.6865,0 -18.5535,6.94405 -18.5535,13.39205 0,6.448 4.867,13.39205 18.5535,13.39205 13.6865,0 18.445,-6.94405 18.445,-13.39205 0,-6.448 -4.7585,-13.39205 -18.445,-13.39205 m 0.7905,23.60653 c -2.7745,0 -4.6655,-0.79048 -5.952,-3.27048 -1.2865,-2.48 -3.069,-8.928 -3.1775,-11.5165 -0.2015,-2.6815 0.7905,-4.2625 3.1775,-5.053 1.1935,-0.40298 2.7745,-0.60455 4.371,-0.60455 2.666,0 4.464,0.60455 5.8435,3.28605 1.395,2.573 3.286,9.021 3.286,11.501 0,4.867 -3.5805,5.65748 -7.5485,5.65748"
     id="path266"
     style="stroke-width:0.992" />
  <path
     class="Note"
     d="m 584.9835,156.52539 c -13.6865,0 -18.5535,6.94405 -18.5535,13.39205 0,6.448 4.867,13.39205 18.5535,13.39205 13.6865,0 18.445,-6.94405 18.445,-13.39205 0,-6.448 -4.7585,-13.39205 -18.445,-13.39205 m 0.7905,23.60653 c -2.7745,0 -4.6655,-0.79048 -5.952,-3.27048 -1.2865,-2.48 -3.069,-8.928 -3.1775,-11.5165 -0.2015,-2.6815 0.7905,-4.2625 3.1775,-5.053 1.1935,-0.40298 2.7745,-0.60455 4.371,-0.60455 2.666,0 4.464,0.60455 5.8435,3.28605 1.395,2.573 3.286,9.021 3.286,11.501 0,4.867 -3.5805,5.65748 -7.5485,5.65748"
     id="path268"
     style="stroke-width:0.992" />
  <path
     class="Note"
     d="m 669.9235,144.12539 c -13.6865,0 -18.5535,6.94405 -18.5535,13.39205 0,6.448 4.867,13.39205 18.5535,13.39205 13.6865,0 18.445,-6.94405 18.445,-13.39205 0,-6.448 -4.7585,-13.39205 -18.445,-13.39205 m 0.7905,23.60653 c -2.7745,0 -4.6655,-0.79048 -5.952,-3.27048 -1.2865,-2.48 -3.069,-8.928 -3.1775,-11.5165 -0.2015,-2.6815 0.7905,-4.2625 3.1775,-5.053 1.1935,-0.40298 2.7745,-0.60455 4.371,-0.60455 2.666,0 4.464,0.60455 5.8435,3.28605 1.395,2.573 3.286,9.021 3.286,11.501 0,4.867 -3.5805,5.65748 -7.5485,5.65748"
     id="path270"
     style="stroke-width:0.992" />
  <path
     class="Note"
     d="m 754.8735,131.72539 c -13.6865,0 -18.5535,6.94405 -18.5535,13.39205 0,6.448 4.867,13.39205 18.5535,13.39205 13.6865,0 18.445,-6.94405 18.445,-13.39205 0,-6.448 -4.7585,-13.39205 -18.445,-13.39205 m 0.7905,23.60653 c -2.7745,0 -4.6655,-0.79048 -5.952,-3.27048 -1.2865,-2.48 -3.069,-8.928 -3.1775,-11.5165 -0.2015,-2.6815 0.7905,-4.2625 3.1775,-5.053 1.1935,-0.40298 2.7745,-0.60455 4.371,-0.60455 2.666,0 4.464,0.60455 5.8435,3.28605 1.395,2.573 3.286,9.021 3.286,11.501 0,4.867 -3.5805,5.65748 -7.5485,5.65748"
     id="path272"
     style="stroke-width:0.992" />
  <path
     class="Note"
     d="m 839.8235,119.32539 c -13.6865,0 -18.5535,6.94405 -18.5535,13.39205 0,6.448 4.867,13.39205 18.5535,13.39205 13.6865,0 18.445,-6.94405 18.445,-13.39205 0,-6.448 -4.7585,-13.39205 -18.445,-13.39205 m 0.7905,23.60653 c -2.7745,0 -4.6655,-0.79048 -5.952,-3.27048 -1.2865,-2.48 -3.069,-8.928 -3.1775,-11.5165 -0.2015,-2.6815 0.7905,-4.2625 3.1775,-5.053 1.1935,-0.40298 2.7745,-0.60455 4.371,-0.60455 2.666,0 4.464,0.60455 5.8435,3.28605 1.395,2.573 3.286,9.021 3.286,11.501 0,4.867 -3.5805,5.65748 -7.5485,5.65748"
     id="path274"
     style="stroke-width:0.992" />
  <path
     class="Note"
     d="m 924.77346,106.92539 c -13.6865,0 -18.5535,6.94405 -18.5535,13.39205 0,6.448 4.867,13.39205 18.5535,13.39205 13.6865,0 18.445,-6.94405 18.445,-13.39205 0,-6.448 -4.7585,-13.39205 -18.445,-13.39205 m 0.7905,23.60653 c -2.7745,0 -4.6655,-0.79048 -5.952,-3.27048 -1.2865,-2.48 -3.069,-8.928 -3.1775,-11.5165 -0.2015,-2.6815 0.7905,-4.2625 3.1775,-5.053 1.1935,-0.40298 2.7745,-0.60455 4.371,-0.60455 2.666,0 4.464,0.60455 5.8435,3.28605 1.395,2.573 3.286,9.021 3.286,11.501 0,4.867 -3.5805,5.65748 -7.5485,5.65748"
     id="path276"
     style="stroke-width:0.992" />
  <path
     class="Note"
     d="m 1009.7235,94.52539 c -13.68654,0 -18.55354,6.94405 -18.55354,13.39205 0,6.448 4.867,13.39205 18.55354,13.39205 13.6865,0 18.445,-6.94405 18.445,-13.39205 0,-6.448 -4.7585,-13.39205 -18.445,-13.39205 m 0.7905,23.60653 c -2.7745,0 -4.6655,-0.79048 -5.952,-3.27048 -1.2865,-2.48 -3.069,-8.928 -3.1775,-11.5165 -0.2015,-2.6815 0.7905,-4.2625 3.1775,-5.053 1.1935,-0.40298 2.7745,-0.60455 4.371,-0.60455 2.666,0 4.464,0.60455 5.8435,3.28605 1.395,2.573 3.286,9.021 3.286,11.501 0,4.867 -3.5805,5.65748 -7.5485,5.65748"
     id="path278"
     style="stroke-width:0.992" />
  <path
     class="Note"
     d="m 1094.6735,82.12539 c -13.6865,0 -18.5535,6.94405 -18.5535,13.39205 0,6.448 4.867,13.39205 18.5535,13.39205 13.6865,0 18.445,-6.94405 18.445,-13.39205 0,-6.448 -4.7585,-13.39205 -18.445,-13.39205 m 0.7905,23.60653 c -2.7745,0 -4.6655,-0.79048 -5.952,-3.27048 -1.2865,-2.48 -3.069,-8.928 -3.1775,-11.5165 -0.2015,-2.6815 0.7905,-4.2625 3.1775,-5.053 1.1935,-0.40298 2.7745,-0.60455 4.371,-0.60455 2.666,0 4.464,0.60455 5.8435,3.28605 1.395,2.573 3.286,9.021 3.286,11.501 0,4.867 -3.5805,5.65748 -7.5485,5.65748"
     id="path280"
     style="stroke-width:0.992" />
  <path
     class="Note"
     d="m 1179.6135,69.72539 c -13.6865,0 -18.5535,6.94405 -18.5535,13.39205 0,6.448 4.867,13.39205 18.5535,13.39205 13.6865,0 18.445,-6.94405 18.445,-13.39205 0,-6.448 -4.7585,-13.39205 -18.445,-13.39205 m 0.7905,23.60653 c -2.7745,0 -4.6655,-0.79048 -5.952,-3.27048 -1.2865,-2.48 -3.069,-8.928 -3.1775,-11.5165 -0.2015,-2.6815 0.7905,-4.2625 3.1775,-5.053 1.1935,-0.40298 2.7745,-0.60455 4.371,-0.60455 2.666,0 4.464,0.60455 5.8435,3.28605 1.395,2.573 3.286,9.021 3.286,11.501 0,4.867 -3.5805,5.65748 -7.5485,5.65748"
     id="path282"
     style="stroke-width:0.992" />
  <path
     class="Note"
     d="m 1264.5635,57.32539 c -13.6865,0 -18.5535,6.94405 -18.5535,13.39205 0,6.448 4.867,13.39205 18.5535,13.39205 13.6865,0 18.445,-6.94405 18.445,-13.39205 0,-6.448 -4.7585,-13.39205 -18.445,-13.39205 m 0.7905,23.60653 c -2.7745,0 -4.6655,-0.79048 -5.952,-3.27048 -1.2865,-2.48 -3.069,-8.928 -3.1775,-11.5165 -0.2015,-2.6815 0.7905,-4.2625 3.1775,-5.053 1.1935,-0.40298 2.7745,-0.60455 4.371,-0.60455 2.666,0 4.464,0.60455 5.8435,3.28605 1.395,2.573 3.286,9.021 3.286,11.501 0,4.867 -3.5805,5.65748 -7.5485,5.65748"
     id="path284"
     style="stroke-width:0.992" />
  <path
     class="Note"
     d="m 1349.5135,44.92539 c -13.6865,0 -18.5535,6.94405 -18.5535,13.39205 0,6.448 4.867,13.39205 18.5535,13.39205 13.6865,0 18.445,-6.94405 18.445,-13.39205 0,-6.448 -4.7585,-13.39205 -18.445,-13.39205 m 0.7905,23.60653 c -2.7745,0 -4.6655,-0.79048 -5.952,-3.27048 -1.2865,-2.48 -3.069,-8.928 -3.1775,-11.5165 -0.2015,-2.6815 0.7905,-4.2625 3.1775,-5.053 1.1935,-0.40298 2.7745,-0.60455 4.371,-0.60455 2.666,0 4.464,0.60455 5.8435,3.28605 1.395,2.573 3.286,9.021 3.286,11.501 0,4.867 -3.5805,5.65748 -7.5485,5.65748"
     id="path286"
     style="stroke-width:0.992" />
  <path
     class="Clef"
     d="m 30.79852,233.29696 c 0,6.55653 4.96,15.19 18.352,15.19 4.66548,0 8.742,-1.19347 12.30696,-3.37904 5.36304,-3.76643 6.74252,-10.32296 6.74252,-16.56948 0,-3.85948 -0.58895,-8.32348 -1.58095,-13.98095 -0.29453,-1.984 -0.89905,-4.96 -1.488,-8.83505 9.71843,-3.17748 16.95695,-13.29895 16.95695,-23.5135 0,-14.97302 -10.61748,-25.0945 -25.09452,-25.0945 -0.992,-5.952 -1.984,-11.81105 -2.77443,-17.36 10.416,-11.02052 17.65443,-23.42052 17.65443,-39.184 0,-9.03652 -2.77443,-16.368 -4.37096,-19.94813 -2.37147,-5.05325 -5.25452,-8.52525 -7.03704,-8.52525 -0.69748,0 -3.76643,1.19338 -7.03696,5.05325 -6.35504,7.54813 -8.13747,20.24265 -8.13747,28.56613 0,5.36295 0.496,10.23 2.18547,21.34348 -0.10852,0.093 -5.27,5.34747 -7.34704,7.03704 C 31.09305,142.43592 18.6,154.52592 18.6,174.38144 c 0,18.53805 16.16652,33.12352 34.62705,33.12352 2.86747,0 5.54895,-0.29452 7.82747,-0.69747 1.89096,9.53243 3.08453,16.47643 3.08453,21.73095 0,10.32305 -5.36305,15.77905 -15.376,15.77905 -2.38705,0 -4.464,-0.496 -4.66557,-0.496 -0.093,-0.10853 -0.29443,-0.20157 -0.29443,-0.29453 0,-0.20147 0.20147,-0.31 0.496,-0.31 4.66547,-0.79052 9.31547,-4.75852 9.31547,-11.098 0,-5.36304 -4.06104,-11.02052 -11.50104,-11.02052 -6.944,0 -11.31496,5.65748 -11.31496,12.19852 m 20.73896,-132.432 c 0.89904,-3.968 5.456,-14.384 10.61757,-14.384 1.488,0 3.85947,4.75843 3.85947,11.70243 0,10.32305 -7.626,18.05757 -14.47704,24.8 -0.58896,-3.968 -1.08496,-7.82747 -1.08496,-11.99695 0,-3.67348 0.29453,-7.05252 1.08496,-10.12148 M 60.264,202.83949 c -1.984,0.40295 -3.85948,0.60443 -5.75052,0.60443 -14.18243,0 -26.28798,-9.92 -26.28798,-24.90848 0,-12.09005 8.52502,-22.909 17.26702,-30.45752 1.674,-1.488 3.27053,-2.86748 4.75853,-4.35548 0.88347,5.34748 1.58095,10.01295 2.27843,14.08948 -9.03643,2.68147 -15.17443,12.19852 -15.17443,21.52952 0,6.944 5.456,16.461 13.392,16.461 0.79043,0 1.68947,-0.40295 1.68947,-1.28652 0,-0.89896 -0.992,-1.39496 -2.18547,-2.18548 -3.87505,-2.387 -6.06053,-4.96 -6.06053,-9.827 0,-6.045 4.57253,-10.91205 10.32296,-12.29152 l 5.75052,32.62757 m 14.08948,-18.35205 c 0,7.0525 -2.88296,14.291 -9.92,17.17405 -2.07696,-11.90405 -4.75843,-27.68305 -5.456,-32.0541 8.928,0 15.376,6.06055 15.376,14.88005"
     id="path306"
     style="stroke-width:0.992" />
  <path
     style="fill:#000000;fill-opacity:0;fill-rule:nonzero;stroke:#000000;stroke-width:1.8;stroke-dasharray:none;stroke-opacity:1"
     d="m 343.30343,175.68433 23.63483,-41.10406 27.97361,38.47797"
     id="path248" />
  <path
     style="fill:#000000;fill-opacity:0;fill-rule:nonzero;stroke:#000000;stroke-width:1.8;stroke-dasharray:none;stroke-opacity:1"
     d="m 679.93583,128.65916 23.63483,-41.10406 27.97361,38.47797"
     id="path4446" />
  <path
     style="fill:#000000;fill-opacity:0;fill-rule:nonzero;stroke:#000000;stroke-width:1.8;stroke-dasharray:none;stroke-opacity:1"
     d="m 936.35346,91.84354 23.6348,-41.10406 27.9736,38.47797"
     id="path4448" />
  <path
     style="fill:#000000;fill-opacity:0;fill-rule:nonzero;stroke:#000000;stroke-width:1.8;stroke-dasharray:none;stroke-opacity:1"
     d="M 1274.153,42.75604 1297.7878,1.6519807 1325.7614,40.12995"
     id="path4450" />
  <metadata
     id="metadata4815">
    <rdf:RDF>
      <cc:Work
         rdf:about="">
        <dc:title>c major 2 oct 15 1 (1)</dc:title>
      </cc:Work>
    </rdf:RDF>
  </metadata>
</svg>
