<?xml version="1.0" encoding="UTF-8" standalone="no"?>
<svg
   width="36.501213mm"
   height="12.445299mm"
   viewBox="0 0 517.34003 176.39007"
   version="1.2"
   id="svg229"
   xmlns="http://www.w3.org/2000/svg"
   xmlns:svg="http://www.w3.org/2000/svg">
  <defs
     id="defs229" />
  <title
     id="title1">test1</title>
  <desc
     id="desc1">Generated by MuseScore Studio 4.5.2</desc>
  <polyline
     class="StaffLines"
     fill="none"
     stroke="#000000"
     stroke-width="2.73"
     stroke-linejoin="bevel"
     points="2247.26,2693.4 2764.6,2693.4"
     id="polyline51"
     transform="translate(-2247.26,-2657.4866)" />
  <polyline
     class="StaffLines"
     fill="none"
     stroke="#000000"
     stroke-width="2.73"
     stroke-linejoin="bevel"
     points="2247.26,2718.2 2764.6,2718.2"
     id="polyline52"
     transform="translate(-2247.26,-2657.4866)" />
  <polyline
     class="StaffLines"
     fill="none"
     stroke="#000000"
     stroke-width="2.73"
     stroke-linejoin="bevel"
     points="2247.26,2743 2764.6,2743"
     id="polyline53"
     transform="translate(-2247.26,-2657.4866)" />
  <polyline
     class="StaffLines"
     fill="none"
     stroke="#000000"
     stroke-width="2.73"
     stroke-linejoin="bevel"
     points="2247.26,2767.8 2764.6,2767.8"
     id="polyline54"
     transform="translate(-2247.26,-2657.4866)" />
  <polyline
     class="StaffLines"
     fill="none"
     stroke="#000000"
     stroke-width="2.73"
     stroke-linejoin="bevel"
     points="2247.26,2792.6 2764.6,2792.6"
     id="polyline55"
     transform="translate(-2247.26,-2657.4866)" />
  <polyline
     class="BarLine"
     fill="none"
     stroke="#000000"
     stroke-width="4.46"
     stroke-linejoin="bevel"
     points="2762.37,2692.04 2762.37,2793.96"
     id="polyline99"
     transform="translate(-2247.26,-2657.4866)" />
  <path
     class="Accidental"
     d="m 318.80058,99.897442 c 0.60453,-0.09305 1.10053,-0.790525 1.10053,-1.395051 V 92.65891 c 0,-0.790525 -0.60453,-1.394952 -1.39505,-1.394952 -0.093,0 -0.093,0 -0.20148,0 l -3.27053,0.697476 V 77.17437 h -2.77452 v 15.376015 l -8.83498,1.798002 v -13.99644 h -2.77451 v 14.58549 l -3.875,0.790526 c -0.589,0.108426 -1.08501,0.790426 -1.08501,1.394952 v 0.201475 5.75055 -0.2015 c 0,0.7905 0.58901,1.395 1.39501,1.395 0.093,0 0.186,0 0.2945,0 l 3.2705,-0.6975 v 16.36803 l -3.875,0.79049 c -0.589,0.093 -1.08501,0.79053 -1.08501,1.39505 v 5.75043 c 0,0.79053 0.58901,1.37958 1.39501,1.37958 0.093,0 0.186,0 0.2945,0 l 3.2705,-0.682 v 14.77149 h 2.77451 v -15.37602 l 8.83498,-1.78252 v 13.99654 h 2.77452 v -14.58549 l 3.76653,-0.69758 c 0.60453,-0.10843 1.10053,-0.79043 1.10053,-1.39495 v -5.84353 c 0,-0.806 -0.60453,-1.395 -1.39505,-1.395 -0.093,0 -0.093,0 -0.20148,0 l -3.27053,0.6975 v -16.36802 l 3.76653,-0.697498 m -15.37603,3.068998 8.83498,-1.7825 v 16.36802 l -8.83498,1.891 v -16.47652"
     id="path115"
     style="stroke-width:0.992001" />
  <path
     class="Note"
     d="m 160.24353,109.22839 c -13.68649,0 -18.5535,6.94405 -18.5535,13.39206 0,6.44801 4.86701,13.39206 18.5535,13.39206 13.68654,0 18.44507,-6.94405 18.44507,-13.39206 0,-6.44801 -4.75853,-13.39206 -18.44507,-13.39206 m 5.05305,23.00207 c -1.19347,0.403 -2.77452,0.60448 -4.26253,0.60448 -2.77452,0 -4.66548,-0.79048 -5.952,-3.27048 -1.28653,-2.48 -3.06896,-8.83501 -3.17748,-11.51652 -0.20148,-2.6815 0.79053,-4.2625 3.17748,-5.053 1.19347,-0.40297 2.77453,-0.60455 4.26253,-0.60455 2.77452,0 4.57253,0.60455 5.952,3.28605 1.39496,2.66601 3.17748,9.02101 3.17748,11.50102 0,2.573 -0.79052,4.371 -3.17748,5.053"
     id="path149"
     style="stroke-width:0.992001" />
  <path
     class="Note"
     d="m 344.64353,96.82839 c -13.68649,0 -18.5535,6.94405 -18.5535,13.39206 0,6.44801 4.86701,13.39206 18.5535,13.39206 13.68654,0 18.44507,-6.94405 18.44507,-13.39206 0,-6.44801 -4.75853,-13.39206 -18.44507,-13.39206 m 5.05305,23.00207 c -1.19347,0.403 -2.77452,0.60448 -4.26253,0.60448 -2.77452,0 -4.66548,-0.79048 -5.952,-3.27048 -1.28653,-2.48 -3.06896,-8.83501 -3.17748,-11.51652 -0.20148,-2.6815 0.79053,-4.2625 3.17748,-5.053 1.19347,-0.40297 2.77453,-0.604547 4.26253,-0.604547 2.77452,0 4.57253,0.604547 5.952,3.286047 1.39496,2.66601 3.17748,9.02101 3.17748,11.50102 0,2.573 -0.79052,4.371 -3.17748,5.053"
     id="path150"
     style="stroke-width:0.992001" />
  <path
     class="Clef"
     d="m 74.353568,112.39045 c 0,7.05251 -2.882953,14.29102 -9.92001,17.17407 -2.076952,-11.90406 -4.75843,-27.68308 -5.456005,-32.05413 8.928009,0 15.376015,6.06055 15.376015,14.88006 m -14.089489,18.35207 c -1.984002,0.40295 -3.859479,0.60443 -5.750531,0.60443 -14.18244,0 -26.287997,-9.92001 -26.287997,-24.9085 0,-12.090063 8.525029,-22.909024 17.267038,-30.457557 1.674001,-1.488001 3.270528,-2.867478 4.758529,-4.355479 0.883476,5.34748 1.580952,10.01296 2.278428,14.089489 -9.036435,2.681478 -15.174441,12.198537 -15.174441,21.529547 0,6.944 5.456006,16.46101 13.392014,16.46101 0.790426,0 1.689477,-0.40295 1.689477,-1.28652 0,-0.89895 -0.992001,-1.39495 -2.185478,-2.18548 -3.875053,-2.387 -6.060531,-4.96 -6.060531,-9.82701 0,-6.04501 4.464005,-10.912058 10.322961,-12.291534 l 5.750531,32.627604 M 51.537545,28.767895 c 0.899051,-3.968004 5.456006,-14.384014 10.617585,-14.384014 1.488002,0 3.859479,4.85148 3.859479,11.702437 0,10.32306 -7.626007,18.057593 -14.477064,24.800025 -0.588951,-3.968004 -1.084951,-7.827483 -1.084951,-11.996962 0,-3.673479 0.294525,-7.052532 1.084951,-10.121486 M 30.705524,161.20003 c 0,6.55653 5.053055,15.19001 18.445068,15.19001 4.66548,0 8.742009,-1.19347 12.306963,-3.37905 5.363055,-3.76643 6.742532,-10.32296 6.742532,-16.56949 0,-3.85948 -0.588951,-8.32349 -1.580952,-13.98097 -0.294525,-1.984 -0.899051,-4.96 -1.488002,-8.83506 9.718436,-3.17747 16.956968,-13.29896 16.956968,-23.51352 0,-14.973037 -10.617486,-25.094523 -25.09455,-25.094523 C 56.00155,79.065421 55.009549,73.206366 54.110597,67.65741 64.635133,56.636874 71.873566,44.236861 71.873566,28.47337 c 0,-9.036534 -2.774429,-16.368016 -4.370955,-19.948148 -2.371478,-5.0532531 -5.25453,-8.525256602799 -7.037057,-8.525256602799 -0.697476,0 -3.766429,1.193377202799 -7.036957,5.053253102799 -6.355056,7.5481355 -8.137484,20.2426735 -8.137484,28.5661565 0,5.362956 0.496001,10.230011 2.185478,21.343497 -0.108525,0.09305 -5.270006,5.347481 -7.347057,7.037057 -9.036435,8.432008 -21.529497,20.428971 -21.529497,40.284511 0,18.53807 16.166541,33.12356 34.627084,33.12356 2.867478,0 5.548956,-0.29452 7.827483,-0.69748 1.890953,9.53244 2.976003,16.47645 2.976003,21.73098 0,10.32306 -5.25453,15.77906 -15.26749,15.77906 -2.387052,0 -4.464005,-0.496 -4.665579,-0.496 -0.09295,-0.10852 -0.294426,-0.20157 -0.294426,-0.29452 0,-0.20148 0.201475,-0.31 0.496,-0.40305 4.66548,-0.69748 9.315485,-4.66548 9.315485,-11.00496 0,-5.36306 -4.061054,-11.02054 -11.501061,-11.02054 -6.944007,0 -11.408012,5.65748 -11.408012,12.19854"
     id="path176"
     style="stroke-width:0.992001" />
</svg>
