<?xml version="1.0" encoding="UTF-8" standalone="no"?>
<svg
   width="32.253071mm"
   height="12.445299mm"
   viewBox="0 0 457.13014 176.39007"
   version="1.2"
   id="svg194"
   sodipodi:docname="unison octave.svg"
   xmlns:inkscape="http://www.inkscape.org/namespaces/inkscape"
   xmlns:sodipodi="http://sodipodi.sourceforge.net/DTD/sodipodi-0.dtd"
   xmlns="http://www.w3.org/2000/svg"
   xmlns:svg="http://www.w3.org/2000/svg">
  <defs
     id="defs194" />
  <sodipodi:namedview
     id="namedview194"
     pagecolor="#505050"
     bordercolor="#eeeeee"
     borderopacity="1"
     inkscape:showpageshadow="0"
     inkscape:pageopacity="0"
     inkscape:pagecheckerboard="0"
     inkscape:deskcolor="#505050"
     inkscape:document-units="mm">
    <inkscape:page
       x="0"
       y="7.5860835e-13"
       width="457.13013"
       height="176.39008"
       id="page2"
       margin="0"
       bleed="0" />
  </sodipodi:namedview>
  <title
     id="title1">test1</title>
  <desc
     id="desc1">Generated by MuseScore Studio 4.5.2</desc>
  <polyline
     class="StaffLines"
     fill="none"
     stroke="#000000"
     stroke-width="2.73"
     stroke-linejoin="bevel"
     points="2307.47,2007 2764.6,2007"
     id="polyline21"
     transform="translate(-2307.47,-1971.0864)" />
  <polyline
     class="StaffLines"
     fill="none"
     stroke="#000000"
     stroke-width="2.73"
     stroke-linejoin="bevel"
     points="2307.47,2031.8 2764.6,2031.8"
     id="polyline22"
     transform="translate(-2307.47,-1971.0864)" />
  <polyline
     class="StaffLines"
     fill="none"
     stroke="#000000"
     stroke-width="2.73"
     stroke-linejoin="bevel"
     points="2307.47,2056.6 2764.6,2056.6"
     id="polyline23"
     transform="translate(-2307.47,-1971.0864)" />
  <polyline
     class="StaffLines"
     fill="none"
     stroke="#000000"
     stroke-width="2.73"
     stroke-linejoin="bevel"
     points="2307.47,2081.4 2764.6,2081.4"
     id="polyline24"
     transform="translate(-2307.47,-1971.0864)" />
  <polyline
     class="StaffLines"
     fill="none"
     stroke="#000000"
     stroke-width="2.73"
     stroke-linejoin="bevel"
     points="2307.47,2106.2 2764.6,2106.2"
     id="polyline25"
     transform="translate(-2307.47,-1971.0864)" />
  <polyline
     class="BarLine"
     fill="none"
     stroke="#000000"
     stroke-width="4.46"
     stroke-linejoin="bevel"
     points="2762.37,2005.64 2762.37,2107.56"
     id="polyline88"
     transform="translate(-2307.47,-1971.0864)" />
  <path
     class="Note"
     d="m 314.53356,10.028529 c -13.68649,0 -18.5535,6.944057 -18.5535,13.392063 0,6.448007 4.86701,13.392064 18.5535,13.392064 13.68654,0 18.44507,-6.944057 18.44507,-13.392064 0,-6.448006 -4.75853,-13.392063 -18.44507,-13.392063 m 5.05305,23.002073 c -1.19347,0.403001 -2.77452,0.604476 -4.26253,0.604476 -2.77452,0 -4.66548,-0.790476 -5.952,-3.270479 -1.28653,-2.480002 -3.06896,-8.835008 -3.17748,-11.516516 -0.20148,-2.681498 0.79052,-4.262499 3.17748,-5.053005 1.19347,-0.402971 2.77453,-0.604545 4.26253,-0.604545 2.77452,0 4.57253,0.604545 5.952,3.286052 1.39495,2.666003 3.17748,9.02101 3.17748,11.501012 0,2.573003 -0.79052,4.371004 -3.17748,5.053005"
     id="path112"
     style="stroke-width:0.992001" />
  <path
     class="Note"
     d="m 160.23356,96.828529 c -13.68649,0 -18.5535,6.944051 -18.5535,13.392061 0,6.44801 4.86701,13.39206 18.5535,13.39206 13.68654,0 18.44507,-6.94405 18.44507,-13.39206 0,-6.44801 -4.75853,-13.392061 -18.44507,-13.392061 m 5.05305,23.002071 c -1.19347,0.403 -2.77452,0.60448 -4.26253,0.60448 -2.77452,0 -4.66548,-0.79048 -5.952,-3.27048 -1.28653,-2.48 -3.06896,-8.83501 -3.17748,-11.51652 -0.20148,-2.6815 0.79052,-4.2625 3.17748,-5.053 1.19347,-0.40297 2.77453,-0.604547 4.26253,-0.604547 2.77452,0 4.57253,0.604547 5.952,3.286047 1.39495,2.66601 3.17748,9.02101 3.17748,11.50102 0,2.573 -0.79052,4.371 -3.17748,5.053"
     id="path120"
     style="stroke-width:0.992001" />
  <path
     class="Clef"
     d="m 74.353591,112.39059 c 0,7.05252 -2.882953,14.29102 -9.92001,17.17407 -2.076952,-11.90406 -4.75843,-27.68308 -5.456005,-32.05413 8.928009,0 15.376015,6.06055 15.376015,14.88006 m -14.089489,18.35207 c -1.984002,0.40295 -3.859479,0.60443 -5.750531,0.60443 -14.182439,0 -26.287996,-9.92001 -26.287996,-24.9085 0,-12.090063 8.525028,-22.909024 17.267037,-30.457557 1.674002,-1.488001 3.270528,-2.867478 4.75853,-4.355479 0.883476,5.34748 1.580952,10.01296 2.278427,14.089489 -9.036434,2.681478 -15.17444,12.198537 -15.17444,21.529547 0,6.94401 5.456005,16.46102 13.392013,16.46102 0.790426,0 1.689477,-0.40296 1.689477,-1.28653 0,-0.89895 -0.992001,-1.39495 -2.185477,-2.18548 -3.875054,-2.387 -6.060531,-4.96 -6.060531,-9.82701 0,-6.045 4.464004,-10.912058 10.32296,-12.291535 l 5.750531,32.627605 M 51.537568,28.768035 c 0.899051,-3.968004 5.456006,-14.384014 10.617586,-14.384014 1.488001,0 3.859479,4.85148 3.859479,11.702437 0,10.32306 -7.626008,18.057593 -14.477065,24.800025 -0.58895,-3.968004 -1.084951,-7.827483 -1.084951,-11.996962 0,-3.673479 0.294525,-7.052532 1.084951,-10.121486 M 30.705547,161.20017 c 0,6.55653 5.053055,15.19001 18.445069,15.19001 4.66548,0 8.742009,-1.19347 12.306962,-3.37905 5.363056,-3.76643 6.742532,-10.32296 6.742532,-16.56949 0,-3.85948 -0.588951,-8.32349 -1.580952,-13.98097 -0.294525,-1.984 -0.89905,-4.96 -1.488001,-8.83505 9.718435,-3.17748 16.956967,-13.29897 16.956967,-23.51353 0,-14.973038 -10.617486,-25.094523 -25.09455,-25.094523 C 56.001573,79.065561 55.009572,73.206506 54.110621,67.65755 64.635156,56.637014 71.873589,44.237001 71.873589,28.47351 c 0,-9.036534 -2.774428,-16.368016 -4.370955,-19.9481479 C 65.131157,3.472109 62.248104,1.05459e-4 60.465577,1.05459e-4 c -0.697475,0 -3.766429,1.193377241 -7.036957,5.053253141 -6.355056,7.5481354 -8.137483,20.2426734 -8.137483,28.5661564 0,5.362956 0.496,10.230011 2.185477,21.343497 -0.108525,0.09305 -5.270005,5.347481 -7.347057,7.037057 -9.036435,8.432008 -21.529497,20.428971 -21.529497,40.284511 0,18.53807 16.166541,33.12356 34.627085,33.12356 2.867478,0 5.548956,-0.29452 7.827483,-0.69747 1.890952,9.53243 2.976003,16.47644 2.976003,21.73097 0,10.32306 -5.25453,15.77906 -15.267491,15.77906 -2.387052,0 -4.464004,-0.496 -4.665579,-0.496 -0.09295,-0.10852 -0.294426,-0.20157 -0.294426,-0.29452 0,-0.20148 0.201476,-0.31 0.496001,-0.40305 4.66548,-0.69748 9.315484,-4.66548 9.315484,-11.00496 0,-5.36306 -4.061054,-11.02054 -11.501061,-11.02054 -6.944007,0 -11.408012,5.65748 -11.408012,12.19854"
     id="path135"
     style="stroke-width:0.992001" />
</svg>
