<?xml version="1.0" encoding="UTF-8" standalone="no"?>
<svg
   width="32.253071mm"
   height="12.445299mm"
   viewBox="0 0 457.13014 176.39007"
   version="1.2"
   id="svg194"
   xmlns="http://www.w3.org/2000/svg"
   xmlns:svg="http://www.w3.org/2000/svg">
  <defs
     id="defs194" />
  <title
     id="title1">test1</title>
  <desc
     id="desc1">Generated by MuseScore Studio 4.5.2</desc>
  <polyline
     class="StaffLines"
     fill="none"
     stroke="#000000"
     stroke-width="2.73"
     stroke-linejoin="bevel"
     points="2307.47,1663.8 2764.6,1663.8"
     id="polyline16"
     transform="translate(-2307.47,-1627.8865)" />
  <polyline
     class="StaffLines"
     fill="none"
     stroke="#000000"
     stroke-width="2.73"
     stroke-linejoin="bevel"
     points="2307.47,1688.6 2764.6,1688.6"
     id="polyline17"
     transform="translate(-2307.47,-1627.8865)" />
  <polyline
     class="StaffLines"
     fill="none"
     stroke="#000000"
     stroke-width="2.73"
     stroke-linejoin="bevel"
     points="2307.47,1713.4 2764.6,1713.4"
     id="polyline18"
     transform="translate(-2307.47,-1627.8865)" />
  <polyline
     class="StaffLines"
     fill="none"
     stroke="#000000"
     stroke-width="2.73"
     stroke-linejoin="bevel"
     points="2307.47,1738.2 2764.6,1738.2"
     id="polyline19"
     transform="translate(-2307.47,-1627.8865)" />
  <polyline
     class="StaffLines"
     fill="none"
     stroke="#000000"
     stroke-width="2.73"
     stroke-linejoin="bevel"
     points="2307.47,1763 2764.6,1763"
     id="polyline20"
     transform="translate(-2307.47,-1627.8865)" />
  <polyline
     class="BarLine"
     fill="none"
     stroke="#000000"
     stroke-width="4.46"
     stroke-linejoin="bevel"
     points="2762.37,1662.44 2762.37,1764.36"
     id="polyline76"
     transform="translate(-2307.47,-1627.8865)" />
  <path
     class="Note"
     d="m 160.23356,96.828441 c -13.6865,0 -18.5535,6.944099 -18.5535,13.392099 0,6.448 4.867,13.3921 18.5535,13.3921 13.6865,0 18.4451,-6.9441 18.4451,-13.3921 0,-6.448 -4.7586,-13.392099 -18.4451,-13.392099 m 5.053,23.002099 c -1.1934,0.403 -2.7745,0.6045 -4.2625,0.6045 -2.7745,0 -4.6655,-0.7905 -5.952,-3.2705 -1.2865,-2.48 -3.0689,-8.835 -3.1775,-11.5165 -0.2014,-2.6815 0.7906,-4.2625 3.1775,-5.053 1.1935,-0.403 2.7745,-0.604599 4.2625,-0.604599 2.7746,0 4.5726,0.604599 5.952,3.286099 1.395,2.666 3.1775,9.021 3.1775,11.501 0,2.573 -0.7905,4.371 -3.1775,5.053"
     id="path118"
     style="stroke-width:0.992001" />
  <path
     class="Note"
     d="m 314.53356,96.828441 c -13.6865,0 -18.5535,6.944099 -18.5535,13.392099 0,6.448 4.867,13.3921 18.5535,13.3921 13.6865,0 18.4451,-6.9441 18.4451,-13.3921 0,-6.448 -4.7586,-13.392099 -18.4451,-13.392099 m 5.053,23.002099 c -1.1934,0.403 -2.7745,0.6045 -4.2625,0.6045 -2.7745,0 -4.6655,-0.7905 -5.952,-3.2705 -1.2865,-2.48 -3.0689,-8.835 -3.1775,-11.5165 -0.2014,-2.6815 0.7906,-4.2625 3.1775,-5.053 1.1935,-0.403 2.7745,-0.604599 4.2625,-0.604599 2.7746,0 4.5726,0.604599 5.952,3.286099 1.395,2.666 3.1775,9.021 3.1775,11.501 0,2.573 -0.7905,4.371 -3.1775,5.053"
     id="path119"
     style="stroke-width:0.992001" />
  <path
     class="Clef"
     d="m 74.35356,112.39054 c 0,7.0525 -2.8829,14.291 -9.92,17.1741 -2.0769,-11.9041 -4.7584,-27.6831 -5.456,-32.054199 8.928,0 15.376,6.060599 15.376,14.880099 m -14.0895,18.3521 c -1.984,0.4029 -3.8594,0.6044 -5.7505,0.6044 -14.1824,0 -26.288,-9.92 -26.288,-24.9085 0,-12.090099 8.525,-22.908999 17.2671,-30.457599 1.674,-1.488 3.2705,-2.8674 4.7585,-4.3554 0.8835,5.3474 1.5809,10.0129 2.2784,14.0895 -9.0364,2.6814 -15.1744,12.1985 -15.1744,21.529499 0,6.944 5.456,16.461 13.392,16.461 0.7904,0 1.6895,-0.4029 1.6895,-1.2865 0,-0.899 -0.992,-1.395 -2.1855,-2.1855 -3.8751,-2.387 -6.0605,-4.96 -6.0605,-9.827 0,-6.045 4.464,-10.912099 10.3229,-12.291499 l 5.7505,32.627599 M 51.53756,28.767941 c 0.8991,-3.968 5.456,-14.384 10.6176,-14.384 1.488,0 3.8595,4.8515 3.8595,11.7025 0,10.323 -7.626,18.0576 -14.4771,24.8 -0.5889,-3.968 -1.0849,-7.8275 -1.0849,-11.997 0,-3.6735 0.2945,-7.0525 1.0849,-10.1215 m -20.832,132.432199 c 0,6.5565 5.053,15.19 18.4451,15.19 4.6654,0 8.742,-1.1935 12.3069,-3.3791 5.3631,-3.7664 6.7426,-10.3229 6.7426,-16.5695 0,-3.8594 -0.589,-8.3234 -1.581,-13.9809 -0.2945,-1.984 -0.8991,-4.96 -1.488,-8.8351 9.7184,-3.1775 16.957,-13.2989 16.957,-23.5135 0,-14.972999 -10.6175,-25.094499 -25.0946,-25.094499 -0.992,-5.952 -1.984,-11.8111 -2.8829,-17.36 10.5245,-11.0206 17.7629,-23.4206 17.7629,-39.1841 0,-9.0365 -2.7744,-16.368 -4.3709,-19.9481003 -2.3715,-5.0533 -5.2546,-8.52530007741 -7.0371,-8.52530007741 -0.6975,0 -3.7664,1.19340007741 -7.0369,5.05330007741 -6.3551,7.5481003 -8.1375,20.2426003 -8.1375,28.5661003 0,5.363 0.496,10.23 2.1855,21.3435 -0.1086,0.093 -5.2701,5.3475 -7.3471,7.0371 -9.0364,8.432 -21.5295,20.4289 -21.5295,40.284499 0,18.5381 16.1665,33.1236 34.6271,33.1236 2.8675,0 5.5489,-0.2946 7.8275,-0.6975 1.8909,9.5324 2.976,16.4764 2.976,21.7309 0,10.3231 -5.2546,15.7791 -15.2675,15.7791 -2.3871,0 -4.464,-0.496 -4.6656,-0.496 -0.093,-0.1085 -0.2944,-0.2016 -0.2944,-0.2945 0,-0.2015 0.2015,-0.31 0.496,-0.4031 4.6655,-0.6974 9.3155,-4.6654 9.3155,-11.0049 0,-5.3631 -4.0611,-11.0206 -11.5011,-11.0206 -6.944,0 -11.408,5.6575 -11.408,12.1986"
     id="path130"
     style="stroke-width:0.992001" />
</svg>
