<?xml version="1.0" encoding="UTF-8" standalone="no"?>
<svg
   width="37.367634mm"
   height="12.4453mm"
   viewBox="0 0 529.62001 176.39009"
   version="1.2"
   id="svg229"
   xmlns="http://www.w3.org/2000/svg"
   xmlns:svg="http://www.w3.org/2000/svg">
  <defs
     id="defs229" />
  <title
     id="title1">test1</title>
  <desc
     id="desc1">Generated by MuseScore Studio 4.5.2</desc>
  <polyline
     class="StaffLines"
     fill="none"
     stroke="#000000"
     stroke-width="2.73"
     stroke-linejoin="bevel"
     points="2234.98,2350.2 2764.6,2350.2"
     id="polyline36"
     transform="translate(-2234.98,-2314.2865)" />
  <polyline
     class="StaffLines"
     fill="none"
     stroke="#000000"
     stroke-width="2.73"
     stroke-linejoin="bevel"
     points="2234.98,2375 2764.6,2375"
     id="polyline37"
     transform="translate(-2234.98,-2314.2865)" />
  <polyline
     class="StaffLines"
     fill="none"
     stroke="#000000"
     stroke-width="2.73"
     stroke-linejoin="bevel"
     points="2234.98,2399.8 2764.6,2399.8"
     id="polyline38"
     transform="translate(-2234.98,-2314.2865)" />
  <polyline
     class="StaffLines"
     fill="none"
     stroke="#000000"
     stroke-width="2.73"
     stroke-linejoin="bevel"
     points="2234.98,2424.6 2764.6,2424.6"
     id="polyline39"
     transform="translate(-2234.98,-2314.2865)" />
  <polyline
     class="StaffLines"
     fill="none"
     stroke="#000000"
     stroke-width="2.73"
     stroke-linejoin="bevel"
     points="2234.98,2449.4 2764.6,2449.4"
     id="polyline40"
     transform="translate(-2234.98,-2314.2865)" />
  <polyline
     class="BarLine"
     fill="none"
     stroke="#000000"
     stroke-width="4.46"
     stroke-linejoin="bevel"
     points="2762.37,2348.84 2762.37,2450.76"
     id="polyline109"
     transform="translate(-2234.98,-2314.2865)" />
  <path
     class="Note"
     d="m 350.91084,22.422475 c -13.68649,0 -18.5535,6.944061 -18.5535,13.392062 0,6.448 4.86701,13.392061 18.5535,13.392061 13.68654,0 18.44507,-6.944061 18.44507,-13.392061 0,-6.448001 -4.75853,-13.392062 -18.44507,-13.392062 m 5.05305,23.002063 c -1.19347,0.403 -2.77453,0.60448 -4.26253,0.60448 -2.77452,0 -4.66548,-0.79048 -5.952,-3.270481 -1.28653,-2.48 -3.06896,-8.835001 -3.17748,-11.516511 -0.20148,-2.68149 0.79052,-4.262491 3.17748,-5.053001 1.19347,-0.40297 2.77452,-0.60455 4.26253,-0.60455 2.77452,0 4.57253,0.60455 5.952,3.286061 1.39495,2.666 3.17748,9.021001 3.17748,11.501001 0,2.573 -0.79052,4.371001 -3.17748,5.053001"
     id="path158"
     style="stroke-width:0.992001" />
  <path
     class="Note"
     d="m 218.01348,72.221607 c -13.68649,0 -18.5535,6.94406 -18.5535,13.39206 0,6.44801 4.86701,13.392078 18.5535,13.392078 13.68654,0 18.44507,-6.944068 18.44507,-13.392078 0,-6.448 -4.75853,-13.39206 -18.44507,-13.39206 m 5.05305,23.00207 c -1.19347,0.403 -2.77453,0.60448 -4.26253,0.60448 -2.77452,0 -4.66548,-0.79048 -5.952,-3.27048 -1.28653,-2.48 -3.06896,-8.83501 -3.17748,-11.51652 -0.20148,-2.68149 0.79052,-4.26249 3.17748,-5.053 1.19347,-0.40297 2.77452,-0.60455 4.26253,-0.60455 2.77452,0 4.57253,0.60455 5.952,3.28606 1.39495,2.666 3.17748,9.02101 3.17748,11.50101 0,2.573 -0.79052,4.371 -3.17748,5.053"
     id="path162"
     style="stroke-width:0.992001" />
  <path
     class="Clef"
     d="m 74.353607,112.3905 c 0,7.05251 -2.882953,14.29101 -9.92001,17.17406 -2.076952,-11.90406 -4.75843,-27.68307 -5.456005,-32.054135 8.928009,0 15.376015,6.060555 15.376015,14.880075 m -14.089489,18.35206 c -1.984002,0.40296 -3.859479,0.60443 -5.750531,0.60443 -14.18244,0 -26.287996,-9.92001 -26.287996,-24.9085 0,-12.090069 8.525028,-22.90903 17.267037,-30.457562 1.674001,-1.488002 3.270528,-2.867478 4.758529,-4.35548 0.883476,5.347481 1.580952,10.012961 2.278428,14.089489 -9.036434,2.681478 -15.174441,12.198538 -15.174441,21.529553 0,6.94401 5.456006,16.46102 13.392014,16.46102 0.790426,0 1.689477,-0.40295 1.689477,-1.28653 0,-0.89895 -0.992001,-1.39495 -2.185478,-2.18548 -3.875053,-2.387 -6.060531,-4.96 -6.060531,-9.82701 0,-6.045 4.464005,-10.912063 10.322961,-12.29154 l 5.750531,32.62761 M 51.537584,28.76793 c 0.899051,-3.968004 5.456006,-14.384015 10.617585,-14.384015 1.488002,0 3.859479,4.85148 3.859479,11.702438 0,10.32306 -7.626007,18.057592 -14.477064,24.800025 -0.588951,-3.968004 -1.084951,-7.827484 -1.084951,-11.996963 0,-3.673479 0.294525,-7.052532 1.084951,-10.121485 M 30.705563,161.20007 c 0,6.55653 5.053055,15.19002 18.445068,15.19002 4.66548,0 8.742009,-1.19348 12.306963,-3.37906 5.363055,-3.76643 6.742532,-10.32296 6.742532,-16.56949 0,-3.85948 -0.588951,-8.32348 -1.580952,-13.98096 -0.294525,-1.98401 -0.899051,-4.96001 -1.488002,-8.83506 9.718436,-3.17748 16.956968,-13.29897 16.956968,-23.51353 0,-14.973043 -10.617486,-25.094528 -25.09455,-25.094528 C 56.001589,79.065456 55.009588,73.2064 54.110636,67.657444 64.635172,56.636908 71.873605,44.236896 71.873605,28.473405 71.873605,19.436871 69.099176,12.105388 67.50265,8.5252566 65.131172,3.4720035 62.24812,0 60.465593,0 59.768117,0 56.699164,1.1933772 53.428636,5.0532531 47.07358,12.601389 45.291152,25.295926 45.291152,33.61941 c 0,5.362956 0.496001,10.23001 2.185478,21.343496 -0.108525,0.09305 -5.270006,5.347481 -7.347057,7.037057 -9.036435,8.432009 -21.529497,20.428971 -21.529497,40.284527 0,18.53806 16.166541,33.12355 34.627084,33.12355 2.867478,0 5.548956,-0.29452 7.827483,-0.69747 1.890953,9.53243 2.976003,16.47644 2.976003,21.73097 0,10.32306 -5.25453,15.77907 -15.26749,15.77907 -2.387052,0 -4.464005,-0.496 -4.665579,-0.496 -0.09295,-0.10853 -0.294426,-0.20158 -0.294426,-0.29453 0,-0.20147 0.201475,-0.31 0.496,-0.40305 4.66548,-0.69748 9.315485,-4.66548 9.315485,-11.00496 0,-5.36306 -4.061054,-11.02054 -11.501061,-11.02054 -6.944007,0 -11.408012,5.65748 -11.408012,12.19854"
     id="path171"
     style="stroke-width:0.992001" />
</svg>
