<?xml version="1.0" encoding="UTF-8" standalone="no"?>
<svg
   width="25.75313mm"
   height="14.633247mm"
   viewBox="0 0 365.00499 207.40036"
   version="1.2"
   id="svg190"
   sodipodi:docname="aa5-2.svg"
   xmlns:inkscape="http://www.inkscape.org/namespaces/inkscape"
   xmlns:sodipodi="http://sodipodi.sourceforge.net/DTD/sodipodi-0.dtd"
   xmlns="http://www.w3.org/2000/svg"
   xmlns:svg="http://www.w3.org/2000/svg">
  <defs
     id="defs190" />
  <sodipodi:namedview
     id="namedview190"
     pagecolor="#505050"
     bordercolor="#eeeeee"
     borderopacity="1"
     inkscape:showpageshadow="0"
     inkscape:pageopacity="0"
     inkscape:pagecheckerboard="0"
     inkscape:deskcolor="#505050"
     inkscape:document-units="mm">
    <inkscape:page
       x="1.7954006e-13"
       y="0"
       width="365.005"
       height="207.40036"
       id="page2"
       margin="0"
       bleed="0" />
  </sodipodi:namedview>
  <title
     id="title1">test1 (2)</title>
  <desc
     id="desc1">Generated by MuseScore Studio 4.5.2</desc>
  <polyline
     class="StaffLines"
     fill="none"
     stroke="#000000"
     stroke-width="3.21"
     stroke-linejoin="bevel"
     points="2399.6,824.009 2764.6,824.009"
     id="polyline6-0-8"
     transform="translate(-2399.6,-781.78182)"
     inkscape:export-filename="aa6\fe.svg"
     inkscape:export-xdpi="96"
     inkscape:export-ydpi="96" />
  <polyline
     class="StaffLines"
     fill="none"
     stroke="#000000"
     stroke-width="3.21"
     stroke-linejoin="bevel"
     points="2399.6,853.169 2764.6,853.169"
     id="polyline7-9-9"
     transform="translate(-2399.6,-781.78182)" />
  <polyline
     class="StaffLines"
     fill="none"
     stroke="#000000"
     stroke-width="3.21"
     stroke-linejoin="bevel"
     points="2399.6,882.329 2764.6,882.329"
     id="polyline8-4-27"
     transform="translate(-2399.6,-781.78182)" />
  <polyline
     class="StaffLines"
     fill="none"
     stroke="#000000"
     stroke-width="3.21"
     stroke-linejoin="bevel"
     points="2399.6,911.489 2764.6,911.489"
     id="polyline9-8-9"
     transform="translate(-2399.6,-781.78182)" />
  <polyline
     class="StaffLines"
     fill="none"
     stroke="#000000"
     stroke-width="3.21"
     stroke-linejoin="bevel"
     points="2399.6,940.649 2764.6,940.649"
     id="polyline10-8-5"
     transform="translate(-2399.6,-781.78182)" />
  <polyline
     class="BarLine"
     fill="none"
     stroke="#000000"
     stroke-width="5.25"
     stroke-linejoin="bevel"
     points="2761.98,822.405 2761.98,942.253"
     id="polyline85-2-4"
     transform="translate(-2399.6,-781.78182)" />
  <path
     class="Note"
     d="m 234.2853,157.90554 c -16.0926,0 -21.8153,8.16486 -21.8153,15.74646 0,7.5816 5.7227,15.74646 21.8153,15.74646 16.0927,0 21.6878,-8.16486 21.6878,-15.74646 0,-7.5816 -5.5951,-15.74646 -21.6878,-15.74646 m 5.9414,27.04596 c -1.4033,0.47385 -3.2623,0.71075 -5.0119,0.71075 -3.2623,0 -5.4857,-0.92945 -6.9984,-3.84545 -1.5127,-2.916 -3.6085,-10.38825 -3.7361,-13.54118 -0.2369,-3.15292 0.9295,-5.01187 3.7361,-5.94135 1.4033,-0.47382 3.2623,-0.71083 5.0119,-0.71083 3.2623,0 5.3764,0.71083 6.9984,3.86376 1.6402,3.1347 3.7361,10.60695 3.7361,13.52295 0,3.02535 -0.9295,5.13945 -3.7361,5.94135"
     id="path131-5-3"
     style="stroke-width:1.1664" />
  <path
     class="Note"
     d="m 234.2853,99.48226 c -16.0926,0 -21.8153,8.16486 -21.8153,15.74646 0,7.5816 5.7227,15.74646 21.8153,15.74646 16.0927,0 21.6878,-8.16486 21.6878,-15.74646 0,-7.5816 -5.5951,-15.74646 -21.6878,-15.74646 m 5.9414,27.04596 c -1.4033,0.47385 -3.2623,0.71075 -5.0119,0.71075 -3.2623,0 -5.4857,-0.92945 -6.9984,-3.84545 -1.5127,-2.916 -3.6085,-10.38825 -3.7361,-13.54118 -0.2369,-3.15292 0.9295,-5.01187 3.7361,-5.94135 1.4033,-0.47382 3.2623,-0.71083 5.0119,-0.71083 3.2623,0 5.3764,0.71083 6.9984,3.86376 1.6402,3.1347 3.7361,10.60695 3.7361,13.52295 0,3.02535 -0.9295,5.13945 -3.7361,5.94135"
     id="path132-5-12"
     style="stroke-width:1.1664" />
  <path
     class="Clef"
     d="m 87.425299,132.14933 c 0,8.29238 -3.3898,16.80345 -11.664,20.19336 -2.4421,-13.99686 -5.595,-32.54991 -6.4152,-37.68942 10.4976,0 18.0792,7.12603 18.0792,17.49606 m -16.5665,21.57846 c -2.3328,0.47379 -4.538,0.71069 -6.7615,0.71069 -16.6758,0 -30.9096,-11.664 -30.9096,-29.28755 0,-14.21556 10.0238,-26.93655 20.3027,-35.81215 1.9683,-1.7496 3.8455,-3.3716 5.5951,-5.1212 1.0388,6.2876 1.8589,11.77329 2.679,16.5665 -10.6251,3.15289 -17.8422,14.3431 -17.8422,25.31455 0,8.1648 6.4152,19.35495 15.7464,19.35495 0.9294,0 1.9865,-0.47379 1.9865,-1.5127 0,-1.057 -1.1664,-1.6402 -2.5697,-2.5697 -4.5563,-2.80665 -7.126,-5.832 -7.126,-11.55465 0,-7.10775 5.2488,-12.83046 12.1378,-14.45245 l 6.7615,38.36371 M 60.598099,33.82548 c 1.0571,-4.6656 6.4152,-16.9128 12.4842,-16.9128 1.7496,0 4.538,5.7044 4.538,13.75979 0,12.13791 -8.9667,21.23221 -17.0222,29.16 -0.6925,-4.6656 -1.2757,-9.20359 -1.2757,-14.10609 0,-4.3193 0.3463,-8.2924 1.2757,-11.9009 m -24.4944,155.7144 c 0,7.70921 5.9414,17.8605 21.6878,17.8605 5.4857,0 10.2789,-1.40329 14.4706,-3.9731 6.3059,-4.42859 7.9279,-12.1378 7.9279,-19.4825 0,-4.538 -0.6925,-9.7868 -1.8589,-16.43889 -0.3463,-2.3328 -1.0571,-5.832 -1.7496,-10.38831 11.427,-3.7361 19.9381,-15.63699 19.9381,-27.64733 0,-17.60537 -12.4841,-29.50627 -29.5063,-29.50627 -1.1664,-6.9984 -2.3328,-13.88751 -3.3898,-20.412 12.3748,-12.958 20.8858,-27.538 20.8858,-46.0728 0,-10.6252 -3.2622,-19.2456 -5.1394,-23.45514 C 76.581499,4.0823995 73.191599,-4.3425865e-7 71.095699,-4.3425865e-7 c -0.8201,0 -4.4286,1.40317993425865 -8.2741,5.94163993425865 -7.4723,8.8751405 -9.5681,23.8014405 -9.5681,33.5882405 0,6.30579 0.5832,12.0285 2.5697,25.0958 -0.1276,0.1094 -6.1965,6.28759 -8.6387,8.2742 -10.6251,9.9144 -25.3145,24.0205 -25.3145,47.36675 0,21.79716 19.0087,38.94685 40.7147,38.94685 3.3716,0 6.5245,-0.3463 9.2036,-0.82009 2.2234,11.20829 3.4992,19.37309 3.4992,25.55139 0,12.13791 -6.1783,18.55311 -17.9516,18.55311 -2.8067,0 -5.2488,-0.5832 -5.4858,-0.5832 -0.1093,-0.12761 -0.3462,-0.23701 -0.3462,-0.34631 0,-0.23689 0.2369,-0.3645 0.5832,-0.4739 5.4857,-0.8201 10.9532,-5.4857 10.9532,-12.9397 0,-6.3059 -4.775,-12.958 -13.523,-12.958 -8.1648,0 -13.4136,6.6521 -13.4136,14.3431"
     id="path146-1-3"
     style="stroke-width:1.1664" />
</svg>
