<?xml version="1.0" encoding="UTF-8" standalone="no"?>
<svg
   width="25.753136mm"
   height="14.633247mm"
   viewBox="0 0 365.00508 207.40036"
   version="1.2"
   id="svg190"
   sodipodi:docname="aa5-2.svg"
   xmlns:inkscape="http://www.inkscape.org/namespaces/inkscape"
   xmlns:sodipodi="http://sodipodi.sourceforge.net/DTD/sodipodi-0.dtd"
   xmlns="http://www.w3.org/2000/svg"
   xmlns:svg="http://www.w3.org/2000/svg">
  <defs
     id="defs190" />
  <sodipodi:namedview
     id="namedview190"
     pagecolor="#505050"
     bordercolor="#eeeeee"
     borderopacity="1"
     inkscape:showpageshadow="0"
     inkscape:pageopacity="0"
     inkscape:pagecheckerboard="0"
     inkscape:deskcolor="#505050"
     inkscape:document-units="mm">
    <inkscape:page
       x="-4.2628302e-14"
       y="0"
       width="365.00507"
       height="207.40036"
       id="page2"
       margin="0"
       bleed="0" />
  </sodipodi:namedview>
  <title
     id="title1">test1 (2)</title>
  <desc
     id="desc1">Generated by MuseScore Studio 4.5.2</desc>
  <polyline
     class="StaffLines"
     fill="none"
     stroke="#000000"
     stroke-width="3.21"
     stroke-linejoin="bevel"
     points="2399.6,824.009 2764.6,824.009"
     id="polyline6-0-7"
     transform="translate(-2399.5999,-781.78183)" />
  <polyline
     class="StaffLines"
     fill="none"
     stroke="#000000"
     stroke-width="3.21"
     stroke-linejoin="bevel"
     points="2399.6,853.169 2764.6,853.169"
     id="polyline7-9-1"
     transform="translate(-2399.5999,-781.78183)" />
  <polyline
     class="StaffLines"
     fill="none"
     stroke="#000000"
     stroke-width="3.21"
     stroke-linejoin="bevel"
     points="2399.6,882.329 2764.6,882.329"
     id="polyline8-4-1"
     transform="translate(-2399.5999,-781.78183)" />
  <polyline
     class="StaffLines"
     fill="none"
     stroke="#000000"
     stroke-width="3.21"
     stroke-linejoin="bevel"
     points="2399.6,911.489 2764.6,911.489"
     id="polyline9-8-5"
     transform="translate(-2399.5999,-781.78183)" />
  <polyline
     class="StaffLines"
     fill="none"
     stroke="#000000"
     stroke-width="3.21"
     stroke-linejoin="bevel"
     points="2399.6,940.649 2764.6,940.649"
     id="polyline10-8-2"
     transform="translate(-2399.5999,-781.78183)" />
  <polyline
     class="BarLine"
     fill="none"
     stroke="#000000"
     stroke-width="5.25"
     stroke-linejoin="bevel"
     points="2761.98,822.405 2761.98,942.253"
     id="polyline85-2-7"
     transform="translate(-2399.5999,-781.78183)" />
  <path
     class="Note"
     d="m 249.2853,128.76968 c -16.0926,0 -21.8153,8.1648 -21.8153,15.7464 0,7.5816 5.7227,15.7465 21.8153,15.7465 16.0927,0 21.6878,-8.1649 21.6878,-15.7465 0,-7.5816 -5.5951,-15.7464 -21.6878,-15.7464 m 5.9414,27.0459 c -1.4033,0.4739 -3.2623,0.7108 -5.0119,0.7108 -3.2623,0 -5.4857,-0.9295 -6.9984,-3.8455 -1.5127,-2.916 -3.6085,-10.3882 -3.7361,-13.5412 -0.2369,-3.1529 0.9295,-5.0118 3.7361,-5.9413 1.4033,-0.4738 3.2623,-0.7108 5.0119,-0.7108 3.2623,0 5.3764,0.7108 6.9984,3.8637 1.6402,3.1347 3.7361,10.607 3.7361,13.523 0,3.0253 -0.9295,5.1394 -3.7361,5.9413"
     id="path131-5-6"
     style="stroke-width:1.1664" />
  <path
     class="Note"
     d="m 174.2853,142.75508 c -16.0926,0 -21.8153,8.1648 -21.8153,15.7464 0,7.5816 5.7227,15.7465 21.8153,15.7465 16.0927,0 21.6878,-8.1649 21.6878,-15.7465 0,-7.5816 -5.5951,-15.7464 -21.6878,-15.7464 m 5.9414,27.0459 c -1.4033,0.4739 -3.2623,0.7108 -5.0119,0.7108 -3.2623,0 -5.4857,-0.9295 -6.9984,-3.8455 -1.5127,-2.916 -3.6085,-10.3882 -3.7361,-13.5411 -0.2369,-3.153 0.9295,-5.0119 3.7361,-5.9414 1.4033,-0.4738 3.2623,-0.7108 5.0119,-0.7108 3.2623,0 5.3764,0.7108 6.9984,3.8637 1.6402,3.1347 3.7361,10.607 3.7361,13.523 0,3.0253 -0.9295,5.1394 -3.7361,5.9413"
     id="path132-5-1"
     style="stroke-width:1.1664" />
  <path
     class="Clef"
     d="m 87.425298,132.14928 c 0,8.2924 -3.3898,16.8035 -11.664,20.1934 -2.4421,-13.9969 -5.595,-32.5499 -6.4152,-37.6894 10.4976,0 18.0792,7.126 18.0792,17.496 m -16.5665,21.5785 c -2.3328,0.4738 -4.538,0.7107 -6.7615,0.7107 -16.6758,0 -30.9096,-11.664 -30.9096,-29.2876 0,-14.2155 10.0238,-26.936495 20.3027,-35.812095 1.9683,-1.7496 3.8455,-3.3716 5.5951,-5.1212 1.0388,6.2876 1.8589,11.7733 2.679,16.566495 -10.6251,3.1529 -17.8422,14.3431 -17.8422,25.3145 0,8.1648 6.4152,19.355 15.7464,19.355 0.9294,0 1.9865,-0.4738 1.9865,-1.5127 0,-1.057 -1.1664,-1.6402 -2.5697,-2.5697 -4.5563,-2.8067 -7.126,-5.832 -7.126,-11.5547 0,-7.1077 5.2488,-12.8304 12.1378,-14.4524 l 6.7615,38.3637 M 60.598098,33.825475 c 1.0571,-4.6656 6.4152,-16.9128 12.4842,-16.9128 1.7496,0 4.538,5.7044 4.538,13.75979 0,12.13791 -8.9667,21.23221 -17.0222,29.16002 -0.6925,-4.6656 -1.2757,-9.20361 -1.2757,-14.10611 0,-4.3193 0.3463,-8.2924 1.2757,-11.9009 m -24.4944,155.714405 c 0,7.7092 5.9414,17.8605 21.6878,17.8605 5.4857,0 10.2789,-1.4033 14.4706,-3.9731 6.3059,-4.4286 7.9279,-12.1378 7.9279,-19.4825 0,-4.538 -0.6925,-9.7868 -1.8589,-16.4389 -0.3463,-2.3328 -1.0571,-5.832 -1.7496,-10.3883 11.427,-3.7361 19.9381,-15.637 19.9381,-27.6473 0,-17.6054 -12.4841,-29.506295 -29.5063,-29.506295 -1.1664,-6.9984 -2.3328,-13.8875 -3.3898,-20.412 12.3748,-12.958 20.8858,-27.53801 20.8858,-46.07281 0,-10.6252 -3.2622,-19.2456 -5.1394,-23.45514 -2.7884,-5.9416398 -6.1783,-10.0240397720962 -8.2742,-10.0240397720962 -0.8201,0 -4.4286,1.4031799720962 -8.2741,5.9416399720962 -7.4723,8.8751398 -9.5681,23.8014398 -9.5681,33.5882398 0,6.30579 0.5832,12.0285 2.5697,25.09581 -0.1276,0.1094 -6.1965,6.2876 -8.6387,8.2742 -10.6251,9.9144 -25.3145,24.0205 -25.3145,47.366695 0,21.7972 19.0087,38.9469 40.7147,38.9469 3.3716,0 6.5245,-0.3463 9.2036,-0.8201 2.2234,11.2083 3.4992,19.3731 3.4992,25.5514 0,12.1379 -6.1783,18.5531 -17.9516,18.5531 -2.8067,0 -5.2488,-0.5832 -5.4858,-0.5832 -0.1093,-0.1276 -0.3462,-0.237 -0.3462,-0.3463 0,-0.2369 0.2369,-0.3645 0.5832,-0.4739 5.4857,-0.8201 10.9532,-5.4857 10.9532,-12.9397 0,-6.3059 -4.775,-12.958 -13.523,-12.958 -8.1648,0 -13.4136,6.6521 -13.4136,14.3431"
     id="path146-1-4"
     style="stroke-width:1.1664" />
</svg>
