<?xml version="1.0" encoding="UTF-8" standalone="no"?>
<svg
   width="25.753128mm"
   height="14.633247mm"
   viewBox="0 0 365.00497 207.40036"
   version="1.2"
   id="svg190"
   sodipodi:docname="aa5-2.svg"
   xmlns:inkscape="http://www.inkscape.org/namespaces/inkscape"
   xmlns:sodipodi="http://sodipodi.sourceforge.net/DTD/sodipodi-0.dtd"
   xmlns="http://www.w3.org/2000/svg"
   xmlns:svg="http://www.w3.org/2000/svg">
  <defs
     id="defs190" />
  <sodipodi:namedview
     id="namedview190"
     pagecolor="#505050"
     bordercolor="#eeeeee"
     borderopacity="1"
     inkscape:showpageshadow="0"
     inkscape:pageopacity="0"
     inkscape:pagecheckerboard="0"
     inkscape:deskcolor="#505050"
     inkscape:document-units="mm">
    <inkscape:page
       x="0"
       y="0"
       width="365.00497"
       height="207.40036"
       id="page2"
       margin="0"
       bleed="0" />
  </sodipodi:namedview>
  <title
     id="title1">test1 (2)</title>
  <desc
     id="desc1">Generated by MuseScore Studio 4.5.2</desc>
  <path
     class="Accidental"
     d="m 154.16949,116.94137 c 0.71081,-0.10941 1.29401,-0.9295 1.29401,-1.64031 v -6.87079 c 0,-0.92951 -0.71081,-1.6402 -1.64031,-1.6402 -0.10929,0 -0.10929,0 -0.2369,0 l -3.8455,0.8201 V 90.223457 h -3.2623 v 18.079203 l -10.38822,2.1141 V 93.959667 h -3.26228 v 17.149703 l -4.55625,0.9295 c -0.69255,0.12749 -1.27575,0.92939 -1.27575,1.6402 v 0.23689 6.76153 -0.23692 c 0,0.92947 0.69255,1.64025 1.64025,1.64025 0.10935,0 0.2187,0 0.34628,0 l 3.84547,-0.82013 v 19.24561 l -4.55625,0.92947 c -0.69255,0.10941 -1.27575,0.9295 -1.27575,1.64031 v 6.76139 c 0,0.9295 0.69255,1.62211 1.64025,1.62211 0.10935,0 0.2187,0 0.34628,0 l 3.84547,-0.8019 v 17.36839 h 3.26228 v -18.0792 l 10.38822,-2.0959 v 16.4572 h 3.2623 v -17.14969 l 4.4287,-0.82021 c 0.71081,-0.12749 1.29401,-0.92939 1.29401,-1.6402 v -6.87085 c 0,-0.9477 -0.71081,-1.64025 -1.64031,-1.64025 -0.10929,0 -0.10929,0 -0.2369,0 l -3.8455,0.82013 v -19.24561 l 4.4287,-0.82012 m -18.07922,3.60855 10.38822,-2.09588 v 19.24561 l -10.38822,2.22345 v -19.37318"
     id="path120-6"
     style="stroke-width:1.1664"
     inkscape:export-filename="aa6\aesgis.svg"
     inkscape:export-xdpi="96"
     inkscape:export-ydpi="96" />
  <path
     class="Accidental"
     d="m 252.87145,105.50893 c -0.6926,-4.53805 -3.4992,-8.857353 -9.4406,-8.857353 -5.832,0 -9.2218,3.608493 -9.805,4.319303 l 0.4738,-37.452413 c 0,-0.92939 -0.6925,-1.62199 -1.6403,-1.62199 h -1.385 c -0.9477,0 -1.6403,0.6926 -1.6403,1.62199 l 0.5832,70.111613 c 0,0.9295 0.6925,1.62211 1.6403,1.62211 0.2186,0 0.6925,-0.10941 0.9294,-0.2187 0.4557,-0.23701 8.0373,-3.97311 14.3431,-11.08086 4.4287,-5.0301 6.1783,-10.73453 6.1783,-15.5277 0,-1.03883 -0.1094,-1.9683 -0.2369,-2.916 m -8.0373,4.55625 c 0,1.7496 -0.4738,7.10775 -3.3898,11.55465 -1.9866,3.02535 -5.9414,6.17825 -8.1648,7.92785 l 0.3463,-22.74478 c 0.2369,-1.05705 1.9865,-4.42873 6.6521,-4.42873 4.21,0 4.5562,3.95488 4.5562,6.41526 0,0.5832 0,0.92947 0,1.27575"
     id="path53-1"
     style="stroke-width:1.1664" />
  <polyline
     class="StaffLines"
     fill="none"
     stroke="#000000"
     stroke-width="3.21"
     stroke-linejoin="bevel"
     points="2399.6,824.009 2764.6,824.009"
     id="polyline6-0-2"
     transform="translate(-2399.6,-781.78182)"
     inkscape:export-filename="aa6\fe.svg"
     inkscape:export-xdpi="96"
     inkscape:export-ydpi="96" />
  <polyline
     class="StaffLines"
     fill="none"
     stroke="#000000"
     stroke-width="3.21"
     stroke-linejoin="bevel"
     points="2399.6,853.169 2764.6,853.169"
     id="polyline7-9-3"
     transform="translate(-2399.6,-781.78182)" />
  <polyline
     class="StaffLines"
     fill="none"
     stroke="#000000"
     stroke-width="3.21"
     stroke-linejoin="bevel"
     points="2399.6,882.329 2764.6,882.329"
     id="polyline8-4-2"
     transform="translate(-2399.6,-781.78182)" />
  <polyline
     class="StaffLines"
     fill="none"
     stroke="#000000"
     stroke-width="3.21"
     stroke-linejoin="bevel"
     points="2399.6,911.489 2764.6,911.489"
     id="polyline9-8-2"
     transform="translate(-2399.6,-781.78182)" />
  <polyline
     class="StaffLines"
     fill="none"
     stroke="#000000"
     stroke-width="3.21"
     stroke-linejoin="bevel"
     points="2399.6,940.649 2764.6,940.649"
     id="polyline10-8-1"
     transform="translate(-2399.6,-781.78182)" />
  <polyline
     class="BarLine"
     fill="none"
     stroke="#000000"
     stroke-width="5.25"
     stroke-linejoin="bevel"
     points="2761.98,822.405 2761.98,942.253"
     id="polyline85-2-6"
     transform="translate(-2399.6,-781.78182)" />
  <path
     class="Note"
     d="m 279.2853,98.769657 c -16.0926,0 -21.8153,8.164863 -21.8153,15.746463 0,7.5816 5.7227,15.74646 21.8153,15.74646 16.0927,0 21.6878,-8.16486 21.6878,-15.74646 0,-7.5816 -5.5951,-15.746463 -21.6878,-15.746463 m 5.9414,27.045963 c -1.4033,0.47385 -3.2623,0.71075 -5.0119,0.71075 -3.2623,0 -5.4857,-0.92945 -6.9984,-3.84545 -1.5127,-2.916 -3.6085,-10.38825 -3.7361,-13.54118 -0.2369,-3.15292 0.9295,-5.01187 3.7361,-5.94135 1.4033,-0.47382 3.2623,-0.71083 5.0119,-0.71083 3.2623,0 5.3764,0.71083 6.9984,3.86376 1.6402,3.1347 3.7361,10.60695 3.7361,13.52295 0,3.02535 -0.9295,5.13945 -3.7361,5.94135"
     id="path131-5-8"
     style="stroke-width:1.1664" />
  <path
     class="Note"
     d="m 181.7853,114.56142 c -16.0926,0 -21.8153,8.16486 -21.8153,15.74646 0,7.5816 5.7227,15.74646 21.8153,15.74646 16.0927,0 21.6878,-8.16486 21.6878,-15.74646 0,-7.5816 -5.5951,-15.74646 -21.6878,-15.74646 m 5.9414,27.04596 c -1.4033,0.47385 -3.2623,0.71075 -5.0119,0.71075 -3.2623,0 -5.4857,-0.92945 -6.9984,-3.84545 -1.5127,-2.916 -3.6085,-10.38825 -3.7361,-13.54118 -0.2369,-3.15292 0.9295,-5.01187 3.7361,-5.94135 1.4033,-0.47382 3.2623,-0.71083 5.0119,-0.71083 3.2623,0 5.3764,0.71083 6.9984,3.86376 1.6402,3.1347 3.7361,10.60695 3.7361,13.52295 0,3.02535 -0.9295,5.13945 -3.7361,5.94135"
     id="path132-5-5"
     style="stroke-width:1.1664" />
  <path
     class="Clef"
     d="m 87.425307,132.14933 c 0,8.29238 -3.3898,16.80345 -11.664,20.19336 -2.4421,-13.99686 -5.595,-32.54991 -6.4152,-37.68942 10.4976,0 18.0792,7.12603 18.0792,17.49606 m -16.5665,21.57846 c -2.3328,0.47379 -4.538,0.71069 -6.7615,0.71069 -16.6758,0 -30.9096,-11.664 -30.9096,-29.28755 0,-14.21556 10.0238,-26.936553 20.3027,-35.812153 1.9683,-1.7496 3.8455,-3.3716 5.5951,-5.1212 1.0388,6.2876 1.8589,11.77329 2.679,16.566503 -10.6251,3.15289 -17.8422,14.3431 -17.8422,25.31455 0,8.1648 6.4152,19.35495 15.7464,19.35495 0.9294,0 1.9865,-0.47379 1.9865,-1.5127 0,-1.057 -1.1664,-1.6402 -2.5697,-2.5697 -4.5563,-2.80665 -7.126,-5.832 -7.126,-11.55465 0,-7.10775 5.2488,-12.83046 12.1378,-14.45245 l 6.7615,38.36371 M 60.598107,33.825477 c 1.0571,-4.6656 6.4152,-16.9128 12.4842,-16.9128 1.7496,0 4.538,5.7044 4.538,13.75979 0,12.13791 -8.9667,21.23221 -17.0222,29.16 -0.6925,-4.6656 -1.2757,-9.20359 -1.2757,-14.10609 0,-4.3193 0.3463,-8.2924 1.2757,-11.9009 m -24.4944,155.714403 c 0,7.70921 5.9414,17.8605 21.6878,17.8605 5.4857,0 10.2789,-1.40329 14.4706,-3.9731 6.3059,-4.42859 7.9279,-12.1378 7.9279,-19.4825 0,-4.538 -0.6925,-9.7868 -1.8589,-16.43889 -0.3463,-2.3328 -1.0571,-5.832 -1.7496,-10.38831 11.427,-3.7361 19.9381,-15.63699 19.9381,-27.64733 0,-17.60537 -12.4841,-29.506273 -29.5063,-29.506273 -1.1664,-6.9984 -2.3328,-13.88751 -3.3898,-20.412 12.3748,-12.958 20.8858,-27.538 20.8858,-46.0728 0,-10.6252 -3.2622,-19.2456 -5.1394,-23.45514 -2.7884,-5.9416404 -6.1783,-10.0240403413074 -8.2742,-10.0240403413074 -0.8201,0 -4.4286,1.4031799413074 -8.2741,5.9416399413074 -7.4723,8.8751404 -9.5681,23.8014404 -9.5681,33.5882404 0,6.30579 0.5832,12.0285 2.5697,25.0958 -0.1276,0.1094 -6.1965,6.28759 -8.6387,8.2742 -10.6251,9.9144 -25.3145,24.0205 -25.3145,47.366753 0,21.79716 19.0087,38.94685 40.7147,38.94685 3.3716,0 6.5245,-0.3463 9.2036,-0.82009 2.2234,11.20829 3.4992,19.37309 3.4992,25.55139 0,12.13791 -6.1783,18.55311 -17.9516,18.55311 -2.8067,0 -5.2488,-0.5832 -5.4858,-0.5832 -0.1093,-0.12761 -0.3462,-0.23701 -0.3462,-0.34631 0,-0.23689 0.2369,-0.3645 0.5832,-0.4739 5.4857,-0.8201 10.9532,-5.4857 10.9532,-12.9397 0,-6.3059 -4.775,-12.958 -13.523,-12.958 -8.1648,0 -13.4136,6.6521 -13.4136,14.3431"
     id="path146-1-7"
     style="stroke-width:1.1664" />
</svg>
