<?xml version="1.0" encoding="UTF-8" standalone="no"?>
<svg
   width="23.978851mm"
   height="7.2428393mm"
   viewBox="0 0 339.85774 102.65442"
   version="1.2"
   id="svg164"
   xmlns="http://www.w3.org/2000/svg"
   xmlns:svg="http://www.w3.org/2000/svg">
  <defs
     id="defs164" />
  <title
     id="title1">Piano</title>
  <desc
     id="desc1">Generated by MuseScore Studio 4.5.2</desc>
  <polyline
     class="Stem"
     fill="none"
     stroke="#000000"
     stroke-width="2.48"
     stroke-linejoin="bevel"
     points="1594.34,444.23 1594.34,367.598"
     id="polyline75-0"
     transform="translate(-1563.35,-367.59357)" />
  <path
     class="Note"
     d="m -2.623335e-5,84.773926 c 0,4.2625 3.06900003335,9.02102 11.11349923335,9.02102 10.3075,0 21.1265,-8.43202 21.1265,-17.15852 0,-5.859 -4.96,-9.12948 -11.1135,-9.12948 -9.6255,0 -21.12649923335,8.13748 -21.12649923335,17.26698"
     id="path114-6"
     style="stroke-width:0.992" />
  <path
     class="NoteDot"
     d="m 44.629973,80.604426 c 0,2.7745 2.1855,4.96 4.96,4.96 2.7745,0 4.96,-2.1855 4.96,-4.96 0,-2.7745 -2.1855,-4.96 -4.96,-4.96 -2.7745,0 -4.96,2.1855 -4.96,4.96"
     id="path163-1"
     style="stroke-width:0.992" />
  <polyline
     class="Stem"
     fill="none"
     stroke="#000000"
     stroke-width="2.48"
     stroke-linejoin="bevel"
     points="1192.1,444.23 1192.1,367.598"
     id="polyline67-8-3"
     transform="translate(-1003.4314,-367.59803)" />
  <path
     class="Note"
     d="m 157.68868,84.769466 c 0,4.2625 3.069,9.02102 11.1135,9.02102 10.3076,0 21.1265,-8.43202 21.1265,-17.15852 0,-5.859 -4.96,-9.12948 -11.1135,-9.12948 -9.6254,0 -21.1265,8.13748 -21.1265,17.26698"
     id="path106-2-5"
     style="stroke-width:0.992" />
  <polyline
     class="Stem"
     fill="none"
     stroke="#000000"
     stroke-width="2.48"
     stroke-linejoin="bevel"
     points="1279.9,444.23 1279.9,367.797"
     id="polyline69-4-9"
     transform="translate(-967.48132,-366.40457)" />
  <path
     class="Hook"
     d="m 311.17868,23.714906 c 0,0.29452 0.093,0.79052 0.7905,1.08504 4.2625,1.39496 12.803,6.758 19.251,17.76296 1.7825,3.06904 4.6656,7.34704 4.6656,15.57757 0,7.14547 -1.8911,14.47695 -4.464,21.62243 -0.2016,0.60452 -0.4031,1.10052 -0.31,1.488 0,0.40304 0.1084,0.69757 0.496,0.89904 0.2014,0.093 0.4029,0.093 0.496,0.093 0.6974,0 1.1934,-0.38748 1.5964,-1.08496 4.6656,-8.246 6.2465,-18.75504 6.1536,-25.00147 0,-0.496 0,-0.79053 0,-1.19357 -0.496,-12.80296 -7.8431,-22.22696 -7.8431,-22.22696 0.2945,0 -9.1295,-12.19852 -11.811,-16.368 -3.658,-5.65752 -5.3475,-11.2995198 -5.549,-11.7025198 -0.093,-0.2945 -0.992,-3.87499995 -0.992,-3.87499995 -0.093,-0.3875 -0.589,-0.79049999939 -1.1935,-0.79049999939 -0.6975,0 -1.2865,0.60449999939 -1.2865,1.28649994939 V 23.714946"
     id="path86-1-8"
     style="stroke-width:0.992" />
  <path
     class="Note"
     d="m 281.43868,85.962926 c 0,4.2625 3.069,9.02102 11.1135,9.02102 10.3076,0 21.1265,-8.43202 21.1265,-17.15852 0,-5.859 -4.96,-9.12948 -11.1135,-9.12948 -9.6254,0 -21.1265,8.13748 -21.1265,17.26698"
     id="path107-1-4"
     style="stroke-width:0.992" />
  <text
     xml:space="preserve"
     style="font-size:70.0001px;font-family:'Times New Roman';-inkscape-font-specification:'Times New Roman, ';text-align:start;writing-mode:lr-tb;direction:ltr;text-anchor:start;fill:#000000;stroke:#000000;stroke-width:2.83465;stroke-linecap:square;stroke-opacity:0;paint-order:stroke fill markers"
     x="79.091507"
     y="106.23357"
     id="text165-5"><tspan
       id="tspan165-4"
       style="stroke-width:2.83465"
       x="79.091507"
       y="106.23357">=</tspan></text>
  <text
     xml:space="preserve"
     style="font-size:70.0001px;font-family:'Times New Roman';-inkscape-font-specification:'Times New Roman, ';text-align:start;writing-mode:lr-tb;direction:ltr;text-anchor:start;fill:#000000;stroke:#000000;stroke-width:2.83465;stroke-linecap:square;stroke-opacity:0;paint-order:stroke fill markers"
     x="213.71919"
     y="106.05639"
     id="text165-6-2"><tspan
       id="tspan165-1-0"
       style="stroke-width:2.83465"
       x="213.71919"
       y="106.05639">+</tspan></text>
</svg>
