<?xml version="1.0" encoding="UTF-8" standalone="no"?>
<svg
   width="127.88633mm"
   height="17.008442mm"
   viewBox="0 0 1812.5622 241.06454"
   version="1.2"
   id="svg204"
   xmlns="http://www.w3.org/2000/svg"
   xmlns:svg="http://www.w3.org/2000/svg">
  <defs
     id="defs204" />
  <title
     id="title1">major scales (2)</title>
  <desc
     id="desc1">Generated by MuseScore Studio 4.5.2</desc>
  <polyline
     class="StaffLines"
     fill="none"
     stroke="#000000"
     stroke-width="3.13"
     stroke-linejoin="bevel"
     points="952.038,1865.58 2764.6,1865.58"
     id="polyline21"
     transform="translate(-952.03802,-1785.6101)" />
  <polyline
     class="StaffLines"
     fill="none"
     stroke="#000000"
     stroke-width="3.13"
     stroke-linejoin="bevel"
     points="952.038,1894.02 2764.6,1894.02"
     id="polyline22"
     transform="translate(-952.03802,-1785.6101)" />
  <polyline
     class="StaffLines"
     fill="none"
     stroke="#000000"
     stroke-width="3.13"
     stroke-linejoin="bevel"
     points="952.038,1922.46 2764.6,1922.46"
     id="polyline23"
     transform="translate(-952.03802,-1785.6101)" />
  <polyline
     class="StaffLines"
     fill="none"
     stroke="#000000"
     stroke-width="3.13"
     stroke-linejoin="bevel"
     points="952.038,1950.9 2764.6,1950.9"
     id="polyline24"
     transform="translate(-952.03802,-1785.6101)" />
  <polyline
     class="StaffLines"
     fill="none"
     stroke="#000000"
     stroke-width="3.13"
     stroke-linejoin="bevel"
     points="952.038,1979.34 2764.6,1979.34"
     id="polyline25"
     transform="translate(-952.03802,-1785.6101)" />
  <polyline
     class="BarLine"
     fill="none"
     stroke="#000000"
     stroke-width="5.12"
     stroke-linejoin="bevel"
     points="2746.4,1864.02 2746.4,1980.91"
     id="polyline63"
     transform="translate(-952.03802,-1785.6101)" />
  <polyline
     class="BarLine"
     fill="none"
     stroke="#000000"
     stroke-width="5.12"
     stroke-linejoin="bevel"
     points="2762.04,1864.02 2762.04,1980.91"
     id="polyline64"
     transform="translate(-952.03802,-1785.6101)" />
  <path
     class="Accidental"
     d="m 362.40069,127.85567 c -0.67551,-4.426 -3.4128,-8.63865 -9.20751,-8.63865 -5.688,0 -8.99415,3.51939 -9.56295,4.21265 l 0.46215,-36.527655 c 0,-0.90644 -0.67545,-1.581946 -1.59975,-1.581946 h -1.3509 c -0.9243,0 -1.59975,0.675506 -1.59975,1.581946 l 0.5688,68.380455 c 0,0.90655 0.67545,1.58206 1.59975,1.58206 0.2133,0 0.67545,-0.10671 0.90653,-0.2133 0.44437,-0.23116 7.83877,-3.87501 13.98892,-10.80726 4.31935,-4.9059 6.02575,-10.46948 6.02575,-15.1443 0,-1.01318 -0.1067,-1.9197 -0.23104,-2.844 m -7.83886,4.44375 c 0,1.7064 -0.4621,6.93225 -3.3061,11.26935 -1.9375,2.95065 -5.79467,6.0257 -7.96322,7.7321 l 0.33772,-22.18318 c 0.23108,-1.03095 1.93748,-4.31938 6.48788,-4.31938 4.10608,0 4.44372,3.85723 4.44372,6.25686 0,0.5688 0,0.90652 0,1.24425"
     id="path88"
     style="stroke-width:1.1376" />
  <path
     class="Accidental"
     d="m 1571.5707,42.535672 c -0.6755,-4.426003 -3.4128,-8.63865 -9.2075,-8.63865 -5.688,0 -8.9942,3.519393 -9.563,4.212647 l 0.4622,-36.527654 c 0,-0.90643966 -0.6755,-1.581946543869 -1.5998,-1.581946543869 h -1.3509 c -0.9243,0 -1.5997,0.675506883869 -1.5997,1.581946543869 l 0.5688,68.380454 c 0,0.906553 0.6754,1.58206 1.5997,1.58206 0.2133,0 0.6755,-0.106707 0.9066,-0.2133 0.4443,-0.23116 7.8387,-3.875007 13.9889,-10.807257 4.3193,-4.9059 6.0257,-10.469481 6.0257,-15.1443 0,-1.013181 -0.1067,-1.9197 -0.231,-2.844 m -7.8389,4.44375 c 0,1.7064 -0.4621,6.93225 -3.3061,11.26935 -1.9375,2.95065 -5.7946,6.025697 -7.9632,7.732097 l 0.3377,-22.183178 c 0.2311,-1.03095 1.9375,-4.319376 6.4879,-4.319376 4.1061,0 4.4437,3.857226 4.4437,6.256857 0,0.5688 0,0.906519 0,1.24425"
     id="path110"
     style="stroke-width:1.1376" />
  <path
     class="Accidental"
     d="m 767.92069,99.415672 c -0.67551,-4.426003 -3.4128,-8.63865 -9.20751,-8.63865 -5.688,0 -8.99415,3.519393 -9.56295,4.212647 l 0.46215,-36.527654 c 0,-0.90644 -0.67545,-1.581946 -1.59975,-1.581946 h -1.3509 c -0.9243,0 -1.59975,0.675506 -1.59975,1.581946 l 0.5688,68.380455 c 0,0.90655 0.67545,1.58206 1.59975,1.58206 0.2133,0 0.67545,-0.10671 0.90653,-0.2133 0.44437,-0.23116 7.83877,-3.87501 13.98892,-10.80726 4.31935,-4.9059 6.02575,-10.46948 6.02575,-15.1443 0,-1.01318 -0.1067,-1.9197 -0.23104,-2.843998 m -7.83886,4.443748 c 0,1.7064 -0.4621,6.93225 -3.3061,11.26935 -1.9375,2.95065 -5.79467,6.0257 -7.96322,7.7321 l 0.33772,-22.18318 c 0.23108,-1.030949 1.93748,-4.319375 6.48788,-4.319375 4.10608,0 4.44372,3.857225 4.44372,6.256855 0,0.5688 0,0.90652 0,1.24425"
     id="path112"
     style="stroke-width:1.1376" />
  <path
     class="Accidental"
     d="m 159.64069,142.07567 c -0.67551,-4.426 -3.4128,-8.63865 -9.20751,-8.63865 -5.688,0 -8.99415,3.51939 -9.56295,4.21265 l 0.46215,-36.52766 c 0,-0.90644 -0.67545,-1.581941 -1.59975,-1.581941 h -1.3509 c -0.9243,0 -1.59975,0.675501 -1.59975,1.581941 l 0.5688,68.38046 c 0,0.90655 0.67545,1.58206 1.59975,1.58206 0.2133,0 0.67545,-0.10671 0.90653,-0.2133 0.44437,-0.23116 7.83877,-3.87501 13.98892,-10.80726 4.31935,-4.9059 6.02575,-10.46948 6.02575,-15.1443 0,-1.01318 -0.1067,-1.9197 -0.23104,-2.844 m -7.83886,4.44375 c 0,1.7064 -0.4621,6.93225 -3.3061,11.26935 -1.9375,2.95065 -5.79467,6.0257 -7.96322,7.7321 l 0.33772,-22.18318 c 0.23108,-1.03095 1.93748,-4.31938 6.48788,-4.31938 4.10608,0 4.44372,3.85723 4.44372,6.25686 0,0.5688 0,0.90652 0,1.24425"
     id="path113"
     style="stroke-width:1.1376" />
  <path
     class="Accidental"
     d="m 970.68069,85.195672 c -0.67551,-4.426003 -3.4128,-8.63865 -9.20751,-8.63865 -5.688,0 -8.99415,3.519393 -9.56295,4.212647 l 0.46215,-36.527654 c 0,-0.90644 -0.67545,-1.581946 -1.59975,-1.581946 h -1.3509 c -0.9243,0 -1.59975,0.675506 -1.59975,1.581946 l 0.5688,68.380455 c 0,0.90655 0.67545,1.58206 1.59975,1.58206 0.2133,0 0.67545,-0.10671 0.90653,-0.2133 0.44437,-0.23116 7.83877,-3.87501 13.98892,-10.80726 4.31935,-4.905898 6.02575,-10.469479 6.02575,-15.144298 0,-1.013181 -0.1067,-1.9197 -0.23104,-2.844 m -7.83886,4.44375 c 0,1.7064 -0.4621,6.93225 -3.3061,11.269348 -1.9375,2.95065 -5.79467,6.0257 -7.96322,7.7321 l 0.33772,-22.183179 c 0.23108,-1.03095 1.93748,-4.319376 6.48788,-4.319376 4.10608,0 4.44372,3.857226 4.44372,6.256857 0,0.5688 0,0.906519 0,1.24425"
     id="path115"
     style="stroke-width:1.1376" />
  <polyline
     class="LedgerLine"
     fill="none"
     stroke="#000000"
     stroke-width="4.55"
     stroke-linejoin="bevel"
     points="2528.96,1837.14 2590.16,1837.14"
     id="polyline119"
     transform="translate(-952.03802,-1785.6101)" />
  <path
     class="Note"
     d="m 188.25863,135.60551 c -15.6953,0 -21.27665,7.96326 -21.27665,15.35766 0,7.3944 5.58135,15.35766 21.27665,15.35766 15.69535,0 21.1523,-7.96326 21.1523,-15.35766 0,-7.3944 -5.45695,-15.35766 -21.1523,-15.35766 m 5.7947,26.37816 c -1.36864,0.46215 -3.18175,0.6932 -4.88815,0.6932 -3.18175,0 -5.35025,-0.9065 -6.8256,-3.7505 -1.47535,-2.844 -3.51939,-10.13175 -3.64385,-13.20683 -0.23104,-3.07507 0.90656,-4.88812 3.64385,-5.79465 1.36865,-0.46212 3.18175,-0.69328 4.88815,-0.69328 3.18176,0 5.24366,0.69328 6.8256,3.76836 1.5997,3.0573 3.64385,10.34505 3.64385,13.18905 0,2.95065 -0.90655,5.01255 -3.64385,5.79465"
     id="path122"
     style="stroke-width:1.1376" />
  <path
     class="Note"
     d="m 391.01863,121.38551 c -15.6953,0 -21.27665,7.96326 -21.27665,15.35766 0,7.3944 5.58135,15.35766 21.27665,15.35766 15.69535,0 21.1523,-7.96326 21.1523,-15.35766 0,-7.3944 -5.45695,-15.35766 -21.1523,-15.35766 m 5.7947,26.37816 c -1.36864,0.46215 -3.18175,0.6932 -4.88815,0.6932 -3.18175,0 -5.35025,-0.9065 -6.8256,-3.7505 -1.47535,-2.844 -3.51939,-10.13175 -3.64385,-13.20683 -0.23104,-3.07507 0.90656,-4.88812 3.64385,-5.79465 1.36865,-0.46212 3.18175,-0.69328 4.88815,-0.69328 3.18176,0 5.24366,0.69328 6.8256,3.76836 1.5997,3.0573 3.64385,10.34505 3.64385,13.18905 0,2.95065 -0.90655,5.01255 -3.64385,5.79465"
     id="path123"
     style="stroke-width:1.1376" />
  <path
     class="Note"
     d="m 593.77863,107.16551 c -15.6953,0 -21.27665,7.96326 -21.27665,15.35766 0,7.3944 5.58135,15.35766 21.27665,15.35766 15.69535,0 21.1523,-7.96326 21.1523,-15.35766 0,-7.3944 -5.45695,-15.35766 -21.1523,-15.35766 m 5.7947,26.37816 c -1.36864,0.46215 -3.18175,0.6932 -4.88815,0.6932 -3.18175,0 -5.35025,-0.9065 -6.8256,-3.7505 -1.47535,-2.844 -3.51939,-10.13175 -3.64385,-13.20683 -0.23104,-3.07507 0.90656,-4.88812 3.64385,-5.79465 1.36865,-0.46212 3.18175,-0.69328 4.88815,-0.69328 3.18176,0 5.24366,0.69328 6.8256,3.76836 1.5997,3.0573 3.64385,10.34505 3.64385,13.18905 0,2.95065 -0.90655,5.01255 -3.64385,5.79465"
     id="path124"
     style="stroke-width:1.1376" />
  <path
     class="Note"
     d="m 796.53863,92.945515 c -15.6953,0 -21.27665,7.963255 -21.27665,15.357655 0,7.3944 5.58135,15.35766 21.27665,15.35766 15.69535,0 21.1523,-7.96326 21.1523,-15.35766 0,-7.3944 -5.45695,-15.357655 -21.1523,-15.357655 m 5.7947,26.378155 c -1.36864,0.46215 -3.18175,0.6932 -4.88815,0.6932 -3.18175,0 -5.35025,-0.9065 -6.8256,-3.7505 -1.47535,-2.844 -3.51939,-10.13175 -3.64385,-13.20683 -0.23104,-3.075068 0.90656,-4.888118 3.64385,-5.794649 1.36865,-0.462116 3.18175,-0.693276 4.88815,-0.693276 3.18176,0 5.24366,0.693276 6.8256,3.768355 1.5997,3.0573 3.64385,10.34505 3.64385,13.18905 0,2.95065 -0.90655,5.01255 -3.64385,5.79465"
     id="path125"
     style="stroke-width:1.1376" />
  <path
     class="Note"
     d="m 999.29863,78.725515 c -15.6953,0 -21.27665,7.963257 -21.27665,15.357657 0,7.394398 5.58135,15.357658 21.27665,15.357658 15.69537,0 21.15227,-7.96326 21.15227,-15.357658 0,-7.3944 -5.4569,-15.357657 -21.15227,-15.357657 m 5.79467,26.378155 c -1.3686,0.46215 -3.1817,0.6932 -4.8881,0.6932 -3.18177,0 -5.35027,-0.9065 -6.82562,-3.7505 -1.47535,-2.843998 -3.51939,-10.131748 -3.64385,-13.206829 -0.23104,-3.075069 0.90656,-4.888119 3.64385,-5.79465 1.36865,-0.462116 3.18175,-0.693276 4.88815,-0.693276 3.18177,0 5.24367,0.693276 6.82557,3.768357 1.5997,3.0573 3.6439,10.34505 3.6439,13.18905 0,2.950648 -0.9066,5.012548 -3.6439,5.794648"
     id="path126"
     style="stroke-width:1.1376" />
  <path
     class="Note"
     d="m 1202.0586,64.505515 c -15.6953,0 -21.2766,7.963257 -21.2766,15.357657 0,7.3944 5.5813,15.357657 21.2766,15.357657 15.6954,0 21.1523,-7.963257 21.1523,-15.357657 0,-7.3944 -5.4569,-15.357657 -21.1523,-15.357657 m 5.7947,26.378157 c -1.3686,0.46215 -3.1817,0.693197 -4.8881,0.693197 -3.1818,0 -5.3503,-0.906497 -6.8256,-3.750497 -1.4754,-2.844 -3.5194,-10.13175 -3.6439,-13.206831 -0.231,-3.075069 0.9066,-4.888119 3.6439,-5.79465 1.3686,-0.462116 3.1817,-0.693276 4.8881,-0.693276 3.1818,0 5.2437,0.693276 6.8256,3.768357 1.5997,3.0573 3.6439,10.34505 3.6439,13.18905 0,2.95065 -0.9066,5.01255 -3.6439,5.79465"
     id="path127"
     style="stroke-width:1.1376" />
  <path
     class="Note"
     d="m 1404.8186,50.285515 c -15.6953,0 -21.2766,7.963257 -21.2766,15.357657 0,7.3944 5.5813,15.357657 21.2766,15.357657 15.6954,0 21.1523,-7.963257 21.1523,-15.357657 0,-7.3944 -5.4569,-15.357657 -21.1523,-15.357657 m 5.7947,26.378157 c -1.3686,0.46215 -3.1817,0.693197 -4.8881,0.693197 -3.1818,0 -5.3503,-0.906497 -6.8256,-3.750497 -1.4754,-2.844 -3.5194,-10.13175 -3.6439,-13.206831 -0.231,-3.075069 0.9066,-4.888119 3.6439,-5.79465 1.3686,-0.462116 3.1817,-0.693276 4.8881,-0.693276 3.1818,0 5.2437,0.693276 6.8256,3.768357 1.5997,3.0573 3.6439,10.34505 3.6439,13.18905 0,2.95065 -0.9066,5.01255 -3.6439,5.79465"
     id="path128"
     style="stroke-width:1.1376" />
  <path
     class="Note"
     d="m 1607.5786,36.065515 c -15.6953,0 -21.2766,7.963257 -21.2766,15.357657 0,7.3944 5.5813,15.357657 21.2766,15.357657 15.6954,0 21.1523,-7.963257 21.1523,-15.357657 0,-7.3944 -5.4569,-15.357657 -21.1523,-15.357657 m 5.7947,26.378157 c -1.3686,0.46215 -3.1817,0.693197 -4.8881,0.693197 -3.1818,0 -5.3503,-0.906497 -6.8256,-3.750497 -1.4754,-2.844 -3.5194,-10.13175 -3.6439,-13.206831 -0.231,-3.075069 0.9066,-4.888119 3.6439,-5.79465 1.3686,-0.462116 3.1817,-0.693276 4.8881,-0.693276 3.1818,0 5.2437,0.693276 6.8256,3.768357 1.5997,3.0573 3.6439,10.34505 3.6439,13.18905 0,2.95065 -0.9066,5.01255 -3.6439,5.79465"
     id="path129"
     style="stroke-width:1.1376" />
  <path
     class="Clef"
     d="m 85.266626,167.67167 c 0,8.08763 -3.306093,16.38855 -11.376,19.69476 -2.381793,-13.65126 -5.45684,-31.74621 -6.2568,-36.75882 10.2384,0 17.6328,6.95008 17.6328,17.06406 m -16.157447,21.04566 c -2.2752,0.46209 -4.425946,0.69314 -6.594553,0.69314 -16.26404,0 -30.146366,-11.376 -30.146366,-28.5644 0,-13.86456 9.776273,-26.27145 19.801373,-34.9279 1.9197,-1.7064 3.750553,-3.28835 5.456953,-4.99475 1.013147,6.13235 1.812993,11.48259 2.61284,16.15745 -10.36274,3.07504 -17.40164,13.98895 -17.40164,24.6895 0,7.9632 6.2568,18.87705 15.3576,18.87705 0.90644,0 1.937447,-0.46209 1.937447,-1.47535 0,-1.0309 -1.1376,-1.5997 -2.506247,-2.50625 -4.443807,-2.73735 -6.950053,-5.688 -6.950053,-11.26935 0,-6.93225 5.1192,-12.51366 11.838093,-14.0956 l 6.594553,37.41646 M 59.101826,71.775575 c 1.031007,-4.5504 6.2568,-16.4952 12.17596,-16.4952 1.7064,0 4.425947,5.563547 4.425947,13.42004 0,11.838207 -8.7453,20.70796 -16.601907,28.44 -0.675393,-4.5504 -1.244193,-8.976346 -1.244193,-13.757793 0,-4.212647 0.337753,-8.087653 1.244193,-11.607047 m -23.8896,151.869595 c 0,7.51886 5.794707,17.4195 21.152307,17.4195 5.350246,0 10.0251,-1.36864 14.113293,-3.875 6.150207,-4.31924 7.732153,-11.8381 7.732153,-19.00145 0,-4.42595 -0.675393,-9.54515 -1.812993,-16.03299 -0.337753,-2.2752 -1.031007,-5.688 -1.7064,-10.13181 11.14484,-3.64385 19.445793,-15.25089 19.445793,-26.96468 0,-17.17067 -12.175846,-28.77772 -28.777753,-28.77772 -1.1376,-6.8256 -2.2752,-13.54461 -3.306093,-19.908 12.069253,-12.63805 20.370093,-26.858051 20.370093,-44.935198 0,-10.362853 -3.18164,-18.7704 -5.012493,-22.875998 -2.719547,-5.794935 -6.025754,-9.776535 -8.069907,-9.776535 -0.799847,0 -4.31924,1.368533 -8.069793,5.794935 -7.287807,8.655998 -9.331847,23.213751 -9.331847,32.758898 0,6.150093 0.5688,11.7315 2.506247,24.476148 -0.124454,0.1067 -6.0435,6.13234 -8.425407,8.0699 -10.36274,9.6696 -24.689447,23.4274 -24.689447,46.1972 0,21.25896 18.539354,37.9852 39.709407,37.9852 3.288347,0 6.363393,-0.33775 8.976347,-0.79984 2.168493,10.93154 3.4128,18.89474 3.4128,24.92049 0,11.83821 -6.025754,18.09501 -17.508347,18.09501 -2.737407,0 -5.1192,-0.5688 -5.35036,-0.5688 -0.106593,-0.12446 -0.33764,-0.23116 -0.33764,-0.33776 0,-0.23104 0.231047,-0.3555 0.5688,-0.4622 5.350247,-0.79985 10.682747,-5.35025 10.682747,-12.6202 0,-6.1502 -4.657107,-12.63805 -13.189107,-12.63805 -7.9632,0 -13.0824,6.48785 -13.0824,13.98895"
     id="path198"
     style="stroke-width:1.1376" />
</svg>
