<?xml version="1.0" encoding="UTF-8" standalone="no"?>
<svg
   width="127.88633mm"
   height="15.05076mm"
   viewBox="0 0 1812.5622 213.31787"
   version="1.2"
   id="svg175"
   xmlns="http://www.w3.org/2000/svg"
   xmlns:svg="http://www.w3.org/2000/svg">
  <defs
     id="defs175" />
  <title
     id="title1">major scales (1)</title>
  <desc
     id="desc1">Generated by MuseScore Studio 4.5.2</desc>
  <polyline
     class="StaffLines"
     fill="none"
     stroke="#000000"
     stroke-width="3.13"
     stroke-linejoin="bevel"
     points="952.038,2539.68 2764.6,2539.68"
     id="polyline26"
     transform="translate(-952.03802,-2487.4567)" />
  <polyline
     class="StaffLines"
     fill="none"
     stroke="#000000"
     stroke-width="3.13"
     stroke-linejoin="bevel"
     points="952.038,2568.12 2764.6,2568.12"
     id="polyline27"
     transform="translate(-952.03802,-2487.4567)" />
  <polyline
     class="StaffLines"
     fill="none"
     stroke="#000000"
     stroke-width="3.13"
     stroke-linejoin="bevel"
     points="952.038,2596.56 2764.6,2596.56"
     id="polyline28"
     transform="translate(-952.03802,-2487.4567)" />
  <polyline
     class="StaffLines"
     fill="none"
     stroke="#000000"
     stroke-width="3.13"
     stroke-linejoin="bevel"
     points="952.038,2625 2764.6,2625"
     id="polyline29"
     transform="translate(-952.03802,-2487.4567)" />
  <polyline
     class="StaffLines"
     fill="none"
     stroke="#000000"
     stroke-width="3.13"
     stroke-linejoin="bevel"
     points="952.038,2653.44 2764.6,2653.44"
     id="polyline30"
     transform="translate(-952.03802,-2487.4567)" />
  <polyline
     class="BarLine"
     fill="none"
     stroke="#000000"
     stroke-width="5.12"
     stroke-linejoin="bevel"
     points="2746.4,2538.11 2746.4,2655"
     id="polyline56"
     transform="translate(-952.03802,-2487.4567)" />
  <polyline
     class="BarLine"
     fill="none"
     stroke="#000000"
     stroke-width="5.12"
     stroke-linejoin="bevel"
     points="2762.04,2538.11 2762.04,2655"
     id="polyline57"
     transform="translate(-952.03802,-2487.4567)" />
  <path
     class="Accidental"
     d="m 1374.0645,26.058479 c 0.6933,-0.106707 1.2621,-0.906553 1.2621,-1.599807 v -6.701146 c 0,-0.906554 -0.6933,-1.599694 -1.5998,-1.599694 -0.1066,0 -0.1066,0 -0.2311,0 l -3.7505,0.799847 V 2.7226943e-4 h -3.1818 V 17.633072 l -10.1317,2.0619 V 3.6442326 H 1353.25 V 20.370479 l -4.4438,0.906553 c -0.6754,0.12434 -1.2442,0.90644 -1.2442,1.599694 v 0.231046 6.594576 -0.231069 c 0,0.906519 0.6754,1.59975 1.5997,1.59975 0.1067,0 0.2133,0 0.3378,0 l 3.7505,-0.799881 V 49.04156 l -4.4438,0.906519 c -0.6754,0.106707 -1.2442,0.906553 -1.2442,1.599807 v 6.59444 c 0,0.906553 0.6754,1.58206 1.5997,1.58206 0.1067,0 0.2133,0 0.3378,0 l 3.7505,-0.7821 v 16.939546 h 3.1817 v -17.6328 l 10.1317,-2.044153 v 16.050853 h 3.1818 V 55.529486 l 4.3193,-0.79996 c 0.6933,-0.12434 1.2621,-0.90644 1.2621,-1.599694 v -6.701203 c 0,-0.9243 -0.6933,-1.59975 -1.5998,-1.59975 -0.1066,0 -0.1066,0 -0.2311,0 l -3.7505,0.799881 V 26.858348 l 4.3193,-0.799869 m -17.6328,3.51945 10.1317,-2.044131 V 46.30421 l -10.1317,2.16855 V 29.577929"
     id="path70"
     style="stroke-width:1.1376" />
  <path
     class="Accidental"
     d="m 1170.7445,40.278479 c 0.6933,-0.106707 1.2621,-0.906553 1.2621,-1.599807 v -6.701146 c 0,-0.906554 -0.6933,-1.599694 -1.5998,-1.599694 -0.1066,0 -0.1066,0 -0.2311,0 l -3.7505,0.799847 V 14.220272 h -3.1818 v 17.6328 l -10.1317,2.0619 v -16.05074 h -3.1817 v 16.726247 l -4.4438,0.906553 c -0.6754,0.12434 -1.2442,0.90644 -1.2442,1.599694 v 0.231046 6.594576 -0.231069 c 0,0.906519 0.6754,1.59975 1.5997,1.59975 0.1067,0 0.2133,0 0.3378,0 l 3.7505,-0.799881 V 63.26156 l -4.4438,0.906519 c -0.6754,0.106707 -1.2442,0.906553 -1.2442,1.599807 v 6.59444 c 0,0.906553 0.6754,1.58206 1.5997,1.58206 0.1067,0 0.2133,0 0.3378,0 l 3.7505,-0.7821 v 16.939546 h 3.1817 v -17.6328 l 10.1317,-2.044153 v 16.050853 h 3.1818 V 69.749486 l 4.3193,-0.79996 c 0.6933,-0.12434 1.2621,-0.90644 1.2621,-1.599694 v -6.701203 c 0,-0.9243 -0.6933,-1.59975 -1.5998,-1.59975 -0.1066,0 -0.1066,0 -0.2311,0 l -3.7505,0.799881 V 41.078348 l 4.3193,-0.799869 m -17.6328,3.51945 10.1317,-2.044131 V 60.52421 l -10.1317,2.16855 V 43.797929"
     id="path71"
     style="stroke-width:1.1376" />
  <path
     class="Accidental"
     d="m 560.77453,82.938479 c 0.69326,-0.106707 1.26206,-0.906553 1.26206,-1.599807 v -6.701146 c 0,-0.906554 -0.69326,-1.599694 -1.59981,-1.599694 -0.10659,0 -0.10659,0 -0.23105,0 l -3.75055,0.799847 V 56.880272 h -3.18175 v 17.6328 l -10.13172,2.0619 v -16.05074 h -3.18173 v 16.726247 l -4.44375,0.906553 c -0.67545,0.12434 -1.24425,0.90644 -1.24425,1.599694 v 0.231046 6.594576 -0.231069 c 0,0.906519 0.67545,1.59975 1.59975,1.59975 0.10665,0 0.2133,0 0.33773,0 l 3.75052,-0.799881 v 18.770412 l -4.44375,0.90652 c -0.67545,0.1067 -1.24425,0.90655 -1.24425,1.5998 v 6.59444 c 0,0.90656 0.67545,1.58206 1.59975,1.58206 0.10665,0 0.2133,0 0.33773,0 l 3.75052,-0.7821 v 16.93955 h 3.18173 v -17.6328 l 10.13172,-2.04415 v 16.05085 h 3.18175 v -16.72625 l 4.31935,-0.79996 c 0.69326,-0.12434 1.26206,-0.90644 1.26206,-1.59969 v -6.7012 c 0,-0.9243 -0.69326,-1.59975 -1.59981,-1.59975 -0.10659,0 -0.10659,0 -0.23105,0 l -3.75055,0.79988 V 83.738348 l 4.31935,-0.799869 m -17.63282,3.51945 10.13172,-2.044131 v 18.770412 l -10.13172,2.16855 V 86.457929"
     id="path72"
     style="stroke-width:1.1376" />
  <polyline
     class="LedgerLine"
     fill="none"
     stroke="#000000"
     stroke-width="4.55"
     stroke-linejoin="bevel"
     points="2528.39,2511.24 2589.59,2511.24"
     id="polyline92"
     transform="translate(-952.03802,-2487.4567)" />
  <path
     class="Note"
     d="m 590.40863,79.418972 c -15.6953,0 -21.27665,7.963257 -21.27665,15.357657 0,7.394401 5.58135,15.357651 21.27665,15.357651 15.69535,0 21.1523,-7.96325 21.1523,-15.357651 0,-7.3944 -5.45695,-15.357657 -21.1523,-15.357657 m 5.7947,26.378158 c -1.36864,0.46215 -3.18175,0.69319 -4.88815,0.69319 -3.18175,0 -5.35025,-0.90649 -6.8256,-3.75049 -1.47535,-2.844001 -3.51939,-10.131751 -3.64385,-13.206832 -0.23104,-3.075069 0.90656,-4.888119 3.64385,-5.79465 1.36865,-0.462116 3.18175,-0.693276 4.88815,-0.693276 3.18176,0 5.24366,0.693276 6.8256,3.768357 1.5997,3.0573 3.64385,10.34505 3.64385,13.189051 0,2.95065 -0.90655,5.01255 -3.64385,5.79465"
     id="path93"
     style="stroke-width:1.1376" />
  <path
     class="Note"
     d="m 1607.0186,8.3189723 c -15.6953,0 -21.2766,7.9632567 -21.2766,15.3576567 0,7.3944 5.5813,15.357657 21.2766,15.357657 15.6954,0 21.1523,-7.963257 21.1523,-15.357657 0,-7.3944 -5.4569,-15.3576567 -21.1523,-15.3576567 m 5.7947,26.3781567 c -1.3686,0.46215 -3.1817,0.693197 -4.8881,0.693197 -3.1818,0 -5.3503,-0.906497 -6.8256,-3.750497 -1.4754,-2.844 -3.5194,-10.13175 -3.6439,-13.206831 -0.231,-3.075069 0.9066,-4.888119 3.6439,-5.79465 1.3686,-0.462116 3.1817,-0.693276 4.8881,-0.693276 3.1818,0 5.2437,0.693276 6.8256,3.768357 1.5997,3.0573 3.6439,10.34505 3.6439,13.18905 0,2.95065 -0.9066,5.01255 -3.6439,5.79465"
     id="path96"
     style="stroke-width:1.1376" />
  <path
     class="Note"
     d="m 1403.6986,22.538972 c -15.6953,0 -21.2766,7.963257 -21.2766,15.357657 0,7.3944 5.5813,15.357657 21.2766,15.357657 15.6954,0 21.1523,-7.963257 21.1523,-15.357657 0,-7.3944 -5.4569,-15.357657 -21.1523,-15.357657 m 5.7947,26.378157 c -1.3686,0.46215 -3.1817,0.693197 -4.8881,0.693197 -3.1818,0 -5.3503,-0.906497 -6.8256,-3.750497 -1.4754,-2.844 -3.5194,-10.13175 -3.6439,-13.206831 -0.231,-3.075069 0.9066,-4.888119 3.6439,-5.79465 1.3686,-0.462116 3.1817,-0.693276 4.8881,-0.693276 3.1818,0 5.2437,0.693276 6.8256,3.768357 1.5997,3.0573 3.6439,10.34505 3.6439,13.18905 0,2.95065 -0.9066,5.01255 -3.6439,5.79465"
     id="path97"
     style="stroke-width:1.1376" />
  <path
     class="Note"
     d="m 1200.3686,36.758972 c -15.6953,0 -21.2766,7.963257 -21.2766,15.357657 0,7.3944 5.5813,15.357657 21.2766,15.357657 15.6954,0 21.1523,-7.963257 21.1523,-15.357657 0,-7.3944 -5.4569,-15.357657 -21.1523,-15.357657 m 5.7947,26.378157 c -1.3686,0.46215 -3.1817,0.693197 -4.8881,0.693197 -3.1818,0 -5.3503,-0.906497 -6.8256,-3.750497 -1.4754,-2.844 -3.5194,-10.13175 -3.6439,-13.206831 -0.231,-3.075069 0.9066,-4.888119 3.6439,-5.79465 1.3686,-0.462116 3.1817,-0.693276 4.8881,-0.693276 3.1818,0 5.2437,0.693276 6.8256,3.768357 1.5997,3.0573 3.6439,10.34505 3.6439,13.18905 0,2.95065 -0.9066,5.01255 -3.6439,5.79465"
     id="path102"
     style="stroke-width:1.1376" />
  <path
     class="Note"
     d="m 183.75863,107.85897 c -15.6953,0 -21.27665,7.96326 -21.27665,15.35766 0,7.3944 5.58135,15.35765 21.27665,15.35765 15.69535,0 21.1523,-7.96325 21.1523,-15.35765 0,-7.3944 -5.45695,-15.35766 -21.1523,-15.35766 m 5.7947,26.37816 c -1.36864,0.46215 -3.18175,0.69319 -4.88815,0.69319 -3.18175,0 -5.35025,-0.90649 -6.8256,-3.75049 -1.47535,-2.844 -3.51939,-10.13175 -3.64385,-13.20683 -0.23104,-3.07507 0.90656,-4.88812 3.64385,-5.79465 1.36865,-0.46212 3.18175,-0.69328 4.88815,-0.69328 3.18176,0 5.24366,0.69328 6.8256,3.76836 1.5997,3.0573 3.64385,10.34505 3.64385,13.18905 0,2.95065 -0.90655,5.01255 -3.64385,5.79465"
     id="path108"
     style="stroke-width:1.1376" />
  <path
     class="Note"
     d="m 997.04863,50.978972 c -15.6953,0 -21.27665,7.963257 -21.27665,15.357657 0,7.3944 5.58135,15.357657 21.27665,15.357657 15.69537,0 21.15227,-7.963257 21.15227,-15.357657 0,-7.3944 -5.4569,-15.357657 -21.15227,-15.357657 m 5.79467,26.378157 c -1.3686,0.46215 -3.18172,0.693197 -4.88812,0.693197 -3.18175,0 -5.35025,-0.906497 -6.8256,-3.750497 -1.47535,-2.844 -3.51939,-10.13175 -3.64385,-13.206831 -0.23104,-3.075069 0.90656,-4.888119 3.64385,-5.79465 1.36865,-0.462116 3.18175,-0.693276 4.88815,-0.693276 3.18176,0 5.24367,0.693276 6.82557,3.768357 1.5997,3.0573 3.6439,10.34505 3.6439,13.18905 0,2.95065 -0.9066,5.01255 -3.6439,5.79465"
     id="path125"
     style="stroke-width:1.1376" />
  <path
     class="Note"
     d="m 793.72863,65.198972 c -15.6953,0 -21.27665,7.963257 -21.27665,15.357657 0,7.3944 5.58135,15.357657 21.27665,15.357657 15.69535,0 21.1523,-7.963257 21.1523,-15.357657 0,-7.3944 -5.45695,-15.357657 -21.1523,-15.357657 m 5.7947,26.378157 c -1.36864,0.46215 -3.18175,0.693197 -4.88815,0.693197 -3.18175,0 -5.35025,-0.906497 -6.8256,-3.750497 -1.47535,-2.844 -3.51939,-10.13175 -3.64385,-13.206831 -0.23104,-3.075069 0.90656,-4.888119 3.64385,-5.79465 1.36865,-0.462116 3.18175,-0.693276 4.88815,-0.693276 3.18176,0 5.24366,0.693276 6.8256,3.768357 1.5997,3.0573 3.64385,10.34505 3.64385,13.18905 0,2.95065 -0.90655,5.01255 -3.64385,5.79465"
     id="path127"
     style="stroke-width:1.1376" />
  <path
     class="Note"
     d="m 387.07863,93.638972 c -15.6953,0 -21.27665,7.963258 -21.27665,15.357658 0,7.3944 5.58135,15.35765 21.27665,15.35765 15.69535,0 21.1523,-7.96325 21.1523,-15.35765 0,-7.3944 -5.45695,-15.357658 -21.1523,-15.357658 m 5.7947,26.378158 c -1.36864,0.46215 -3.18175,0.69319 -4.88815,0.69319 -3.18175,0 -5.35025,-0.90649 -6.8256,-3.75049 -1.47535,-2.844 -3.51939,-10.13175 -3.64385,-13.20683 -0.23104,-3.07507 0.90656,-4.888121 3.64385,-5.794652 1.36865,-0.462116 3.18175,-0.693276 4.88815,-0.693276 3.18176,0 5.24366,0.693276 6.8256,3.768358 1.5997,3.0573 3.64385,10.34505 3.64385,13.18905 0,2.95065 -0.90655,5.01255 -3.64385,5.79465"
     id="path140"
     style="stroke-width:1.1376" />
  <path
     class="Clef"
     d="m 85.266626,139.92513 c 0,8.08763 -3.306093,16.38855 -11.376,19.69475 -2.381793,-13.65125 -5.45684,-31.7462 -6.2568,-36.75881 10.2384,0 17.6328,6.95008 17.6328,17.06406 m -16.157447,21.04565 c -2.2752,0.4621 -4.425946,0.69314 -6.594553,0.69314 -16.26404,0 -30.146366,-11.376 -30.146366,-28.56439 0,-13.86456 9.776273,-26.27145 19.801373,-34.927904 1.9197,-1.7064 3.750553,-3.288347 5.456953,-4.994747 1.013147,6.132347 1.812993,11.482591 2.61284,16.157441 -10.36274,3.07505 -17.40164,13.98896 -17.40164,24.68951 0,7.9632 6.2568,18.87705 15.3576,18.87705 0.90644,0 1.937447,-0.4621 1.937447,-1.47536 0,-1.03089 -1.1376,-1.59969 -2.506247,-2.50624 -4.443807,-2.73735 -6.950053,-5.688 -6.950053,-11.26935 0,-6.93225 5.1192,-12.51366 11.838093,-14.09561 l 6.594553,37.41646 M 59.101826,44.029032 c 1.031007,-4.5504 6.2568,-16.4952 12.17596,-16.4952 1.7064,0 4.425947,5.563547 4.425947,13.42004 0,11.838207 -8.7453,20.70796 -16.601907,28.44 -0.675393,-4.5504 -1.244193,-8.976346 -1.244193,-13.757793 0,-4.212647 0.337753,-8.087653 1.244193,-11.607047 m -23.8896,151.869598 c 0,7.51885 5.794707,17.4195 21.152307,17.4195 5.350246,0 10.0251,-1.36865 14.113293,-3.87501 6.150207,-4.31924 7.732153,-11.83809 7.732153,-19.00144 0,-4.42595 -0.675393,-9.54515 -1.812993,-16.033 -0.337753,-2.2752 -1.031007,-5.688 -1.7064,-10.1318 11.14484,-3.64385 19.445793,-15.2509 19.445793,-26.96468 0,-17.17068 -12.175846,-28.77772 -28.777753,-28.77772 -1.1376,-6.8256 -2.2752,-13.544608 -3.306093,-19.908001 12.069253,-12.638053 20.370093,-26.858053 20.370093,-44.9352 0,-10.362853 -3.18164,-18.7704 -5.012493,-22.875998 -2.719547,-5.794935 -6.025754,-9.776535 -8.069907,-9.776535 -0.799847,0 -4.31924,1.368533 -8.069793,5.794935 -7.287807,8.655998 -9.331847,23.213751 -9.331847,32.758898 0,6.150093 0.5688,11.7315 2.506247,24.476147 -0.124454,0.106706 -6.0435,6.132346 -8.425407,8.069906 -10.36274,9.6696 -24.689447,23.427388 -24.689447,46.197198 0,21.25895 18.539354,37.9852 39.709407,37.9852 3.288347,0 6.363393,-0.33775 8.976347,-0.79985 2.168493,10.93154 3.4128,18.89474 3.4128,24.9205 0,11.8382 -6.025754,18.095 -17.508347,18.095 -2.737407,0 -5.1192,-0.5688 -5.35036,-0.5688 -0.106593,-0.12445 -0.33764,-0.23116 -0.33764,-0.33775 0,-0.23105 0.231047,-0.3555 0.5688,-0.46221 5.350247,-0.79984 10.682747,-5.35024 10.682747,-12.62019 0,-6.15021 -4.657107,-12.63805 -13.189107,-12.63805 -7.9632,0 -13.0824,6.48784 -13.0824,13.98895"
     id="path157"
     style="stroke-width:1.1376" />
</svg>
