<?xml version="1.0" encoding="UTF-8" standalone="no"?>
<svg
   width="127.88633mm"
   height="14.350933mm"
   viewBox="0 0 1812.5622 203.39905"
   version="1.2"
   id="svg204"
   sodipodi:docname="cesmaj1oct.svg"
   inkscape:version="1.4 (86a8ad7, 2024-10-11)"
   xmlns:inkscape="http://www.inkscape.org/namespaces/inkscape"
   xmlns:sodipodi="http://sodipodi.sourceforge.net/DTD/sodipodi-0.dtd"
   xmlns="http://www.w3.org/2000/svg"
   xmlns:svg="http://www.w3.org/2000/svg">
  <sodipodi:namedview
     id="namedview1"
     pagecolor="#505050"
     bordercolor="#eeeeee"
     borderopacity="1"
     inkscape:showpageshadow="0"
     inkscape:pageopacity="0"
     inkscape:pagecheckerboard="0"
     inkscape:deskcolor="#505050"
     inkscape:document-units="mm"
     inkscape:zoom="1.3305343"
     inkscape:cx="351.36261"
     inkscape:cy="-75.533567"
     inkscape:window-width="1920"
     inkscape:window-height="1111"
     inkscape:window-x="-9"
     inkscape:window-y="-9"
     inkscape:window-maximized="1"
     inkscape:current-layer="svg204" />
  <defs
     id="defs204" />
  <title
     id="title1">major scales (2)</title>
  <desc
     id="desc1">Generated by MuseScore Studio 4.5.2</desc>
  <polyline
     class="StaffLines"
     fill="none"
     stroke="#000000"
     stroke-width="3.13"
     stroke-linejoin="bevel"
     points="952.038,2956.01 2764.6,2956.01"
     id="polyline36"
     transform="translate(-952.03802,-2914.8255)" />
  <polyline
     class="StaffLines"
     fill="none"
     stroke="#000000"
     stroke-width="3.13"
     stroke-linejoin="bevel"
     points="952.038,2984.45 2764.6,2984.45"
     id="polyline37"
     transform="translate(-952.03802,-2914.8255)" />
  <polyline
     class="StaffLines"
     fill="none"
     stroke="#000000"
     stroke-width="3.13"
     stroke-linejoin="bevel"
     points="952.038,3012.89 2764.6,3012.89"
     id="polyline38"
     transform="translate(-952.03802,-2914.8255)" />
  <polyline
     class="StaffLines"
     fill="none"
     stroke="#000000"
     stroke-width="3.13"
     stroke-linejoin="bevel"
     points="952.038,3041.33 2764.6,3041.33"
     id="polyline39"
     transform="translate(-952.03802,-2914.8255)" />
  <polyline
     class="StaffLines"
     fill="none"
     stroke="#000000"
     stroke-width="3.13"
     stroke-linejoin="bevel"
     points="952.038,3069.77 2764.6,3069.77"
     id="polyline40"
     transform="translate(-952.03802,-2914.8255)" />
  <polyline
     class="BarLine"
     fill="none"
     stroke="#000000"
     stroke-width="5.12"
     stroke-linejoin="bevel"
     points="2746.4,2954.45 2746.4,3071.33"
     id="polyline76"
     transform="translate(-952.03802,-2914.8255)" />
  <polyline
     class="BarLine"
     fill="none"
     stroke="#000000"
     stroke-width="5.12"
     stroke-linejoin="bevel"
     points="2762.04,2954.45 2762.04,3071.33"
     id="polyline77"
     transform="translate(-952.03802,-2914.8255)" />
  <path
     class="Accidental"
     d="m 159.64069,174.3904 c -0.67551,-4.426 -3.4128,-8.63865 -9.20751,-8.63865 -5.688,0 -8.99415,3.51939 -9.56295,4.21265 l 0.46215,-36.52766 c 0,-0.90643 -0.67545,-1.58194 -1.59975,-1.58194 h -1.3509 c -0.9243,0 -1.59975,0.67551 -1.59975,1.58194 l 0.5688,68.38046 c 0,0.90655 0.67545,1.58206 1.59975,1.58206 0.2133,0 0.67545,-0.10671 0.90653,-0.2133 0.44437,-0.23116 7.83877,-3.87501 13.98892,-10.80726 4.31935,-4.9059 6.02575,-10.46948 6.02575,-15.1443 0,-1.01318 -0.1067,-1.9197 -0.23104,-2.844 m -7.83886,4.44375 c 0,1.7064 -0.4621,6.93225 -3.3061,11.26935 -1.9375,2.95065 -5.79467,6.0257 -7.96322,7.7321 l 0.33772,-22.18318 c 0.23108,-1.03095 1.93748,-4.31938 6.48788,-4.31938 4.10608,0 4.44372,3.85723 4.44372,6.25686 0,0.5688 0,0.90652 0,1.24425"
     id="path104"
     style="stroke-width:1.1376" />
  <path
     class="Accidental"
     d="m 368.87069,160.1704 c -0.67551,-4.426 -3.4128,-8.63865 -9.20751,-8.63865 -5.688,0 -8.99415,3.51939 -9.56295,4.21265 l 0.46215,-36.52766 c 0,-0.90643 -0.67545,-1.58194 -1.59975,-1.58194 h -1.3509 c -0.9243,0 -1.59975,0.67551 -1.59975,1.58194 l 0.5688,68.38046 c 0,0.90655 0.67545,1.58206 1.59975,1.58206 0.2133,0 0.67545,-0.10671 0.90653,-0.2133 0.44437,-0.23116 7.83877,-3.87501 13.98892,-10.80726 4.31935,-4.9059 6.02575,-10.46948 6.02575,-15.1443 0,-1.01318 -0.1067,-1.9197 -0.23104,-2.844 m -7.83886,4.44375 c 0,1.7064 -0.4621,6.93225 -3.3061,11.26935 -1.9375,2.95065 -5.79467,6.0257 -7.96322,7.7321 l 0.33772,-22.18318 c 0.23108,-1.03095 1.93748,-4.31938 6.48788,-4.31938 4.10608,0 4.44372,3.85723 4.44372,6.25686 0,0.5688 0,0.90652 0,1.24425"
     id="path105"
     style="stroke-width:1.1376" />
  <path
     class="Accidental"
     d="m 570.70069,145.9504 c -0.67551,-4.426 -3.4128,-8.63865 -9.20751,-8.63865 -5.688,0 -8.99415,3.51939 -9.56295,4.21265 l 0.46215,-36.52766 c 0,-0.90643 -0.67545,-1.58194 -1.59975,-1.58194 h -1.3509 c -0.9243,0 -1.59975,0.67551 -1.59975,1.58194 l 0.5688,68.38046 c 0,0.90655 0.67545,1.58206 1.59975,1.58206 0.2133,0 0.67545,-0.10671 0.90653,-0.2133 0.44437,-0.23116 7.83877,-3.87501 13.98892,-10.80726 4.31935,-4.9059 6.02575,-10.46948 6.02575,-15.1443 0,-1.01318 -0.1067,-1.9197 -0.23104,-2.844 m -7.83886,4.44375 c 0,1.7064 -0.4621,6.93225 -3.3061,11.26935 -1.9375,2.95065 -5.79467,6.0257 -7.96322,7.7321 l 0.33772,-22.18318 c 0.23108,-1.03095 1.93748,-4.31938 6.48788,-4.31938 4.10608,0 4.44372,3.85723 4.44372,6.25686 0,0.5688 0,0.90652 0,1.24425"
     id="path106"
     style="stroke-width:1.1376" />
  <path
     class="Accidental"
     d="m 974.38069,117.5104 c -0.67551,-4.426 -3.4128,-8.63865 -9.20751,-8.63865 -5.688,0 -8.99415,3.51939 -9.56295,4.21265 l 0.46215,-36.52766 c 0,-0.90644 -0.67545,-1.581947 -1.59975,-1.581947 h -1.3509 c -0.9243,0 -1.59975,0.675507 -1.59975,1.581947 l 0.5688,68.38046 c 0,0.90655 0.67545,1.58206 1.59975,1.58206 0.2133,0 0.67545,-0.10671 0.90653,-0.2133 0.44437,-0.23116 7.83877,-3.87501 13.98892,-10.80726 4.31935,-4.9059 6.02575,-10.46948 6.02575,-15.1443 0,-1.01318 -0.1067,-1.9197 -0.23104,-2.844 m -7.83886,4.44375 c 0,1.7064 -0.4621,6.93225 -3.3061,11.26935 -1.9375,2.95065 -5.79467,6.0257 -7.96322,7.7321 l 0.33772,-22.18318 c 0.23108,-1.03095 1.93748,-4.31938 6.48788,-4.31938 4.10608,0 4.44372,3.85723 4.44372,6.25686 0,0.5688 0,0.90652 0,1.24425"
     id="path108"
     style="stroke-width:1.1376" />
  <path
     class="Accidental"
     d="m 1176.2107,103.2904 c -0.6755,-4.426007 -3.4128,-8.638653 -9.2075,-8.638653 -5.688,0 -8.9942,3.519393 -9.563,4.212646 l 0.4622,-36.527653 c 0,-0.90644 -0.6755,-1.581947 -1.5998,-1.581947 h -1.3509 c -0.9243,0 -1.5997,0.675507 -1.5997,1.581947 l 0.5688,68.38046 c 0,0.90655 0.6754,1.58206 1.5997,1.58206 0.2133,0 0.6755,-0.10671 0.9066,-0.2133 0.4443,-0.23116 7.8387,-3.87501 13.9889,-10.80726 4.3193,-4.9059 6.0257,-10.46948 6.0257,-15.1443 0,-1.01318 -0.1067,-1.9197 -0.231,-2.844 m -7.8389,4.44375 c 0,1.7064 -0.4621,6.93225 -3.3061,11.26935 -1.9375,2.95065 -5.7946,6.0257 -7.9632,7.7321 l 0.3377,-22.18318 c 0.2311,-1.03095 1.9375,-4.31938 6.4879,-4.31938 4.1061,0 4.4437,3.85723 4.4437,6.25686 0,0.5688 0,0.90652 0,1.24425"
     id="path109"
     style="stroke-width:1.1376" />
  <path
     class="Accidental"
     d="m 1579.8907,74.850397 c -0.6755,-4.426004 -3.4128,-8.63865 -9.2075,-8.63865 -5.688,0 -8.9942,3.519393 -9.563,4.212646 l 0.4622,-36.527653 c 0,-0.90644 -0.6755,-1.581947 -1.5998,-1.581947 h -1.3509 c -0.9243,0 -1.5997,0.675507 -1.5997,1.581947 l 0.5688,68.38046 c 0,0.90655 0.6754,1.58206 1.5997,1.58206 0.2133,0 0.6755,-0.10671 0.9066,-0.2133 0.4443,-0.23116 7.8387,-3.875013 13.9889,-10.807263 4.3193,-4.9059 6.0257,-10.469481 6.0257,-15.1443 0,-1.013181 -0.1067,-1.9197 -0.231,-2.844 m -7.8389,4.44375 c 0,1.7064 -0.4621,6.93225 -3.3061,11.26935 -1.9375,2.95065 -5.7946,6.025696 -7.9632,7.732096 l 0.3377,-22.183177 c 0.2311,-1.03095 1.9375,-4.319376 6.4879,-4.319376 4.1061,0 4.4437,3.857226 4.4437,6.256857 0,0.5688 0,0.906519 0,1.24425"
     id="path111"
     style="stroke-width:1.1376" />
  <path
     class="Accidental"
     d="m 1378.0507,89.070397 c -0.6755,-4.426004 -3.4128,-8.63865 -9.2075,-8.63865 -5.688,0 -8.9942,3.519393 -9.563,4.212646 l 0.4622,-36.527653 c 0,-0.90644 -0.6755,-1.581947 -1.5998,-1.581947 h -1.3509 c -0.9243,0 -1.5997,0.675507 -1.5997,1.581947 l 0.5688,68.38046 c 0,0.90655 0.6754,1.58206 1.5997,1.58206 0.2133,0 0.6755,-0.10671 0.9066,-0.2133 0.4443,-0.23116 7.8387,-3.87501 13.9889,-10.80726 4.3193,-4.9059 6.0257,-10.469484 6.0257,-15.144303 0,-1.013181 -0.1067,-1.9197 -0.231,-2.844 m -7.8389,4.44375 c 0,1.7064 -0.4621,6.932253 -3.3061,11.269353 -1.9375,2.95065 -5.7946,6.0257 -7.9632,7.7321 l 0.3377,-22.183184 c 0.2311,-1.03095 1.9375,-4.319376 6.4879,-4.319376 4.1061,0 4.4437,3.857226 4.4437,6.256857 0,0.5688 0,0.906519 0,1.24425"
     id="path118"
     style="stroke-width:1.1376" />
  <polyline
     class="LedgerLine"
     fill="none"
     stroke="#000000"
     stroke-width="4.55"
     stroke-linejoin="bevel"
     points="1117.03,3098.21 1178.23,3098.21"
     id="polyline120"
     transform="translate(-952.03802,-2914.8255)" />
  <path
     class="Note"
     d="m 195.64863,167.92024 c -15.6953,0 -21.27665,7.96326 -21.27665,15.35766 0,7.3944 5.58135,15.35766 21.27665,15.35766 15.69535,0 21.1523,-7.96326 21.1523,-15.35766 0,-7.3944 -5.45695,-15.35766 -21.1523,-15.35766 m 5.7947,26.37816 c -1.36864,0.46215 -3.18175,0.6932 -4.88815,0.6932 -3.18175,0 -5.35025,-0.9065 -6.8256,-3.7505 -1.47535,-2.844 -3.51939,-10.13175 -3.64385,-13.20683 -0.23104,-3.07507 0.90656,-4.88812 3.64385,-5.79465 1.36865,-0.46211 3.18175,-0.69328 4.88815,-0.69328 3.18176,0 5.24366,0.69328 6.8256,3.76836 1.5997,3.0573 3.64385,10.34505 3.64385,13.18905 0,2.95065 -0.90655,5.01255 -3.64385,5.79465"
     id="path160"
     style="stroke-width:1.1376" />
  <path
     class="Note"
     d="m 397.48863,153.70024 c -15.6953,0 -21.27665,7.96326 -21.27665,15.35766 0,7.3944 5.58135,15.35766 21.27665,15.35766 15.69535,0 21.1523,-7.96326 21.1523,-15.35766 0,-7.3944 -5.45695,-15.35766 -21.1523,-15.35766 m 5.7947,26.37816 c -1.36864,0.46215 -3.18175,0.6932 -4.88815,0.6932 -3.18175,0 -5.35025,-0.9065 -6.8256,-3.7505 -1.47535,-2.844 -3.51939,-10.13175 -3.64385,-13.20683 -0.23104,-3.07507 0.90656,-4.88812 3.64385,-5.79465 1.36865,-0.46211 3.18175,-0.69328 4.88815,-0.69328 3.18176,0 5.24366,0.69328 6.8256,3.76836 1.5997,3.0573 3.64385,10.34505 3.64385,13.18905 0,2.95065 -0.90655,5.01255 -3.64385,5.79465"
     id="path162"
     style="stroke-width:1.1376" />
  <path
     class="Note"
     d="m 599.31863,139.48024 c -15.6953,0 -21.27665,7.96326 -21.27665,15.35766 0,7.3944 5.58135,15.35766 21.27665,15.35766 15.69535,0 21.1523,-7.96326 21.1523,-15.35766 0,-7.3944 -5.45695,-15.35766 -21.1523,-15.35766 m 5.7947,26.37816 c -1.36864,0.46215 -3.18175,0.6932 -4.88815,0.6932 -3.18175,0 -5.35025,-0.9065 -6.8256,-3.7505 -1.47535,-2.844 -3.51939,-10.13175 -3.64385,-13.20683 -0.23104,-3.07507 0.90656,-4.88812 3.64385,-5.79465 1.36865,-0.46211 3.18175,-0.69328 4.88815,-0.69328 3.18176,0 5.24366,0.69328 6.8256,3.76836 1.5997,3.0573 3.64385,10.34505 3.64385,13.18905 0,2.95065 -0.90655,5.01255 -3.64385,5.79465"
     id="path164"
     style="stroke-width:1.1376" />
  <path
     class="Note"
     d="m 1002.9986,111.04024 c -15.69527,0 -21.27662,7.96326 -21.27662,15.35766 0,7.3944 5.58135,15.35766 21.27662,15.35766 15.6954,0 21.1523,-7.96326 21.1523,-15.35766 0,-7.3944 -5.4569,-15.35766 -21.1523,-15.35766 m 5.7947,26.37816 c -1.3686,0.46215 -3.1817,0.6932 -4.8881,0.6932 -3.1818,0 -5.35027,-0.9065 -6.82562,-3.7505 -1.47535,-2.844 -3.51939,-10.13175 -3.64385,-13.20683 -0.23104,-3.07507 0.90656,-4.88812 3.64385,-5.79465 1.36865,-0.46211 3.18172,-0.69328 4.88812,-0.69328 3.1818,0 5.2437,0.69328 6.8256,3.76836 1.5997,3.0573 3.6439,10.34505 3.6439,13.18905 0,2.95065 -0.9066,5.01255 -3.6439,5.79465"
     id="path168"
     style="stroke-width:1.1376" />
  <path
     class="Note"
     d="m 1204.8286,96.82024 c -15.6953,0 -21.2766,7.96326 -21.2766,15.35766 0,7.3944 5.5813,15.35766 21.2766,15.35766 15.6954,0 21.1523,-7.96326 21.1523,-15.35766 0,-7.3944 -5.4569,-15.35766 -21.1523,-15.35766 m 5.7947,26.37816 c -1.3686,0.46215 -3.1817,0.6932 -4.8881,0.6932 -3.1818,0 -5.3503,-0.9065 -6.8256,-3.7505 -1.4754,-2.844 -3.5194,-10.13175 -3.6439,-13.20683 -0.231,-3.07507 0.9066,-4.88812 3.6439,-5.79465 1.3686,-0.46211 3.1817,-0.69328 4.8881,-0.69328 3.1818,0 5.2437,0.69328 6.8256,3.76836 1.5997,3.0573 3.6439,10.34505 3.6439,13.18905 0,2.95065 -0.9066,5.01255 -3.6439,5.79465"
     id="path170"
     style="stroke-width:1.1376" />
  <path
     class="Note"
     d="m 1406.6686,82.60024 c -15.6953,0 -21.2766,7.963257 -21.2766,15.357657 0,7.394403 5.5813,15.357663 21.2766,15.357663 15.6954,0 21.1523,-7.96326 21.1523,-15.357663 0,-7.3944 -5.4569,-15.357657 -21.1523,-15.357657 m 5.7947,26.37816 c -1.3686,0.46215 -3.1817,0.6932 -4.8881,0.6932 -3.1818,0 -5.3503,-0.9065 -6.8256,-3.7505 -1.4754,-2.844 -3.5194,-10.131753 -3.6439,-13.206834 -0.231,-3.075069 0.9066,-4.888119 3.6439,-5.79465 1.3686,-0.462116 3.1817,-0.693276 4.8881,-0.693276 3.1818,0 5.2437,0.693276 6.8256,3.768357 1.5997,3.0573 3.6439,10.345053 3.6439,13.189053 0,2.95065 -0.9066,5.01255 -3.6439,5.79465"
     id="path172"
     style="stroke-width:1.1376" />
  <path
     class="Note"
     d="m 1608.5086,68.38024 c -15.6953,0 -21.2766,7.963257 -21.2766,15.357657 0,7.3944 5.5813,15.357657 21.2766,15.357657 15.6954,0 21.1523,-7.963257 21.1523,-15.357657 0,-7.3944 -5.4569,-15.357657 -21.1523,-15.357657 m 5.7947,26.378157 c -1.3686,0.46215 -3.1817,0.693196 -4.8881,0.693196 -3.1818,0 -5.3503,-0.906496 -6.8256,-3.750496 -1.4754,-2.844 -3.5194,-10.13175 -3.6439,-13.206831 -0.231,-3.075069 0.9066,-4.888119 3.6439,-5.79465 1.3686,-0.462116 3.1817,-0.693276 4.8881,-0.693276 3.1818,0 5.2437,0.693276 6.8256,3.768357 1.5997,3.0573 3.6439,10.34505 3.6439,13.18905 0,2.95065 -0.9066,5.01255 -3.6439,5.79465"
     id="path174"
     style="stroke-width:1.1376" />
  <path
     class="Clef"
     d="m 85.266626,128.8864 c 0,8.08763 -3.306093,16.38855 -11.376,19.69476 -2.381793,-13.65126 -5.45684,-31.74621 -6.2568,-36.75882 10.2384,0 17.6328,6.95008 17.6328,17.06406 m -16.157447,21.04566 c -2.2752,0.46209 -4.425946,0.69314 -6.594553,0.69314 -16.26404,0 -30.146366,-11.376 -30.146366,-28.5644 0,-13.86456 9.776273,-26.271453 19.801373,-34.927907 1.9197,-1.7064 3.750553,-3.288346 5.456953,-4.994746 1.013147,6.132346 1.812993,11.482593 2.61284,16.157446 -10.36274,3.075047 -17.40164,13.988957 -17.40164,24.689507 0,7.9632 6.2568,18.87705 15.3576,18.87705 0.90644,0 1.937447,-0.46209 1.937447,-1.47535 0,-1.03089 -1.1376,-1.59969 -2.506247,-2.50625 -4.443807,-2.73735 -6.950053,-5.688 -6.950053,-11.26935 0,-6.93225 5.1192,-12.51366 11.838093,-14.0956 l 6.594553,37.41646 M 59.101826,32.9903 c 1.031007,-4.5504 6.2568,-16.4952 12.17596,-16.4952 1.7064,0 4.425947,5.563547 4.425947,13.42004 0,11.838207 -8.7453,20.70796 -16.601907,28.44 -0.675393,-4.5504 -1.244193,-8.976347 -1.244193,-13.757793 0,-4.212647 0.337753,-8.087654 1.244193,-11.607047 m -23.8896,151.86961 c 0,7.51885 5.794707,17.4195 21.152307,17.4195 5.350246,0 10.0251,-1.36865 14.113293,-3.87501 6.150207,-4.31924 7.732153,-11.83809 7.732153,-19.00145 0,-4.42594 -0.675393,-9.54514 -1.812993,-16.03299 -0.337753,-2.2752 -1.031007,-5.688 -1.7064,-10.13181 11.14484,-3.64384 19.445793,-15.25089 19.445793,-26.96467 0,-17.17068 -12.175846,-28.777733 -28.777753,-28.777733 -1.1376,-6.8256 -2.2752,-13.544607 -3.306093,-19.908 12.069253,-12.638054 20.370093,-26.858054 20.370093,-44.9352 0,-10.362854 -3.18164,-18.7704 -5.012493,-22.8759981 C 74.690586,3.9816145 71.384379,1.4480832e-5 69.340226,1.4480832e-5 68.540379,1.4480832e-5 65.020986,1.3685473 61.270433,5.7949489 53.982626,14.450947 51.938586,29.0087 51.938586,38.553847 c 0,6.150093 0.5688,11.7315 2.506247,24.476146 -0.124454,0.106707 -6.0435,6.132347 -8.425407,8.069907 -10.36274,9.6696 -24.689447,23.427393 -24.689447,46.1972 0,21.25896 18.539354,37.98521 39.709407,37.98521 3.288347,0 6.363393,-0.33776 8.976347,-0.79985 2.168493,10.93154 3.4128,18.89474 3.4128,24.92049 0,11.83821 -6.025754,18.09501 -17.508347,18.09501 -2.737407,0 -5.1192,-0.5688 -5.35036,-0.5688 -0.106593,-0.12445 -0.33764,-0.23116 -0.33764,-0.33775 0,-0.23105 0.231047,-0.3555 0.5688,-0.46221 5.350247,-0.79985 10.682747,-5.35025 10.682747,-12.62019 0,-6.15021 -4.657107,-12.63806 -13.189107,-12.63806 -7.9632,0 -13.0824,6.48785 -13.0824,13.98896"
     id="path191"
     style="stroke-width:1.1376" />
  <path
     class="Accidental"
     d="m 772.73343,131.75655 c -0.67551,-4.426 -3.4128,-8.63865 -9.20751,-8.63865 -5.688,0 -8.99415,3.51939 -9.56295,4.21265 l 0.46215,-36.527704 c 0,-0.90643 -0.67545,-1.58194 -1.59975,-1.58194 h -1.3509 c -0.9243,0 -1.59975,0.67551 -1.59975,1.58194 l 0.5688,68.380504 c 0,0.90655 0.67545,1.58206 1.59975,1.58206 0.2133,0 0.67545,-0.10671 0.90653,-0.2133 0.44437,-0.23116 7.83877,-3.87501 13.98892,-10.80726 4.31935,-4.9059 6.02575,-10.46948 6.02575,-15.1443 0,-1.01318 -0.1067,-1.9197 -0.23104,-2.844 m -7.83886,4.44375 c 0,1.7064 -0.4621,6.93225 -3.3061,11.26935 -1.9375,2.95065 -5.79467,6.0257 -7.96322,7.7321 l 0.33772,-22.18318 c 0.23108,-1.03095 1.93748,-4.31938 6.48788,-4.31938 4.10608,0 4.44372,3.85723 4.44372,6.25686 0,0.5688 0,0.90652 0,1.24425"
     id="path106-2"
     style="stroke-width:1.1376" />
  <path
     class="Note"
     d="m 801.35137,125.28639 c -15.6953,0 -21.27665,7.96326 -21.27665,15.35766 0,7.3944 5.58135,15.35766 21.27665,15.35766 15.69535,0 21.1523,-7.96326 21.1523,-15.35766 0,-7.3944 -5.45695,-15.35766 -21.1523,-15.35766 m 5.7947,26.37816 c -1.36864,0.46215 -3.18175,0.6932 -4.88815,0.6932 -3.18175,0 -5.35025,-0.9065 -6.8256,-3.7505 -1.47535,-2.844 -3.51939,-10.13175 -3.64385,-13.20683 -0.23104,-3.07507 0.90656,-4.88812 3.64385,-5.79465 1.36865,-0.46211 3.18175,-0.69328 4.88815,-0.69328 3.18176,0 5.24366,0.69328 6.8256,3.76836 1.5997,3.0573 3.64385,10.34505 3.64385,13.18905 0,2.95065 -0.90655,5.01255 -3.64385,5.79465"
     id="path164-7"
     style="stroke-width:1.1376" />
</svg>
