<?xml version="1.0" encoding="UTF-8" standalone="no"?>
<svg
   width="127.88633mm"
   height="15.611339mm"
   viewBox="0 0 1812.5622 221.26307"
   version="1.2"
   id="svg204"
   xmlns="http://www.w3.org/2000/svg"
   xmlns:svg="http://www.w3.org/2000/svg">
  <defs
     id="defs204" />
  <title
     id="title1">major scales (2)</title>
  <desc
     id="desc1">Generated by MuseScore Studio 4.5.2</desc>
  <polyline
     class="StaffLines"
     fill="none"
     stroke="#000000"
     stroke-width="3.13"
     stroke-linejoin="bevel"
     points="952.038,411.678 2764.6,411.678"
     id="polyline1"
     transform="translate(-952.03802,-370.49346)" />
  <polyline
     class="StaffLines"
     fill="none"
     stroke="#000000"
     stroke-width="3.13"
     stroke-linejoin="bevel"
     points="952.038,440.118 2764.6,440.118"
     id="polyline2"
     transform="translate(-952.03802,-370.49346)" />
  <polyline
     class="StaffLines"
     fill="none"
     stroke="#000000"
     stroke-width="3.13"
     stroke-linejoin="bevel"
     points="952.038,468.558 2764.6,468.558"
     id="polyline3"
     transform="translate(-952.03802,-370.49346)" />
  <polyline
     class="StaffLines"
     fill="none"
     stroke="#000000"
     stroke-width="3.13"
     stroke-linejoin="bevel"
     points="952.038,496.998 2764.6,496.998"
     id="polyline4"
     transform="translate(-952.03802,-370.49346)" />
  <polyline
     class="StaffLines"
     fill="none"
     stroke="#000000"
     stroke-width="3.13"
     stroke-linejoin="bevel"
     points="952.038,525.438 2764.6,525.438"
     id="polyline5"
     transform="translate(-952.03802,-370.49346)" />
  <polyline
     class="BarLine"
     fill="none"
     stroke="#000000"
     stroke-width="5.12"
     stroke-linejoin="bevel"
     points="2746.4,410.114 2746.4,527.003"
     id="polyline59"
     transform="translate(-952.03802,-370.49346)" />
  <polyline
     class="BarLine"
     fill="none"
     stroke="#000000"
     stroke-width="5.12"
     stroke-linejoin="bevel"
     points="2762.04,410.114 2762.04,527.003"
     id="polyline60"
     transform="translate(-952.03802,-370.49346)" />
  <path
     class="Accidental"
     d="m 371.93453,157.21974 c 0.69326,-0.10671 1.26206,-0.90656 1.26206,-1.59981 v -6.70115 c 0,-0.90655 -0.69326,-1.59969 -1.59981,-1.59969 -0.10659,0 -0.10659,0 -0.23105,0 l -3.75055,0.79985 v -16.95741 h -3.18175 v 17.6328 l -10.13172,2.0619 v -16.05074 h -3.18173 v 16.72625 l -4.44375,0.90655 c -0.67545,0.12434 -1.24425,0.90644 -1.24425,1.59969 v 0.23105 6.59458 -0.23107 c 0,0.90652 0.67545,1.59975 1.59975,1.59975 0.10665,0 0.2133,0 0.33773,0 l 3.75052,-0.79988 v 18.77041 l -4.44375,0.90652 c -0.67545,0.10671 -1.24425,0.90655 -1.24425,1.59981 v 6.59443 c 0,0.90656 0.67545,1.58207 1.59975,1.58207 0.10665,0 0.2133,0 0.33773,0 l 3.75052,-0.7821 v 16.93954 h 3.18173 v -17.6328 l 10.13172,-2.04415 v 16.05085 h 3.18175 v -16.72624 l 4.31935,-0.79997 c 0.69326,-0.12433 1.26206,-0.90643 1.26206,-1.59969 v -6.7012 c 0,-0.9243 -0.69326,-1.59975 -1.59981,-1.59975 -0.10659,0 -0.10659,0 -0.23105,0 l -3.75055,0.79988 v -18.77041 l 4.31935,-0.79987 m -17.63282,3.51945 10.13172,-2.04413 v 18.77041 l -10.13172,2.16855 v -18.89483"
     id="path78"
     style="stroke-width:1.1376" />
  <path
     class="Accidental"
     d="m 573.18453,142.99974 c 0.69326,-0.10671 1.26206,-0.90656 1.26206,-1.59981 v -6.70115 c 0,-0.90655 -0.69326,-1.59969 -1.59981,-1.59969 -0.10659,0 -0.10659,0 -0.23105,0 l -3.75055,0.79985 v -16.95741 h -3.18175 v 17.6328 l -10.13172,2.0619 v -16.05074 h -3.18173 v 16.72625 l -4.44375,0.90655 c -0.67545,0.12434 -1.24425,0.90644 -1.24425,1.59969 v 0.23105 6.59458 -0.23107 c 0,0.90652 0.67545,1.59975 1.59975,1.59975 0.10665,0 0.2133,0 0.33773,0 l 3.75052,-0.79988 v 18.77041 l -4.44375,0.90652 c -0.67545,0.10671 -1.24425,0.90655 -1.24425,1.59981 v 6.59443 c 0,0.90656 0.67545,1.58207 1.59975,1.58207 0.10665,0 0.2133,0 0.33773,0 l 3.75052,-0.7821 v 16.93954 h 3.18173 v -17.6328 l 10.13172,-2.04415 v 16.05085 h 3.18175 v -16.72624 l 4.31935,-0.79997 c 0.69326,-0.12433 1.26206,-0.90643 1.26206,-1.59969 v -6.7012 c 0,-0.9243 -0.69326,-1.59975 -1.59981,-1.59975 -0.10659,0 -0.10659,0 -0.23105,0 l -3.75055,0.79988 v -18.77041 l 4.31935,-0.79987 m -17.63282,3.51945 10.13172,-2.04413 v 18.77041 l -10.13172,2.16855 v -18.89483"
     id="path79"
     style="stroke-width:1.1376" />
  <path
     class="Accidental"
     d="m 975.69453,114.55974 c 0.69326,-0.10671 1.26206,-0.90656 1.26206,-1.59981 v -6.70115 c 0,-0.90655 -0.69326,-1.59969 -1.59981,-1.59969 -0.10659,0 -0.10659,0 -0.23105,0 l -3.75055,0.79985 V 88.501527 h -3.18175 v 17.632803 l -10.13172,2.0619 V 92.145487 h -3.18173 v 16.726253 l -4.44375,0.90655 c -0.67545,0.12434 -1.24425,0.90644 -1.24425,1.59969 v 0.23105 6.59458 -0.23107 c 0,0.90652 0.67545,1.59975 1.59975,1.59975 0.10665,0 0.2133,0 0.33773,0 l 3.75052,-0.79988 v 18.77041 l -4.44375,0.90652 c -0.67545,0.10671 -1.24425,0.90655 -1.24425,1.59981 v 6.59443 c 0,0.90656 0.67545,1.58207 1.59975,1.58207 0.10665,0 0.2133,0 0.33773,0 l 3.75052,-0.7821 v 16.93954 h 3.18173 v -17.6328 l 10.13172,-2.04415 v 16.05085 h 3.18175 v -16.72624 l 4.31935,-0.79997 c 0.69326,-0.12433 1.26206,-0.90643 1.26206,-1.59969 v -6.7012 c 0,-0.9243 -0.69326,-1.59975 -1.59981,-1.59975 -0.10659,0 -0.10659,0 -0.23105,0 l -3.75055,0.79988 v -18.77041 l 4.31935,-0.79987 m -17.63282,3.51945 10.13172,-2.04413 v 18.77041 l -10.13172,2.16855 v -18.89483"
     id="path80"
     style="stroke-width:1.1376" />
  <path
     class="Accidental"
     d="m 1176.9445,100.33974 c 0.6933,-0.10671 1.2621,-0.90656 1.2621,-1.599813 V 92.03878 c 0,-0.906553 -0.6933,-1.599693 -1.5998,-1.599693 -0.1066,0 -0.1066,0 -0.2311,0 l -3.7505,0.799846 V 74.281527 h -3.1818 v 17.6328 l -10.1317,2.0619 v -16.05074 h -3.1817 v 16.726246 l -4.4438,0.906554 c -0.6754,0.12434 -1.2442,0.90644 -1.2442,1.599693 v 0.231047 6.594583 -0.23107 c 0,0.90652 0.6754,1.59975 1.5997,1.59975 0.1067,0 0.2133,0 0.3378,0 l 3.7505,-0.79988 v 18.77041 l -4.4438,0.90652 c -0.6754,0.10671 -1.2442,0.90655 -1.2442,1.59981 v 6.59443 c 0,0.90656 0.6754,1.58207 1.5997,1.58207 0.1067,0 0.2133,0 0.3378,0 l 3.7505,-0.7821 v 16.93954 h 3.1817 v -17.6328 l 10.1317,-2.04415 v 16.05085 h 3.1818 v -16.72624 l 4.3193,-0.79997 c 0.6933,-0.12433 1.2621,-0.90643 1.2621,-1.59969 v -6.7012 c 0,-0.9243 -0.6933,-1.59975 -1.5998,-1.59975 -0.1066,0 -0.1066,0 -0.2311,0 l -3.7505,0.79988 v -18.77041 l 4.3193,-0.79987 m -17.6328,3.51945 10.1317,-2.04413 v 18.77041 l -10.1317,2.16855 v -18.89483"
     id="path81"
     style="stroke-width:1.1376" />
  <path
     class="Accidental"
     d="m 1378.2045,86.119733 c 0.6933,-0.106706 1.2621,-0.906553 1.2621,-1.599806 V 77.81878 c 0,-0.906553 -0.6933,-1.599693 -1.5998,-1.599693 -0.1066,0 -0.1066,0 -0.2311,0 l -3.7505,0.799846 V 60.061527 h -3.1818 v 17.6328 l -10.1317,2.0619 v -16.05074 h -3.1817 v 16.726246 l -4.4438,0.906554 c -0.6754,0.12434 -1.2442,0.90644 -1.2442,1.599693 v 0.231047 6.594576 -0.23107 c 0,0.90652 0.6754,1.59975 1.5997,1.59975 0.1067,0 0.2133,0 0.3378,0 l 3.7505,-0.79988 v 18.770417 l -4.4438,0.90652 c -0.6754,0.10671 -1.2442,0.90655 -1.2442,1.59981 v 6.59443 c 0,0.90656 0.6754,1.58207 1.5997,1.58207 0.1067,0 0.2133,0 0.3378,0 l 3.7505,-0.7821 v 16.93954 h 3.1817 v -17.6328 l 10.1317,-2.04415 v 16.05085 h 3.1818 v -16.72624 l 4.3193,-0.79997 c 0.6933,-0.12433 1.2621,-0.90643 1.2621,-1.59969 v -6.7012 c 0,-0.9243 -0.6933,-1.59975 -1.5998,-1.59975 -0.1066,0 -0.1066,0 -0.2311,0 l -3.7505,0.79988 V 86.919603 l 4.3193,-0.79987 m -17.6328,3.51945 10.1317,-2.04413 v 18.770417 l -10.1317,2.16855 V 89.639183"
     id="path82"
     style="stroke-width:1.1376" />
  <path
     class="Accidental"
     d="m 1579.4545,71.899733 c 0.6933,-0.106706 1.2621,-0.906553 1.2621,-1.599806 V 63.59878 c 0,-0.906553 -0.6933,-1.599693 -1.5998,-1.599693 -0.1066,0 -0.1066,0 -0.2311,0 l -3.7505,0.799846 V 45.841527 h -3.1818 v 17.6328 l -10.1317,2.0619 v -16.05074 h -3.1817 v 16.726246 l -4.4438,0.906554 c -0.6754,0.12434 -1.2442,0.90644 -1.2442,1.599693 v 0.231047 6.594576 -0.23107 c 0,0.90652 0.6754,1.59975 1.5997,1.59975 0.1067,0 0.2133,0 0.3378,0 l 3.7505,-0.79988 v 18.770411 l -4.4438,0.906519 c -0.6754,0.106707 -1.2442,0.906554 -1.2442,1.599807 v 6.59444 c 0,0.90656 0.6754,1.58207 1.5997,1.58207 0.1067,0 0.2133,0 0.3378,0 l 3.7505,-0.7821 v 16.93954 h 3.1817 v -17.6328 l 10.1317,-2.04415 v 16.05085 h 3.1818 v -16.72624 l 4.3193,-0.79997 c 0.6933,-0.12433 1.2621,-0.90644 1.2621,-1.599693 v -6.701204 c 0,-0.9243 -0.6933,-1.59975 -1.5998,-1.59975 -0.1066,0 -0.1066,0 -0.2311,0 l -3.7505,0.799881 V 72.699603 l 4.3193,-0.79987 m -17.6328,3.51945 10.1317,-2.04413 v 18.770411 l -10.1317,2.16855 V 75.419183"
     id="path83"
     style="stroke-width:1.1376" />
  <path
     class="Accidental"
     d="m 774.43453,128.77974 c 0.69326,-0.10671 1.26206,-0.90656 1.26206,-1.59981 v -6.70115 c 0,-0.90655 -0.69326,-1.59969 -1.59981,-1.59969 -0.10659,0 -0.10659,0 -0.23105,0 l -3.75055,0.79985 v -16.95741 h -3.18175 v 17.6328 l -10.13172,2.0619 v -16.05074 h -3.18173 v 16.72625 l -4.44375,0.90655 c -0.67545,0.12434 -1.24425,0.90644 -1.24425,1.59969 v 0.23105 6.59458 -0.23107 c 0,0.90652 0.67545,1.59975 1.59975,1.59975 0.10665,0 0.2133,0 0.33773,0 l 3.75052,-0.79988 v 18.77041 l -4.44375,0.90652 c -0.67545,0.10671 -1.24425,0.90655 -1.24425,1.59981 v 6.59443 c 0,0.90656 0.67545,1.58207 1.59975,1.58207 0.10665,0 0.2133,0 0.33773,0 l 3.75052,-0.7821 v 16.93954 h 3.18173 v -17.6328 l 10.13172,-2.04415 v 16.05085 h 3.18175 v -16.72624 l 4.31935,-0.79997 c 0.69326,-0.12433 1.26206,-0.90643 1.26206,-1.59969 v -6.7012 c 0,-0.9243 -0.69326,-1.59975 -1.59981,-1.59975 -0.10659,0 -0.10659,0 -0.23105,0 l -3.75055,0.79988 v -18.77041 l 4.31935,-0.79987 m -17.63282,3.51945 10.13172,-2.04413 v 18.77041 l -10.13172,2.16855 v -18.89483"
     id="path84"
     style="stroke-width:1.1376" />
  <path
     class="Accidental"
     d="m 163.28453,171.43974 c 0.69326,-0.10671 1.26206,-0.90656 1.26206,-1.59981 v -6.70115 c 0,-0.90655 -0.69326,-1.59969 -1.59981,-1.59969 -0.10659,0 -0.10659,0 -0.23105,0 l -3.75055,0.79985 v -16.95741 h -3.18175 v 17.6328 l -10.13172,2.0619 v -16.05074 h -3.18173 v 16.72625 l -4.44375,0.90655 c -0.67545,0.12434 -1.24425,0.90644 -1.24425,1.59969 v 0.23105 6.59458 -0.23107 c 0,0.90652 0.67545,1.59975 1.59975,1.59975 0.10665,0 0.2133,0 0.33773,0 l 3.75052,-0.79988 v 18.77041 l -4.44375,0.90652 c -0.67545,0.10671 -1.24425,0.90655 -1.24425,1.59981 v 6.59443 c 0,0.90656 0.67545,1.58207 1.59975,1.58207 0.10665,0 0.2133,0 0.33773,0 l 3.75052,-0.7821 v 16.93954 h 3.18173 v -17.6328 l 10.13172,-2.04415 v 16.05085 h 3.18175 v -16.72624 l 4.31935,-0.79997 c 0.69326,-0.12433 1.26206,-0.90643 1.26206,-1.59969 v -6.7012 c 0,-0.9243 -0.69326,-1.59975 -1.59981,-1.59975 -0.10659,0 -0.10659,0 -0.23105,0 l -3.75055,0.79988 v -18.77041 l 4.31935,-0.79987 m -17.63282,3.51945 10.13172,-2.04413 v 18.77041 l -10.13172,2.16855 v -18.89483"
     id="path116"
     style="stroke-width:1.1376" />
  <polyline
     class="LedgerLine"
     fill="none"
     stroke="#000000"
     stroke-width="4.55"
     stroke-linejoin="bevel"
     points="1121.68,553.878 1182.88,553.878"
     id="polyline122"
     transform="translate(-952.03802,-370.49346)" />
  <path
     class="Note"
     d="m 200.30863,167.92023 c -15.6953,0 -21.27665,7.96326 -21.27665,15.35766 0,7.3944 5.58135,15.35766 21.27665,15.35766 15.69535,0 21.1523,-7.96326 21.1523,-15.35766 0,-7.3944 -5.45695,-15.35766 -21.1523,-15.35766 m 5.7947,26.37816 c -1.36864,0.46215 -3.18175,0.69319 -4.88815,0.69319 -3.18175,0 -5.35025,-0.90649 -6.8256,-3.75049 -1.47535,-2.844 -3.51939,-10.13175 -3.64385,-13.20683 -0.23104,-3.07507 0.90656,-4.88812 3.64385,-5.79465 1.36865,-0.46212 3.18175,-0.69328 4.88815,-0.69328 3.18176,0 5.24366,0.69328 6.8256,3.76836 1.5997,3.0573 3.64385,10.34505 3.64385,13.18905 0,2.95065 -0.90655,5.01255 -3.64385,5.79465"
     id="path138"
     style="stroke-width:1.1376" />
  <path
     class="Note"
     d="m 401.55863,153.70023 c -15.6953,0 -21.27665,7.96326 -21.27665,15.35766 0,7.3944 5.58135,15.35766 21.27665,15.35766 15.69535,0 21.1523,-7.96326 21.1523,-15.35766 0,-7.3944 -5.45695,-15.35766 -21.1523,-15.35766 m 5.7947,26.37816 c -1.36864,0.46215 -3.18175,0.69319 -4.88815,0.69319 -3.18175,0 -5.35025,-0.90649 -6.8256,-3.75049 -1.47535,-2.844 -3.51939,-10.13175 -3.64385,-13.20683 -0.23104,-3.07507 0.90656,-4.88812 3.64385,-5.79465 1.36865,-0.46212 3.18175,-0.69328 4.88815,-0.69328 3.18176,0 5.24366,0.69328 6.8256,3.76836 1.5997,3.0573 3.64385,10.34505 3.64385,13.18905 0,2.95065 -0.90655,5.01255 -3.64385,5.79465"
     id="path140"
     style="stroke-width:1.1376" />
  <path
     class="Note"
     d="m 602.81863,139.48023 c -15.6953,0 -21.27665,7.96326 -21.27665,15.35766 0,7.3944 5.58135,15.35766 21.27665,15.35766 15.69535,0 21.1523,-7.96326 21.1523,-15.35766 0,-7.3944 -5.45695,-15.35766 -21.1523,-15.35766 m 5.7947,26.37816 c -1.36864,0.46215 -3.18175,0.69319 -4.88815,0.69319 -3.18175,0 -5.35025,-0.90649 -6.8256,-3.75049 -1.47535,-2.844 -3.51939,-10.13175 -3.64385,-13.20683 -0.23104,-3.07507 0.90656,-4.88812 3.64385,-5.79465 1.36865,-0.46212 3.18175,-0.69328 4.88815,-0.69328 3.18176,0 5.24366,0.69328 6.8256,3.76836 1.5997,3.0573 3.64385,10.34505 3.64385,13.18905 0,2.95065 -0.90655,5.01255 -3.64385,5.79465"
     id="path142"
     style="stroke-width:1.1376" />
  <path
     class="Note"
     d="m 804.06863,125.26023 c -15.6953,0 -21.27665,7.96326 -21.27665,15.35766 0,7.3944 5.58135,15.35766 21.27665,15.35766 15.69535,0 21.1523,-7.96326 21.1523,-15.35766 0,-7.3944 -5.45695,-15.35766 -21.1523,-15.35766 m 5.7947,26.37816 c -1.36864,0.46215 -3.18175,0.69319 -4.88815,0.69319 -3.18175,0 -5.35025,-0.90649 -6.8256,-3.75049 -1.47535,-2.844 -3.51939,-10.13175 -3.64385,-13.20683 -0.23104,-3.07507 0.90656,-4.88812 3.64385,-5.79465 1.36865,-0.46212 3.18175,-0.69328 4.88815,-0.69328 3.18176,0 5.24366,0.69328 6.8256,3.76836 1.5997,3.0573 3.64385,10.34505 3.64385,13.18905 0,2.95065 -0.90655,5.01255 -3.64385,5.79465"
     id="path144"
     style="stroke-width:1.1376" />
  <path
     class="Note"
     d="m 1005.3286,111.04023 c -15.69527,0 -21.27662,7.96326 -21.27662,15.35766 0,7.3944 5.58135,15.35766 21.27662,15.35766 15.6954,0 21.1523,-7.96326 21.1523,-15.35766 0,-7.3944 -5.4569,-15.35766 -21.1523,-15.35766 m 5.7947,26.37816 c -1.3686,0.46215 -3.1817,0.69319 -4.8881,0.69319 -3.1818,0 -5.3503,-0.90649 -6.82562,-3.75049 -1.47535,-2.844 -3.51939,-10.13175 -3.64385,-13.20683 -0.23104,-3.07507 0.90656,-4.88812 3.64385,-5.79465 1.36862,-0.46212 3.18172,-0.69328 4.88812,-0.69328 3.1818,0 5.2437,0.69328 6.8256,3.76836 1.5997,3.0573 3.6439,10.34505 3.6439,13.18905 0,2.95065 -0.9066,5.01255 -3.6439,5.79465"
     id="path146"
     style="stroke-width:1.1376" />
  <path
     class="Note"
     d="m 1206.5786,96.820227 c -15.6953,0 -21.2766,7.963263 -21.2766,15.357663 0,7.3944 5.5813,15.35766 21.2766,15.35766 15.6954,0 21.1523,-7.96326 21.1523,-15.35766 0,-7.3944 -5.4569,-15.357663 -21.1523,-15.357663 m 5.7947,26.378163 c -1.3686,0.46215 -3.1817,0.69319 -4.8881,0.69319 -3.1818,0 -5.3503,-0.90649 -6.8256,-3.75049 -1.4754,-2.844 -3.5194,-10.13175 -3.6439,-13.20683 -0.231,-3.07507 0.9066,-4.88812 3.6439,-5.79465 1.3686,-0.46212 3.1817,-0.69328 4.8881,-0.69328 3.1818,0 5.2437,0.69328 6.8256,3.76836 1.5997,3.0573 3.6439,10.34505 3.6439,13.18905 0,2.95065 -0.9066,5.01255 -3.6439,5.79465"
     id="path148"
     style="stroke-width:1.1376" />
  <path
     class="Note"
     d="m 1407.8286,82.600227 c -15.6953,0 -21.2766,7.963256 -21.2766,15.357656 0,7.394407 5.5813,15.357667 21.2766,15.357667 15.6954,0 21.1523,-7.96326 21.1523,-15.357667 0,-7.3944 -5.4569,-15.357656 -21.1523,-15.357656 m 5.7947,26.378163 c -1.3686,0.46215 -3.1817,0.69319 -4.8881,0.69319 -3.1818,0 -5.3503,-0.90649 -6.8256,-3.75049 -1.4754,-2.844 -3.5194,-10.131757 -3.6439,-13.206837 -0.231,-3.07507 0.9066,-4.88812 3.6439,-5.79465 1.3686,-0.462116 3.1817,-0.693276 4.8881,-0.693276 3.1818,0 5.2437,0.693276 6.8256,3.768356 1.5997,3.0573 3.6439,10.345057 3.6439,13.189057 0,2.95065 -0.9066,5.01255 -3.6439,5.79465"
     id="path150"
     style="stroke-width:1.1376" />
  <path
     class="Note"
     d="m 1609.0886,68.380227 c -15.6953,0 -21.2766,7.963256 -21.2766,15.357656 0,7.3944 5.5813,15.357657 21.2766,15.357657 15.6954,0 21.1523,-7.963257 21.1523,-15.357657 0,-7.3944 -5.4569,-15.357656 -21.1523,-15.357656 m 5.7947,26.378156 c -1.3686,0.46215 -3.1817,0.693197 -4.8881,0.693197 -3.1818,0 -5.3503,-0.906497 -6.8256,-3.750497 -1.4754,-2.844 -3.5194,-10.13175 -3.6439,-13.20683 -0.231,-3.07507 0.9066,-4.88812 3.6439,-5.79465 1.3686,-0.462116 3.1817,-0.693276 4.8881,-0.693276 3.1818,0 5.2437,0.693276 6.8256,3.768356 1.5997,3.0573 3.6439,10.34505 3.6439,13.18905 0,2.95065 -0.9066,5.01255 -3.6439,5.79465"
     id="path153"
     style="stroke-width:1.1376" />
  <path
     class="Clef"
     d="m 85.266626,128.88639 c 0,8.08763 -3.306093,16.38855 -11.376,19.69476 -2.381793,-13.65126 -5.45684,-31.74621 -6.2568,-36.75882 10.2384,0 17.6328,6.95008 17.6328,17.06406 m -16.157447,21.04566 c -2.2752,0.46209 -4.425946,0.69313 -6.594553,0.69313 -16.26404,0 -30.146366,-11.376 -30.146366,-28.56439 0,-13.86456 9.776273,-26.271457 19.801373,-34.92791 1.9197,-1.7064 3.750553,-3.288347 5.456953,-4.994747 1.013147,6.132347 1.812993,11.482594 2.61284,16.157447 -10.36274,3.07505 -17.40164,13.98896 -17.40164,24.68951 0,7.9632 6.2568,18.87705 15.3576,18.87705 0.90644,0 1.937447,-0.46209 1.937447,-1.47536 0,-1.03089 -1.1376,-1.59969 -2.506247,-2.50624 -4.443807,-2.73735 -6.950053,-5.688 -6.950053,-11.26935 0,-6.93225 5.1192,-12.51366 11.838093,-14.09561 l 6.594553,37.41647 M 59.101826,32.990287 c 1.031007,-4.5504 6.2568,-16.4952 12.17596,-16.4952 1.7064,0 4.425947,5.563546 4.425947,13.42004 0,11.838206 -8.7453,20.70796 -16.601907,28.44 -0.675393,-4.5504 -1.244193,-8.976347 -1.244193,-13.757794 0,-4.212646 0.337753,-8.087653 1.244193,-11.607046 m -23.8896,151.869603 c 0,7.51886 5.794707,17.4195 21.152307,17.4195 5.350246,0 10.0251,-1.36864 14.113293,-3.87501 6.150207,-4.31923 7.732153,-11.83809 7.732153,-19.00144 0,-4.42595 -0.675393,-9.54515 -1.812993,-16.03299 -0.337753,-2.2752 -1.031007,-5.688 -1.7064,-10.13181 11.14484,-3.64385 19.445793,-15.25089 19.445793,-26.96468 0,-17.17068 -12.175846,-28.777727 -28.777753,-28.777727 -1.1376,-6.8256 -2.2752,-13.544606 -3.306093,-19.908 12.069253,-12.638053 20.370093,-26.858053 20.370093,-44.9352 0,-10.362853 -3.18164,-18.7704 -5.012493,-22.8759976 C 74.690586,3.981601 71.384379,9.4386558e-7 69.340226,9.4386558e-7 68.540379,9.4386558e-7 65.020986,1.3685338 61.270433,5.7949354 53.982626,14.450933 51.938586,29.008687 51.938586,38.553833 c 0,6.150094 0.5688,11.7315 2.506247,24.476147 -0.124454,0.106707 -6.0435,6.132347 -8.425407,8.069907 -10.36274,9.6696 -24.689447,23.427393 -24.689447,46.197203 0,21.25896 18.539354,37.9852 39.709407,37.9852 3.288347,0 6.363393,-0.33775 8.976347,-0.79984 2.168493,10.93153 3.4128,18.89473 3.4128,24.92049 0,11.83821 -6.025754,18.09501 -17.508347,18.09501 -2.737407,0 -5.1192,-0.5688 -5.35036,-0.5688 -0.106593,-0.12446 -0.33764,-0.23117 -0.33764,-0.33776 0,-0.23104 0.231047,-0.3555 0.5688,-0.46221 5.350247,-0.79984 10.682747,-5.35024 10.682747,-12.62019 0,-6.15021 -4.657107,-12.63805 -13.189107,-12.63805 -7.9632,0 -13.0824,6.48784 -13.0824,13.98895"
     id="path193"
     style="stroke-width:1.1376" />
</svg>
