<?xml version="1.0" encoding="UTF-8" standalone="no"?>
<svg
   width="127.88631mm"
   height="29.044083mm"
   viewBox="0 0 1812.562 411.64842"
   version="1.2"
   id="svg175"
   xmlns="http://www.w3.org/2000/svg"
   xmlns:svg="http://www.w3.org/2000/svg">
  <defs
     id="defs175" />
  <title
     id="title1">major scales (1)</title>
  <desc
     id="desc1">Generated by MuseScore Studio 4.5.2</desc>
  <polyline
     class="StaffLines"
     fill="none"
     stroke="#000000"
     stroke-width="3.13"
     stroke-linejoin="bevel"
     points="952.038,1015.29 2764.6,1015.29"
     id="polyline6"
     transform="translate(-952.038,-825.28345)" />
  <polyline
     class="StaffLines"
     fill="none"
     stroke="#000000"
     stroke-width="3.13"
     stroke-linejoin="bevel"
     points="952.038,1043.73 2764.6,1043.73"
     id="polyline7"
     transform="translate(-952.038,-825.28345)" />
  <polyline
     class="StaffLines"
     fill="none"
     stroke="#000000"
     stroke-width="3.13"
     stroke-linejoin="bevel"
     points="952.038,1072.17 2764.6,1072.17"
     id="polyline8"
     transform="translate(-952.038,-825.28345)" />
  <polyline
     class="StaffLines"
     fill="none"
     stroke="#000000"
     stroke-width="3.13"
     stroke-linejoin="bevel"
     points="952.038,1100.61 2764.6,1100.61"
     id="polyline9"
     transform="translate(-952.038,-825.28345)" />
  <polyline
     class="StaffLines"
     fill="none"
     stroke="#000000"
     stroke-width="3.13"
     stroke-linejoin="bevel"
     points="952.038,1129.05 2764.6,1129.05"
     id="polyline10"
     transform="translate(-952.038,-825.28345)" />
  <polyline
     class="BarLine"
     fill="none"
     stroke="#000000"
     stroke-width="5.12"
     stroke-linejoin="bevel"
     points="2746.4,1013.73 2746.4,1130.62"
     id="polyline52"
     transform="translate(-952.038,-825.28345)" />
  <polyline
     class="BarLine"
     fill="none"
     stroke="#000000"
     stroke-width="5.12"
     stroke-linejoin="bevel"
     points="2762.04,1013.73 2762.04,1130.62"
     id="polyline53"
     transform="translate(-952.038,-825.28345)" />
  <polyline
     class="LedgerLine"
     fill="none"
     stroke="#000000"
     stroke-width="4.55"
     stroke-linejoin="bevel"
     points="1105.13,1157.49 1166.33,1157.49"
     id="polyline90"
     transform="translate(-952.038,-825.28345)" />
  <path
     class="Note"
     d="m 183.75865,316.74224 c -15.6953,0 -21.27665,7.96326 -21.27665,15.35766 0,7.3944 5.58135,15.35765 21.27665,15.35765 15.69535,0 21.1523,-7.96325 21.1523,-15.35765 0,-7.3944 -5.45695,-15.35766 -21.1523,-15.35766 m 5.7947,26.37816 c -1.36864,0.46215 -3.18175,0.69319 -4.88815,0.69319 -3.18175,0 -5.35025,-0.90649 -6.8256,-3.75049 -1.47535,-2.844 -3.51939,-10.13175 -3.64385,-13.20683 -0.23104,-3.07507 0.90656,-4.88812 3.64385,-5.79465 1.36865,-0.46212 3.18175,-0.69328 4.88815,-0.69328 3.18176,0 5.24366,0.69328 6.8256,3.76836 1.5997,3.0573 3.64385,10.34505 3.64385,13.18905 0,2.95065 -0.90655,5.01255 -3.64385,5.79465"
     id="path110"
     style="stroke-width:1.1376" />
  <path
     class="Note"
     d="m 387.07865,302.52224 c -15.6953,0 -21.27665,7.96326 -21.27665,15.35766 0,7.3944 5.58135,15.35765 21.27665,15.35765 15.69535,0 21.1523,-7.96325 21.1523,-15.35765 0,-7.3944 -5.45695,-15.35766 -21.1523,-15.35766 m 5.7947,26.37816 c -1.36864,0.46215 -3.18175,0.69319 -4.88815,0.69319 -3.18175,0 -5.35025,-0.90649 -6.8256,-3.75049 -1.47535,-2.844 -3.51939,-10.13175 -3.64385,-13.20683 -0.23104,-3.07507 0.90656,-4.88812 3.64385,-5.79465 1.36865,-0.46212 3.18175,-0.69328 4.88815,-0.69328 3.18176,0 5.24366,0.69328 6.8256,3.76836 1.5997,3.0573 3.64385,10.34505 3.64385,13.18905 0,2.95065 -0.90655,5.01255 -3.64385,5.79465"
     id="path114"
     style="stroke-width:1.1376" />
  <path
     class="Note"
     d="m 590.40865,288.30224 c -15.6953,0 -21.27665,7.96326 -21.27665,15.35766 0,7.3944 5.58135,15.35765 21.27665,15.35765 15.69535,0 21.1523,-7.96325 21.1523,-15.35765 0,-7.3944 -5.45695,-15.35766 -21.1523,-15.35766 m 5.7947,26.37816 c -1.36864,0.46215 -3.18175,0.69319 -4.88815,0.69319 -3.18175,0 -5.35025,-0.90649 -6.8256,-3.75049 -1.47535,-2.844 -3.51939,-10.13175 -3.64385,-13.20683 -0.23104,-3.07507 0.90656,-4.88812 3.64385,-5.79465 1.36865,-0.46212 3.18175,-0.69328 4.88815,-0.69328 3.18176,0 5.24366,0.69328 6.8256,3.76836 1.5997,3.0573 3.64385,10.34505 3.64385,13.18905 0,2.95065 -0.90655,5.01255 -3.64385,5.79465"
     id="path116"
     style="stroke-width:1.1376" />
  <path
     class="Note"
     d="m 793.72865,274.08224 c -15.6953,0 -21.27665,7.96326 -21.27665,15.35766 0,7.3944 5.58135,15.35765 21.27665,15.35765 15.69535,0 21.1523,-7.96325 21.1523,-15.35765 0,-7.3944 -5.45695,-15.35766 -21.1523,-15.35766 m 5.7947,26.37816 c -1.36864,0.46215 -3.18175,0.69319 -4.88815,0.69319 -3.18175,0 -5.35025,-0.90649 -6.8256,-3.75049 -1.47535,-2.844 -3.51939,-10.13175 -3.64385,-13.20683 -0.23104,-3.07507 0.90656,-4.88812 3.64385,-5.79465 1.36865,-0.46212 3.18175,-0.69328 4.88815,-0.69328 3.18176,0 5.24366,0.69328 6.8256,3.76836 1.5997,3.0573 3.64385,10.34505 3.64385,13.18905 0,2.95065 -0.90655,5.01255 -3.64385,5.79465"
     id="path118"
     style="stroke-width:1.1376" />
  <path
     class="Note"
     d="m 997.04865,259.86224 c -15.6953,0 -21.27665,7.96326 -21.27665,15.35766 0,7.3944 5.58135,15.35765 21.27665,15.35765 15.69535,0 21.15225,-7.96325 21.15225,-15.35765 0,-7.3944 -5.4569,-15.35766 -21.15225,-15.35766 m 5.79465,26.37816 c -1.3686,0.46215 -3.1817,0.69319 -4.8881,0.69319 -3.18175,0 -5.35025,-0.90649 -6.8256,-3.75049 -1.47535,-2.844 -3.51939,-10.13175 -3.64385,-13.20683 -0.23104,-3.07507 0.90656,-4.88812 3.64385,-5.79465 1.36865,-0.46212 3.18175,-0.69328 4.88815,-0.69328 3.18176,0 5.24365,0.69328 6.82555,3.76836 1.5997,3.0573 3.6439,10.34505 3.6439,13.18905 0,2.95065 -0.9066,5.01255 -3.6439,5.79465"
     id="path119"
     style="stroke-width:1.1376" />
  <path
     class="Note"
     d="m 1200.3686,245.64224 c -15.6953,0 -21.2766,7.96326 -21.2766,15.35766 0,7.3944 5.5813,15.35765 21.2766,15.35765 15.6954,0 21.1523,-7.96325 21.1523,-15.35765 0,-7.3944 -5.4569,-15.35766 -21.1523,-15.35766 m 5.7947,26.37816 c -1.3686,0.46215 -3.1817,0.69319 -4.8881,0.69319 -3.1818,0 -5.3503,-0.90649 -6.8256,-3.75049 -1.4754,-2.844 -3.5194,-10.13175 -3.6439,-13.20683 -0.231,-3.07507 0.9066,-4.88812 3.6439,-5.79465 1.3686,-0.46212 3.1817,-0.69328 4.8881,-0.69328 3.1818,0 5.2437,0.69328 6.8256,3.76836 1.5997,3.0573 3.6439,10.34505 3.6439,13.18905 0,2.95065 -0.9066,5.01255 -3.6439,5.79465"
     id="path120"
     style="stroke-width:1.1376" />
  <path
     class="Note"
     d="m 1403.6986,231.42224 c -15.6953,0 -21.2766,7.96325 -21.2766,15.35765 0,7.39441 5.5813,15.35766 21.2766,15.35766 15.6954,0 21.1523,-7.96325 21.1523,-15.35766 0,-7.3944 -5.4569,-15.35765 -21.1523,-15.35765 m 5.7947,26.37816 c -1.3686,0.46215 -3.1817,0.69319 -4.8881,0.69319 -3.1818,0 -5.3503,-0.90649 -6.8256,-3.75049 -1.4754,-2.844 -3.5194,-10.13176 -3.6439,-13.20684 -0.231,-3.07507 0.9066,-4.88812 3.6439,-5.79465 1.3686,-0.46211 3.1817,-0.69327 4.8881,-0.69327 3.1818,0 5.2437,0.69327 6.8256,3.76835 1.5997,3.0573 3.6439,10.34506 3.6439,13.18906 0,2.95065 -0.9066,5.01255 -3.6439,5.79465"
     id="path121"
     style="stroke-width:1.1376" />
  <path
     class="Note"
     d="m 1607.0186,217.20224 c -15.6953,0 -21.2766,7.96325 -21.2766,15.35765 0,7.3944 5.5813,15.35766 21.2766,15.35766 15.6954,0 21.1523,-7.96326 21.1523,-15.35766 0,-7.3944 -5.4569,-15.35765 -21.1523,-15.35765 m 5.7947,26.37815 c -1.3686,0.46215 -3.1817,0.6932 -4.8881,0.6932 -3.1818,0 -5.3503,-0.9065 -6.8256,-3.7505 -1.4754,-2.844 -3.5194,-10.13175 -3.6439,-13.20683 -0.231,-3.07507 0.9066,-4.88812 3.6439,-5.79465 1.3686,-0.46211 3.1817,-0.69327 4.8881,-0.69327 3.1818,0 5.2437,0.69327 6.8256,3.76835 1.5997,3.0573 3.6439,10.34505 3.6439,13.18905 0,2.95065 -0.9066,5.01255 -3.6439,5.79465"
     id="path122"
     style="stroke-width:1.1376" />
  <path
     class="Clef"
     d="m 85.266646,277.7084 c 0,8.08763 -3.306093,16.38855 -11.376,19.69475 -2.381793,-13.65125 -5.45684,-31.7462 -6.2568,-36.75881 10.2384,0 17.6328,6.95008 17.6328,17.06406 m -16.157447,21.04565 c -2.2752,0.4621 -4.425946,0.69314 -6.594553,0.69314 -16.26404,0 -30.146366,-11.376 -30.146366,-28.56439 0,-13.86456 9.776273,-26.27146 19.801373,-34.92791 1.9197,-1.7064 3.750553,-3.28835 5.456953,-4.99475 1.013147,6.13235 1.812993,11.4826 2.61284,16.15745 -10.36274,3.07505 -17.40164,13.98896 -17.40164,24.68951 0,7.9632 6.2568,18.87705 15.3576,18.87705 0.90644,0 1.937447,-0.4621 1.937447,-1.47536 0,-1.03089 -1.1376,-1.59969 -2.506247,-2.50624 -4.443807,-2.73735 -6.950053,-5.688 -6.950053,-11.26935 0,-6.93225 5.1192,-12.51366 11.838093,-14.09561 l 6.594553,37.41646 M 59.101846,181.8123 c 1.031007,-4.5504 6.2568,-16.4952 12.17596,-16.4952 1.7064,0 4.425947,5.56354 4.425947,13.42004 0,11.8382 -8.7453,20.70796 -16.601907,28.44 -0.675393,-4.5504 -1.244193,-8.97635 -1.244193,-13.7578 0,-4.21264 0.337753,-8.08765 1.244193,-11.60704 m -23.8896,151.8696 c 0,7.51885 5.794707,17.4195 21.152307,17.4195 5.350246,0 10.0251,-1.36865 14.113293,-3.87501 6.150207,-4.31924 7.732153,-11.83809 7.732153,-19.00144 0,-4.42595 -0.675393,-9.54515 -1.812993,-16.033 -0.337753,-2.2752 -1.031007,-5.688 -1.7064,-10.1318 11.14484,-3.64385 19.445793,-15.2509 19.445793,-26.96468 0,-17.17068 -12.175846,-28.77773 -28.777753,-28.77773 -1.1376,-6.8256 -2.2752,-13.5446 -3.306093,-19.908 12.069253,-12.63805 20.370093,-26.85805 20.370093,-44.9352 0,-10.36285 -3.18164,-18.7704 -5.012493,-22.87599 -2.719547,-5.79494 -6.025754,-9.77654 -8.069907,-9.77654 -0.799847,0 -4.31924,1.36853 -8.069793,5.79494 -7.287807,8.65599 -9.331847,23.21375 -9.331847,32.75889 0,6.1501 0.5688,11.7315 2.506247,24.47615 -0.124454,0.10671 -6.0435,6.13235 -8.425407,8.06991 -10.36274,9.6696 -24.689447,23.42739 -24.689447,46.1972 0,21.25895 18.539354,37.9852 39.709407,37.9852 3.288347,0 6.363393,-0.33775 8.976347,-0.79985 2.168493,10.93154 3.4128,18.89474 3.4128,24.9205 0,11.8382 -6.025754,18.095 -17.508347,18.095 -2.737407,0 -5.1192,-0.5688 -5.35036,-0.5688 -0.106593,-0.12445 -0.33764,-0.23116 -0.33764,-0.33775 0,-0.23105 0.231047,-0.3555 0.5688,-0.46221 5.350247,-0.79984 10.682747,-5.35024 10.682747,-12.62019 0,-6.15021 -4.657107,-12.63805 -13.189107,-12.63805 -7.9632,0 -13.0824,6.48784 -13.0824,13.98895"
     id="path164"
     style="stroke-width:1.1376" />
  <path
     style="fill:#000000;fill-opacity:0;stroke:#000000;stroke-width:2.83465;stroke-linecap:square;paint-order:stroke fill markers"
     d="M 612.90487,282.47929 675.69408,176.25 l 96.18526,88.27226"
     id="path1" />
  <path
     style="fill:#000000;fill-opacity:0;stroke:#000000;stroke-width:2.83465;stroke-linecap:square;paint-order:stroke fill markers"
     d="m 1424.3704,226.05816 62.7892,-106.22929 96.1852,88.27226"
     id="path1-8" />
  <path
     style="fill:#000000;fill-opacity:0;stroke:#000000;stroke-width:2.83465;stroke-linecap:square;paint-order:stroke fill markers"
     d="m 184.28481,368.29249 0.8255,41.83061 608.74598,-45.6369 0.12088,-45.56429"
     id="path2" />
  <path
     style="fill:#000000;fill-opacity:0;stroke:#000000;stroke-width:2.83465;stroke-linecap:square;paint-order:stroke fill markers"
     d="m 997.09422,314.25809 0.8255,41.83061 608.74598,-45.6369 0.1209,-45.56429"
     id="path2-2" />
</svg>
