<?xml version="1.0" encoding="UTF-8" standalone="no"?>
<svg
   width="180.05792mm"
   height="16.470425mm"
   viewBox="0 0 2552.0021 233.43909"
   version="1.2"
   id="svg92"
   xmlns="http://www.w3.org/2000/svg"
   xmlns:svg="http://www.w3.org/2000/svg">
  <defs
     id="defs92" />
  <title
     id="title1">major scales (3)</title>
  <desc
     id="desc1">Generated by MuseScore Studio 4.5.2</desc>
  <polyline
     class="StaffLines"
     fill="none"
     stroke="#000000"
     stroke-width="3.13"
     stroke-linejoin="bevel"
     points="212.598,1549.28 2764.6,1549.28"
     id="polyline11"
     transform="translate(-212.59801,-1476.9357)" />
  <polyline
     class="StaffLines"
     fill="none"
     stroke="#000000"
     stroke-width="3.13"
     stroke-linejoin="bevel"
     points="212.598,1577.72 2764.6,1577.72"
     id="polyline12"
     transform="translate(-212.59801,-1476.9357)" />
  <polyline
     class="StaffLines"
     fill="none"
     stroke="#000000"
     stroke-width="3.13"
     stroke-linejoin="bevel"
     points="212.598,1606.16 2764.6,1606.16"
     id="polyline13"
     transform="translate(-212.59801,-1476.9357)" />
  <polyline
     class="StaffLines"
     fill="none"
     stroke="#000000"
     stroke-width="3.13"
     stroke-linejoin="bevel"
     points="212.598,1634.6 2764.6,1634.6"
     id="polyline14"
     transform="translate(-212.59801,-1476.9357)" />
  <polyline
     class="StaffLines"
     fill="none"
     stroke="#000000"
     stroke-width="3.13"
     stroke-linejoin="bevel"
     points="212.598,1663.04 2764.6,1663.04"
     id="polyline15"
     transform="translate(-212.59801,-1476.9357)" />
  <polyline
     class="BarLine"
     fill="none"
     stroke="#000000"
     stroke-width="5.12"
     stroke-linejoin="bevel"
     points="2746.4,1547.71 2746.4,1664.6"
     id="polyline37"
     transform="translate(-212.59801,-1476.9357)" />
  <polyline
     class="BarLine"
     fill="none"
     stroke="#000000"
     stroke-width="5.12"
     stroke-linejoin="bevel"
     points="2762.04,1547.71 2762.04,1664.6"
     id="polyline38"
     transform="translate(-212.59801,-1476.9357)" />
  <polyline
     class="LedgerLine"
     fill="none"
     stroke="#000000"
     stroke-width="4.55"
     stroke-linejoin="bevel"
     points="347.209,1691.48 408.408,1691.48"
     id="polyline39"
     transform="translate(-212.59801,-1476.9357)" />
  <polyline
     class="LedgerLine"
     fill="none"
     stroke="#000000"
     stroke-width="4.55"
     stroke-linejoin="bevel"
     points="2413.78,1520.84 2474.98,1520.84"
     id="polyline43"
     transform="translate(-212.59801,-1476.9357)" />
  <polyline
     class="LedgerLine"
     fill="none"
     stroke="#000000"
     stroke-width="4.55"
     stroke-linejoin="bevel"
     points="2254.82,1520.84 2316.02,1520.84"
     id="polyline44"
     transform="translate(-212.59801,-1476.9357)" />
  <polyline
     class="LedgerLine"
     fill="none"
     stroke="#000000"
     stroke-width="4.55"
     stroke-linejoin="bevel"
     points="2572.75,1492.4 2633.95,1492.4"
     id="polyline46"
     transform="translate(-212.59801,-1476.9357)" />
  <polyline
     class="LedgerLine"
     fill="none"
     stroke="#000000"
     stroke-width="4.55"
     stroke-linejoin="bevel"
     points="2572.75,1520.84 2633.95,1520.84"
     id="polyline47"
     transform="translate(-212.59801,-1476.9357)" />
  <path
     class="Note"
     d="m 1437.0086,85.320016 c -15.6953,0 -21.2766,7.963257 -21.2766,15.357654 0,7.3944 5.5813,15.35766 21.2766,15.35766 15.6954,0 21.1523,-7.96326 21.1523,-15.35766 0,-7.394397 -5.4569,-15.357654 -21.1523,-15.357654 m 5.7947,26.378154 c -1.3686,0.46215 -3.1817,0.6932 -4.8881,0.6932 -3.1818,0 -5.3503,-0.9065 -6.8256,-3.7505 -1.4754,-2.844 -3.5194,-10.131747 -3.6439,-13.206828 -0.231,-3.075069 0.9066,-4.888119 3.6439,-5.79465 1.3686,-0.462116 3.1817,-0.693276 4.8881,-0.693276 3.1818,0 5.2437,0.693276 6.8256,3.768357 1.5997,3.0573 3.6439,10.345047 3.6439,13.189047 0,2.95065 -0.9066,5.01255 -3.6439,5.79465"
     id="path57"
     style="stroke-width:1.1376" />
  <path
     class="Note"
     d="m 1278.0386,99.540016 c -15.6953,0 -21.2766,7.963254 -21.2766,15.357654 0,7.3944 5.5813,15.35766 21.2766,15.35766 15.6954,0 21.1523,-7.96326 21.1523,-15.35766 0,-7.3944 -5.4569,-15.357654 -21.1523,-15.357654 m 5.7947,26.378154 c -1.3686,0.46215 -3.1817,0.6932 -4.8881,0.6932 -3.1818,0 -5.3503,-0.9065 -6.8256,-3.7505 -1.4754,-2.844 -3.5194,-10.13175 -3.6439,-13.20683 -0.231,-3.07507 0.9066,-4.88812 3.6439,-5.79465 1.3686,-0.46211 3.1817,-0.69328 4.8881,-0.69328 3.1818,0 5.2437,0.69328 6.8256,3.76836 1.5997,3.0573 3.6439,10.34505 3.6439,13.18905 0,2.95065 -0.9066,5.01255 -3.6439,5.79465"
     id="path59"
     style="stroke-width:1.1376" />
  <path
     class="Note"
     d="m 165.27264,199.08001 c -15.6953,0 -21.27665,7.96326 -21.27665,15.35766 0,7.3944 5.58135,15.35766 21.27665,15.35766 15.69535,0 21.15231,-7.96326 21.15231,-15.35766 0,-7.3944 -5.45696,-15.35766 -21.15231,-15.35766 m 5.79471,26.37816 c -1.36865,0.46215 -3.18176,0.6932 -4.88816,0.6932 -3.18175,0 -5.35024,-0.9065 -6.8256,-3.7505 -1.47535,-2.844 -3.51939,-10.13175 -3.64384,-13.20683 -0.23105,-3.07507 0.90655,-4.88812 3.64384,-5.79465 1.36865,-0.46211 3.18176,-0.69328 4.88816,-0.69328 3.18175,0 5.24365,0.69328 6.8256,3.76836 1.59969,3.0573 3.64384,10.34505 3.64384,13.18905 0,2.95065 -0.90655,5.01255 -3.64384,5.79465"
     id="path60"
     style="stroke-width:1.1376" />
  <path
     class="Note"
     d="m 324.23964,184.86001 c -15.6953,0 -21.27665,7.96326 -21.27665,15.35766 0,7.3944 5.58135,15.35766 21.27665,15.35766 15.69535,0 21.15231,-7.96326 21.15231,-15.35766 0,-7.3944 -5.45696,-15.35766 -21.15231,-15.35766 m 5.79471,26.37816 c -1.36865,0.46215 -3.18176,0.6932 -4.88816,0.6932 -3.18175,0 -5.35024,-0.9065 -6.8256,-3.7505 -1.47535,-2.844 -3.51939,-10.13175 -3.64384,-13.20683 -0.23105,-3.07507 0.90655,-4.88812 3.64384,-5.79465 1.36865,-0.46211 3.18176,-0.69328 4.88816,-0.69328 3.18175,0 5.24365,0.69328 6.8256,3.76836 1.59969,3.0573 3.64384,10.34505 3.64384,13.18905 0,2.95065 -0.90655,5.01255 -3.64384,5.79465"
     id="path61"
     style="stroke-width:1.1376" />
  <path
     class="Note"
     d="m 483.20664,170.64001 c -15.6953,0 -21.27665,7.96326 -21.27665,15.35766 0,7.3944 5.58135,15.35766 21.27665,15.35766 15.69535,0 21.15231,-7.96326 21.15231,-15.35766 0,-7.3944 -5.45696,-15.35766 -21.15231,-15.35766 m 5.79471,26.37816 c -1.36865,0.46215 -3.18176,0.6932 -4.88816,0.6932 -3.18175,0 -5.35024,-0.9065 -6.8256,-3.7505 -1.47535,-2.844 -3.51939,-10.13175 -3.64384,-13.20683 -0.23105,-3.07507 0.90655,-4.88812 3.64384,-5.79465 1.36865,-0.46211 3.18176,-0.69328 4.88816,-0.69328 3.18175,0 5.24365,0.69328 6.8256,3.76836 1.59969,3.0573 3.64384,10.34505 3.64384,13.18905 0,2.95065 -0.90655,5.01255 -3.64384,5.79465"
     id="path62"
     style="stroke-width:1.1376" />
  <path
     class="Note"
     d="m 1119.0786,113.76001 c -15.6953,0 -21.2766,7.96326 -21.2766,15.35766 0,7.3944 5.5813,15.35766 21.2766,15.35766 15.6954,0 21.1523,-7.96326 21.1523,-15.35766 0,-7.3944 -5.4569,-15.35766 -21.1523,-15.35766 m 5.7947,26.37816 c -1.3686,0.46215 -3.1817,0.6932 -4.8881,0.6932 -3.1818,0 -5.3503,-0.9065 -6.8256,-3.7505 -1.4754,-2.844 -3.5194,-10.13175 -3.6439,-13.20683 -0.231,-3.07507 0.9066,-4.88812 3.6439,-5.79465 1.3686,-0.46211 3.1817,-0.69328 4.8881,-0.69328 3.1818,0 5.2437,0.69328 6.8256,3.76836 1.5997,3.0573 3.6439,10.34505 3.6439,13.18905 0,2.95065 -0.9066,5.01255 -3.6439,5.79465"
     id="path63"
     style="stroke-width:1.1376" />
  <path
     class="Note"
     d="m 642.17464,156.42001 c -15.6953,0 -21.27665,7.96326 -21.27665,15.35766 0,7.3944 5.58135,15.35766 21.27665,15.35766 15.69535,0 21.15231,-7.96326 21.15231,-15.35766 0,-7.3944 -5.45696,-15.35766 -21.15231,-15.35766 m 5.79471,26.37816 c -1.36865,0.46215 -3.18176,0.6932 -4.88816,0.6932 -3.18175,0 -5.35024,-0.9065 -6.8256,-3.7505 -1.47535,-2.844 -3.51939,-10.13175 -3.64384,-13.20683 -0.23105,-3.07507 0.90655,-4.88812 3.64384,-5.79465 1.36865,-0.46211 3.18176,-0.69328 4.88816,-0.69328 3.18175,0 5.24365,0.69328 6.8256,3.76836 1.59969,3.0573 3.64384,10.34505 3.64384,13.18905 0,2.95065 -0.90655,5.01255 -3.64384,5.79465"
     id="path64"
     style="stroke-width:1.1376" />
  <path
     class="Note"
     d="m 801.14164,142.20001 c -15.6953,0 -21.27665,7.96326 -21.27665,15.35766 0,7.3944 5.58135,15.35766 21.27665,15.35766 15.69535,0 21.15231,-7.96326 21.15231,-15.35766 0,-7.3944 -5.45696,-15.35766 -21.15231,-15.35766 m 5.79471,26.37816 c -1.36865,0.46215 -3.18176,0.6932 -4.88816,0.6932 -3.18175,0 -5.35024,-0.9065 -6.8256,-3.7505 -1.47535,-2.844 -3.51939,-10.13175 -3.64384,-13.20683 -0.23105,-3.07507 0.90655,-4.88812 3.64384,-5.79465 1.36865,-0.46211 3.18176,-0.69328 4.88816,-0.69328 3.18175,0 5.24365,0.69328 6.8256,3.76836 1.59969,3.0573 3.64384,10.34505 3.64384,13.18905 0,2.95065 -0.90655,5.01255 -3.64384,5.79465"
     id="path65"
     style="stroke-width:1.1376" />
  <path
     class="Note"
     d="m 2231.8486,14.220016 c -15.6953,0 -21.2766,7.963257 -21.2766,15.357657 0,7.3944 5.5813,15.357656 21.2766,15.357656 15.6954,0 21.1523,-7.963256 21.1523,-15.357656 0,-7.3944 -5.4569,-15.357657 -21.1523,-15.357657 m 5.7947,26.378157 c -1.3686,0.46215 -3.1817,0.693196 -4.8881,0.693196 -3.1818,0 -5.3503,-0.906496 -6.8256,-3.750496 -1.4754,-2.844 -3.5194,-10.13175 -3.6439,-13.206831 -0.231,-3.075069 0.9066,-4.888119 3.6439,-5.79465 1.3686,-0.462116 3.1817,-0.693276 4.8881,-0.693276 3.1818,0 5.2437,0.693276 6.8256,3.768357 1.5997,3.0573 3.6439,10.34505 3.6439,13.18905 0,2.95065 -0.9066,5.01255 -3.6439,5.79465"
     id="path66"
     style="stroke-width:1.1376" />
  <path
     class="Note"
     d="m 2390.8186,1.5342949e-5 c -15.6953,0 -21.2766,7.963256857051 -21.2766,15.357657657051 0,7.3944 5.5813,15.357656 21.2766,15.357656 15.6954,0 21.1523,-7.963256 21.1523,-15.357656 0,-7.3944008 -5.4569,-15.357657657051 -21.1523,-15.357657657051 M 2396.6133,26.378173 c -1.3686,0.46215 -3.1817,0.693196 -4.8881,0.693196 -3.1818,0 -5.3503,-0.906496 -6.8256,-3.750496 -1.4754,-2.844 -3.5194,-10.13175 -3.6439,-13.206831 -0.231,-3.0750698 0.9066,-4.8881198 3.6439,-5.7946505 1.3686,-0.4621159 3.1817,-0.6932762 4.8881,-0.6932762 3.1818,0 5.2437,0.6932762 6.8256,3.7683569 1.5997,3.0573008 3.6439,10.3450508 3.6439,13.1890508 0,2.95065 -0.9066,5.01255 -3.6439,5.79465"
     id="path68"
     style="stroke-width:1.1376" />
  <path
     class="Note"
     d="m 2072.8786,28.440016 c -15.6953,0 -21.2766,7.963257 -21.2766,15.357657 0,7.3944 5.5813,15.357656 21.2766,15.357656 15.6954,0 21.1523,-7.963256 21.1523,-15.357656 0,-7.3944 -5.4569,-15.357657 -21.1523,-15.357657 m 5.7947,26.378157 c -1.3686,0.46215 -3.1817,0.693196 -4.8881,0.693196 -3.1818,0 -5.3503,-0.906496 -6.8256,-3.750496 -1.4754,-2.844 -3.5194,-10.13175 -3.6439,-13.206831 -0.231,-3.075069 0.9066,-4.888119 3.6439,-5.79465 1.3686,-0.462116 3.1817,-0.693276 4.8881,-0.693276 3.1818,0 5.2437,0.693276 6.8256,3.768357 1.5997,3.0573 3.6439,10.34505 3.6439,13.18905 0,2.95065 -0.9066,5.01255 -3.6439,5.79465"
     id="path69"
     style="stroke-width:1.1376" />
  <path
     class="Note"
     d="m 1913.9086,42.660016 c -15.6953,0 -21.2766,7.963257 -21.2766,15.357657 0,7.3944 5.5813,15.357656 21.2766,15.357656 15.6954,0 21.1523,-7.963256 21.1523,-15.357656 0,-7.3944 -5.4569,-15.357657 -21.1523,-15.357657 m 5.7947,26.378157 c -1.3686,0.46215 -3.1817,0.693196 -4.8881,0.693196 -3.1818,0 -5.3503,-0.906496 -6.8256,-3.750496 -1.4754,-2.844 -3.5194,-10.13175 -3.6439,-13.206831 -0.231,-3.075069 0.9066,-4.888119 3.6439,-5.79465 1.3686,-0.462116 3.1817,-0.693276 4.8881,-0.693276 3.1818,0 5.2437,0.693276 6.8256,3.768357 1.5997,3.0573 3.6439,10.34505 3.6439,13.18905 0,2.95065 -0.9066,5.01255 -3.6439,5.79465"
     id="path71"
     style="stroke-width:1.1376" />
  <path
     class="Note"
     d="m 960.10864,127.98001 c -15.6953,0 -21.27665,7.96326 -21.27665,15.35766 0,7.3944 5.58135,15.35766 21.27665,15.35766 15.69535,0 21.15231,-7.96326 21.15231,-15.35766 0,-7.3944 -5.45696,-15.35766 -21.15231,-15.35766 m 5.79471,26.37816 c -1.36865,0.46215 -3.18176,0.6932 -4.88816,0.6932 -3.18175,0 -5.35024,-0.9065 -6.8256,-3.7505 -1.47535,-2.844 -3.51939,-10.13175 -3.64384,-13.20683 -0.23105,-3.07507 0.90655,-4.88812 3.64384,-5.79465 1.36865,-0.46211 3.18176,-0.69328 4.88816,-0.69328 3.18175,0 5.24365,0.69328 6.8256,3.76836 1.59969,3.0573 3.64384,10.34505 3.64384,13.18905 0,2.95065 -0.90655,5.01255 -3.64384,5.79465"
     id="path72"
     style="stroke-width:1.1376" />
  <path
     class="Note"
     d="m 1754.9486,56.880016 c -15.6953,0 -21.2766,7.963257 -21.2766,15.357657 0,7.3944 5.5813,15.357656 21.2766,15.357656 15.6954,0 21.1523,-7.963256 21.1523,-15.357656 0,-7.3944 -5.4569,-15.357657 -21.1523,-15.357657 m 5.7947,26.378157 c -1.3686,0.46215 -3.1817,0.693196 -4.8881,0.693196 -3.1818,0 -5.3503,-0.906496 -6.8256,-3.750496 -1.4754,-2.844 -3.5194,-10.13175 -3.6439,-13.206831 -0.231,-3.075069 0.9066,-4.888119 3.6439,-5.79465 1.3686,-0.462116 3.1817,-0.693276 4.8881,-0.693276 3.1818,0 5.2437,0.693276 6.8256,3.768357 1.5997,3.0573 3.6439,10.34505 3.6439,13.18905 0,2.95065 -0.9066,5.01255 -3.6439,5.79465"
     id="path73"
     style="stroke-width:1.1376" />
  <path
     class="Note"
     d="m 1595.9786,71.100016 c -15.6953,0 -21.2766,7.963257 -21.2766,15.357657 0,7.3944 5.5813,15.357657 21.2766,15.357657 15.6954,0 21.1523,-7.963257 21.1523,-15.357657 0,-7.3944 -5.4569,-15.357657 -21.1523,-15.357657 m 5.7947,26.378157 c -1.3686,0.46215 -3.1817,0.693196 -4.8881,0.693196 -3.1818,0 -5.3503,-0.906496 -6.8256,-3.750496 -1.4754,-2.844 -3.5194,-10.13175 -3.6439,-13.206831 -0.231,-3.075069 0.9066,-4.888119 3.6439,-5.79465 1.3686,-0.462116 3.1817,-0.693276 4.8881,-0.693276 3.1818,0 5.2437,0.693276 6.8256,3.768357 1.5997,3.0573 3.6439,10.34505 3.6439,13.18905 0,2.95065 -0.9066,5.01255 -3.6439,5.79465"
     id="path78"
     style="stroke-width:1.1376" />
  <path
     class="Clef"
     d="m 81.000642,160.04617 c 0,8.08763 -3.306093,16.38855 -11.376,19.69476 -2.381793,-13.65126 -5.45684,-31.74621 -6.2568,-36.75882 10.2384,0 17.6328,6.95008 17.6328,17.06406 m -16.157447,21.04566 c -2.2752,0.46209 -4.425946,0.69314 -6.594553,0.69314 -16.26404,0 -30.146366,-11.376 -30.146366,-28.5644 0,-13.86456 9.776273,-26.27145 19.801373,-34.9279 1.9197,-1.7064 3.750553,-3.28835 5.456953,-4.99475 1.013147,6.13235 1.812993,11.48259 2.61284,16.15745 -10.36274,3.07504 -17.40164,13.98895 -17.40164,24.6895 0,7.9632 6.2568,18.87705 15.3576,18.87705 0.90644,0 1.937447,-0.46209 1.937447,-1.47535 0,-1.03089 -1.1376,-1.59969 -2.506247,-2.50625 -4.443807,-2.73735 -6.950053,-5.688 -6.950053,-11.26935 0,-6.93225 5.1192,-12.51366 11.838093,-14.0956 l 6.594553,37.41646 M 54.835842,64.150076 c 1.031007,-4.5504 6.2568,-16.4952 12.17596,-16.4952 1.7064,0 4.425947,5.563547 4.425947,13.42004 0,11.838207 -8.7453,20.70796 -16.601907,28.44 -0.675393,-4.5504 -1.244193,-8.976347 -1.244193,-13.757793 0,-4.212647 0.337753,-8.087654 1.244193,-11.607047 m -23.8896,151.869604 c 0,7.51885 5.794707,17.4195 21.152307,17.4195 5.350246,0 10.0251,-1.36865 14.113293,-3.87501 6.150207,-4.31924 7.732153,-11.83809 7.732153,-19.00145 0,-4.42594 -0.675393,-9.54514 -1.812993,-16.03299 -0.337753,-2.2752 -1.031007,-5.688 -1.7064,-10.13181 11.14484,-3.64384 19.445793,-15.25089 19.445793,-26.96467 0,-17.17068 -12.175846,-28.77773 -28.777753,-28.77773 -1.1376,-6.8256 -2.2752,-13.54461 -3.306093,-19.908 12.069253,-12.638051 20.370093,-26.858051 20.370093,-44.935197 0,-10.362854 -3.18164,-18.7704 -5.012493,-22.875999 -2.719547,-5.794934 -6.025754,-9.776534 -8.069907,-9.776534 -0.799847,0 -4.31924,1.368533 -8.069793,5.794934 -7.287807,8.655999 -9.331847,23.213752 -9.331847,32.758899 0,6.150093 0.5688,11.7315 2.506247,24.476146 -0.124454,0.106707 -6.0435,6.132341 -8.425407,8.069911 -10.36274,9.6696 -24.689447,23.42739 -24.689447,46.19719 0,21.25896 18.539354,37.98521 39.709407,37.98521 3.288347,0 6.363393,-0.33776 8.976347,-0.79985 2.168493,10.93154 3.4128,18.89474 3.4128,24.92049 0,11.83821 -6.025754,18.09501 -17.508347,18.09501 -2.737407,0 -5.1192,-0.5688 -5.35036,-0.5688 -0.106593,-0.12445 -0.33764,-0.23116 -0.33764,-0.33775 0,-0.23105 0.231047,-0.3555 0.5688,-0.46221 5.350247,-0.79985 10.682747,-5.35025 10.682747,-12.62019 0,-6.15021 -4.657107,-12.63806 -13.189107,-12.63806 -7.9632,0 -13.0824,6.48785 -13.0824,13.98896"
     id="path81"
     style="stroke-width:1.1376" />
</svg>
