<?xml version="1.0" encoding="UTF-8" standalone="no"?>
<svg
   width="127.88633mm"
   height="14.271933mm"
   viewBox="0 0 1812.5622 202.27936"
   version="1.2"
   id="svg175"
   xmlns="http://www.w3.org/2000/svg"
   xmlns:svg="http://www.w3.org/2000/svg">
  <defs
     id="defs175" />
  <title
     id="title1">major scales (1)</title>
  <desc
     id="desc1">Generated by MuseScore Studio 4.5.2</desc>
  <polyline
     class="StaffLines"
     fill="none"
     stroke="#000000"
     stroke-width="3.13"
     stroke-linejoin="bevel"
     points="952.038,2920.77 2764.6,2920.77"
     id="polyline31"
     transform="translate(-952.03802,-2879.5855)" />
  <polyline
     class="StaffLines"
     fill="none"
     stroke="#000000"
     stroke-width="3.13"
     stroke-linejoin="bevel"
     points="952.038,2949.21 2764.6,2949.21"
     id="polyline32"
     transform="translate(-952.03802,-2879.5855)" />
  <polyline
     class="StaffLines"
     fill="none"
     stroke="#000000"
     stroke-width="3.13"
     stroke-linejoin="bevel"
     points="952.038,2977.65 2764.6,2977.65"
     id="polyline33"
     transform="translate(-952.03802,-2879.5855)" />
  <polyline
     class="StaffLines"
     fill="none"
     stroke="#000000"
     stroke-width="3.13"
     stroke-linejoin="bevel"
     points="952.038,3006.09 2764.6,3006.09"
     id="polyline34"
     transform="translate(-952.03802,-2879.5855)" />
  <polyline
     class="StaffLines"
     fill="none"
     stroke="#000000"
     stroke-width="3.13"
     stroke-linejoin="bevel"
     points="952.038,3034.53 2764.6,3034.53"
     id="polyline35"
     transform="translate(-952.03802,-2879.5855)" />
  <polyline
     class="BarLine"
     fill="none"
     stroke="#000000"
     stroke-width="5.12"
     stroke-linejoin="bevel"
     points="2746.4,2919.21 2746.4,3036.09"
     id="polyline62"
     transform="translate(-952.03802,-2879.5855)" />
  <polyline
     class="BarLine"
     fill="none"
     stroke="#000000"
     stroke-width="5.12"
     stroke-linejoin="bevel"
     points="2762.04,2919.21 2762.04,3036.09"
     id="polyline63"
     transform="translate(-952.03802,-2879.5855)" />
  <path
     class="Accidental"
     d="m 1374.0645,57.679737 c 0.6933,-0.106707 1.2621,-0.906553 1.2621,-1.599807 v -6.701146 c 0,-0.906554 -0.6933,-1.599693 -1.5998,-1.599693 -0.1066,0 -0.1066,0 -0.2311,0 l -3.7505,0.799846 V 31.62153 h -3.1818 v 17.6328 l -10.1317,2.0619 V 35.265491 h -3.1817 v 16.726246 l -4.4438,0.906554 c -0.6754,0.124339 -1.2442,0.906439 -1.2442,1.599693 v 0.231046 6.594577 -0.23107 c 0,0.90652 0.6754,1.59975 1.5997,1.59975 0.1067,0 0.2133,0 0.3378,0 l 3.7505,-0.79988 v 18.770411 l -4.4438,0.906519 c -0.6754,0.106707 -1.2442,0.906554 -1.2442,1.599807 v 6.59444 c 0,0.906553 0.6754,1.58206 1.5997,1.58206 0.1067,0 0.2133,0 0.3378,0 l 3.7505,-0.7821 v 16.939546 h 3.1817 V 89.870291 l 10.1317,-2.044154 v 16.050853 h 3.1818 V 87.150744 l 4.3193,-0.79996 c 0.6933,-0.12434 1.2621,-0.90644 1.2621,-1.599693 v -6.701204 c 0,-0.9243 -0.6933,-1.59975 -1.5998,-1.59975 -0.1066,0 -0.1066,0 -0.2311,0 l -3.7505,0.799881 V 58.479607 l 4.3193,-0.79987 m -17.6328,3.51945 10.1317,-2.04413 v 18.770411 l -10.1317,2.16855 V 61.199187"
     id="path69"
     style="stroke-width:1.1376" />
  <path
     class="Accidental"
     d="m 357.45453,128.77973 c 0.69326,-0.1067 1.26206,-0.90655 1.26206,-1.5998 v -6.70115 c 0,-0.90655 -0.69326,-1.59969 -1.59981,-1.59969 -0.10659,0 -0.10659,0 -0.23105,0 l -3.75055,0.79984 v -16.9574 h -3.18175 v 17.6328 l -10.13172,2.0619 v -16.05074 h -3.18173 v 16.72624 l -4.44375,0.90656 c -0.67545,0.12434 -1.24425,0.90644 -1.24425,1.59969 v 0.23105 6.59457 -0.23107 c 0,0.90652 0.67545,1.59975 1.59975,1.59975 0.10665,0 0.2133,0 0.33773,0 l 3.75052,-0.79988 v 18.77041 l -4.44375,0.90652 c -0.67545,0.10671 -1.24425,0.90656 -1.24425,1.59981 v 6.59444 c 0,0.90655 0.67545,1.58206 1.59975,1.58206 0.10665,0 0.2133,0 0.33773,0 l 3.75052,-0.7821 v 16.93955 h 3.18173 v -17.6328 l 10.13172,-2.04416 v 16.05086 h 3.18175 v -16.72625 l 4.31935,-0.79996 c 0.69326,-0.12434 1.26206,-0.90644 1.26206,-1.59969 v -6.70121 c 0,-0.9243 -0.69326,-1.59975 -1.59981,-1.59975 -0.10659,0 -0.10659,0 -0.23105,0 l -3.75055,0.79988 V 129.5796 l 4.31935,-0.79987 m -17.63282,3.51945 10.13172,-2.04413 v 18.77041 l -10.13172,2.16855 v -18.89483"
     id="path73"
     style="stroke-width:1.1376" />
  <path
     class="Accidental"
     d="m 560.77453,114.55973 c 0.69326,-0.1067 1.26206,-0.90655 1.26206,-1.5998 v -6.70115 c 0,-0.90655 -0.69326,-1.59969 -1.59981,-1.59969 -0.10659,0 -0.10659,0 -0.23105,0 l -3.75055,0.79984 v -16.9574 h -3.18175 v 17.6328 l -10.13172,2.0619 V 92.145491 h -3.18173 v 16.726239 l -4.44375,0.90656 c -0.67545,0.12434 -1.24425,0.90644 -1.24425,1.59969 v 0.23105 6.59457 -0.23107 c 0,0.90652 0.67545,1.59975 1.59975,1.59975 0.10665,0 0.2133,0 0.33773,0 l 3.75052,-0.79988 v 18.77041 l -4.44375,0.90652 c -0.67545,0.10671 -1.24425,0.90656 -1.24425,1.59981 v 6.59444 c 0,0.90655 0.67545,1.58206 1.59975,1.58206 0.10665,0 0.2133,0 0.33773,0 l 3.75052,-0.7821 v 16.93955 h 3.18173 v -17.6328 l 10.13172,-2.04416 v 16.05086 h 3.18175 v -16.72625 l 4.31935,-0.79996 c 0.69326,-0.12434 1.26206,-0.90644 1.26206,-1.59969 v -6.70121 c 0,-0.9243 -0.69326,-1.59975 -1.59981,-1.59975 -0.10659,0 -0.10659,0 -0.23105,0 l -3.75055,0.79988 V 115.3596 l 4.31935,-0.79987 m -17.63282,3.51945 10.13172,-2.04413 v 18.77041 l -10.13172,2.16855 v -18.89483"
     id="path81"
     style="stroke-width:1.1376" />
  <path
     class="Accidental"
     d="m 1170.7445,71.899737 c 0.6933,-0.106707 1.2621,-0.906553 1.2621,-1.599807 v -6.701146 c 0,-0.906554 -0.6933,-1.599693 -1.5998,-1.599693 -0.1066,0 -0.1066,0 -0.2311,0 l -3.7505,0.799846 V 45.84153 h -3.1818 v 17.6328 l -10.1317,2.0619 V 49.485491 h -3.1817 v 16.726246 l -4.4438,0.906554 c -0.6754,0.124339 -1.2442,0.906439 -1.2442,1.599693 v 0.231046 6.594577 -0.23107 c 0,0.90652 0.6754,1.59975 1.5997,1.59975 0.1067,0 0.2133,0 0.3378,0 l 3.7505,-0.79988 v 18.770411 l -4.4438,0.906519 c -0.6754,0.106707 -1.2442,0.906554 -1.2442,1.599807 v 6.594436 c 0,0.90655 0.6754,1.58206 1.5997,1.58206 0.1067,0 0.2133,0 0.3378,0 l 3.7505,-0.7821 v 16.93955 h 3.1817 v -17.6328 l 10.1317,-2.04416 v 16.05086 h 3.1818 v -16.72625 l 4.3193,-0.79996 c 0.6933,-0.12434 1.2621,-0.906436 1.2621,-1.599689 v -6.701204 c 0,-0.9243 -0.6933,-1.59975 -1.5998,-1.59975 -0.1066,0 -0.1066,0 -0.2311,0 l -3.7505,0.799881 V 72.699607 l 4.3193,-0.79987 m -17.6328,3.51945 10.1317,-2.04413 v 18.770411 l -10.1317,2.16855 V 75.419187"
     id="path82"
     style="stroke-width:1.1376" />
  <path
     class="Note"
     d="m 183.75863,139.48023 c -15.6953,0 -21.27665,7.96325 -21.27665,15.35765 0,7.3944 5.58135,15.35766 21.27665,15.35766 15.69535,0 21.1523,-7.96326 21.1523,-15.35766 0,-7.3944 -5.45695,-15.35765 -21.1523,-15.35765 m 5.7947,26.37815 c -1.36864,0.46215 -3.18175,0.6932 -4.88815,0.6932 -3.18175,0 -5.35025,-0.9065 -6.8256,-3.7505 -1.47535,-2.844 -3.51939,-10.13175 -3.64385,-13.20683 -0.23104,-3.07507 0.90656,-4.88812 3.64385,-5.79465 1.36865,-0.46211 3.18175,-0.69327 4.88815,-0.69327 3.18176,0 5.24366,0.69327 6.8256,3.76835 1.5997,3.0573 3.64385,10.34505 3.64385,13.18905 0,2.95065 -0.90655,5.01255 -3.64385,5.79465"
     id="path94"
     style="stroke-width:1.1376" />
  <path
     class="Note"
     d="m 387.07863,125.26023 c -15.6953,0 -21.27665,7.96325 -21.27665,15.35765 0,7.3944 5.58135,15.35766 21.27665,15.35766 15.69535,0 21.1523,-7.96326 21.1523,-15.35766 0,-7.3944 -5.45695,-15.35765 -21.1523,-15.35765 m 5.7947,26.37815 c -1.36864,0.46215 -3.18175,0.6932 -4.88815,0.6932 -3.18175,0 -5.35025,-0.9065 -6.8256,-3.7505 -1.47535,-2.844 -3.51939,-10.13175 -3.64385,-13.20683 -0.23104,-3.07507 0.90656,-4.88812 3.64385,-5.79465 1.36865,-0.46211 3.18175,-0.69327 4.88815,-0.69327 3.18176,0 5.24366,0.69327 6.8256,3.76835 1.5997,3.0573 3.64385,10.34505 3.64385,13.18905 0,2.95065 -0.90655,5.01255 -3.64385,5.79465"
     id="path107"
     style="stroke-width:1.1376" />
  <path
     class="Note"
     d="m 590.40863,111.04023 c -15.6953,0 -21.27665,7.96325 -21.27665,15.35765 0,7.3944 5.58135,15.35766 21.27665,15.35766 15.69535,0 21.1523,-7.96326 21.1523,-15.35766 0,-7.3944 -5.45695,-15.35765 -21.1523,-15.35765 m 5.7947,26.37815 c -1.36864,0.46215 -3.18175,0.6932 -4.88815,0.6932 -3.18175,0 -5.35025,-0.9065 -6.8256,-3.7505 -1.47535,-2.844 -3.51939,-10.13175 -3.64385,-13.20683 -0.23104,-3.07507 0.90656,-4.88812 3.64385,-5.79465 1.36865,-0.46211 3.18175,-0.69327 4.88815,-0.69327 3.18176,0 5.24366,0.69327 6.8256,3.76835 1.5997,3.0573 3.64385,10.34505 3.64385,13.18905 0,2.95065 -0.90655,5.01255 -3.64385,5.79465"
     id="path109"
     style="stroke-width:1.1376" />
  <path
     class="Note"
     d="m 793.72863,96.82023 c -15.6953,0 -21.27665,7.96325 -21.27665,15.35765 0,7.3944 5.58135,15.35766 21.27665,15.35766 15.69535,0 21.1523,-7.96326 21.1523,-15.35766 0,-7.3944 -5.45695,-15.35765 -21.1523,-15.35765 m 5.7947,26.37815 c -1.36864,0.46215 -3.18175,0.6932 -4.88815,0.6932 -3.18175,0 -5.35025,-0.9065 -6.8256,-3.7505 -1.47535,-2.844 -3.51939,-10.13175 -3.64385,-13.20683 -0.23104,-3.07507 0.90656,-4.88812 3.64385,-5.79465 1.36865,-0.46211 3.18175,-0.69327 4.88815,-0.69327 3.18176,0 5.24366,0.69327 6.8256,3.76835 1.5997,3.0573 3.64385,10.34505 3.64385,13.18905 0,2.95065 -0.90655,5.01255 -3.64385,5.79465"
     id="path111"
     style="stroke-width:1.1376" />
  <path
     class="Note"
     d="m 997.04863,82.60023 c -15.6953,0 -21.27665,7.963257 -21.27665,15.357657 0,7.394393 5.58135,15.357653 21.27665,15.357653 15.69537,0 21.15227,-7.96326 21.15227,-15.357653 0,-7.3944 -5.4569,-15.357657 -21.15227,-15.357657 m 5.79467,26.37815 c -1.3686,0.46215 -3.18172,0.6932 -4.88812,0.6932 -3.18175,0 -5.35025,-0.9065 -6.8256,-3.7505 -1.47535,-2.844 -3.51939,-10.131743 -3.64385,-13.206823 -0.23104,-3.07507 0.90656,-4.88812 3.64385,-5.79465 1.36865,-0.462116 3.18175,-0.693277 4.88815,-0.693277 3.18176,0 5.24367,0.693277 6.82557,3.768357 1.5997,3.0573 3.6439,10.345043 3.6439,13.189043 0,2.95065 -0.9066,5.01255 -3.6439,5.79465"
     id="path112"
     style="stroke-width:1.1376" />
  <path
     class="Note"
     d="m 1200.3686,68.38023 c -15.6953,0 -21.2766,7.963257 -21.2766,15.357657 0,7.3944 5.5813,15.357657 21.2766,15.357657 15.6954,0 21.1523,-7.963257 21.1523,-15.357657 0,-7.3944 -5.4569,-15.357657 -21.1523,-15.357657 m 5.7947,26.378157 c -1.3686,0.46215 -3.1817,0.693197 -4.8881,0.693197 -3.1818,0 -5.3503,-0.906497 -6.8256,-3.750497 -1.4754,-2.844 -3.5194,-10.13175 -3.6439,-13.20683 -0.231,-3.07507 0.9066,-4.88812 3.6439,-5.79465 1.3686,-0.462116 3.1817,-0.693277 4.8881,-0.693277 3.1818,0 5.2437,0.693277 6.8256,3.768357 1.5997,3.0573 3.6439,10.34505 3.6439,13.18905 0,2.95065 -0.9066,5.01255 -3.6439,5.79465"
     id="path113"
     style="stroke-width:1.1376" />
  <path
     class="Note"
     d="m 1403.6986,54.16023 c -15.6953,0 -21.2766,7.963257 -21.2766,15.357657 0,7.3944 5.5813,15.357657 21.2766,15.357657 15.6954,0 21.1523,-7.963257 21.1523,-15.357657 0,-7.3944 -5.4569,-15.357657 -21.1523,-15.357657 m 5.7947,26.378157 c -1.3686,0.46215 -3.1817,0.693197 -4.8881,0.693197 -3.1818,0 -5.3503,-0.906497 -6.8256,-3.750497 -1.4754,-2.844 -3.5194,-10.13175 -3.6439,-13.20683 -0.231,-3.07507 0.9066,-4.88812 3.6439,-5.79465 1.3686,-0.462116 3.1817,-0.693277 4.8881,-0.693277 3.1818,0 5.2437,0.693277 6.8256,3.768357 1.5997,3.0573 3.6439,10.34505 3.6439,13.18905 0,2.95065 -0.9066,5.01255 -3.6439,5.79465"
     id="path115"
     style="stroke-width:1.1376" />
  <path
     class="Note"
     d="m 1607.0186,39.94023 c -15.6953,0 -21.2766,7.963257 -21.2766,15.357657 0,7.3944 5.5813,15.357657 21.2766,15.357657 15.6954,0 21.1523,-7.963257 21.1523,-15.357657 0,-7.3944 -5.4569,-15.357657 -21.1523,-15.357657 m 5.7947,26.378157 c -1.3686,0.46215 -3.1817,0.693197 -4.8881,0.693197 -3.1818,0 -5.3503,-0.906497 -6.8256,-3.750497 -1.4754,-2.844 -3.5194,-10.13175 -3.6439,-13.20683 -0.231,-3.07507 0.9066,-4.88812 3.6439,-5.79465 1.3686,-0.462116 3.1817,-0.693277 4.8881,-0.693277 3.1818,0 5.2437,0.693277 6.8256,3.768357 1.5997,3.0573 3.6439,10.34505 3.6439,13.18905 0,2.95065 -0.9066,5.01255 -3.6439,5.79465"
     id="path117"
     style="stroke-width:1.1376" />
  <path
     class="Clef"
     d="m 85.266626,128.88638 c 0,8.08763 -3.306093,16.38855 -11.376,19.69476 -2.381793,-13.65126 -5.45684,-31.74621 -6.2568,-36.75881 10.2384,0 17.6328,6.95007 17.6328,17.06405 m -16.157447,21.04566 c -2.2752,0.46209 -4.425946,0.69314 -6.594553,0.69314 -16.26404,0 -30.146366,-11.376 -30.146366,-28.5644 0,-13.86455 9.776273,-26.271443 19.801373,-34.927896 1.9197,-1.7064 3.750553,-3.288347 5.456953,-4.994747 1.013147,6.132347 1.812993,11.482593 2.61284,16.157447 -10.36274,3.075046 -17.40164,13.988946 -17.40164,24.689496 0,7.9632 6.2568,18.87705 15.3576,18.87705 0.90644,0 1.937447,-0.46209 1.937447,-1.47535 0,-1.03089 -1.1376,-1.59969 -2.506247,-2.50625 -4.443807,-2.73735 -6.950053,-5.688 -6.950053,-11.26935 0,-6.93225 5.1192,-12.51365 11.838093,-14.0956 l 6.594553,37.41646 M 59.101826,32.990291 c 1.031007,-4.5504 6.2568,-16.4952 12.17596,-16.4952 1.7064,0 4.425947,5.563546 4.425947,13.420039 0,11.838207 -8.7453,20.707961 -16.601907,28.44 -0.675393,-4.5504 -1.244193,-8.976346 -1.244193,-13.757793 0,-4.212646 0.337753,-8.087653 1.244193,-11.607046 m -23.8896,151.869599 c 0,7.51885 5.794707,17.4195 21.152307,17.4195 5.350246,0 10.0251,-1.36865 14.113293,-3.87501 6.150207,-4.31924 7.732153,-11.83809 7.732153,-19.00145 0,-4.42594 -0.675393,-9.54514 -1.812993,-16.03299 -0.337753,-2.2752 -1.031007,-5.688 -1.7064,-10.13181 11.14484,-3.64384 19.445793,-15.25089 19.445793,-26.96467 0,-17.17068 -12.175846,-28.777723 -28.777753,-28.777723 -1.1376,-6.8256 -2.2752,-13.544607 -3.306093,-19.908 12.069253,-12.638053 20.370093,-26.858053 20.370093,-44.9352 0,-10.362853 -3.18164,-18.7704 -5.012493,-22.8759984 C 74.690586,3.9816042 71.384379,4.2098345e-6 69.340226,4.2098345e-6 68.540379,4.2098345e-6 65.020986,1.368537 61.270433,5.7949386 53.982626,14.450937 51.938586,29.008691 51.938586,38.553837 c 0,6.150093 0.5688,11.7315 2.506247,24.476147 -0.124454,0.106707 -6.0435,6.132346 -8.425407,8.069907 -10.36274,9.6696 -24.689447,23.427393 -24.689447,46.197189 0,21.25896 18.539354,37.98521 39.709407,37.98521 3.288347,0 6.363393,-0.33776 8.976347,-0.79985 2.168493,10.93154 3.4128,18.89474 3.4128,24.92049 0,11.83821 -6.025754,18.09501 -17.508347,18.09501 -2.737407,0 -5.1192,-0.5688 -5.35036,-0.5688 -0.106593,-0.12445 -0.33764,-0.23116 -0.33764,-0.33775 0,-0.23105 0.231047,-0.3555 0.5688,-0.46221 5.350247,-0.79985 10.682747,-5.35025 10.682747,-12.62019 0,-6.15021 -4.657107,-12.63806 -13.189107,-12.63806 -7.9632,0 -13.0824,6.48785 -13.0824,13.98896"
     id="path159"
     style="stroke-width:1.1376" />
</svg>
