<?xml version="1.0" encoding="UTF-8" standalone="no"?>
<svg
   width="127.88633mm"
   height="14.27194mm"
   viewBox="0 0 1812.5622 202.27947"
   version="1.2"
   id="svg204"
   xmlns="http://www.w3.org/2000/svg"
   xmlns:svg="http://www.w3.org/2000/svg">
  <defs
     id="defs204" />
  <title
     id="title1">major scales (2)</title>
  <desc
     id="desc1">Generated by MuseScore Studio 4.5.2</desc>
  <polyline
     class="StaffLines"
     fill="none"
     stroke="#000000"
     stroke-width="3.13"
     stroke-linejoin="bevel"
     points="952.038,1502.11 2764.6,1502.11"
     id="polyline16"
     transform="translate(-952.03802,-1460.9254)" />
  <polyline
     class="StaffLines"
     fill="none"
     stroke="#000000"
     stroke-width="3.13"
     stroke-linejoin="bevel"
     points="952.038,1530.55 2764.6,1530.55"
     id="polyline17"
     transform="translate(-952.03802,-1460.9254)" />
  <polyline
     class="StaffLines"
     fill="none"
     stroke="#000000"
     stroke-width="3.13"
     stroke-linejoin="bevel"
     points="952.038,1558.99 2764.6,1558.99"
     id="polyline18"
     transform="translate(-952.03802,-1460.9254)" />
  <polyline
     class="StaffLines"
     fill="none"
     stroke="#000000"
     stroke-width="3.13"
     stroke-linejoin="bevel"
     points="952.038,1587.43 2764.6,1587.43"
     id="polyline19"
     transform="translate(-952.03802,-1460.9254)" />
  <polyline
     class="StaffLines"
     fill="none"
     stroke="#000000"
     stroke-width="3.13"
     stroke-linejoin="bevel"
     points="952.038,1615.87 2764.6,1615.87"
     id="polyline20"
     transform="translate(-952.03802,-1460.9254)" />
  <polyline
     class="BarLine"
     fill="none"
     stroke="#000000"
     stroke-width="5.12"
     stroke-linejoin="bevel"
     points="2746.4,1500.54 2746.4,1617.43"
     id="polyline72"
     transform="translate(-952.03802,-1460.9254)" />
  <polyline
     class="BarLine"
     fill="none"
     stroke="#000000"
     stroke-width="5.12"
     stroke-linejoin="bevel"
     points="2762.04,1500.54 2762.04,1617.43"
     id="polyline73"
     transform="translate(-952.03802,-1460.9254)" />
  <path
     class="Accidental"
     d="m 159.64069,145.9504 c -0.67551,-4.42601 -3.4128,-8.63865 -9.20751,-8.63865 -5.688,0 -8.99415,3.51939 -9.56295,4.21264 l 0.46215,-36.52765 c 0,-0.90644 -0.67545,-1.58195 -1.59975,-1.58195 h -1.3509 c -0.9243,0 -1.59975,0.67551 -1.59975,1.58195 l 0.5688,68.38045 c 0,0.90656 0.67545,1.58206 1.59975,1.58206 0.2133,0 0.67545,-0.1067 0.90653,-0.2133 0.44437,-0.23116 7.83877,-3.875 13.98892,-10.80725 4.31935,-4.9059 6.02575,-10.46949 6.02575,-15.1443 0,-1.01319 -0.1067,-1.9197 -0.23104,-2.844 m -7.83886,4.44375 c 0,1.7064 -0.4621,6.93225 -3.3061,11.26935 -1.9375,2.95065 -5.79467,6.02569 -7.96322,7.73209 l 0.33772,-22.18318 c 0.23108,-1.03095 1.93748,-4.31937 6.48788,-4.31937 4.10608,0 4.44372,3.85722 4.44372,6.25686 0,0.5688 0,0.90651 0,1.24425"
     id="path87"
     style="stroke-width:1.1376" />
  <path
     class="Accidental"
     d="m 1578.9607,46.410396 c -0.6755,-4.426004 -3.4128,-8.63865 -9.2075,-8.63865 -5.688,0 -8.9942,3.519393 -9.563,4.212646 l 0.4622,-36.527653 c 0,-0.9064397 -0.6755,-1.5819465 -1.5998,-1.5819465 h -1.3509 c -0.9243,0 -1.5997,0.6755068 -1.5997,1.5819465 l 0.5688,68.380453 c 0,0.906554 0.6754,1.58206 1.5997,1.58206 0.2133,0 0.6755,-0.106706 0.9066,-0.2133 0.4443,-0.23116 7.8387,-3.875006 13.9889,-10.807256 4.3193,-4.9059 6.0257,-10.469481 6.0257,-15.1443 0,-1.013181 -0.1067,-1.9197 -0.231,-2.844 m -7.8389,4.44375 c 0,1.7064 -0.4621,6.93225 -3.3061,11.26935 -1.9375,2.95065 -5.7946,6.025696 -7.9632,7.732096 l 0.3377,-22.183177 c 0.2311,-1.03095 1.9375,-4.319376 6.4879,-4.319376 4.1061,0 4.4437,3.857226 4.4437,6.256857 0,0.5688 0,0.906519 0,1.24425"
     id="path90"
     style="stroke-width:1.1376" />
  <path
     class="Accidental"
     d="m 970.68069,89.070396 c -0.67551,-4.426004 -3.4128,-8.63865 -9.20751,-8.63865 -5.688,0 -8.99415,3.519393 -9.56295,4.212646 l 0.46215,-36.527653 c 0,-0.90644 -0.67545,-1.581947 -1.59975,-1.581947 h -1.3509 c -0.9243,0 -1.59975,0.675507 -1.59975,1.581947 l 0.5688,68.380451 c 0,0.90656 0.67545,1.58206 1.59975,1.58206 0.2133,0 0.67545,-0.1067 0.90653,-0.2133 0.44437,-0.23116 7.83877,-3.875 13.98892,-10.80725 4.31935,-4.9059 6.02575,-10.469485 6.02575,-15.144304 0,-1.013181 -0.1067,-1.9197 -0.23104,-2.844 m -7.83886,4.44375 c 0,1.7064 -0.4621,6.932254 -3.3061,11.269354 -1.9375,2.95065 -5.79467,6.02569 -7.96322,7.73209 l 0.33772,-22.183175 c 0.23108,-1.03095 1.93748,-4.319376 6.48788,-4.319376 4.10608,0 4.44372,3.857226 4.44372,6.256857 0,0.5688 0,0.906519 0,1.24425"
     id="path103"
     style="stroke-width:1.1376" />
  <path
     class="Accidental"
     d="m 767.92069,103.2904 c -0.67551,-4.426008 -3.4128,-8.638654 -9.20751,-8.638654 -5.688,0 -8.99415,3.519393 -9.56295,4.212646 l 0.46215,-36.527653 c 0,-0.90644 -0.67545,-1.581947 -1.59975,-1.581947 h -1.3509 c -0.9243,0 -1.59975,0.675507 -1.59975,1.581947 l 0.5688,68.380451 c 0,0.90656 0.67545,1.58206 1.59975,1.58206 0.2133,0 0.67545,-0.1067 0.90653,-0.2133 0.44437,-0.23116 7.83877,-3.875 13.98892,-10.80725 4.31935,-4.9059 6.02575,-10.46949 6.02575,-15.1443 0,-1.01319 -0.1067,-1.9197 -0.23104,-2.844 m -7.83886,4.44375 c 0,1.7064 -0.4621,6.93225 -3.3061,11.26935 -1.9375,2.95065 -5.79467,6.02569 -7.96322,7.73209 l 0.33772,-22.18318 c 0.23108,-1.03095 1.93748,-4.31937 6.48788,-4.31937 4.10608,0 4.44372,3.85722 4.44372,6.25686 0,0.5688 0,0.90651 0,1.24425"
     id="path114"
     style="stroke-width:1.1376" />
  <path
     class="Note"
     d="m 188.25863,139.48024 c -15.6953,0 -21.27665,7.96326 -21.27665,15.35766 0,7.3944 5.58135,15.35765 21.27665,15.35765 15.69535,0 21.1523,-7.96325 21.1523,-15.35765 0,-7.3944 -5.45695,-15.35766 -21.1523,-15.35766 m 5.7947,26.37816 c -1.36864,0.46215 -3.18175,0.69319 -4.88815,0.69319 -3.18175,0 -5.35025,-0.90649 -6.8256,-3.75049 -1.47535,-2.844 -3.51939,-10.13175 -3.64385,-13.20684 -0.23104,-3.07506 0.90656,-4.88811 3.64385,-5.79465 1.36865,-0.46211 3.18175,-0.69327 4.88815,-0.69327 3.18176,0 5.24366,0.69327 6.8256,3.76836 1.5997,3.0573 3.64385,10.34505 3.64385,13.18905 0,2.95065 -0.90655,5.01255 -3.64385,5.79465"
     id="path178"
     style="stroke-width:1.1376" />
  <path
     class="Note"
     d="m 391.01863,125.26024 c -15.6953,0 -21.27665,7.96326 -21.27665,15.35766 0,7.3944 5.58135,15.35765 21.27665,15.35765 15.69535,0 21.1523,-7.96325 21.1523,-15.35765 0,-7.3944 -5.45695,-15.35766 -21.1523,-15.35766 m 5.7947,26.37816 c -1.36864,0.46215 -3.18175,0.69319 -4.88815,0.69319 -3.18175,0 -5.35025,-0.90649 -6.8256,-3.75049 -1.47535,-2.844 -3.51939,-10.13175 -3.64385,-13.20684 -0.23104,-3.07506 0.90656,-4.88811 3.64385,-5.79465 1.36865,-0.46211 3.18175,-0.69327 4.88815,-0.69327 3.18176,0 5.24366,0.69327 6.8256,3.76836 1.5997,3.0573 3.64385,10.34505 3.64385,13.18905 0,2.95065 -0.90655,5.01255 -3.64385,5.79465"
     id="path179"
     style="stroke-width:1.1376" />
  <path
     class="Note"
     d="m 593.77863,111.04024 c -15.6953,0 -21.27665,7.96326 -21.27665,15.35766 0,7.3944 5.58135,15.35765 21.27665,15.35765 15.69535,0 21.1523,-7.96325 21.1523,-15.35765 0,-7.3944 -5.45695,-15.35766 -21.1523,-15.35766 m 5.7947,26.37816 c -1.36864,0.46215 -3.18175,0.69319 -4.88815,0.69319 -3.18175,0 -5.35025,-0.90649 -6.8256,-3.75049 -1.47535,-2.844 -3.51939,-10.13175 -3.64385,-13.20684 -0.23104,-3.07506 0.90656,-4.88811 3.64385,-5.79465 1.36865,-0.46211 3.18175,-0.69327 4.88815,-0.69327 3.18176,0 5.24366,0.69327 6.8256,3.76836 1.5997,3.0573 3.64385,10.34505 3.64385,13.18905 0,2.95065 -0.90655,5.01255 -3.64385,5.79465"
     id="path180"
     style="stroke-width:1.1376" />
  <path
     class="Note"
     d="m 796.53863,96.820239 c -15.6953,0 -21.27665,7.963261 -21.27665,15.357661 0,7.3944 5.58135,15.35765 21.27665,15.35765 15.69535,0 21.1523,-7.96325 21.1523,-15.35765 0,-7.3944 -5.45695,-15.357661 -21.1523,-15.357661 m 5.7947,26.378161 c -1.36864,0.46215 -3.18175,0.69319 -4.88815,0.69319 -3.18175,0 -5.35025,-0.90649 -6.8256,-3.75049 -1.47535,-2.844 -3.51939,-10.13175 -3.64385,-13.20684 -0.23104,-3.07506 0.90656,-4.88811 3.64385,-5.79465 1.36865,-0.46211 3.18175,-0.69327 4.88815,-0.69327 3.18176,0 5.24366,0.69327 6.8256,3.76836 1.5997,3.0573 3.64385,10.34505 3.64385,13.18905 0,2.95065 -0.90655,5.01255 -3.64385,5.79465"
     id="path181"
     style="stroke-width:1.1376" />
  <path
     class="Note"
     d="m 999.29863,82.600239 c -15.6953,0 -21.27665,7.963257 -21.27665,15.357657 0,7.394404 5.58135,15.357654 21.27665,15.357654 15.69537,0 21.15227,-7.96325 21.15227,-15.357654 0,-7.3944 -5.4569,-15.357657 -21.15227,-15.357657 m 5.79467,26.378161 c -1.3686,0.46215 -3.1817,0.69319 -4.8881,0.69319 -3.18177,0 -5.35027,-0.90649 -6.82562,-3.75049 -1.47535,-2.844 -3.51939,-10.131754 -3.64385,-13.206835 -0.23104,-3.075069 0.90656,-4.888119 3.64385,-5.79465 1.36865,-0.462116 3.18175,-0.693276 4.88815,-0.693276 3.18177,0 5.24367,0.693276 6.82557,3.768357 1.5997,3.0573 3.6439,10.345054 3.6439,13.189054 0,2.95065 -0.9066,5.01255 -3.6439,5.79465"
     id="path182"
     style="stroke-width:1.1376" />
  <path
     class="Note"
     d="m 1202.0586,68.380239 c -15.6953,0 -21.2766,7.963257 -21.2766,15.357657 0,7.3944 5.5813,15.357656 21.2766,15.357656 15.6954,0 21.1523,-7.963256 21.1523,-15.357656 0,-7.3944 -5.4569,-15.357657 -21.1523,-15.357657 m 5.7947,26.378157 c -1.3686,0.46215 -3.1817,0.693196 -4.8881,0.693196 -3.1818,0 -5.3503,-0.906496 -6.8256,-3.750496 -1.4754,-2.844 -3.5194,-10.13175 -3.6439,-13.206831 -0.231,-3.075069 0.9066,-4.888119 3.6439,-5.79465 1.3686,-0.462116 3.1817,-0.693276 4.8881,-0.693276 3.1818,0 5.2437,0.693276 6.8256,3.768357 1.5997,3.0573 3.6439,10.34505 3.6439,13.18905 0,2.95065 -0.9066,5.01255 -3.6439,5.79465"
     id="path183"
     style="stroke-width:1.1376" />
  <path
     class="Note"
     d="m 1404.8186,54.160239 c -15.6953,0 -21.2766,7.963257 -21.2766,15.357657 0,7.3944 5.5813,15.357656 21.2766,15.357656 15.6954,0 21.1523,-7.963256 21.1523,-15.357656 0,-7.3944 -5.4569,-15.357657 -21.1523,-15.357657 m 5.7947,26.378157 c -1.3686,0.46215 -3.1817,0.693196 -4.8881,0.693196 -3.1818,0 -5.3503,-0.906496 -6.8256,-3.750496 -1.4754,-2.844 -3.5194,-10.13175 -3.6439,-13.206831 -0.231,-3.075069 0.9066,-4.888119 3.6439,-5.79465 1.3686,-0.462116 3.1817,-0.693276 4.8881,-0.693276 3.1818,0 5.2437,0.693276 6.8256,3.768357 1.5997,3.0573 3.6439,10.34505 3.6439,13.18905 0,2.95065 -0.9066,5.01255 -3.6439,5.79465"
     id="path184"
     style="stroke-width:1.1376" />
  <path
     class="Note"
     d="m 1607.5786,39.940239 c -15.6953,0 -21.2766,7.963257 -21.2766,15.357657 0,7.3944 5.5813,15.357656 21.2766,15.357656 15.6954,0 21.1523,-7.963256 21.1523,-15.357656 0,-7.3944 -5.4569,-15.357657 -21.1523,-15.357657 m 5.7947,26.378157 c -1.3686,0.46215 -3.1817,0.693196 -4.8881,0.693196 -3.1818,0 -5.3503,-0.906496 -6.8256,-3.750496 -1.4754,-2.844 -3.5194,-10.13175 -3.6439,-13.206831 -0.231,-3.075069 0.9066,-4.888119 3.6439,-5.79465 1.3686,-0.462116 3.1817,-0.693276 4.8881,-0.693276 3.1818,0 5.2437,0.693276 6.8256,3.768357 1.5997,3.0573 3.6439,10.34505 3.6439,13.18905 0,2.95065 -0.9066,5.01255 -3.6439,5.79465"
     id="path189"
     style="stroke-width:1.1376" />
  <path
     class="Clef"
     d="m 85.266626,128.8864 c 0,8.08763 -3.306093,16.38855 -11.376,19.69475 -2.381793,-13.65125 -5.45684,-31.7462 -6.2568,-36.75881 10.2384,0 17.6328,6.95007 17.6328,17.06406 m -16.157447,21.04565 c -2.2752,0.4621 -4.425946,0.69314 -6.594553,0.69314 -16.26404,0 -30.146366,-11.376 -30.146366,-28.56439 0,-13.86456 9.776273,-26.271454 19.801373,-34.927908 1.9197,-1.7064 3.750553,-3.288346 5.456953,-4.994746 1.013147,6.132346 1.812993,11.482593 2.61284,16.157446 -10.36274,3.075048 -17.40164,13.988958 -17.40164,24.689508 0,7.9632 6.2568,18.87705 15.3576,18.87705 0.90644,0 1.937447,-0.4621 1.937447,-1.47536 0,-1.03089 -1.1376,-1.59969 -2.506247,-2.50624 -4.443807,-2.73735 -6.950053,-5.688 -6.950053,-11.26935 0,-6.93225 5.1192,-12.51366 11.838093,-14.09561 l 6.594553,37.41646 M 59.101826,32.990299 c 1.031007,-4.5504 6.2568,-16.4952 12.17596,-16.4952 1.7064,0 4.425947,5.563547 4.425947,13.42004 0,11.838207 -8.7453,20.70796 -16.601907,28.44 -0.675393,-4.5504 -1.244193,-8.976347 -1.244193,-13.757793 0,-4.212647 0.337753,-8.087654 1.244193,-11.607047 M 35.212226,184.8599 c 0,7.51885 5.794707,17.4195 21.152307,17.4195 5.350246,0 10.0251,-1.36865 14.113293,-3.87501 6.150207,-4.31924 7.732153,-11.83809 7.732153,-19.00144 0,-4.42595 -0.675393,-9.54515 -1.812993,-16.033 -0.337753,-2.2752 -1.031007,-5.688 -1.7064,-10.1318 11.14484,-3.64385 19.445793,-15.2509 19.445793,-26.96468 0,-17.17068 -12.175846,-28.777724 -28.777753,-28.777724 -1.1376,-6.8256 -2.2752,-13.544607 -3.306093,-19.908 12.069253,-12.638054 20.370093,-26.858054 20.370093,-44.9352 0,-10.362854 -3.18164,-18.7704 -5.012493,-22.8759985 C 74.690586,3.9816131 71.384379,1.3100462e-5 69.340226,1.3100462e-5 c -0.799847,0 -4.31924,1.368532799538 -8.069793,5.794934399538 -7.287807,8.6559985 -9.331847,23.2137515 -9.331847,32.7588985 0,6.150093 0.5688,11.7315 2.506247,24.476146 -0.124454,0.106707 -6.0435,6.132347 -8.425407,8.069907 -10.36274,9.6696 -24.689447,23.427393 -24.689447,46.197201 0,21.25895 18.539354,37.9852 39.709407,37.9852 3.288347,0 6.363393,-0.33775 8.976347,-0.79985 2.168493,10.93154 3.4128,18.89474 3.4128,24.9205 0,11.8382 -6.025754,18.095 -17.508347,18.095 -2.737407,0 -5.1192,-0.5688 -5.35036,-0.5688 -0.106593,-0.12445 -0.33764,-0.23116 -0.33764,-0.33775 0,-0.23105 0.231047,-0.3555 0.5688,-0.46221 5.350247,-0.79984 10.682747,-5.35024 10.682747,-12.62019 0,-6.15021 -4.657107,-12.63805 -13.189107,-12.63805 -7.9632,0 -13.0824,6.48784 -13.0824,13.98895"
     id="path192"
     style="stroke-width:1.1376" />
</svg>
