<?xml version="1.0" encoding="UTF-8" standalone="no"?>
<svg
   width="127.88633mm"
   height="14.271933mm"
   viewBox="0 0 1812.5622 202.27936"
   version="1.2"
   id="svg175"
   xmlns="http://www.w3.org/2000/svg"
   xmlns:svg="http://www.w3.org/2000/svg">
  <defs
     id="defs175" />
  <title
     id="title1">major scales (1)</title>
  <desc
     id="desc1">Generated by MuseScore Studio 4.5.2</desc>
  <polyline
     class="StaffLines"
     fill="none"
     stroke="#000000"
     stroke-width="3.13"
     stroke-linejoin="bevel"
     points="952.038,3682.96 2764.6,3682.96"
     id="polyline41"
     transform="translate(-952.03802,-3641.7754)" />
  <polyline
     class="StaffLines"
     fill="none"
     stroke="#000000"
     stroke-width="3.13"
     stroke-linejoin="bevel"
     points="952.038,3711.4 2764.6,3711.4"
     id="polyline42"
     transform="translate(-952.03802,-3641.7754)" />
  <polyline
     class="StaffLines"
     fill="none"
     stroke="#000000"
     stroke-width="3.13"
     stroke-linejoin="bevel"
     points="952.038,3739.84 2764.6,3739.84"
     id="polyline43"
     transform="translate(-952.03802,-3641.7754)" />
  <polyline
     class="StaffLines"
     fill="none"
     stroke="#000000"
     stroke-width="3.13"
     stroke-linejoin="bevel"
     points="952.038,3768.28 2764.6,3768.28"
     id="polyline44"
     transform="translate(-952.03802,-3641.7754)" />
  <polyline
     class="StaffLines"
     fill="none"
     stroke="#000000"
     stroke-width="3.13"
     stroke-linejoin="bevel"
     points="952.038,3796.72 2764.6,3796.72"
     id="polyline45"
     transform="translate(-952.03802,-3641.7754)" />
  <polyline
     class="BarLine"
     fill="none"
     stroke="#000000"
     stroke-width="5.12"
     stroke-linejoin="bevel"
     points="2746.4,3681.4 2746.4,3798.29"
     id="polyline66"
     transform="translate(-952.03802,-3641.7754)" />
  <polyline
     class="BarLine"
     fill="none"
     stroke="#000000"
     stroke-width="5.12"
     stroke-linejoin="bevel"
     points="2762.04,3681.4 2762.04,3798.29"
     id="polyline67"
     transform="translate(-952.03802,-3641.7754)" />
  <path
     class="Accidental"
     d="m 163.28453,128.7798 c 0.69326,-0.10671 1.26206,-0.90656 1.26206,-1.59981 v -6.70115 c 0,-0.90655 -0.69326,-1.59969 -1.59981,-1.59969 -0.10659,0 -0.10659,0 -0.23105,0 l -3.75055,0.79985 v -16.95741 h -3.18175 v 17.6328 l -10.13172,2.0619 v -16.05074 h -3.18173 v 16.72625 l -4.44375,0.90655 c -0.67545,0.12434 -1.24425,0.90644 -1.24425,1.59969 v 0.23105 6.59458 -0.23107 c 0,0.90652 0.67545,1.59975 1.59975,1.59975 0.10665,0 0.2133,0 0.33773,0 l 3.75052,-0.79988 v 18.77041 l -4.44375,0.90652 c -0.67545,0.1067 -1.24425,0.90655 -1.24425,1.5998 v 6.59444 c 0,0.90656 0.67545,1.58206 1.59975,1.58206 0.10665,0 0.2133,0 0.33773,0 l 3.75052,-0.7821 v 16.93955 h 3.18173 v -17.6328 l 10.13172,-2.04415 v 16.05085 h 3.18175 V 158.2508 l 4.31935,-0.79996 c 0.69326,-0.12434 1.26206,-0.90644 1.26206,-1.59969 v -6.7012 c 0,-0.9243 -0.69326,-1.59975 -1.59981,-1.59975 -0.10659,0 -0.10659,0 -0.23105,0 l -3.75055,0.79988 v -18.77041 l 4.31935,-0.79987 m -17.63282,3.51945 10.13172,-2.04413 v 18.77041 l -10.13172,2.16855 v -18.89483"
     id="path84"
     style="stroke-width:1.1376" />
  <path
     class="Accidental"
     d="m 365.46453,114.5598 c 0.69326,-0.10671 1.26206,-0.90656 1.26206,-1.59981 v -6.70115 c 0,-0.90655 -0.69326,-1.59969 -1.59981,-1.59969 -0.10659,0 -0.10659,0 -0.23105,0 l -3.75055,0.79985 V 88.501585 h -3.18175 v 17.632805 l -10.13172,2.0619 V 92.145545 h -3.18173 V 108.8718 l -4.44375,0.90655 c -0.67545,0.12434 -1.24425,0.90644 -1.24425,1.59969 v 0.23105 6.59458 -0.23107 c 0,0.90652 0.67545,1.59975 1.59975,1.59975 0.10665,0 0.2133,0 0.33773,0 l 3.75052,-0.79988 v 18.77041 l -4.44375,0.90652 c -0.67545,0.1067 -1.24425,0.90655 -1.24425,1.5998 v 6.59444 c 0,0.90656 0.67545,1.58206 1.59975,1.58206 0.10665,0 0.2133,0 0.33773,0 l 3.75052,-0.7821 v 16.93955 h 3.18173 v -17.6328 l 10.13172,-2.04415 v 16.05085 h 3.18175 V 144.0308 l 4.31935,-0.79996 c 0.69326,-0.12434 1.26206,-0.90644 1.26206,-1.59969 v -6.7012 c 0,-0.9243 -0.69326,-1.59975 -1.59981,-1.59975 -0.10659,0 -0.10659,0 -0.23105,0 l -3.75055,0.79988 v -18.77041 l 4.31935,-0.79987 m -17.63282,3.51945 10.13172,-2.04413 v 18.77041 l -10.13172,2.16855 v -18.89483"
     id="path85"
     style="stroke-width:1.1376" />
  <path
     class="Accidental"
     d="m 567.63453,100.3398 c 0.69326,-0.10671 1.26206,-0.906561 1.26206,-1.599815 v -6.701146 c 0,-0.906554 -0.69326,-1.599694 -1.59981,-1.599694 -0.10659,0 -0.10659,0 -0.23105,0 l -3.75055,0.799847 V 74.281585 h -3.18175 v 17.6328 l -10.13172,2.0619 v -16.05074 h -3.18173 v 16.726247 l -4.44375,0.906553 c -0.67545,0.12434 -1.24425,0.90644 -1.24425,1.599694 v 0.231046 6.594585 -0.23107 c 0,0.90652 0.67545,1.59975 1.59975,1.59975 0.10665,0 0.2133,0 0.33773,0 l 3.75052,-0.79988 v 18.77041 l -4.44375,0.90652 c -0.67545,0.1067 -1.24425,0.90655 -1.24425,1.5998 v 6.59444 c 0,0.90656 0.67545,1.58206 1.59975,1.58206 0.10665,0 0.2133,0 0.33773,0 l 3.75052,-0.7821 v 16.93955 h 3.18173 v -17.6328 l 10.13172,-2.04415 v 16.05085 h 3.18175 V 129.8108 l 4.31935,-0.79996 c 0.69326,-0.12434 1.26206,-0.90644 1.26206,-1.59969 v -6.7012 c 0,-0.9243 -0.69326,-1.59975 -1.59981,-1.59975 -0.10659,0 -0.10659,0 -0.23105,0 l -3.75055,0.79988 v -18.77041 l 4.31935,-0.79987 m -17.63282,3.51945 10.13172,-2.04413 v 18.77041 l -10.13172,2.16855 v -18.89483"
     id="path86"
     style="stroke-width:1.1376" />
  <path
     class="Accidental"
     d="m 971.99453,71.899792 c 0.69326,-0.106707 1.26206,-0.906553 1.26206,-1.599807 v -6.701146 c 0,-0.906554 -0.69326,-1.599694 -1.59981,-1.599694 -0.10659,0 -0.10659,0 -0.23105,0 l -3.75055,0.799847 V 45.841585 h -3.18175 v 17.6328 l -10.13172,2.0619 v -16.05074 h -3.18173 v 16.726247 l -4.44375,0.906553 c -0.67545,0.12434 -1.24425,0.90644 -1.24425,1.599694 v 0.231046 6.594576 -0.231069 c 0,0.906519 0.67545,1.59975 1.59975,1.59975 0.10665,0 0.2133,0 0.33773,0 l 3.75052,-0.799881 v 18.770412 l -4.44375,0.906519 c -0.67545,0.106707 -1.24425,0.906553 -1.24425,1.599807 v 6.594441 c 0,0.90656 0.67545,1.58206 1.59975,1.58206 0.10665,0 0.2133,0 0.33773,0 l 3.75052,-0.7821 v 16.93955 h 3.18173 v -17.6328 l 10.13172,-2.04415 v 16.05085 h 3.18175 V 101.3708 l 4.31935,-0.79996 c 0.69326,-0.12434 1.26206,-0.906441 1.26206,-1.599695 v -6.701203 c 0,-0.9243 -0.69326,-1.59975 -1.59981,-1.59975 -0.10659,0 -0.10659,0 -0.23105,0 l -3.75055,0.799881 V 72.699661 l 4.31935,-0.799869 m -17.63282,3.51945 10.13172,-2.044131 v 18.770412 l -10.13172,2.16855 V 75.419242"
     id="path87"
     style="stroke-width:1.1376" />
  <path
     class="Accidental"
     d="m 1174.1745,57.679792 c 0.6933,-0.106707 1.2621,-0.906553 1.2621,-1.599807 v -6.701146 c 0,-0.906554 -0.6933,-1.599694 -1.5998,-1.599694 -0.1066,0 -0.1066,0 -0.2311,0 l -3.7505,0.799847 V 31.621585 h -3.1818 v 17.6328 l -10.1317,2.0619 v -16.05074 h -3.1817 v 16.726247 l -4.4438,0.906553 c -0.6754,0.12434 -1.2442,0.90644 -1.2442,1.599694 v 0.231046 6.594576 -0.231069 c 0,0.906519 0.6754,1.59975 1.5997,1.59975 0.1067,0 0.2133,0 0.3378,0 l 3.7505,-0.799881 v 18.770412 l -4.4438,0.906519 c -0.6754,0.106707 -1.2442,0.906553 -1.2442,1.599807 v 6.59444 c 0,0.906553 0.6754,1.58206 1.5997,1.58206 0.1067,0 0.2133,0 0.3378,0 l 3.7505,-0.7821 v 16.939551 h 3.1817 V 89.870345 l 10.1317,-2.044153 v 16.050858 h 3.1818 V 87.150799 l 4.3193,-0.79996 c 0.6933,-0.12434 1.2621,-0.90644 1.2621,-1.599694 v -6.701203 c 0,-0.9243 -0.6933,-1.59975 -1.5998,-1.59975 -0.1066,0 -0.1066,0 -0.2311,0 l -3.7505,0.799881 V 58.479661 l 4.3193,-0.799869 m -17.6328,3.51945 10.1317,-2.044131 v 18.770412 l -10.1317,2.16855 V 61.199242"
     id="path88"
     style="stroke-width:1.1376" />
  <path
     class="Accidental"
     d="m 1376.3545,43.459792 c 0.6933,-0.106707 1.2621,-0.906553 1.2621,-1.599807 v -6.701146 c 0,-0.906554 -0.6933,-1.599694 -1.5998,-1.599694 -0.1066,0 -0.1066,0 -0.2311,0 l -3.7505,0.799847 V 17.401585 h -3.1818 v 17.6328 l -10.1317,2.0619 v -16.05074 h -3.1817 v 16.726247 l -4.4438,0.906553 c -0.6754,0.12434 -1.2442,0.90644 -1.2442,1.599694 v 0.231046 6.594576 -0.231069 c 0,0.906519 0.6754,1.59975 1.5997,1.59975 0.1067,0 0.2133,0 0.3378,0 l 3.7505,-0.799881 v 18.770412 l -4.4438,0.906519 c -0.6754,0.106707 -1.2442,0.906553 -1.2442,1.599807 v 6.59444 c 0,0.906553 0.6754,1.58206 1.5997,1.58206 0.1067,0 0.2133,0 0.3378,0 l 3.7505,-0.7821 v 16.939546 h 3.1817 v -17.6328 l 10.1317,-2.044153 v 16.050853 h 3.1818 V 72.930799 l 4.3193,-0.79996 c 0.6933,-0.12434 1.2621,-0.90644 1.2621,-1.599694 v -6.701203 c 0,-0.9243 -0.6933,-1.59975 -1.5998,-1.59975 -0.1066,0 -0.1066,0 -0.2311,0 l -3.7505,0.799881 V 44.259661 l 4.3193,-0.799869 m -17.6328,3.51945 10.1317,-2.044131 v 18.770412 l -10.1317,2.16855 V 46.979242"
     id="path89"
     style="stroke-width:1.1376" />
  <path
     class="Accidental"
     d="m 1578.5345,29.239792 c 0.6933,-0.106707 1.2621,-0.906553 1.2621,-1.599807 v -6.701146 c 0,-0.906554 -0.6933,-1.599694 -1.5998,-1.599694 -0.1066,0 -0.1066,0 -0.2311,0 l -3.7505,0.799847 V 3.181585 h -3.1818 v 17.6328 l -10.1317,2.0619 V 6.8255454 H 1557.72 V 23.551792 l -4.4438,0.906553 c -0.6754,0.12434 -1.2442,0.90644 -1.2442,1.599694 v 0.231046 6.594576 -0.231069 c 0,0.906519 0.6754,1.59975 1.5997,1.59975 0.1067,0 0.2133,0 0.3378,0 l 3.7505,-0.799881 v 18.770412 l -4.4438,0.906519 c -0.6754,0.106707 -1.2442,0.906553 -1.2442,1.599807 v 6.59444 c 0,0.906553 0.6754,1.58206 1.5997,1.58206 0.1067,0 0.2133,0 0.3378,0 l 3.7505,-0.7821 v 16.939546 h 3.1817 v -17.6328 l 10.1317,-2.044153 v 16.050853 h 3.1818 V 58.710799 l 4.3193,-0.79996 c 0.6933,-0.12434 1.2621,-0.90644 1.2621,-1.599694 v -6.701203 c 0,-0.9243 -0.6933,-1.59975 -1.5998,-1.59975 -0.1066,0 -0.1066,0 -0.2311,0 l -3.7505,0.799881 V 30.039661 l 4.3193,-0.799869 m -17.6328,3.51945 10.1317,-2.044131 v 18.770412 l -10.1317,2.16855 V 32.759242"
     id="path90"
     style="stroke-width:1.1376" />
  <path
     class="Note"
     d="m 395.08863,111.04029 c -15.6953,0 -21.27665,7.96326 -21.27665,15.35766 0,7.3944 5.58135,15.35765 21.27665,15.35765 15.69535,0 21.1523,-7.96325 21.1523,-15.35765 0,-7.3944 -5.45695,-15.35766 -21.1523,-15.35766 m 5.7947,26.37816 c -1.36864,0.46215 -3.18175,0.69319 -4.88815,0.69319 -3.18175,0 -5.35025,-0.90649 -6.8256,-3.75049 -1.47535,-2.844 -3.51939,-10.13175 -3.64385,-13.20683 -0.23104,-3.07507 0.90656,-4.88812 3.64385,-5.79465 1.36865,-0.46212 3.18175,-0.69328 4.88815,-0.69328 3.18176,0 5.24366,0.69328 6.8256,3.76836 1.5997,3.0573 3.64385,10.34505 3.64385,13.18905 0,2.95065 -0.90655,5.01255 -3.64385,5.79465"
     id="path143"
     style="stroke-width:1.1376" />
  <path
     class="Note"
     d="m 597.26863,96.820285 c -15.6953,0 -21.27665,7.963265 -21.27665,15.357665 0,7.3944 5.58135,15.35765 21.27665,15.35765 15.69535,0 21.1523,-7.96325 21.1523,-15.35765 0,-7.3944 -5.45695,-15.357665 -21.1523,-15.357665 m 5.7947,26.378165 c -1.36864,0.46215 -3.18175,0.69319 -4.88815,0.69319 -3.18175,0 -5.35025,-0.90649 -6.8256,-3.75049 -1.47535,-2.844 -3.51939,-10.13175 -3.64385,-13.20683 -0.23104,-3.07507 0.90656,-4.88812 3.64385,-5.79465 1.36865,-0.46212 3.18175,-0.69328 4.88815,-0.69328 3.18176,0 5.24366,0.69328 6.8256,3.76836 1.5997,3.0573 3.64385,10.34505 3.64385,13.18905 0,2.95065 -0.90655,5.01255 -3.64385,5.79465"
     id="path145"
     style="stroke-width:1.1376" />
  <path
     class="Note"
     d="m 799.44863,82.600285 c -15.6953,0 -21.27665,7.963257 -21.27665,15.357657 0,7.394408 5.58135,15.357658 21.27665,15.357658 15.69535,0 21.1523,-7.96325 21.1523,-15.357658 0,-7.3944 -5.45695,-15.357657 -21.1523,-15.357657 m 5.7947,26.378165 c -1.36864,0.46215 -3.18175,0.69319 -4.88815,0.69319 -3.18175,0 -5.35025,-0.90649 -6.8256,-3.75049 -1.47535,-2.844 -3.51939,-10.131758 -3.64385,-13.206839 -0.23104,-3.075069 0.90656,-4.888119 3.64385,-5.79465 1.36865,-0.462116 3.18175,-0.693276 4.88815,-0.693276 3.18176,0 5.24366,0.693276 6.8256,3.768357 1.5997,3.0573 3.64385,10.345058 3.64385,13.189058 0,2.95065 -0.90655,5.01255 -3.64385,5.79465"
     id="path147"
     style="stroke-width:1.1376" />
  <path
     class="Note"
     d="m 1001.6286,68.380285 c -15.69527,0 -21.27662,7.963257 -21.27662,15.357657 0,7.3944 5.58135,15.357657 21.27662,15.357657 15.6954,0 21.1523,-7.963257 21.1523,-15.357657 0,-7.3944 -5.4569,-15.357657 -21.1523,-15.357657 m 5.7947,26.378157 c -1.3686,0.46215 -3.1817,0.693197 -4.8881,0.693197 -3.18177,0 -5.35027,-0.906497 -6.82562,-3.750497 -1.47535,-2.844 -3.51939,-10.13175 -3.64385,-13.206831 -0.23104,-3.075069 0.90656,-4.888119 3.64385,-5.79465 1.36865,-0.462116 3.18175,-0.693276 4.88812,-0.693276 3.1818,0 5.2437,0.693276 6.8256,3.768357 1.5997,3.0573 3.6439,10.34505 3.6439,13.18905 0,2.95065 -0.9066,5.01255 -3.6439,5.79465"
     id="path148"
     style="stroke-width:1.1376" />
  <path
     class="Note"
     d="m 1203.8086,54.160285 c -15.6953,0 -21.2766,7.963257 -21.2766,15.357657 0,7.3944 5.5813,15.357657 21.2766,15.357657 15.6954,0 21.1523,-7.963257 21.1523,-15.357657 0,-7.3944 -5.4569,-15.357657 -21.1523,-15.357657 m 5.7947,26.378157 c -1.3686,0.46215 -3.1817,0.693197 -4.8881,0.693197 -3.1818,0 -5.3503,-0.906497 -6.8256,-3.750497 -1.4754,-2.844 -3.5194,-10.13175 -3.6439,-13.206831 -0.231,-3.075069 0.9066,-4.888119 3.6439,-5.79465 1.3686,-0.462116 3.1817,-0.693276 4.8881,-0.693276 3.1818,0 5.2437,0.693276 6.8256,3.768357 1.5997,3.0573 3.6439,10.34505 3.6439,13.18905 0,2.95065 -0.9066,5.01255 -3.6439,5.79465"
     id="path150"
     style="stroke-width:1.1376" />
  <path
     class="Note"
     d="m 1405.9886,39.940285 c -15.6953,0 -21.2766,7.963257 -21.2766,15.357657 0,7.3944 5.5813,15.357657 21.2766,15.357657 15.6954,0 21.1523,-7.963257 21.1523,-15.357657 0,-7.3944 -5.4569,-15.357657 -21.1523,-15.357657 m 5.7947,26.378157 c -1.3686,0.46215 -3.1817,0.693197 -4.8881,0.693197 -3.1818,0 -5.3503,-0.906497 -6.8256,-3.750497 -1.4754,-2.844 -3.5194,-10.13175 -3.6439,-13.206831 -0.231,-3.075069 0.9066,-4.888119 3.6439,-5.79465 1.3686,-0.462116 3.1817,-0.693276 4.8881,-0.693276 3.1818,0 5.2437,0.693276 6.8256,3.768357 1.5997,3.0573 3.6439,10.34505 3.6439,13.18905 0,2.95065 -0.9066,5.01255 -3.6439,5.79465"
     id="path152"
     style="stroke-width:1.1376" />
  <path
     class="Note"
     d="m 1608.1586,25.720285 c -15.6953,0 -21.2766,7.963257 -21.2766,15.357657 0,7.3944 5.5813,15.357657 21.2766,15.357657 15.6954,0 21.1523,-7.963257 21.1523,-15.357657 0,-7.3944 -5.4569,-15.357657 -21.1523,-15.357657 m 5.7947,26.378157 c -1.3686,0.46215 -3.1817,0.693197 -4.8881,0.693197 -3.1818,0 -5.3503,-0.906497 -6.8256,-3.750497 -1.4754,-2.844 -3.5194,-10.13175 -3.6439,-13.206831 -0.231,-3.075069 0.9066,-4.888119 3.6439,-5.79465 1.3686,-0.462116 3.1817,-0.693276 4.8881,-0.693276 3.1818,0 5.2437,0.693276 6.8256,3.768357 1.5997,3.0573 3.6439,10.34505 3.6439,13.18905 0,2.95065 -0.9066,5.01255 -3.6439,5.79465"
     id="path154"
     style="stroke-width:1.1376" />
  <path
     class="Note"
     d="m 192.90863,125.26029 c -15.6953,0 -21.27665,7.96326 -21.27665,15.35766 0,7.3944 5.58135,15.35765 21.27665,15.35765 15.69535,0 21.1523,-7.96325 21.1523,-15.35765 0,-7.3944 -5.45695,-15.35766 -21.1523,-15.35766 m 5.7947,26.37816 c -1.36864,0.46215 -3.18175,0.69319 -4.88815,0.69319 -3.18175,0 -5.35025,-0.90649 -6.8256,-3.75049 -1.47535,-2.844 -3.51939,-10.13175 -3.64385,-13.20683 -0.23104,-3.07507 0.90656,-4.88812 3.64385,-5.79465 1.36865,-0.46212 3.18175,-0.69328 4.88815,-0.69328 3.18176,0 5.24366,0.69328 6.8256,3.76836 1.5997,3.0573 3.64385,10.34505 3.64385,13.18905 0,2.95065 -0.90655,5.01255 -3.64385,5.79465"
     id="path156"
     style="stroke-width:1.1376" />
  <path
     class="Clef"
     d="m 85.266626,128.88645 c 0,8.08763 -3.306093,16.38855 -11.376,19.69475 -2.381793,-13.65125 -5.45684,-31.7462 -6.2568,-36.75881 10.2384,0 17.6328,6.95008 17.6328,17.06406 M 69.109179,149.9321 c -2.2752,0.4621 -4.425946,0.69314 -6.594553,0.69314 -16.26404,0 -30.146366,-11.376 -30.146366,-28.56439 0,-13.86456 9.776273,-26.271458 19.801373,-34.927911 1.9197,-1.7064 3.750553,-3.288347 5.456953,-4.994747 1.013147,6.132347 1.812993,11.482593 2.61284,16.157447 -10.36274,3.075051 -17.40164,13.988961 -17.40164,24.689511 0,7.9632 6.2568,18.87705 15.3576,18.87705 0.90644,0 1.937447,-0.4621 1.937447,-1.47536 0,-1.03089 -1.1376,-1.59969 -2.506247,-2.50624 -4.443807,-2.73735 -6.950053,-5.688 -6.950053,-11.26935 0,-6.93225 5.1192,-12.51366 11.838093,-14.09561 l 6.594553,37.41646 M 59.101826,32.990345 c 1.031007,-4.5504 6.2568,-16.4952 12.17596,-16.4952 1.7064,0 4.425947,5.563547 4.425947,13.42004 0,11.838207 -8.7453,20.70796 -16.601907,28.44 -0.675393,-4.5504 -1.244193,-8.976346 -1.244193,-13.757793 0,-4.212647 0.337753,-8.087653 1.244193,-11.607047 m -23.8896,151.869605 c 0,7.51885 5.794707,17.4195 21.152307,17.4195 5.350246,0 10.0251,-1.36865 14.113293,-3.87501 6.150207,-4.31924 7.732153,-11.83809 7.732153,-19.00144 0,-4.42595 -0.675393,-9.54515 -1.812993,-16.033 -0.337753,-2.2752 -1.031007,-5.688 -1.7064,-10.1318 11.14484,-3.64385 19.445793,-15.2509 19.445793,-26.96468 0,-17.17068 -12.175846,-28.777728 -28.777753,-28.777728 -1.1376,-6.8256 -2.2752,-13.544607 -3.306093,-19.908 12.069253,-12.638053 20.370093,-26.858053 20.370093,-44.9352 0,-10.362853 -3.18164,-18.7704 -5.012493,-22.8759985 C 74.690586,3.9816591 71.384379,5.9158464e-5 69.340226,5.9158464e-5 c -0.799847,0 -4.31924,1.368532741536 -8.069793,5.794934341536 -7.287807,8.6559985 -9.331847,23.2137515 -9.331847,32.7588985 0,6.150093 0.5688,11.7315 2.506247,24.476147 -0.124454,0.106706 -6.0435,6.132346 -8.425407,8.069906 -10.36274,9.6696 -24.689447,23.427394 -24.689447,46.197205 0,21.25895 18.539354,37.9852 39.709407,37.9852 3.288347,0 6.363393,-0.33775 8.976347,-0.79985 2.168493,10.93154 3.4128,18.89474 3.4128,24.9205 0,11.8382 -6.025754,18.095 -17.508347,18.095 -2.737407,0 -5.1192,-0.5688 -5.35036,-0.5688 -0.106593,-0.12445 -0.33764,-0.23116 -0.33764,-0.33775 0,-0.23105 0.231047,-0.3555 0.5688,-0.46221 5.350247,-0.79984 10.682747,-5.35024 10.682747,-12.62019 0,-6.15021 -4.657107,-12.63805 -13.189107,-12.63805 -7.9632,0 -13.0824,6.48784 -13.0824,13.98895"
     id="path158"
     style="stroke-width:1.1376" />
</svg>
