<?xml version="1.0" encoding="UTF-8" standalone="no"?>
<svg
   width="127.88633mm"
   height="14.271933mm"
   viewBox="0 0 1812.5622 202.27936"
   version="1.2"
   id="svg204"
   xmlns="http://www.w3.org/2000/svg"
   xmlns:svg="http://www.w3.org/2000/svg">
  <defs
     id="defs204" />
  <title
     id="title1">major scales (2)</title>
  <desc
     id="desc1">Generated by MuseScore Studio 4.5.2</desc>
  <polyline
     class="StaffLines"
     fill="none"
     stroke="#000000"
     stroke-width="3.13"
     stroke-linejoin="bevel"
     points="952.038,775.154 2764.6,775.154"
     id="polyline6"
     transform="translate(-952.03802,-733.96949)" />
  <polyline
     class="StaffLines"
     fill="none"
     stroke="#000000"
     stroke-width="3.13"
     stroke-linejoin="bevel"
     points="952.038,803.594 2764.6,803.594"
     id="polyline7"
     transform="translate(-952.03802,-733.96949)" />
  <polyline
     class="StaffLines"
     fill="none"
     stroke="#000000"
     stroke-width="3.13"
     stroke-linejoin="bevel"
     points="952.038,832.034 2764.6,832.034"
     id="polyline8"
     transform="translate(-952.03802,-733.96949)" />
  <polyline
     class="StaffLines"
     fill="none"
     stroke="#000000"
     stroke-width="3.13"
     stroke-linejoin="bevel"
     points="952.038,860.474 2764.6,860.474"
     id="polyline9"
     transform="translate(-952.03802,-733.96949)" />
  <polyline
     class="StaffLines"
     fill="none"
     stroke="#000000"
     stroke-width="3.13"
     stroke-linejoin="bevel"
     points="952.038,888.914 2764.6,888.914"
     id="polyline10"
     transform="translate(-952.03802,-733.96949)" />
  <polyline
     class="BarLine"
     fill="none"
     stroke="#000000"
     stroke-width="5.12"
     stroke-linejoin="bevel"
     points="2746.4,773.59 2746.4,890.479"
     id="polyline65"
     transform="translate(-952.03802,-733.96949)" />
  <polyline
     class="BarLine"
     fill="none"
     stroke="#000000"
     stroke-width="5.12"
     stroke-linejoin="bevel"
     points="2762.04,773.59 2762.04,890.479"
     id="polyline66"
     transform="translate(-952.03802,-733.96949)" />
  <path
     class="Note"
     d="m 183.75863,125.26021 c -15.6953,0 -21.27665,7.96325 -21.27665,15.35765 0,7.3944 5.58135,15.35766 21.27665,15.35766 15.69535,0 21.1523,-7.96326 21.1523,-15.35766 0,-7.3944 -5.45695,-15.35765 -21.1523,-15.35765 m 5.7947,26.37815 c -1.36864,0.46215 -3.18175,0.6932 -4.88815,0.6932 -3.18175,0 -5.35025,-0.9065 -6.8256,-3.7505 -1.47535,-2.844 -3.51939,-10.13175 -3.64385,-13.20683 -0.23104,-3.07507 0.90656,-4.88812 3.64385,-5.79465 1.36865,-0.46211 3.18175,-0.69327 4.88815,-0.69327 3.18176,0 5.24366,0.69327 6.8256,3.76835 1.5997,3.0573 3.64385,10.34505 3.64385,13.18905 0,2.95065 -0.90655,5.01255 -3.64385,5.79465"
     id="path155"
     style="stroke-width:1.1376" />
  <path
     class="Note"
     d="m 387.07863,111.04021 c -15.6953,0 -21.27665,7.96325 -21.27665,15.35765 0,7.3944 5.58135,15.35766 21.27665,15.35766 15.69535,0 21.1523,-7.96326 21.1523,-15.35766 0,-7.3944 -5.45695,-15.35765 -21.1523,-15.35765 m 5.7947,26.37815 c -1.36864,0.46215 -3.18175,0.6932 -4.88815,0.6932 -3.18175,0 -5.35025,-0.9065 -6.8256,-3.7505 -1.47535,-2.844 -3.51939,-10.13175 -3.64385,-13.20683 -0.23104,-3.07507 0.90656,-4.88812 3.64385,-5.79465 1.36865,-0.46211 3.18175,-0.69327 4.88815,-0.69327 3.18176,0 5.24366,0.69327 6.8256,3.76835 1.5997,3.0573 3.64385,10.34505 3.64385,13.18905 0,2.95065 -0.90655,5.01255 -3.64385,5.79465"
     id="path156"
     style="stroke-width:1.1376" />
  <path
     class="Note"
     d="m 590.40863,96.820207 c -15.6953,0 -21.27665,7.963253 -21.27665,15.357653 0,7.3944 5.58135,15.35766 21.27665,15.35766 15.69535,0 21.1523,-7.96326 21.1523,-15.35766 0,-7.3944 -5.45695,-15.357653 -21.1523,-15.357653 m 5.7947,26.378153 c -1.36864,0.46215 -3.18175,0.6932 -4.88815,0.6932 -3.18175,0 -5.35025,-0.9065 -6.8256,-3.7505 -1.47535,-2.844 -3.51939,-10.13175 -3.64385,-13.20683 -0.23104,-3.07507 0.90656,-4.88812 3.64385,-5.79465 1.36865,-0.46211 3.18175,-0.69327 4.88815,-0.69327 3.18176,0 5.24366,0.69327 6.8256,3.76835 1.5997,3.0573 3.64385,10.34505 3.64385,13.18905 0,2.95065 -0.90655,5.01255 -3.64385,5.79465"
     id="path157"
     style="stroke-width:1.1376" />
  <path
     class="Note"
     d="m 793.72863,82.600207 c -15.6953,0 -21.27665,7.963257 -21.27665,15.357657 0,7.394396 5.58135,15.357656 21.27665,15.357656 15.69535,0 21.1523,-7.96326 21.1523,-15.357656 0,-7.3944 -5.45695,-15.357657 -21.1523,-15.357657 m 5.7947,26.378153 c -1.36864,0.46215 -3.18175,0.6932 -4.88815,0.6932 -3.18175,0 -5.35025,-0.9065 -6.8256,-3.7505 -1.47535,-2.844 -3.51939,-10.131746 -3.64385,-13.206827 -0.23104,-3.075069 0.90656,-4.888119 3.64385,-5.79465 1.36865,-0.462116 3.18175,-0.693276 4.88815,-0.693276 3.18176,0 5.24366,0.693276 6.8256,3.768357 1.5997,3.0573 3.64385,10.345046 3.64385,13.189046 0,2.95065 -0.90655,5.01255 -3.64385,5.79465"
     id="path158"
     style="stroke-width:1.1376" />
  <path
     class="Note"
     d="m 997.04863,68.380207 c -15.6953,0 -21.27665,7.963257 -21.27665,15.357657 0,7.3944 5.58135,15.357657 21.27665,15.357657 15.69537,0 21.15227,-7.963257 21.15227,-15.357657 0,-7.3944 -5.4569,-15.357657 -21.15227,-15.357657 m 5.79467,26.378157 c -1.3686,0.46215 -3.18172,0.693196 -4.88812,0.693196 -3.18175,0 -5.35025,-0.906496 -6.8256,-3.750496 -1.47535,-2.844 -3.51939,-10.13175 -3.64385,-13.206831 -0.23104,-3.075069 0.90656,-4.888119 3.64385,-5.79465 1.36865,-0.462116 3.18175,-0.693276 4.88815,-0.693276 3.18176,0 5.24367,0.693276 6.82557,3.768357 1.5997,3.0573 3.6439,10.34505 3.6439,13.18905 0,2.95065 -0.9066,5.01255 -3.6439,5.79465"
     id="path159"
     style="stroke-width:1.1376" />
  <path
     class="Note"
     d="m 1200.3686,54.160207 c -15.6953,0 -21.2766,7.963257 -21.2766,15.357657 0,7.3944 5.5813,15.357657 21.2766,15.357657 15.6954,0 21.1523,-7.963257 21.1523,-15.357657 0,-7.3944 -5.4569,-15.357657 -21.1523,-15.357657 m 5.7947,26.378157 c -1.3686,0.46215 -3.1817,0.693196 -4.8881,0.693196 -3.1818,0 -5.3503,-0.906496 -6.8256,-3.750496 -1.4754,-2.844 -3.5194,-10.13175 -3.6439,-13.206831 -0.231,-3.075069 0.9066,-4.888119 3.6439,-5.79465 1.3686,-0.462116 3.1817,-0.693276 4.8881,-0.693276 3.1818,0 5.2437,0.693276 6.8256,3.768357 1.5997,3.0573 3.6439,10.34505 3.6439,13.18905 0,2.95065 -0.9066,5.01255 -3.6439,5.79465"
     id="path161"
     style="stroke-width:1.1376" />
  <path
     class="Note"
     d="m 1403.6986,39.940207 c -15.6953,0 -21.2766,7.963257 -21.2766,15.357657 0,7.3944 5.5813,15.357657 21.2766,15.357657 15.6954,0 21.1523,-7.963257 21.1523,-15.357657 0,-7.3944 -5.4569,-15.357657 -21.1523,-15.357657 m 5.7947,26.378157 c -1.3686,0.46215 -3.1817,0.693196 -4.8881,0.693196 -3.1818,0 -5.3503,-0.906496 -6.8256,-3.750496 -1.4754,-2.844 -3.5194,-10.13175 -3.6439,-13.206831 -0.231,-3.075069 0.9066,-4.888119 3.6439,-5.79465 1.3686,-0.462116 3.1817,-0.693276 4.8881,-0.693276 3.1818,0 5.2437,0.693276 6.8256,3.768357 1.5997,3.0573 3.6439,10.34505 3.6439,13.18905 0,2.95065 -0.9066,5.01255 -3.6439,5.79465"
     id="path163"
     style="stroke-width:1.1376" />
  <path
     class="Note"
     d="m 1607.0186,25.720207 c -15.6953,0 -21.2766,7.963257 -21.2766,15.357657 0,7.3944 5.5813,15.357657 21.2766,15.357657 15.6954,0 21.1523,-7.963257 21.1523,-15.357657 0,-7.3944 -5.4569,-15.357657 -21.1523,-15.357657 m 5.7947,26.378157 c -1.3686,0.46215 -3.1817,0.693196 -4.8881,0.693196 -3.1818,0 -5.3503,-0.906496 -6.8256,-3.750496 -1.4754,-2.844 -3.5194,-10.13175 -3.6439,-13.206831 -0.231,-3.075069 0.9066,-4.888119 3.6439,-5.79465 1.3686,-0.462116 3.1817,-0.693276 4.8881,-0.693276 3.1818,0 5.2437,0.693276 6.8256,3.768357 1.5997,3.0573 3.6439,10.34505 3.6439,13.18905 0,2.95065 -0.9066,5.01255 -3.6439,5.79465"
     id="path165"
     style="stroke-width:1.1376" />
  <path
     class="Clef"
     d="m 85.266626,128.88636 c 0,8.08763 -3.306093,16.38855 -11.376,19.69476 -2.381793,-13.65126 -5.45684,-31.74621 -6.2568,-36.75881 10.2384,0 17.6328,6.95007 17.6328,17.06405 m -16.157447,21.04566 c -2.2752,0.46209 -4.425946,0.69314 -6.594553,0.69314 -16.26404,0 -30.146366,-11.376 -30.146366,-28.5644 0,-13.86455 9.776273,-26.271446 19.801373,-34.9279 1.9197,-1.7064 3.750553,-3.288346 5.456953,-4.994746 1.013147,6.132346 1.812993,11.482593 2.61284,16.157446 -10.36274,3.07505 -17.40164,13.98895 -17.40164,24.6895 0,7.9632 6.2568,18.87705 15.3576,18.87705 0.90644,0 1.937447,-0.46209 1.937447,-1.47535 0,-1.03089 -1.1376,-1.59969 -2.506247,-2.50625 -4.443807,-2.73735 -6.950053,-5.688 -6.950053,-11.26935 0,-6.93225 5.1192,-12.51365 11.838093,-14.0956 l 6.594553,37.41646 M 59.101826,32.990267 c 1.031007,-4.5504 6.2568,-16.4952 12.17596,-16.4952 1.7064,0 4.425947,5.563547 4.425947,13.42004 0,11.838207 -8.7453,20.70796 -16.601907,28.44 -0.675393,-4.5504 -1.244193,-8.976347 -1.244193,-13.757793 0,-4.212647 0.337753,-8.087654 1.244193,-11.607047 m -23.8896,151.869603 c 0,7.51885 5.794707,17.4195 21.152307,17.4195 5.350246,0 10.0251,-1.36865 14.113293,-3.87501 6.150207,-4.31924 7.732153,-11.83809 7.732153,-19.00145 0,-4.42594 -0.675393,-9.54514 -1.812993,-16.03299 -0.337753,-2.2752 -1.031007,-5.688 -1.7064,-10.13181 11.14484,-3.64384 19.445793,-15.25089 19.445793,-26.96467 0,-17.17068 -12.175846,-28.777726 -28.777753,-28.777726 -1.1376,-6.8256 -2.2752,-13.544607 -3.306093,-19.908 12.069253,-12.638054 20.370093,-26.858054 20.370093,-44.9352 0,-10.362854 -3.18164,-18.7704 -5.012493,-22.8759983 C 74.690586,3.9815813 71.384379,-1.8732032e-5 69.340226,-1.8732032e-5 c -0.799847,0 -4.31924,1.368532832032 -8.069793,5.794934432032 -7.287807,8.6559983 -9.331847,23.2137513 -9.331847,32.7588983 0,6.150093 0.5688,11.7315 2.506247,24.476146 -0.124454,0.106707 -6.0435,6.132347 -8.425407,8.069907 -10.36274,9.6696 -24.689447,23.427393 -24.689447,46.197193 0,21.25896 18.539354,37.98521 39.709407,37.98521 3.288347,0 6.363393,-0.33776 8.976347,-0.79985 2.168493,10.93154 3.4128,18.89474 3.4128,24.92049 0,11.83821 -6.025754,18.09501 -17.508347,18.09501 -2.737407,0 -5.1192,-0.5688 -5.35036,-0.5688 -0.106593,-0.12445 -0.33764,-0.23116 -0.33764,-0.33775 0,-0.23105 0.231047,-0.3555 0.5688,-0.46221 5.350247,-0.79985 10.682747,-5.35025 10.682747,-12.62019 0,-6.15021 -4.657107,-12.63806 -13.189107,-12.63806 -7.9632,0 -13.0824,6.48785 -13.0824,13.98896"
     id="path196"
     style="stroke-width:1.1376" />
</svg>
