<?xml version="1.0" encoding="UTF-8" standalone="no"?>
<svg
   width="127.88631mm"
   height="20.618189mm"
   viewBox="0 0 1812.562 292.2263"
   version="1.2"
   id="svg175"
   sodipodi:docname="gmaj1oct.svg"
   xmlns:inkscape="http://www.inkscape.org/namespaces/inkscape"
   xmlns:sodipodi="http://sodipodi.sourceforge.net/DTD/sodipodi-0.dtd"
   xmlns="http://www.w3.org/2000/svg"
   xmlns:svg="http://www.w3.org/2000/svg">
  <sodipodi:namedview
     id="namedview1"
     pagecolor="#505050"
     bordercolor="#eeeeee"
     borderopacity="1"
     inkscape:showpageshadow="0"
     inkscape:pageopacity="0"
     inkscape:pagecheckerboard="0"
     inkscape:deskcolor="#505050"
     inkscape:document-units="mm">
    <inkscape:page
       x="-1.1330023e-20"
       y="1.8204456e-14"
       width="1812.562"
       height="292.22632"
       id="page2"
       margin="0"
       bleed="0" />
  </sodipodi:namedview>
  <defs
     id="defs175" />
  <title
     id="title1">major scales (1)</title>
  <desc
     id="desc1">Generated by MuseScore Studio 4.5.2</desc>
  <polyline
     class="StaffLines"
     fill="none"
     stroke="#000000"
     stroke-width="3.13"
     stroke-linejoin="bevel"
     points="952.038,1396.39 2764.6,1396.39"
     id="polyline11"
     transform="translate(-952.038,-1265.2586)" />
  <polyline
     class="StaffLines"
     fill="none"
     stroke="#000000"
     stroke-width="3.13"
     stroke-linejoin="bevel"
     points="952.038,1424.83 2764.6,1424.83"
     id="polyline12"
     transform="translate(-952.038,-1265.2586)" />
  <polyline
     class="StaffLines"
     fill="none"
     stroke="#000000"
     stroke-width="3.13"
     stroke-linejoin="bevel"
     points="952.038,1453.27 2764.6,1453.27"
     id="polyline13"
     transform="translate(-952.038,-1265.2586)" />
  <polyline
     class="StaffLines"
     fill="none"
     stroke="#000000"
     stroke-width="3.13"
     stroke-linejoin="bevel"
     points="952.038,1481.71 2764.6,1481.71"
     id="polyline14"
     transform="translate(-952.038,-1265.2586)" />
  <polyline
     class="StaffLines"
     fill="none"
     stroke="#000000"
     stroke-width="3.13"
     stroke-linejoin="bevel"
     points="952.038,1510.15 2764.6,1510.15"
     id="polyline15"
     transform="translate(-952.038,-1265.2586)" />
  <polyline
     class="BarLine"
     fill="none"
     stroke="#000000"
     stroke-width="5.12"
     stroke-linejoin="bevel"
     points="2746.4,1394.83 2746.4,1511.71"
     id="polyline60"
     transform="translate(-952.038,-1265.2586)" />
  <polyline
     class="BarLine"
     fill="none"
     stroke="#000000"
     stroke-width="5.12"
     stroke-linejoin="bevel"
     points="2762.04,1394.83 2762.04,1511.71"
     id="polyline61"
     transform="translate(-952.038,-1265.2586)" />
  <path
     class="Accidental"
     d="m 1374.0645,119.18666 c 0.6933,-0.10671 1.2621,-0.90656 1.2621,-1.59981 v -6.70115 c 0,-0.90655 -0.6933,-1.59969 -1.5998,-1.59969 -0.1066,0 -0.1066,0 -0.2311,0 l -3.7505,0.79985 V 93.128445 h -3.1818 v 17.632805 l -10.1317,2.0619 V 96.772406 h -3.1817 v 16.726254 l -4.4438,0.90655 c -0.6754,0.12434 -1.2442,0.90644 -1.2442,1.59969 v 0.23105 6.59458 -0.23107 c 0,0.90652 0.6754,1.59975 1.5997,1.59975 0.1067,0 0.2133,0 0.3378,0 l 3.7505,-0.79988 v 18.77041 l -4.4438,0.90652 c -0.6754,0.1067 -1.2442,0.90655 -1.2442,1.5998 v 6.59444 c 0,0.90656 0.6754,1.58206 1.5997,1.58206 0.1067,0 0.2133,0 0.3378,0 l 3.7505,-0.7821 v 16.93955 h 3.1817 v -17.6328 l 10.1317,-2.04415 v 16.05085 h 3.1818 v -16.72625 l 4.3193,-0.79996 c 0.6933,-0.12434 1.2621,-0.90644 1.2621,-1.59969 v -6.7012 c 0,-0.9243 -0.6933,-1.59975 -1.5998,-1.59975 -0.1066,0 -0.1066,0 -0.2311,0 l -3.7505,0.79988 v -18.77041 l 4.3193,-0.79987 m -17.6328,3.51945 10.1317,-2.04413 v 18.77041 l -10.1317,2.16855 v -18.89483"
     id="path76"
     style="stroke-width:1.1376" />
  <path
     class="Note"
     d="m 590.40865,172.54715 c -15.6953,0 -21.27665,7.96326 -21.27665,15.35766 0,7.3944 5.58135,15.35765 21.27665,15.35765 15.69535,0 21.1523,-7.96325 21.1523,-15.35765 0,-7.3944 -5.45695,-15.35766 -21.1523,-15.35766 m 5.7947,26.37816 c -1.36864,0.46215 -3.18175,0.69319 -4.88815,0.69319 -3.18175,0 -5.35025,-0.90649 -6.8256,-3.75049 -1.47535,-2.844 -3.51939,-10.13175 -3.64385,-13.20683 -0.23104,-3.07507 0.90656,-4.88812 3.64385,-5.79465 1.36865,-0.46212 3.18175,-0.69328 4.88815,-0.69328 3.18176,0 5.24366,0.69328 6.8256,3.76836 1.5997,3.0573 3.64385,10.34505 3.64385,13.18905 0,2.95065 -0.90655,5.01255 -3.64385,5.79465"
     id="path98"
     style="stroke-width:1.1376" />
  <path
     class="Note"
     d="m 183.75865,200.98715 c -15.6953,0 -21.27665,7.96326 -21.27665,15.35766 0,7.3944 5.58135,15.35765 21.27665,15.35765 15.69535,0 21.1523,-7.96325 21.1523,-15.35765 0,-7.3944 -5.45695,-15.35766 -21.1523,-15.35766 m 5.7947,26.37816 c -1.36864,0.46215 -3.18175,0.69319 -4.88815,0.69319 -3.18175,0 -5.35025,-0.90649 -6.8256,-3.75049 -1.47535,-2.844 -3.51939,-10.13175 -3.64385,-13.20683 -0.23104,-3.07507 0.90656,-4.88812 3.64385,-5.79465 1.36865,-0.46212 3.18175,-0.69328 4.88815,-0.69328 3.18176,0 5.24366,0.69328 6.8256,3.76836 1.5997,3.0573 3.64385,10.34505 3.64385,13.18905 0,2.95065 -0.90655,5.01255 -3.64385,5.79465"
     id="path130"
     style="stroke-width:1.1376" />
  <path
     class="Note"
     d="m 387.07865,186.76715 c -15.6953,0 -21.27665,7.96326 -21.27665,15.35766 0,7.3944 5.58135,15.35765 21.27665,15.35765 15.69535,0 21.1523,-7.96325 21.1523,-15.35765 0,-7.3944 -5.45695,-15.35766 -21.1523,-15.35766 m 5.7947,26.37816 c -1.36864,0.46215 -3.18175,0.69319 -4.88815,0.69319 -3.18175,0 -5.35025,-0.90649 -6.8256,-3.75049 -1.47535,-2.844 -3.51939,-10.13175 -3.64385,-13.20683 -0.23104,-3.07507 0.90656,-4.88812 3.64385,-5.79465 1.36865,-0.46212 3.18175,-0.69328 4.88815,-0.69328 3.18176,0 5.24366,0.69328 6.8256,3.76836 1.5997,3.0573 3.64385,10.34505 3.64385,13.18905 0,2.95065 -0.90655,5.01255 -3.64385,5.79465"
     id="path132"
     style="stroke-width:1.1376" />
  <path
     class="Note"
     d="m 793.72865,158.32715 c -15.6953,0 -21.27665,7.96326 -21.27665,15.35766 0,7.3944 5.58135,15.35765 21.27665,15.35765 15.69535,0 21.1523,-7.96325 21.1523,-15.35765 0,-7.3944 -5.45695,-15.35766 -21.1523,-15.35766 m 5.7947,26.37816 c -1.36864,0.46215 -3.18175,0.69319 -4.88815,0.69319 -3.18175,0 -5.35025,-0.90649 -6.8256,-3.75049 -1.47535,-2.844 -3.51939,-10.13175 -3.64385,-13.20683 -0.23104,-3.07507 0.90656,-4.88812 3.64385,-5.79465 1.36865,-0.46212 3.18175,-0.69328 4.88815,-0.69328 3.18176,0 5.24366,0.69328 6.8256,3.76836 1.5997,3.0573 3.64385,10.34505 3.64385,13.18905 0,2.95065 -0.90655,5.01255 -3.64385,5.79465"
     id="path133"
     style="stroke-width:1.1376" />
  <path
     class="Note"
     d="m 997.04865,144.10715 c -15.6953,0 -21.27665,7.96326 -21.27665,15.35766 0,7.3944 5.58135,15.35765 21.27665,15.35765 15.69535,0 21.15225,-7.96325 21.15225,-15.35765 0,-7.3944 -5.4569,-15.35766 -21.15225,-15.35766 m 5.79465,26.37816 c -1.3686,0.46215 -3.1817,0.69319 -4.8881,0.69319 -3.18175,0 -5.35025,-0.90649 -6.8256,-3.75049 -1.47535,-2.844 -3.51939,-10.13175 -3.64385,-13.20683 -0.23104,-3.07507 0.90656,-4.88812 3.64385,-5.79465 1.36865,-0.46212 3.18175,-0.69328 4.88815,-0.69328 3.18176,0 5.24365,0.69328 6.82555,3.76836 1.5997,3.0573 3.6439,10.34505 3.6439,13.18905 0,2.95065 -0.9066,5.01255 -3.6439,5.79465"
     id="path135"
     style="stroke-width:1.1376" />
  <path
     class="Note"
     d="m 1200.3686,129.88715 c -15.6953,0 -21.2766,7.96326 -21.2766,15.35766 0,7.3944 5.5813,15.35765 21.2766,15.35765 15.6954,0 21.1523,-7.96325 21.1523,-15.35765 0,-7.3944 -5.4569,-15.35766 -21.1523,-15.35766 m 5.7947,26.37816 c -1.3686,0.46215 -3.1817,0.69319 -4.8881,0.69319 -3.1818,0 -5.3503,-0.90649 -6.8256,-3.75049 -1.4754,-2.844 -3.5194,-10.13175 -3.6439,-13.20683 -0.231,-3.07507 0.9066,-4.88812 3.6439,-5.79465 1.3686,-0.46212 3.1817,-0.69328 4.8881,-0.69328 3.1818,0 5.2437,0.69328 6.8256,3.76836 1.5997,3.0573 3.6439,10.34505 3.6439,13.18905 0,2.95065 -0.9066,5.01255 -3.6439,5.79465"
     id="path136"
     style="stroke-width:1.1376" />
  <path
     class="Note"
     d="m 1403.6986,115.66715 c -15.6953,0 -21.2766,7.96326 -21.2766,15.35766 0,7.3944 5.5813,15.35765 21.2766,15.35765 15.6954,0 21.1523,-7.96325 21.1523,-15.35765 0,-7.3944 -5.4569,-15.35766 -21.1523,-15.35766 m 5.7947,26.37816 c -1.3686,0.46215 -3.1817,0.69319 -4.8881,0.69319 -3.1818,0 -5.3503,-0.90649 -6.8256,-3.75049 -1.4754,-2.844 -3.5194,-10.13175 -3.6439,-13.20683 -0.231,-3.07507 0.9066,-4.88812 3.6439,-5.79465 1.3686,-0.46212 3.1817,-0.69328 4.8881,-0.69328 3.1818,0 5.2437,0.69328 6.8256,3.76836 1.5997,3.0573 3.6439,10.34505 3.6439,13.18905 0,2.95065 -0.9066,5.01255 -3.6439,5.79465"
     id="path138"
     style="stroke-width:1.1376" />
  <path
     class="Note"
     d="m 1607.0186,101.44715 c -15.6953,0 -21.2766,7.96326 -21.2766,15.35766 0,7.3944 5.5813,15.35765 21.2766,15.35765 15.6954,0 21.1523,-7.96325 21.1523,-15.35765 0,-7.3944 -5.4569,-15.35766 -21.1523,-15.35766 m 5.7947,26.37816 c -1.3686,0.46215 -3.1817,0.69319 -4.8881,0.69319 -3.1818,0 -5.3503,-0.90649 -6.8256,-3.75049 -1.4754,-2.844 -3.5194,-10.13175 -3.6439,-13.20683 -0.231,-3.07507 0.9066,-4.88812 3.6439,-5.79465 1.3686,-0.46212 3.1817,-0.69328 4.8881,-0.69328 3.1818,0 5.2437,0.69328 6.8256,3.76836 1.5997,3.0573 3.6439,10.34505 3.6439,13.18905 0,2.95065 -0.9066,5.01255 -3.6439,5.79465"
     id="path139"
     style="stroke-width:1.1376" />
  <path
     class="Clef"
     d="m 85.266646,218.83331 c 0,8.08763 -3.306093,16.38855 -11.376,19.69475 -2.381793,-13.65125 -5.45684,-31.7462 -6.2568,-36.75881 10.2384,0 17.6328,6.95008 17.6328,17.06406 m -16.157447,21.04565 c -2.2752,0.4621 -4.425946,0.69314 -6.594553,0.69314 -16.26404,0 -30.146366,-11.376 -30.146366,-28.56439 0,-13.86456 9.776273,-26.27145 19.801373,-34.92791 1.9197,-1.7064 3.750553,-3.28834 5.456953,-4.99474 1.013147,6.13234 1.812993,11.48259 2.61284,16.15744 -10.36274,3.07505 -17.40164,13.98896 -17.40164,24.68951 0,7.9632 6.2568,18.87705 15.3576,18.87705 0.90644,0 1.937447,-0.4621 1.937447,-1.47536 0,-1.03089 -1.1376,-1.59969 -2.506247,-2.50624 -4.443807,-2.73735 -6.950053,-5.688 -6.950053,-11.26935 0,-6.93225 5.1192,-12.51366 11.838093,-14.09561 l 6.594553,37.41646 M 59.101846,122.93721 c 1.031007,-4.5504 6.2568,-16.4952 12.17596,-16.4952 1.7064,0 4.425947,5.56355 4.425947,13.42004 0,11.83821 -8.7453,20.70796 -16.601907,28.44 -0.675393,-4.5504 -1.244193,-8.97635 -1.244193,-13.75779 0,-4.21265 0.337753,-8.08766 1.244193,-11.60705 m -23.8896,151.8696 c 0,7.51885 5.794707,17.4195 21.152307,17.4195 5.350246,0 10.0251,-1.36865 14.113293,-3.87501 6.150207,-4.31924 7.732153,-11.83809 7.732153,-19.00144 0,-4.42595 -0.675393,-9.54515 -1.812993,-16.033 -0.337753,-2.2752 -1.031007,-5.688 -1.7064,-10.1318 11.14484,-3.64385 19.445793,-15.2509 19.445793,-26.96468 0,-17.17068 -12.175846,-28.77772 -28.777753,-28.77772 -1.1376,-6.8256 -2.2752,-13.54461 -3.306093,-19.908 12.069253,-12.63806 20.370093,-26.85806 20.370093,-44.9352 0,-10.36286 -3.18164,-18.7704 -5.012493,-22.876006 -2.719547,-5.794935 -6.025754,-9.776535 -8.069907,-9.776535 -0.799847,0 -4.31924,1.368533 -8.069793,5.794935 -7.287807,8.656006 -9.331847,23.213756 -9.331847,32.758906 0,6.15009 0.5688,11.7315 2.506247,24.47614 -0.124454,0.10671 -6.0435,6.13235 -8.425407,8.06991 -10.36274,9.6696 -24.689447,23.42739 -24.689447,46.1972 0,21.25895 18.539354,37.9852 39.709407,37.9852 3.288347,0 6.363393,-0.33775 8.976347,-0.79985 2.168493,10.93154 3.4128,18.89474 3.4128,24.9205 0,11.8382 -6.025754,18.095 -17.508347,18.095 -2.737407,0 -5.1192,-0.5688 -5.35036,-0.5688 -0.106593,-0.12445 -0.33764,-0.23116 -0.33764,-0.33775 0,-0.23105 0.231047,-0.3555 0.5688,-0.46221 5.350247,-0.79984 10.682747,-5.35024 10.682747,-12.62019 0,-6.15021 -4.657107,-12.63805 -13.189107,-12.63805 -7.9632,0 -13.0824,6.48784 -13.0824,13.98895"
     id="path161"
     style="stroke-width:1.1376" />
  <path
     style="fill:#000000;fill-opacity:0;stroke:#000000;stroke-width:2.83465;stroke-linecap:square;paint-order:stroke fill markers"
     d="M 607.28915,167.30033 670.07836,61.071032 766.26362,149.3433"
     id="path1"
     sodipodi:nodetypes="ccc" />
  <path
     style="fill:#000000;fill-opacity:0;stroke:#000000;stroke-width:2.83465;stroke-linecap:square;paint-order:stroke fill markers"
     d="M 1423.5037,108.45606 1486.2929,2.2267603 1582.4782,90.499021"
     id="path1-1"
     sodipodi:nodetypes="ccc" />
</svg>
