<?xml version="1.0" encoding="UTF-8" standalone="no"?>
<svg
   width="180.05792mm"
   height="17.024734mm"
   viewBox="0 0 2552.0021 241.29545"
   version="1.2"
   id="svg92"
   sodipodi:docname="gmaj2oct.svg"
   inkscape:version="1.4 (86a8ad7, 2024-10-11)"
   xmlns:inkscape="http://www.inkscape.org/namespaces/inkscape"
   xmlns:sodipodi="http://sodipodi.sourceforge.net/DTD/sodipodi-0.dtd"
   xmlns="http://www.w3.org/2000/svg"
   xmlns:svg="http://www.w3.org/2000/svg">
  <sodipodi:namedview
     id="namedview1"
     pagecolor="#505050"
     bordercolor="#eeeeee"
     borderopacity="1"
     inkscape:showpageshadow="0"
     inkscape:pageopacity="0"
     inkscape:pagecheckerboard="0"
     inkscape:deskcolor="#505050"
     inkscape:document-units="mm"
     inkscape:zoom="0.66822537"
     inkscape:cx="534.99915"
     inkscape:cy="419.76856"
     inkscape:window-width="1920"
     inkscape:window-height="1111"
     inkscape:window-x="-9"
     inkscape:window-y="-9"
     inkscape:window-maximized="1"
     inkscape:current-layer="svg92" />
  <defs
     id="defs92" />
  <title
     id="title1">major scales (3)</title>
  <desc
     id="desc1">Generated by MuseScore Studio 4.5.2</desc>
  <polyline
     class="StaffLines"
     fill="none"
     stroke="#000000"
     stroke-width="3.13"
     stroke-linejoin="bevel"
     points="212.598,2118.08 2764.6,2118.08"
     id="polyline16"
     transform="translate(-212.59801,-2076.8954)" />
  <polyline
     class="StaffLines"
     fill="none"
     stroke="#000000"
     stroke-width="3.13"
     stroke-linejoin="bevel"
     points="212.598,2146.52 2764.6,2146.52"
     id="polyline17"
     transform="translate(-212.59801,-2076.8954)" />
  <polyline
     class="StaffLines"
     fill="none"
     stroke="#000000"
     stroke-width="3.13"
     stroke-linejoin="bevel"
     points="212.598,2174.96 2764.6,2174.96"
     id="polyline18"
     transform="translate(-212.59801,-2076.8954)" />
  <polyline
     class="StaffLines"
     fill="none"
     stroke="#000000"
     stroke-width="3.13"
     stroke-linejoin="bevel"
     points="212.598,2203.4 2764.6,2203.4"
     id="polyline19"
     transform="translate(-212.59801,-2076.8954)" />
  <polyline
     class="StaffLines"
     fill="none"
     stroke="#000000"
     stroke-width="3.13"
     stroke-linejoin="bevel"
     points="212.598,2231.84 2764.6,2231.84"
     id="polyline20"
     transform="translate(-212.59801,-2076.8954)" />
  <polyline
     class="BarLine"
     fill="none"
     stroke="#000000"
     stroke-width="5.12"
     stroke-linejoin="bevel"
     points="2746.4,2116.51 2746.4,2233.4"
     id="polyline30"
     transform="translate(-212.59801,-2076.8954)" />
  <polyline
     class="BarLine"
     fill="none"
     stroke="#000000"
     stroke-width="5.12"
     stroke-linejoin="bevel"
     points="2762.04,2116.51 2762.04,2233.4"
     id="polyline31"
     transform="translate(-212.59801,-2076.8954)" />
  <path
     class="Accidental"
     d="m 2202.2145,29.239737 c 0.6933,-0.106707 1.2621,-0.906554 1.2621,-1.599807 v -6.701147 c 0,-0.906553 -0.6933,-1.599693 -1.5998,-1.599693 -0.1066,0 -0.1066,0 -0.2311,0 l -3.7505,0.799847 V 3.1815297 h -3.1818 V 20.81433 l -10.1317,2.0619 V 6.82549 H 2181.4 v 16.726247 l -4.4438,0.906553 c -0.6754,0.12434 -1.2442,0.90644 -1.2442,1.599693 v 0.231047 6.594576 -0.231069 c 0,0.906519 0.6754,1.59975 1.5997,1.59975 0.1067,0 0.2133,0 0.3378,0 l 3.7505,-0.799881 v 18.770412 l -4.4438,0.906519 c -0.6754,0.106707 -1.2442,0.906553 -1.2442,1.599807 v 6.594439 c 0,0.906554 0.6754,1.582061 1.5997,1.582061 0.1067,0 0.2133,0 0.3378,0 l 3.7505,-0.7821 V 79.06309 h 3.1817 v -17.6328 l 10.1317,-2.044153 V 75.43699 h 3.1818 V 58.710744 l 4.3193,-0.799961 c 0.6933,-0.124339 1.2621,-0.906439 1.2621,-1.599693 v -6.701203 c 0,-0.9243 -0.6933,-1.59975 -1.5998,-1.59975 -0.1066,0 -0.1066,0 -0.2311,0 l -3.7505,0.799881 V 30.039606 l 4.3193,-0.799869 m -17.6328,3.51945 10.1317,-2.044131 v 18.770412 l -10.1317,2.16855 V 32.759187"
     id="path38"
     style="stroke-width:1.1376" />
  <path
     class="Accidental"
     d="m 1089.4445,128.77974 c 0.6933,-0.10671 1.2621,-0.90655 1.2621,-1.59981 v -6.70114 c 0,-0.90656 -0.6933,-1.5997 -1.5998,-1.5997 -0.1066,0 -0.1066,0 -0.2311,0 l -3.7505,0.79985 v -16.95741 h -3.1818 v 17.6328 l -10.1317,2.0619 v -16.05074 h -3.1817 v 16.72625 l -4.4438,0.90655 c -0.6754,0.12434 -1.2442,0.90644 -1.2442,1.5997 v 0.23104 6.59458 -0.23107 c 0,0.90652 0.6754,1.59975 1.5997,1.59975 0.1067,0 0.2133,0 0.3378,0 l 3.7505,-0.79988 v 18.77041 l -4.4438,0.90652 c -0.6754,0.10671 -1.2442,0.90655 -1.2442,1.59981 v 6.59444 c 0,0.90655 0.6754,1.58206 1.5997,1.58206 0.1067,0 0.2133,0 0.3378,0 l 3.7505,-0.7821 v 16.93954 h 3.1817 v -17.6328 l 10.1317,-2.04415 v 16.05085 h 3.1818 v -16.72624 l 4.3193,-0.79996 c 0.6933,-0.12434 1.2621,-0.90644 1.2621,-1.5997 v -6.7012 c 0,-0.9243 -0.6933,-1.59975 -1.5998,-1.59975 -0.1066,0 -0.1066,0 -0.2311,0 l -3.7505,0.79988 v -18.77041 l 4.3193,-0.79987 m -17.6328,3.51945 10.1317,-2.04413 v 18.77041 l -10.1317,2.16855 v -18.89483"
     id="path39"
     style="stroke-width:1.1376" />
  <polyline
     class="LedgerLine"
     fill="none"
     stroke="#000000"
     stroke-width="4.55"
     stroke-linejoin="bevel"
     points="506.176,2288.72 567.375,2288.72"
     id="polyline40"
     transform="translate(-212.59801,-2076.8954)" />
  <polyline
     class="LedgerLine"
     fill="none"
     stroke="#000000"
     stroke-width="4.55"
     stroke-linejoin="bevel"
     points="665.143,2260.28 726.342,2260.28"
     id="polyline41"
     transform="translate(-212.59801,-2076.8954)" />
  <polyline
     class="LedgerLine"
     fill="none"
     stroke="#000000"
     stroke-width="4.55"
     stroke-linejoin="bevel"
     points="824.11,2260.28 885.31,2260.28"
     id="polyline42"
     transform="translate(-212.59801,-2076.8954)" />
  <polyline
     class="LedgerLine"
     fill="none"
     stroke="#000000"
     stroke-width="4.55"
     stroke-linejoin="bevel"
     points="347.209,2260.28 408.408,2260.28"
     id="polyline45"
     transform="translate(-212.59801,-2076.8954)" />
  <polyline
     class="LedgerLine"
     fill="none"
     stroke="#000000"
     stroke-width="4.55"
     stroke-linejoin="bevel"
     points="347.209,2288.72 408.408,2288.72"
     id="polyline48"
     transform="translate(-212.59801,-2076.8954)" />
  <polyline
     class="LedgerLine"
     fill="none"
     stroke="#000000"
     stroke-width="4.55"
     stroke-linejoin="bevel"
     points="506.176,2260.28 567.375,2260.28"
     id="polyline49"
     transform="translate(-212.59801,-2076.8954)" />
  <path
     class="Note"
     d="m 1278.0386,111.04023 c -15.6953,0 -21.2766,7.96326 -21.2766,15.35766 0,7.3944 5.5813,15.35766 21.2766,15.35766 15.6954,0 21.1523,-7.96326 21.1523,-15.35766 0,-7.3944 -5.4569,-15.35766 -21.1523,-15.35766 m 5.7947,26.37816 c -1.3686,0.46215 -3.1817,0.6932 -4.8881,0.6932 -3.1818,0 -5.3503,-0.9065 -6.8256,-3.7505 -1.4754,-2.844 -3.5194,-10.13175 -3.6439,-13.20683 -0.231,-3.07507 0.9066,-4.88812 3.6439,-5.79465 1.3686,-0.46212 3.1817,-0.69328 4.8881,-0.69328 3.1818,0 5.2437,0.69328 6.8256,3.76836 1.5997,3.0573 3.6439,10.34505 3.6439,13.18905 0,2.95065 -0.9066,5.01255 -3.6439,5.79465"
     id="path49"
     style="stroke-width:1.1376" />
  <path
     class="Note"
     d="m 1437.0086,96.82023 c -15.6953,0 -21.2766,7.96326 -21.2766,15.35766 0,7.3944 5.5813,15.35766 21.2766,15.35766 15.6954,0 21.1523,-7.96326 21.1523,-15.35766 0,-7.3944 -5.4569,-15.35766 -21.1523,-15.35766 m 5.7947,26.37816 c -1.3686,0.46215 -3.1817,0.6932 -4.8881,0.6932 -3.1818,0 -5.3503,-0.9065 -6.8256,-3.7505 -1.4754,-2.844 -3.5194,-10.13175 -3.6439,-13.20683 -0.231,-3.07507 0.9066,-4.88812 3.6439,-5.79465 1.3686,-0.46212 3.1817,-0.69328 4.8881,-0.69328 3.1818,0 5.2437,0.69328 6.8256,3.76836 1.5997,3.0573 3.6439,10.34505 3.6439,13.18905 0,2.95065 -0.9066,5.01255 -3.6439,5.79465"
     id="path50"
     style="stroke-width:1.1376" />
  <path
     class="Note"
     d="m 1595.9786,82.60023 c -15.6953,0 -21.2766,7.963257 -21.2766,15.357657 0,7.394403 5.5813,15.357663 21.2766,15.357663 15.6954,0 21.1523,-7.96326 21.1523,-15.357663 0,-7.3944 -5.4569,-15.357657 -21.1523,-15.357657 m 5.7947,26.37816 c -1.3686,0.46215 -3.1817,0.6932 -4.8881,0.6932 -3.1818,0 -5.3503,-0.9065 -6.8256,-3.7505 -1.4754,-2.844 -3.5194,-10.131753 -3.6439,-13.206834 -0.231,-3.075069 0.9066,-4.888119 3.6439,-5.79465 1.3686,-0.462116 3.1817,-0.693276 4.8881,-0.693276 3.1818,0 5.2437,0.693276 6.8256,3.768357 1.5997,3.0573 3.6439,10.345053 3.6439,13.189053 0,2.95065 -0.9066,5.01255 -3.6439,5.79465"
     id="path51"
     style="stroke-width:1.1376" />
  <path
     class="Note"
     d="m 1754.9486,68.38023 c -15.6953,0 -21.2766,7.963257 -21.2766,15.357657 0,7.3944 5.5813,15.357657 21.2766,15.357657 15.6954,0 21.1523,-7.963257 21.1523,-15.357657 0,-7.3944 -5.4569,-15.357657 -21.1523,-15.357657 m 5.7947,26.378157 c -1.3686,0.46215 -3.1817,0.693196 -4.8881,0.693196 -3.1818,0 -5.3503,-0.906496 -6.8256,-3.750496 -1.4754,-2.844 -3.5194,-10.13175 -3.6439,-13.206831 -0.231,-3.075069 0.9066,-4.888119 3.6439,-5.79465 1.3686,-0.462116 3.1817,-0.693276 4.8881,-0.693276 3.1818,0 5.2437,0.693276 6.8256,3.768357 1.5997,3.0573 3.6439,10.34505 3.6439,13.18905 0,2.95065 -0.9066,5.01255 -3.6439,5.79465"
     id="path52"
     style="stroke-width:1.1376" />
  <path
     class="Note"
     d="m 1913.9086,54.16023 c -15.6953,0 -21.2766,7.963257 -21.2766,15.357657 0,7.3944 5.5813,15.357657 21.2766,15.357657 15.6954,0 21.1523,-7.963257 21.1523,-15.357657 0,-7.3944 -5.4569,-15.357657 -21.1523,-15.357657 m 5.7947,26.378157 c -1.3686,0.46215 -3.1817,0.693196 -4.8881,0.693196 -3.1818,0 -5.3503,-0.906496 -6.8256,-3.750496 -1.4754,-2.844 -3.5194,-10.13175 -3.6439,-13.206831 -0.231,-3.075069 0.9066,-4.888119 3.6439,-5.79465 1.3686,-0.462116 3.1817,-0.693276 4.8881,-0.693276 3.1818,0 5.2437,0.693276 6.8256,3.768357 1.5997,3.0573 3.6439,10.34505 3.6439,13.18905 0,2.95065 -0.9066,5.01255 -3.6439,5.79465"
     id="path53"
     style="stroke-width:1.1376" />
  <path
     class="Note"
     d="m 483.20664,182.14023 c -15.6953,0 -21.27665,7.96326 -21.27665,15.35766 0,7.3944 5.58135,15.35766 21.27665,15.35766 15.69535,0 21.15231,-7.96326 21.15231,-15.35766 0,-7.3944 -5.45696,-15.35766 -21.15231,-15.35766 m 5.79471,26.37816 c -1.36865,0.46215 -3.18176,0.6932 -4.88816,0.6932 -3.18175,0 -5.35024,-0.9065 -6.8256,-3.7505 -1.47535,-2.844 -3.51939,-10.13175 -3.64384,-13.20683 -0.23105,-3.07507 0.90655,-4.88812 3.64384,-5.79465 1.36865,-0.46212 3.18176,-0.69328 4.88816,-0.69328 3.18175,0 5.24365,0.69328 6.8256,3.76836 1.59969,3.0573 3.64384,10.34505 3.64384,13.18905 0,2.95065 -0.90655,5.01255 -3.64384,5.79465"
     id="path54"
     style="stroke-width:1.1376" />
  <path
     class="Note"
     d="m 2072.8786,39.94023 c -15.6953,0 -21.2766,7.963257 -21.2766,15.357657 0,7.3944 5.5813,15.357657 21.2766,15.357657 15.6954,0 21.1523,-7.963257 21.1523,-15.357657 0,-7.3944 -5.4569,-15.357657 -21.1523,-15.357657 m 5.7947,26.378157 c -1.3686,0.46215 -3.1817,0.693196 -4.8881,0.693196 -3.1818,0 -5.3503,-0.906496 -6.8256,-3.750496 -1.4754,-2.844 -3.5194,-10.13175 -3.6439,-13.206831 -0.231,-3.075069 0.9066,-4.888119 3.6439,-5.79465 1.3686,-0.462116 3.1817,-0.693276 4.8881,-0.693276 3.1818,0 5.2437,0.693276 6.8256,3.768357 1.5997,3.0573 3.6439,10.34505 3.6439,13.18905 0,2.95065 -0.9066,5.01255 -3.6439,5.79465"
     id="path55"
     style="stroke-width:1.1376" />
  <path
     class="Note"
     d="m 2231.8486,25.72023 c -15.6953,0 -21.2766,7.963257 -21.2766,15.357657 0,7.3944 5.5813,15.357657 21.2766,15.357657 15.6954,0 21.1523,-7.963257 21.1523,-15.357657 0,-7.3944 -5.4569,-15.357657 -21.1523,-15.357657 m 5.7947,26.378157 c -1.3686,0.46215 -3.1817,0.693196 -4.8881,0.693196 -3.1818,0 -5.3503,-0.906496 -6.8256,-3.750496 -1.4754,-2.844 -3.5194,-10.13175 -3.6439,-13.206831 -0.231,-3.075069 0.9066,-4.888119 3.6439,-5.79465 1.3686,-0.462116 3.1817,-0.693276 4.8881,-0.693276 3.1818,0 5.2437,0.693276 6.8256,3.768357 1.5997,3.0573 3.6439,10.34505 3.6439,13.18905 0,2.95065 -0.9066,5.01255 -3.6439,5.79465"
     id="path56"
     style="stroke-width:1.1376" />
  <path
     class="Note"
     d="m 2390.8186,11.50023 c -15.6953,0 -21.2766,7.963257 -21.2766,15.357657 0,7.3944 5.5813,15.357657 21.2766,15.357657 15.6954,0 21.1523,-7.963257 21.1523,-15.357657 0,-7.3944 -5.4569,-15.357657 -21.1523,-15.357657 m 5.7947,26.378157 c -1.3686,0.46215 -3.1817,0.693196 -4.8881,0.693196 -3.1818,0 -5.3503,-0.906496 -6.8256,-3.750496 -1.4754,-2.844 -3.5194,-10.13175 -3.6439,-13.206831 -0.231,-3.075069 0.9066,-4.888119 3.6439,-5.79465 1.3686,-0.462116 3.1817,-0.693276 4.8881,-0.693276 3.1818,0 5.2437,0.693276 6.8256,3.768357 1.5997,3.0573 3.6439,10.34505 3.6439,13.18905 0,2.95065 -0.9066,5.01255 -3.6439,5.79465"
     id="path58"
     style="stroke-width:1.1376" />
  <path
     class="Note"
     d="m 165.27264,210.58023 c -15.6953,0 -21.27665,7.96326 -21.27665,15.35766 0,7.3944 5.58135,15.35766 21.27665,15.35766 15.69535,0 21.15231,-7.96326 21.15231,-15.35766 0,-7.3944 -5.45696,-15.35766 -21.15231,-15.35766 m 5.79471,26.37816 c -1.36865,0.46215 -3.18176,0.6932 -4.88816,0.6932 -3.18175,0 -5.35024,-0.9065 -6.8256,-3.7505 -1.47535,-2.844 -3.51939,-10.13175 -3.64384,-13.20683 -0.23105,-3.07507 0.90655,-4.88812 3.64384,-5.79465 1.36865,-0.46212 3.18176,-0.69328 4.88816,-0.69328 3.18175,0 5.24365,0.69328 6.8256,3.76836 1.59969,3.0573 3.64384,10.34505 3.64384,13.18905 0,2.95065 -0.90655,5.01255 -3.64384,5.79465"
     id="path67"
     style="stroke-width:1.1376" />
  <path
     class="Note"
     d="m 324.23964,196.36023 c -15.6953,0 -21.27665,7.96326 -21.27665,15.35766 0,7.3944 5.58135,15.35766 21.27665,15.35766 15.69535,0 21.15231,-7.96326 21.15231,-15.35766 0,-7.3944 -5.45696,-15.35766 -21.15231,-15.35766 m 5.79471,26.37816 c -1.36865,0.46215 -3.18176,0.6932 -4.88816,0.6932 -3.18175,0 -5.35024,-0.9065 -6.8256,-3.7505 -1.47535,-2.844 -3.51939,-10.13175 -3.64384,-13.20683 -0.23105,-3.07507 0.90655,-4.88812 3.64384,-5.79465 1.36865,-0.46212 3.18176,-0.69328 4.88816,-0.69328 3.18175,0 5.24365,0.69328 6.8256,3.76836 1.59969,3.0573 3.64384,10.34505 3.64384,13.18905 0,2.95065 -0.90655,5.01255 -3.64384,5.79465"
     id="path70"
     style="stroke-width:1.1376" />
  <path
     class="Note"
     d="m 642.17464,167.92023 c -15.6953,0 -21.27665,7.96326 -21.27665,15.35766 0,7.3944 5.58135,15.35766 21.27665,15.35766 15.69535,0 21.15231,-7.96326 21.15231,-15.35766 0,-7.3944 -5.45696,-15.35766 -21.15231,-15.35766 m 5.79471,26.37816 c -1.36865,0.46215 -3.18176,0.6932 -4.88816,0.6932 -3.18175,0 -5.35024,-0.9065 -6.8256,-3.7505 -1.47535,-2.844 -3.51939,-10.13175 -3.64384,-13.20683 -0.23105,-3.07507 0.90655,-4.88812 3.64384,-5.79465 1.36865,-0.46212 3.18176,-0.69328 4.88816,-0.69328 3.18175,0 5.24365,0.69328 6.8256,3.76836 1.59969,3.0573 3.64384,10.34505 3.64384,13.18905 0,2.95065 -0.90655,5.01255 -3.64384,5.79465"
     id="path74"
     style="stroke-width:1.1376" />
  <path
     class="Note"
     d="m 801.14164,153.70023 c -15.6953,0 -21.27665,7.96326 -21.27665,15.35766 0,7.3944 5.58135,15.35766 21.27665,15.35766 15.69535,0 21.15231,-7.96326 21.15231,-15.35766 0,-7.3944 -5.45696,-15.35766 -21.15231,-15.35766 m 5.79471,26.37816 c -1.36865,0.46215 -3.18176,0.6932 -4.88816,0.6932 -3.18175,0 -5.35024,-0.9065 -6.8256,-3.7505 -1.47535,-2.844 -3.51939,-10.13175 -3.64384,-13.20683 -0.23105,-3.07507 0.90655,-4.88812 3.64384,-5.79465 1.36865,-0.46212 3.18176,-0.69328 4.88816,-0.69328 3.18175,0 5.24365,0.69328 6.8256,3.76836 1.59969,3.0573 3.64384,10.34505 3.64384,13.18905 0,2.95065 -0.90655,5.01255 -3.64384,5.79465"
     id="path75"
     style="stroke-width:1.1376" />
  <path
     class="Note"
     d="m 960.10864,139.48023 c -15.6953,0 -21.27665,7.96326 -21.27665,15.35766 0,7.3944 5.58135,15.35766 21.27665,15.35766 15.69535,0 21.15231,-7.96326 21.15231,-15.35766 0,-7.3944 -5.45696,-15.35766 -21.15231,-15.35766 m 5.79471,26.37816 c -1.36865,0.46215 -3.18176,0.6932 -4.88816,0.6932 -3.18175,0 -5.35024,-0.9065 -6.8256,-3.7505 -1.47535,-2.844 -3.51939,-10.13175 -3.64384,-13.20683 -0.23105,-3.07507 0.90655,-4.88812 3.64384,-5.79465 1.36865,-0.46212 3.18176,-0.69328 4.88816,-0.69328 3.18175,0 5.24365,0.69328 6.8256,3.76836 1.59969,3.0573 3.64384,10.34505 3.64384,13.18905 0,2.95065 -0.90655,5.01255 -3.64384,5.79465"
     id="path76"
     style="stroke-width:1.1376" />
  <path
     class="Note"
     d="m 1119.0786,125.26023 c -15.6953,0 -21.2766,7.96326 -21.2766,15.35766 0,7.3944 5.5813,15.35766 21.2766,15.35766 15.6954,0 21.1523,-7.96326 21.1523,-15.35766 0,-7.3944 -5.4569,-15.35766 -21.1523,-15.35766 m 5.7947,26.37816 c -1.3686,0.46215 -3.1817,0.6932 -4.8881,0.6932 -3.1818,0 -5.3503,-0.9065 -6.8256,-3.7505 -1.4754,-2.844 -3.5194,-10.13175 -3.6439,-13.20683 -0.231,-3.07507 0.9066,-4.88812 3.6439,-5.79465 1.3686,-0.46212 3.1817,-0.69328 4.8881,-0.69328 3.1818,0 5.2437,0.69328 6.8256,3.76836 1.5997,3.0573 3.6439,10.34505 3.6439,13.18905 0,2.95065 -0.9066,5.01255 -3.6439,5.79465"
     id="path77"
     style="stroke-width:1.1376" />
  <path
     class="Clef"
     d="m 81.000642,128.88639 c 0,8.08763 -3.306093,16.38855 -11.376,19.69476 -2.381793,-13.65126 -5.45684,-31.74621 -6.2568,-36.75882 10.2384,0 17.6328,6.95008 17.6328,17.06406 m -16.157447,21.04566 c -2.2752,0.46209 -4.425946,0.69314 -6.594553,0.69314 -16.26404,0 -30.146366,-11.376 -30.146366,-28.5644 0,-13.86456 9.776273,-26.271453 19.801373,-34.927907 1.9197,-1.7064 3.750553,-3.288346 5.456953,-4.994746 1.013147,6.132346 1.812993,11.482593 2.61284,16.157446 -10.36274,3.075047 -17.40164,13.988957 -17.40164,24.689507 0,7.9632 6.2568,18.87705 15.3576,18.87705 0.90644,0 1.937447,-0.46209 1.937447,-1.47535 0,-1.0309 -1.1376,-1.5997 -2.506247,-2.50625 -4.443807,-2.73735 -6.950053,-5.688 -6.950053,-11.26935 0,-6.93225 5.1192,-12.51366 11.838093,-14.0956 l 6.594553,37.41646 M 54.835842,32.99029 c 1.031007,-4.5504 6.2568,-16.4952 12.17596,-16.4952 1.7064,0 4.425947,5.563547 4.425947,13.42004 0,11.838207 -8.7453,20.70796 -16.601907,28.44 -0.675393,-4.5504 -1.244193,-8.976347 -1.244193,-13.757793 0,-4.212647 0.337753,-8.087654 1.244193,-11.607047 m -23.8896,151.8696 c 0,7.51886 5.794707,17.4195 21.152307,17.4195 5.350246,0 10.0251,-1.36864 14.113293,-3.875 6.150207,-4.31924 7.732153,-11.8381 7.732153,-19.00145 0,-4.42595 -0.675393,-9.54515 -1.812993,-16.03299 -0.337753,-2.2752 -1.031007,-5.688 -1.7064,-10.13181 11.14484,-3.64385 19.445793,-15.25089 19.445793,-26.96468 0,-17.17067 -12.175846,-28.777723 -28.777753,-28.777723 -1.1376,-6.8256 -2.2752,-13.544607 -3.306093,-19.908 12.069253,-12.638054 20.370093,-26.858054 20.370093,-44.9352 0,-10.362854 -3.18164,-18.7704 -5.012493,-22.8759988 C 70.424602,3.9816038 67.118395,3.815456e-6 65.074242,3.815456e-6 64.274395,3.815456e-6 60.755002,1.3685366 57.004449,5.7949382 49.716642,14.450937 47.672602,29.00869 47.672602,38.553837 c 0,6.150093 0.5688,11.7315 2.506247,24.476146 -0.124454,0.106707 -6.0435,6.132347 -8.425407,8.069907 -10.36274,9.6696 -24.689447,23.427393 -24.689447,46.1972 0,21.25896 18.539354,37.9852 39.709407,37.9852 3.288347,0 6.363393,-0.33775 8.976347,-0.79984 2.168493,10.93154 3.4128,18.89474 3.4128,24.92049 0,11.83821 -6.025754,18.09501 -17.508347,18.09501 -2.737407,0 -5.1192,-0.5688 -5.35036,-0.5688 -0.106593,-0.12446 -0.33764,-0.23116 -0.33764,-0.33776 0,-0.23104 0.231047,-0.3555 0.5688,-0.4622 5.350247,-0.79985 10.682747,-5.35025 10.682747,-12.6202 0,-6.1502 -4.657107,-12.63805 -13.189107,-12.63805 -7.9632,0 -13.0824,6.48785 -13.0824,13.98895"
     id="path82"
     style="stroke-width:1.1376" />
  <rect
     style="fill:#000000;fill-opacity:0;stroke:#000000;stroke-width:2.83465;stroke-linecap:square;paint-order:stroke fill markers;stroke-opacity:0"
     id="rect1"
     width="49.103947"
     height="36.477211"
     x="35.074245"
     y="228.68408" />
  <rect
     style="fill:#000000;fill-opacity:0;stroke:#000000;stroke-width:2.83465;stroke-linecap:square;paint-order:stroke fill markers;stroke-opacity:0"
     id="rect2"
     width="74.357399"
     height="47.700974"
     x="2449.5852"
     y="-14.029697" />
</svg>
