<?xml version="1.0" encoding="UTF-8" standalone="no"?>
<svg
   width="127.88633mm"
   height="14.271933mm"
   viewBox="0 0 1812.5622 202.27936"
   version="1.2"
   id="svg175"
   xmlns="http://www.w3.org/2000/svg"
   xmlns:svg="http://www.w3.org/2000/svg">
  <defs
     id="defs175" />
  <title
     id="title1">major scales (1)</title>
  <desc
     id="desc1">Generated by MuseScore Studio 4.5.2</desc>
  <polyline
     class="StaffLines"
     fill="none"
     stroke="#000000"
     stroke-width="3.13"
     stroke-linejoin="bevel"
     points="952.038,1396.39 2764.6,1396.39"
     id="polyline11"
     transform="translate(-952.03802,-1355.2055)" />
  <polyline
     class="StaffLines"
     fill="none"
     stroke="#000000"
     stroke-width="3.13"
     stroke-linejoin="bevel"
     points="952.038,1424.83 2764.6,1424.83"
     id="polyline12"
     transform="translate(-952.03802,-1355.2055)" />
  <polyline
     class="StaffLines"
     fill="none"
     stroke="#000000"
     stroke-width="3.13"
     stroke-linejoin="bevel"
     points="952.038,1453.27 2764.6,1453.27"
     id="polyline13"
     transform="translate(-952.03802,-1355.2055)" />
  <polyline
     class="StaffLines"
     fill="none"
     stroke="#000000"
     stroke-width="3.13"
     stroke-linejoin="bevel"
     points="952.038,1481.71 2764.6,1481.71"
     id="polyline14"
     transform="translate(-952.03802,-1355.2055)" />
  <polyline
     class="StaffLines"
     fill="none"
     stroke="#000000"
     stroke-width="3.13"
     stroke-linejoin="bevel"
     points="952.038,1510.15 2764.6,1510.15"
     id="polyline15"
     transform="translate(-952.03802,-1355.2055)" />
  <polyline
     class="BarLine"
     fill="none"
     stroke="#000000"
     stroke-width="5.12"
     stroke-linejoin="bevel"
     points="2746.4,1394.83 2746.4,1511.71"
     id="polyline60"
     transform="translate(-952.03802,-1355.2055)" />
  <polyline
     class="BarLine"
     fill="none"
     stroke="#000000"
     stroke-width="5.12"
     stroke-linejoin="bevel"
     points="2762.04,1394.83 2762.04,1511.71"
     id="polyline61"
     transform="translate(-952.03802,-1355.2055)" />
  <path
     class="Accidental"
     d="m 1374.0645,29.239749 c 0.6933,-0.106707 1.2621,-0.906553 1.2621,-1.599807 v -6.701146 c 0,-0.906554 -0.6933,-1.599694 -1.5998,-1.599694 -0.1066,0 -0.1066,0 -0.2311,0 l -3.7505,0.799847 V 3.1815423 h -3.1818 V 20.814342 l -10.1317,2.0619 V 6.8255026 H 1353.25 V 23.551749 l -4.4438,0.906553 c -0.6754,0.12434 -1.2442,0.90644 -1.2442,1.599694 v 0.231046 6.594576 -0.231069 c 0,0.906519 0.6754,1.59975 1.5997,1.59975 0.1067,0 0.2133,0 0.3378,0 l 3.7505,-0.799881 V 52.22283 l -4.4438,0.906519 c -0.6754,0.106707 -1.2442,0.906553 -1.2442,1.599807 v 6.59444 c 0,0.906553 0.6754,1.58206 1.5997,1.58206 0.1067,0 0.2133,0 0.3378,0 l 3.7505,-0.7821 v 16.939546 h 3.1817 v -17.6328 l 10.1317,-2.044153 v 16.050853 h 3.1818 V 58.710756 l 4.3193,-0.79996 c 0.6933,-0.12434 1.2621,-0.90644 1.2621,-1.599694 v -6.701203 c 0,-0.9243 -0.6933,-1.59975 -1.5998,-1.59975 -0.1066,0 -0.1066,0 -0.2311,0 l -3.7505,0.799881 V 30.039618 l 4.3193,-0.799869 m -17.6328,3.51945 10.1317,-2.044131 V 49.48548 l -10.1317,2.16855 V 32.759199"
     id="path76"
     style="stroke-width:1.1376" />
  <path
     class="Note"
     d="m 590.40863,82.600242 c -15.6953,0 -21.27665,7.963257 -21.27665,15.357657 0,7.394401 5.58135,15.357651 21.27665,15.357651 15.69535,0 21.1523,-7.96325 21.1523,-15.357651 0,-7.3944 -5.45695,-15.357657 -21.1523,-15.357657 m 5.7947,26.378158 c -1.36864,0.46215 -3.18175,0.69319 -4.88815,0.69319 -3.18175,0 -5.35025,-0.90649 -6.8256,-3.75049 -1.47535,-2.844 -3.51939,-10.131751 -3.64385,-13.206832 -0.23104,-3.075069 0.90656,-4.888119 3.64385,-5.79465 1.36865,-0.462116 3.18175,-0.693276 4.88815,-0.693276 3.18176,0 5.24366,0.693276 6.8256,3.768357 1.5997,3.0573 3.64385,10.345051 3.64385,13.189051 0,2.95065 -0.90655,5.01255 -3.64385,5.79465"
     id="path98"
     style="stroke-width:1.1376" />
  <path
     class="Note"
     d="m 183.75863,111.04024 c -15.6953,0 -21.27665,7.96326 -21.27665,15.35766 0,7.3944 5.58135,15.35765 21.27665,15.35765 15.69535,0 21.1523,-7.96325 21.1523,-15.35765 0,-7.3944 -5.45695,-15.35766 -21.1523,-15.35766 m 5.7947,26.37816 c -1.36864,0.46215 -3.18175,0.69319 -4.88815,0.69319 -3.18175,0 -5.35025,-0.90649 -6.8256,-3.75049 -1.47535,-2.844 -3.51939,-10.13175 -3.64385,-13.20683 -0.23104,-3.07507 0.90656,-4.88812 3.64385,-5.79465 1.36865,-0.46212 3.18175,-0.69328 4.88815,-0.69328 3.18176,0 5.24366,0.69328 6.8256,3.76836 1.5997,3.0573 3.64385,10.34505 3.64385,13.18905 0,2.95065 -0.90655,5.01255 -3.64385,5.79465"
     id="path130"
     style="stroke-width:1.1376" />
  <path
     class="Note"
     d="m 387.07863,96.820242 c -15.6953,0 -21.27665,7.963258 -21.27665,15.357658 0,7.3944 5.58135,15.35765 21.27665,15.35765 15.69535,0 21.1523,-7.96325 21.1523,-15.35765 0,-7.3944 -5.45695,-15.357658 -21.1523,-15.357658 m 5.7947,26.378158 c -1.36864,0.46215 -3.18175,0.69319 -4.88815,0.69319 -3.18175,0 -5.35025,-0.90649 -6.8256,-3.75049 -1.47535,-2.844 -3.51939,-10.13175 -3.64385,-13.20683 -0.23104,-3.07507 0.90656,-4.88812 3.64385,-5.79465 1.36865,-0.46212 3.18175,-0.69328 4.88815,-0.69328 3.18176,0 5.24366,0.69328 6.8256,3.76836 1.5997,3.0573 3.64385,10.34505 3.64385,13.18905 0,2.95065 -0.90655,5.01255 -3.64385,5.79465"
     id="path132"
     style="stroke-width:1.1376" />
  <path
     class="Note"
     d="m 793.72863,68.380242 c -15.6953,0 -21.27665,7.963257 -21.27665,15.357657 0,7.3944 5.58135,15.357657 21.27665,15.357657 15.69535,0 21.1523,-7.963257 21.1523,-15.357657 0,-7.3944 -5.45695,-15.357657 -21.1523,-15.357657 m 5.7947,26.378157 c -1.36864,0.46215 -3.18175,0.693197 -4.88815,0.693197 -3.18175,0 -5.35025,-0.906497 -6.8256,-3.750497 -1.47535,-2.844 -3.51939,-10.13175 -3.64385,-13.206831 -0.23104,-3.075069 0.90656,-4.888119 3.64385,-5.79465 1.36865,-0.462116 3.18175,-0.693276 4.88815,-0.693276 3.18176,0 5.24366,0.693276 6.8256,3.768357 1.5997,3.0573 3.64385,10.34505 3.64385,13.18905 0,2.95065 -0.90655,5.01255 -3.64385,5.79465"
     id="path133"
     style="stroke-width:1.1376" />
  <path
     class="Note"
     d="m 997.04863,54.160242 c -15.6953,0 -21.27665,7.963257 -21.27665,15.357657 0,7.3944 5.58135,15.357657 21.27665,15.357657 15.69537,0 21.15227,-7.963257 21.15227,-15.357657 0,-7.3944 -5.4569,-15.357657 -21.15227,-15.357657 m 5.79467,26.378157 c -1.3686,0.46215 -3.18172,0.693197 -4.88812,0.693197 -3.18175,0 -5.35025,-0.906497 -6.8256,-3.750497 -1.47535,-2.844 -3.51939,-10.13175 -3.64385,-13.206831 -0.23104,-3.075069 0.90656,-4.888119 3.64385,-5.79465 1.36865,-0.462116 3.18175,-0.693276 4.88815,-0.693276 3.18176,0 5.24367,0.693276 6.82557,3.768357 1.5997,3.0573 3.6439,10.34505 3.6439,13.18905 0,2.95065 -0.9066,5.01255 -3.6439,5.79465"
     id="path135"
     style="stroke-width:1.1376" />
  <path
     class="Note"
     d="m 1200.3686,39.940242 c -15.6953,0 -21.2766,7.963257 -21.2766,15.357657 0,7.3944 5.5813,15.357657 21.2766,15.357657 15.6954,0 21.1523,-7.963257 21.1523,-15.357657 0,-7.3944 -5.4569,-15.357657 -21.1523,-15.357657 m 5.7947,26.378157 c -1.3686,0.46215 -3.1817,0.693197 -4.8881,0.693197 -3.1818,0 -5.3503,-0.906497 -6.8256,-3.750497 -1.4754,-2.844 -3.5194,-10.13175 -3.6439,-13.206831 -0.231,-3.075069 0.9066,-4.888119 3.6439,-5.79465 1.3686,-0.462116 3.1817,-0.693276 4.8881,-0.693276 3.1818,0 5.2437,0.693276 6.8256,3.768357 1.5997,3.0573 3.6439,10.34505 3.6439,13.18905 0,2.95065 -0.9066,5.01255 -3.6439,5.79465"
     id="path136"
     style="stroke-width:1.1376" />
  <path
     class="Note"
     d="m 1403.6986,25.720242 c -15.6953,0 -21.2766,7.963257 -21.2766,15.357657 0,7.3944 5.5813,15.357657 21.2766,15.357657 15.6954,0 21.1523,-7.963257 21.1523,-15.357657 0,-7.3944 -5.4569,-15.357657 -21.1523,-15.357657 m 5.7947,26.378157 c -1.3686,0.46215 -3.1817,0.693197 -4.8881,0.693197 -3.1818,0 -5.3503,-0.906497 -6.8256,-3.750497 -1.4754,-2.844 -3.5194,-10.13175 -3.6439,-13.206831 -0.231,-3.075069 0.9066,-4.888119 3.6439,-5.79465 1.3686,-0.462116 3.1817,-0.693276 4.8881,-0.693276 3.1818,0 5.2437,0.693276 6.8256,3.768357 1.5997,3.0573 3.6439,10.34505 3.6439,13.18905 0,2.95065 -0.9066,5.01255 -3.6439,5.79465"
     id="path138"
     style="stroke-width:1.1376" />
  <path
     class="Note"
     d="m 1607.0186,11.500242 c -15.6953,0 -21.2766,7.963257 -21.2766,15.357657 0,7.3944 5.5813,15.357657 21.2766,15.357657 15.6954,0 21.1523,-7.963257 21.1523,-15.357657 0,-7.3944 -5.4569,-15.357657 -21.1523,-15.357657 m 5.7947,26.378157 c -1.3686,0.46215 -3.1817,0.693197 -4.8881,0.693197 -3.1818,0 -5.3503,-0.906497 -6.8256,-3.750497 -1.4754,-2.844 -3.5194,-10.13175 -3.6439,-13.206831 -0.231,-3.075069 0.9066,-4.888119 3.6439,-5.79465 1.3686,-0.462116 3.1817,-0.693276 4.8881,-0.693276 3.1818,0 5.2437,0.693276 6.8256,3.768357 1.5997,3.0573 3.6439,10.34505 3.6439,13.18905 0,2.95065 -0.9066,5.01255 -3.6439,5.79465"
     id="path139"
     style="stroke-width:1.1376" />
  <path
     class="Clef"
     d="m 85.266626,128.8864 c 0,8.08763 -3.306093,16.38855 -11.376,19.69475 -2.381793,-13.65125 -5.45684,-31.7462 -6.2568,-36.75881 10.2384,0 17.6328,6.95008 17.6328,17.06406 m -16.157447,21.04565 c -2.2752,0.4621 -4.425946,0.69314 -6.594553,0.69314 -16.26404,0 -30.146366,-11.376 -30.146366,-28.56439 0,-13.86456 9.776273,-26.271451 19.801373,-34.927904 1.9197,-1.7064 3.750553,-3.288347 5.456953,-4.994747 1.013147,6.132347 1.812993,11.482593 2.61284,16.157447 -10.36274,3.075044 -17.40164,13.988954 -17.40164,24.689504 0,7.9632 6.2568,18.87705 15.3576,18.87705 0.90644,0 1.937447,-0.4621 1.937447,-1.47536 0,-1.03089 -1.1376,-1.59969 -2.506247,-2.50624 -4.443807,-2.73735 -6.950053,-5.688 -6.950053,-11.26935 0,-6.93225 5.1192,-12.51366 11.838093,-14.09561 l 6.594553,37.41646 M 59.101826,32.990302 c 1.031007,-4.5504 6.2568,-16.4952 12.17596,-16.4952 1.7064,0 4.425947,5.563547 4.425947,13.42004 0,11.838207 -8.7453,20.70796 -16.601907,28.44 -0.675393,-4.5504 -1.244193,-8.976346 -1.244193,-13.757793 0,-4.212647 0.337753,-8.087653 1.244193,-11.607047 M 35.212226,184.8599 c 0,7.51885 5.794707,17.4195 21.152307,17.4195 5.350246,0 10.0251,-1.36865 14.113293,-3.87501 6.150207,-4.31924 7.732153,-11.83809 7.732153,-19.00144 0,-4.42595 -0.675393,-9.54515 -1.812993,-16.033 -0.337753,-2.2752 -1.031007,-5.688 -1.7064,-10.1318 11.14484,-3.64385 19.445793,-15.2509 19.445793,-26.96468 0,-17.17068 -12.175846,-28.777721 -28.777753,-28.777721 -1.1376,-6.8256 -2.2752,-13.544607 -3.306093,-19.908 12.069253,-12.638053 20.370093,-26.858053 20.370093,-44.9352 0,-10.362853 -3.18164,-18.7704 -5.012493,-22.8759982 C 74.690586,3.9816164 71.384379,1.6382887e-5 69.340226,1.6382887e-5 c -0.799847,0 -4.31924,1.368532817113 -8.069793,5.794934417113 -7.287807,8.6559982 -9.331847,23.2137512 -9.331847,32.7588982 0,6.150093 0.5688,11.7315 2.506247,24.476147 -0.124454,0.106706 -6.0435,6.132346 -8.425407,8.069906 -10.36274,9.6696 -24.689447,23.427394 -24.689447,46.197198 0,21.25895 18.539354,37.9852 39.709407,37.9852 3.288347,0 6.363393,-0.33775 8.976347,-0.79985 2.168493,10.93154 3.4128,18.89474 3.4128,24.9205 0,11.8382 -6.025754,18.095 -17.508347,18.095 -2.737407,0 -5.1192,-0.5688 -5.35036,-0.5688 -0.106593,-0.12445 -0.33764,-0.23116 -0.33764,-0.33775 0,-0.23105 0.231047,-0.3555 0.5688,-0.46221 5.350247,-0.79984 10.682747,-5.35024 10.682747,-12.62019 0,-6.15021 -4.657107,-12.63805 -13.189107,-12.63805 -7.9632,0 -13.0824,6.48784 -13.0824,13.98895"
     id="path161"
     style="stroke-width:1.1376" />
</svg>
