<?xml version="1.0" encoding="UTF-8" standalone="no"?>
<svg
   width="164.49287mm"
   height="24.623615mm"
   viewBox="0 0 2331.3951 348.99613"
   version="1.2"
   id="svg88"
   xmlns="http://www.w3.org/2000/svg"
   xmlns:svg="http://www.w3.org/2000/svg">
  <defs
     id="defs88" />
  <title
     id="title1">test1 (1)</title>
  <desc
     id="desc1">Generated by MuseScore Studio 4.5.2</desc>
  <polyline
     class="StaffLines"
     fill="none"
     stroke="#000000"
     stroke-width="2.73"
     stroke-linejoin="bevel"
     points="460.599,952.08 2764.6,952.08"
     id="polyline1"
     transform="translate(-433.20479,-743.5605)" />
  <polyline
     class="StaffLines"
     fill="none"
     stroke="#000000"
     stroke-width="2.73"
     stroke-linejoin="bevel"
     points="460.599,976.88 2764.6,976.88"
     id="polyline2"
     transform="translate(-433.20479,-743.5605)" />
  <polyline
     class="StaffLines"
     fill="none"
     stroke="#000000"
     stroke-width="2.73"
     stroke-linejoin="bevel"
     points="460.599,1001.68 2764.6,1001.68"
     id="polyline3"
     transform="translate(-433.20479,-743.5605)" />
  <polyline
     class="StaffLines"
     fill="none"
     stroke="#000000"
     stroke-width="2.73"
     stroke-linejoin="bevel"
     points="460.599,1026.48 2764.6,1026.48"
     id="polyline4"
     transform="translate(-433.20479,-743.5605)" />
  <polyline
     class="StaffLines"
     fill="none"
     stroke="#000000"
     stroke-width="2.73"
     stroke-linejoin="bevel"
     points="460.599,1051.28 2764.6,1051.28"
     id="polyline5"
     transform="translate(-433.20479,-743.5605)" />
  <polyline
     class="BarLine"
     fill="none"
     stroke="#000000"
     stroke-width="4.46"
     stroke-linejoin="bevel"
     points="2748.73,950.716 2748.73,1052.64"
     id="polyline36"
     transform="translate(-433.20479,-743.5605)" />
  <polyline
     class="BarLine"
     fill="none"
     stroke="#000000"
     stroke-width="4.46"
     stroke-linejoin="bevel"
     points="2762.37,950.716 2762.37,1052.64"
     id="polyline37"
     transform="translate(-433.20479,-743.5605)" />
  <polyline
     class="LedgerLine"
     fill="none"
     stroke="#000000"
     stroke-width="3.97"
     stroke-linejoin="bevel"
     points="710.556,1076.08 763.923,1076.08"
     id="polyline42"
     transform="translate(-433.20479,-743.5605)" />
  <path
     class="Note"
     d="m 1063.5987,281.83444 c -13.6865,0 -18.5535,6.94405 -18.5535,13.39206 0,6.44801 4.867,13.39206 18.5535,13.39206 13.6865,0 18.4451,-6.94405 18.4451,-13.39206 0,-6.44801 -4.7586,-13.39206 -18.4451,-13.39206 m 5.053,23.00207 c -1.1934,0.403 -2.7745,0.60447 -4.2625,0.60447 -2.7745,0 -4.6655,-0.79047 -5.952,-3.27047 -1.2865,-2.48001 -3.0689,-8.83501 -3.1775,-11.51652 -0.2014,-2.6815 0.7906,-4.2625 3.1775,-5.05301 1.1935,-0.40297 2.7745,-0.60454 4.2625,-0.60454 2.7746,0 4.5726,0.60454 5.952,3.28605 1.395,2.666 3.1775,9.02101 3.1775,11.50101 0,2.57301 -0.7905,4.37101 -3.1775,5.05301"
     id="path42"
     style="stroke-width:0.992001" />
  <path
     class="Note"
     d="m 1316.7787,269.43444 c -13.6865,0 -18.5535,6.94405 -18.5535,13.39206 0,6.44801 4.867,13.39206 18.5535,13.39206 13.6865,0 18.4451,-6.94405 18.4451,-13.39206 0,-6.44801 -4.7586,-13.39206 -18.4451,-13.39206 m 5.053,23.00207 c -1.1934,0.403 -2.7745,0.60447 -4.2625,0.60447 -2.7745,0 -4.6655,-0.79047 -5.952,-3.27047 -1.2865,-2.48001 -3.0689,-8.83501 -3.1775,-11.51652 -0.2014,-2.6815 0.7906,-4.2625 3.1775,-5.05301 1.1935,-0.40297 2.7745,-0.60454 4.2625,-0.60454 2.7746,0 4.5726,0.60454 5.952,3.28605 1.395,2.666 3.1775,9.02101 3.1775,11.50101 0,2.57301 -0.7905,4.37101 -3.1775,5.05301"
     id="path43"
     style="stroke-width:0.992001" />
  <path
     class="Note"
     d="m 1569.9487,257.03444 c -13.6865,0 -18.5535,6.94405 -18.5535,13.39206 0,6.44801 4.867,13.39206 18.5535,13.39206 13.6865,0 18.4451,-6.94405 18.4451,-13.39206 0,-6.44801 -4.7586,-13.39206 -18.4451,-13.39206 m 5.053,23.00207 c -1.1934,0.403 -2.7745,0.60447 -4.2625,0.60447 -2.7745,0 -4.6655,-0.79047 -5.952,-3.27047 -1.2865,-2.48001 -3.0689,-8.83501 -3.1775,-11.51652 -0.2014,-2.6815 0.7906,-4.2625 3.1775,-5.05301 1.1935,-0.40297 2.7745,-0.60454 4.2625,-0.60454 2.7746,0 4.5726,0.60454 5.952,3.28605 1.395,2.666 3.1775,9.02101 3.1775,11.50101 0,2.57301 -0.7905,4.37101 -3.1775,5.05301"
     id="path44"
     style="stroke-width:0.992001" />
  <path
     class="Note"
     d="m 2076.2887,232.23444 c -13.6865,0 -18.5535,6.94405 -18.5535,13.39206 0,6.44801 4.867,13.39206 18.5535,13.39206 13.6865,0 18.4451,-6.94405 18.4451,-13.39206 0,-6.44801 -4.7586,-13.39206 -18.4451,-13.39206 m 5.053,23.00207 c -1.1934,0.403 -2.7745,0.60447 -4.2625,0.60447 -2.7745,0 -4.6655,-0.79047 -5.952,-3.27047 -1.2865,-2.48001 -3.0689,-8.83501 -3.1775,-11.51652 -0.2014,-2.6815 0.7906,-4.2625 3.1775,-5.05301 1.1935,-0.40297 2.7745,-0.60454 4.2625,-0.60454 2.7746,0 4.5726,0.60454 5.952,3.28605 1.395,2.666 3.1775,9.02101 3.1775,11.50101 0,2.57301 -0.7905,4.37101 -3.1775,5.05301"
     id="path45"
     style="stroke-width:0.992001" />
  <path
     class="Note"
     d="m 1823.1187,244.63444 c -13.6865,0 -18.5535,6.94405 -18.5535,13.39206 0,6.44801 4.867,13.39206 18.5535,13.39206 13.6865,0 18.4451,-6.94405 18.4451,-13.39206 0,-6.44801 -4.7586,-13.39206 -18.4451,-13.39206 m 5.053,23.00207 c -1.1934,0.403 -2.7745,0.60447 -4.2625,0.60447 -2.7745,0 -4.6655,-0.79047 -5.952,-3.27047 -1.2865,-2.48001 -3.0689,-8.83501 -3.1775,-11.51652 -0.2014,-2.6815 0.7906,-4.2625 3.1775,-5.05301 1.1935,-0.40297 2.7745,-0.60454 4.2625,-0.60454 2.7746,0 4.5726,0.60454 5.952,3.28605 1.395,2.666 3.1775,9.02101 3.1775,11.50101 0,2.57301 -0.7905,4.37101 -3.1775,5.05301"
     id="path54"
     style="stroke-width:0.992001" />
  <path
     class="Note"
     d="m 304.0887,319.03444 c -13.68649,0 -18.55349,6.94405 -18.55349,13.39206 0,6.44801 4.867,13.39206 18.55349,13.39206 13.68654,0 18.44507,-6.94405 18.44507,-13.39206 0,-6.44801 -4.75853,-13.39206 -18.44507,-13.39206 m 5.05306,23.00207 c -1.19348,0.403 -2.77453,0.60447 -4.26253,0.60447 -2.77453,0 -4.66548,-0.79047 -5.95201,-3.27047 -1.28652,-2.48001 -3.06895,-8.83501 -3.17748,-11.51652 -0.20147,-2.6815 0.79053,-4.2625 3.17748,-5.05301 1.19348,-0.40297 2.77453,-0.60454 4.26253,-0.60454 2.77453,0 4.57253,0.60454 5.95201,3.28605 1.39495,2.666 3.17748,9.02101 3.17748,11.50101 0,2.57301 -0.79053,4.37101 -3.17748,5.05301"
     id="path55"
     style="stroke-width:0.992001" />
  <path
     class="Note"
     d="m 557.2607,306.63444 c -13.68649,0 -18.55349,6.94405 -18.55349,13.39206 0,6.44801 4.867,13.39206 18.55349,13.39206 13.68654,0 18.44507,-6.94405 18.44507,-13.39206 0,-6.44801 -4.75853,-13.39206 -18.44507,-13.39206 m 5.05306,23.00207 c -1.19348,0.403 -2.77453,0.60447 -4.26253,0.60447 -2.77453,0 -4.66548,-0.79047 -5.95201,-3.27047 -1.28652,-2.48001 -3.06895,-8.83501 -3.17748,-11.51652 -0.20147,-2.6815 0.79053,-4.2625 3.17748,-5.05301 1.19348,-0.40297 2.77453,-0.60454 4.26253,-0.60454 2.77453,0 4.57253,0.60454 5.95201,3.28605 1.39495,2.666 3.17748,9.02101 3.17748,11.50101 0,2.57301 -0.79053,4.37101 -3.17748,5.05301"
     id="path56"
     style="stroke-width:0.992001" />
  <path
     class="Note"
     d="m 810.4287,294.23444 c -13.68649,0 -18.55349,6.94405 -18.55349,13.39206 0,6.44801 4.867,13.39206 18.55349,13.39206 13.68654,0 18.44507,-6.94405 18.44507,-13.39206 0,-6.44801 -4.75853,-13.39206 -18.44507,-13.39206 m 5.05306,23.00207 c -1.19348,0.403 -2.77453,0.60447 -4.26253,0.60447 -2.77453,0 -4.66548,-0.79047 -5.95201,-3.27047 -1.28652,-2.48001 -3.06895,-8.83501 -3.17748,-11.51652 -0.20147,-2.6815 0.79053,-4.2625 3.17748,-5.05301 1.19348,-0.40297 2.77453,-0.60454 4.26253,-0.60454 2.77453,0 4.57253,0.60454 5.95201,3.28605 1.39495,2.666 3.17748,9.02101 3.17748,11.50101 0,2.57301 -0.79053,4.37101 -3.17748,5.05301"
     id="path59"
     style="stroke-width:0.992001" />
  <path
     class="Clef"
     d="m 101.74774,284.9965 c 0,7.05251 -2.882951,14.29102 -9.920007,17.17407 -2.076953,-11.90406 -4.758431,-27.68308 -5.456006,-32.05413 8.928009,0 15.376013,6.06055 15.376013,14.88006 m -14.089487,18.35207 c -1.984002,0.40295 -3.859479,0.60443 -5.75053,0.60443 -14.18244,0 -26.287997,-9.92001 -26.287997,-24.9085 0,-12.09007 8.525028,-22.90903 17.267037,-30.45756 1.674002,-1.488 3.270528,-2.86748 4.75853,-4.35548 0.883476,5.34748 1.580952,10.01296 2.278428,14.08949 -9.036435,2.68148 -15.174441,12.19854 -15.174441,21.52955 0,6.944 5.456005,16.46101 13.392013,16.46101 0.790427,0 1.689477,-0.40295 1.689477,-1.28652 0,-0.89895 -0.992001,-1.39496 -2.185477,-2.18548 -3.875054,-2.387 -6.060531,-4.96001 -6.060531,-9.82701 0,-6.04501 4.464004,-10.91206 10.322961,-12.29154 l 5.75053,32.62761 M 78.93172,201.37394 c 0.89905,-3.968 5.456005,-14.38401 10.617585,-14.38401 1.488001,0 3.859479,4.85148 3.859479,11.70243 0,10.32306 -7.626008,18.0576 -14.477064,24.80003 -0.588951,-3.968 -1.084952,-7.82748 -1.084952,-11.99696 0,-3.67348 0.294525,-7.05253 1.084952,-10.12149 M 58.099699,333.80608 c 0,6.55653 5.053054,15.19001 18.445068,15.19001 4.66548,0 8.742009,-1.19348 12.306963,-3.37905 5.363055,-3.76643 6.742531,-10.32296 6.742531,-16.56949 0,-3.85948 -0.588951,-8.32349 -1.580952,-13.98097 -0.294525,-1.984 -0.89905,-4.96 -1.488001,-8.83506 9.718432,-3.17748 16.956962,-13.29896 16.956962,-23.51352 0,-14.97304 -10.617481,-25.09453 -25.094545,-25.09453 -0.992001,-5.952 -1.984002,-11.81106 -2.882953,-17.36001 10.524535,-11.02054 17.762968,-23.42055 17.762968,-39.18404 0,-9.03654 -2.774428,-16.36802 -4.370955,-19.94815 -2.371477,-5.05325 -5.25453,-8.52526 -7.037056,-8.52526 -0.697476,0 -3.76643,1.19338 -7.036958,5.05326 -6.355056,7.54813 -8.137483,20.24267 -8.137483,28.56615 0,5.36296 0.496,10.23001 2.185477,21.3435 -0.108525,0.0931 -5.270005,5.34748 -7.347057,7.03706 -9.036434,8.432 -21.529497,20.42897 -21.529497,40.28451 0,18.53807 16.166541,33.12356 34.627085,33.12356 2.867478,0 5.548956,-0.29453 7.827483,-0.69748 1.890952,9.53244 2.976003,16.47645 2.976003,21.73098 0,10.32306 -5.25453,15.77906 -15.267491,15.77906 -2.387052,0 -4.464004,-0.496 -4.665579,-0.496 -0.09295,-0.10852 -0.294426,-0.20157 -0.294426,-0.29452 0,-0.20148 0.201476,-0.31 0.496001,-0.40305 4.66548,-0.69748 9.315484,-4.66548 9.315484,-11.00497 0,-5.36305 -4.061053,-11.02053 -11.501061,-11.02053 -6.944007,0 -11.408011,5.65748 -11.408011,12.19854"
     id="path61"
     style="stroke-width:0.992001" />
  <rect
     style="fill:#ec5e5e;fill-opacity:0;stroke-width:3.75"
     id="rect88"
     width="94.830902"
     height="58.191689"
     x="1.437929e-05"
     y="-1.9343472e-05" />
  <ellipse
     style="fill:#000000;fill-opacity:0;stroke-width:3.75"
     id="path1"
     ry="16.53936"
     rx="29.770845"
     cy="331.96857"
     cx="304.08792" />
  <ellipse
     style="fill:#000000;fill-opacity:0;stroke:#000000;stroke-width:1.16192;stroke-dasharray:none;stroke-opacity:1"
     id="path3"
     cx="304.41443"
     cy="332.23236"
     rx="30.458035"
     ry="15.617028" />
  <ellipse
     style="fill:#000000;fill-opacity:0;stroke:#000000;stroke-width:1.16192;stroke-dasharray:none;stroke-opacity:1"
     id="path3-4"
     cx="2075.834"
     cy="245.3625"
     rx="30.458035"
     ry="15.617028" />
  <text
     xml:space="preserve"
     style="font-style:normal;font-variant:normal;font-weight:normal;font-stretch:normal;font-size:70px;font-family:'Times New Roman';-inkscape-font-specification:'Times New Roman, Normal';font-variant-ligatures:normal;font-variant-caps:normal;font-variant-numeric:normal;font-variant-east-asian:normal;text-align:start;writing-mode:lr-tb;direction:ltr;text-anchor:start;fill:#000000;fill-opacity:1;stroke:#000000;stroke-width:1.89953;stroke-dasharray:none;stroke-opacity:1"
     x="1025.583"
     y="84.020798"
     id="text7"
     transform="scale(1.043071,0.9587075)"><tspan
       style="font-style:normal;font-variant:normal;font-weight:normal;font-stretch:normal;font-size:70px;font-family:'Times New Roman';-inkscape-font-specification:'Times New Roman, Normal';font-variant-ligatures:normal;font-variant-caps:normal;font-variant-numeric:normal;font-variant-east-asian:normal;fill:#000000;fill-opacity:1;stroke-width:1.89953"
       x="1025.583"
       y="84.020798"
       id="tspan8">perfect 8ve</tspan></text>
  <path
     style="fill:#ec5e5e;fill-opacity:0;stroke:#000000;stroke-width:2.83465;stroke-dasharray:none;stroke-opacity:1"
     d="M 334.24029,328.0866 C 1099.7188,-91.537221 2045.9121,242.69675 2045.9121,242.69675"
     id="path9" />
</svg>
