<?xml version="1.0" encoding="UTF-8" standalone="no"?>
<svg
   width="1563.0493"
   height="478.35901"
   viewBox="0 0 1563.0493 478.35902"
   version="1.2"
   id="svg356"
   sodipodi:docname="2bc.svg"
   inkscape:version="1.4 (86a8ad7, 2024-10-11)"
   xmlns:inkscape="http://www.inkscape.org/namespaces/inkscape"
   xmlns:sodipodi="http://sodipodi.sourceforge.net/DTD/sodipodi-0.dtd"
   xmlns="http://www.w3.org/2000/svg"
   xmlns:svg="http://www.w3.org/2000/svg"
   xmlns:rdf="http://www.w3.org/1999/02/22-rdf-syntax-ns#"
   xmlns:cc="http://creativecommons.org/ns#"
   xmlns:dc="http://purl.org/dc/elements/1.1/">
  <defs
     id="defs360">
    <inkscape:path-effect
       effect="bspline"
       id="path-effect8085"
       is_visible="true"
       lpeversion="1"
       weight="33.333333"
       steps="2"
       helper_size="0"
       apply_no_weight="true"
       apply_with_weight="true"
       only_selected="false" />
    <rect
       x="366.87799"
       y="681.66833"
       width="178.90964"
       height="70.205048"
       id="rect27060" />
  </defs>
  <sodipodi:namedview
     id="namedview358"
     pagecolor="#ffffff"
     bordercolor="#000000"
     borderopacity="0.25"
     inkscape:showpageshadow="2"
     inkscape:pageopacity="0.0"
     inkscape:pagecheckerboard="0"
     inkscape:deskcolor="#d1d1d1"
     showgrid="false"
     inkscape:zoom="2.1895642"
     inkscape:cx="678.21715"
     inkscape:cy="406.24522"
     inkscape:window-width="1920"
     inkscape:window-height="1111"
     inkscape:window-x="-9"
     inkscape:window-y="-9"
     inkscape:window-maximized="1"
     inkscape:current-layer="svg356" />
  <title
     id="title2">c major 2 oct 15 1 (1)</title>
  <desc
     id="desc4">Generated by MuseScore Studio 4.4.4</desc>
  <polyline
     class="StaffLines"
     fill="none"
     stroke="#000000"
     stroke-width="2.73"
     stroke-linejoin="bevel"
     points="770.4,799.077 2206.8,799.077"
     id="polyline6"
     transform="translate(-643.75066,-461.19451)" />
  <polyline
     class="StaffLines"
     fill="none"
     stroke="#000000"
     stroke-width="2.73"
     stroke-linejoin="bevel"
     points="770.4,823.877 2206.8,823.877"
     id="polyline8"
     transform="translate(-643.75066,-461.19451)" />
  <polyline
     class="StaffLines"
     fill="none"
     stroke="#000000"
     stroke-width="2.73"
     stroke-linejoin="bevel"
     points="770.4,848.677 2206.8,848.677"
     id="polyline10"
     transform="translate(-643.75066,-461.19451)" />
  <polyline
     class="StaffLines"
     fill="none"
     stroke="#000000"
     stroke-width="2.73"
     stroke-linejoin="bevel"
     points="770.4,873.477 2206.8,873.477"
     id="polyline12"
     transform="translate(-643.75066,-461.19451)" />
  <polyline
     class="StaffLines"
     fill="none"
     stroke="#000000"
     stroke-width="2.73"
     stroke-linejoin="bevel"
     points="770.4,898.277 2206.8,898.277"
     id="polyline14"
     transform="translate(-643.75066,-461.19451)" />
  <polyline
     class="BarLine"
     fill="none"
     stroke="#000000"
     stroke-width="4.46"
     stroke-linejoin="bevel"
     points="2190.93,797.713 2190.93,899.641"
     id="polyline174"
     transform="translate(-643.75066,-461.19451)" />
  <polyline
     class="BarLine"
     fill="none"
     stroke="#000000"
     stroke-width="4.46"
     stroke-linejoin="bevel"
     points="2204.57,797.713 2204.57,899.641"
     id="polyline176"
     transform="translate(-643.75066,-461.19451)" />
  <polyline
     class="LedgerLine"
     fill="none"
     stroke="#000000"
     stroke-width="3.97"
     stroke-linejoin="bevel"
     points="903.902,923.077 957.268,923.077"
     id="polyline180"
     transform="translate(-643.75066,-461.19451)" />
  <polyline
     class="LedgerLine"
     fill="none"
     stroke="#000000"
     stroke-width="3.97"
     stroke-linejoin="bevel"
     points="1923.28,774.277 1976.65,774.277"
     id="polyline190"
     transform="translate(-643.75066,-461.19451)" />
  <polyline
     class="LedgerLine"
     fill="none"
     stroke="#000000"
     stroke-width="3.97"
     stroke-linejoin="bevel"
     points="2008.23,774.277 2061.6,774.277"
     id="polyline192"
     transform="translate(-643.75066,-461.19451)" />
  <polyline
     class="LedgerLine"
     fill="none"
     stroke="#000000"
     stroke-width="3.97"
     stroke-linejoin="bevel"
     points="2093.18,774.277 2146.54,774.277"
     id="polyline194"
     transform="translate(-643.75066,-461.19451)" />
  <polyline
     class="LedgerLine"
     fill="none"
     stroke="#000000"
     stroke-width="3.97"
     stroke-linejoin="bevel"
     points="2093.18,749.477 2146.54,749.477"
     id="polyline198"
     transform="translate(-643.75066,-461.19451)" />
  <path
     class="Note"
     d="m 286.88882,448.39744 c -13.68648,0 -18.55348,6.94405 -18.55348,13.39205 0,6.448 4.867,13.39205 18.55348,13.39205 13.68652,0 18.44504,-6.94405 18.44504,-13.39205 0,-6.448 -4.75852,-13.39205 -18.44504,-13.39205 m 0.79052,23.60653 c -2.77452,0 -4.66548,-0.79048 -5.952,-3.27048 -1.28652,-2.48 -3.06895,-8.928 -3.17748,-11.5165 -0.20147,-2.6815 0.79053,-4.2625 3.17748,-5.053 1.19348,-0.40298 2.77452,-0.60455 4.37105,-0.60455 2.666,0 4.464,0.60455 5.84347,3.28605 1.39496,2.573 3.286,9.021 3.286,11.501 0,4.867 -3.58052,5.65748 -7.54852,5.65748"
     id="path258"
     style="stroke-width:0.992" />
  <path
     class="Note"
     d="m 371.83684,435.99744 c -13.6865,0 -18.5535,6.94405 -18.5535,13.39205 0,6.448 4.867,13.39205 18.5535,13.39205 13.6865,0 18.445,-6.94405 18.445,-13.39205 0,-6.448 -4.7585,-13.39205 -18.445,-13.39205 m 0.7905,23.60653 c -2.7745,0 -4.6655,-0.79048 -5.952,-3.27048 -1.2865,-2.48 -3.069,-8.928 -3.1775,-11.5165 -0.2015,-2.6815 0.7905,-4.2625 3.1775,-5.053 1.1935,-0.40298 2.7745,-0.60455 4.371,-0.60455 2.666,0 4.464,0.60455 5.8435,3.28605 1.395,2.573 3.286,9.021 3.286,11.501 0,4.867 -3.5805,5.65748 -7.5485,5.65748"
     id="path260"
     style="stroke-width:0.992" />
  <path
     class="Note"
     d="m 456.78284,423.59744 c -13.6865,0 -18.5535,6.94405 -18.5535,13.39205 0,6.448 4.867,13.39205 18.5535,13.39205 13.6865,0 18.445,-6.94405 18.445,-13.39205 0,-6.448 -4.7585,-13.39205 -18.445,-13.39205 m 0.7905,23.60653 c -2.7745,0 -4.6655,-0.79048 -5.952,-3.27048 -1.2865,-2.48 -3.069,-8.928 -3.1775,-11.5165 -0.2015,-2.6815 0.7905,-4.2625 3.1775,-5.053 1.1935,-0.40298 2.7745,-0.60455 4.371,-0.60455 2.666,0 4.464,0.60455 5.8435,3.28605 1.395,2.573 3.286,9.021 3.286,11.501 0,4.867 -3.5805,5.65748 -7.5485,5.65748"
     id="path262"
     style="stroke-width:0.992" />
  <path
     class="Note"
     d="m 541.73284,411.19744 c -13.6865,0 -18.5535,6.94405 -18.5535,13.39205 0,6.448 4.867,13.39205 18.5535,13.39205 13.6865,0 18.445,-6.94405 18.445,-13.39205 0,-6.448 -4.7585,-13.39205 -18.445,-13.39205 m 0.7905,23.60653 c -2.7745,0 -4.6655,-0.79048 -5.952,-3.27048 -1.2865,-2.48 -3.069,-8.928 -3.1775,-11.5165 -0.2015,-2.6815 0.7905,-4.2625 3.1775,-5.053 1.1935,-0.40298 2.7745,-0.60455 4.371,-0.60455 2.666,0 4.464,0.60455 5.8435,3.28605 1.395,2.573 3.286,9.021 3.286,11.501 0,4.867 -3.5805,5.65748 -7.5485,5.65748"
     id="path264"
     style="stroke-width:0.992" />
  <path
     class="Note"
     d="m 626.68284,398.79744 c -13.6865,0 -18.5535,6.94405 -18.5535,13.39205 0,6.448 4.867,13.39205 18.5535,13.39205 13.6865,0 18.445,-6.94405 18.445,-13.39205 0,-6.448 -4.7585,-13.39205 -18.445,-13.39205 m 0.7905,23.60653 c -2.7745,0 -4.6655,-0.79048 -5.952,-3.27048 -1.2865,-2.48 -3.069,-8.928 -3.1775,-11.5165 -0.2015,-2.6815 0.7905,-4.2625 3.1775,-5.053 1.1935,-0.40298 2.7745,-0.60455 4.371,-0.60455 2.666,0 4.464,0.60455 5.8435,3.28605 1.395,2.573 3.286,9.021 3.286,11.501 0,4.867 -3.5805,5.65748 -7.5485,5.65748"
     id="path266"
     style="stroke-width:0.992" />
  <path
     class="Note"
     d="m 711.63284,386.39744 c -13.6865,0 -18.5535,6.94405 -18.5535,13.39205 0,6.448 4.867,13.39205 18.5535,13.39205 13.6865,0 18.445,-6.94405 18.445,-13.39205 0,-6.448 -4.7585,-13.39205 -18.445,-13.39205 m 0.7905,23.60653 c -2.7745,0 -4.6655,-0.79048 -5.952,-3.27048 -1.2865,-2.48 -3.069,-8.928 -3.1775,-11.5165 -0.2015,-2.6815 0.7905,-4.2625 3.1775,-5.053 1.1935,-0.40298 2.7745,-0.60455 4.371,-0.60455 2.666,0 4.464,0.60455 5.8435,3.28605 1.395,2.573 3.286,9.021 3.286,11.501 0,4.867 -3.5805,5.65748 -7.5485,5.65748"
     id="path268"
     style="stroke-width:0.992" />
  <path
     class="Note"
     d="m 796.57284,373.99744 c -13.6865,0 -18.5535,6.94405 -18.5535,13.39205 0,6.448 4.867,13.39205 18.5535,13.39205 13.6865,0 18.445,-6.94405 18.445,-13.39205 0,-6.448 -4.7585,-13.39205 -18.445,-13.39205 m 0.7905,23.60653 c -2.7745,0 -4.6655,-0.79048 -5.952,-3.27048 -1.2865,-2.48 -3.069,-8.928 -3.1775,-11.5165 -0.2015,-2.6815 0.7905,-4.2625 3.1775,-5.053 1.1935,-0.40298 2.7745,-0.60455 4.371,-0.60455 2.666,0 4.464,0.60455 5.8435,3.28605 1.395,2.573 3.286,9.021 3.286,11.501 0,4.867 -3.5805,5.65748 -7.5485,5.65748"
     id="path270"
     style="stroke-width:0.992" />
  <path
     class="Note"
     d="m 881.52284,361.59744 c -13.6865,0 -18.5535,6.94405 -18.5535,13.39205 0,6.448 4.867,13.39205 18.5535,13.39205 13.6865,0 18.445,-6.94405 18.445,-13.39205 0,-6.448 -4.7585,-13.39205 -18.445,-13.39205 m 0.7905,23.60653 c -2.7745,0 -4.6655,-0.79048 -5.952,-3.27048 -1.2865,-2.48 -3.069,-8.928 -3.1775,-11.5165 -0.2015,-2.6815 0.7905,-4.2625 3.1775,-5.053 1.1935,-0.40298 2.7745,-0.60455 4.371,-0.60455 2.666,0 4.464,0.60455 5.8435,3.28605 1.395,2.573 3.286,9.021 3.286,11.501 0,4.867 -3.5805,5.65748 -7.5485,5.65748"
     id="path272"
     style="stroke-width:0.992" />
  <path
     class="Note"
     d="m 966.47284,349.19744 c -13.6865,0 -18.5535,6.94405 -18.5535,13.39205 0,6.448 4.867,13.39205 18.5535,13.39205 13.6865,0 18.445,-6.94405 18.445,-13.39205 0,-6.448 -4.7585,-13.39205 -18.445,-13.39205 m 0.7905,23.60653 c -2.7745,0 -4.6655,-0.79048 -5.952,-3.27048 -1.2865,-2.48 -3.069,-8.928 -3.1775,-11.5165 -0.2015,-2.6815 0.7905,-4.2625 3.1775,-5.053 1.1935,-0.40298 2.7745,-0.60455 4.371,-0.60455 2.666,0 4.464,0.60455 5.8435,3.28605 1.395,2.573 3.286,9.021 3.286,11.501 0,4.867 -3.5805,5.65748 -7.5485,5.65748"
     id="path274"
     style="stroke-width:0.992" />
  <path
     class="Note"
     d="m 1051.4228,336.79744 c -13.6865,0 -18.5535,6.94405 -18.5535,13.39205 0,6.448 4.867,13.39205 18.5535,13.39205 13.6865,0 18.445,-6.94405 18.445,-13.39205 0,-6.448 -4.7585,-13.39205 -18.445,-13.39205 m 0.7905,23.60653 c -2.7745,0 -4.6655,-0.79048 -5.952,-3.27048 -1.2865,-2.48 -3.069,-8.928 -3.1775,-11.5165 -0.2015,-2.6815 0.7905,-4.2625 3.1775,-5.053 1.1935,-0.40298 2.7745,-0.60455 4.371,-0.60455 2.666,0 4.464,0.60455 5.8435,3.28605 1.395,2.573 3.286,9.021 3.286,11.501 0,4.867 -3.5805,5.65748 -7.5485,5.65748"
     id="path276"
     style="stroke-width:0.992" />
  <path
     class="Note"
     d="m 1136.3728,324.39744 c -13.6865,0 -18.5535,6.94405 -18.5535,13.39205 0,6.448 4.867,13.39205 18.5535,13.39205 13.6865,0 18.445,-6.94405 18.445,-13.39205 0,-6.448 -4.7585,-13.39205 -18.445,-13.39205 m 0.7905,23.60653 c -2.7745,0 -4.6655,-0.79048 -5.952,-3.27048 -1.2865,-2.48 -3.069,-8.928 -3.1775,-11.5165 -0.2015,-2.6815 0.7905,-4.2625 3.1775,-5.053 1.1935,-0.40298 2.7745,-0.60455 4.371,-0.60455 2.666,0 4.464,0.60455 5.8435,3.28605 1.395,2.573 3.286,9.021 3.286,11.501 0,4.867 -3.5805,5.65748 -7.5485,5.65748"
     id="path278"
     style="stroke-width:0.992" />
  <path
     class="Note"
     d="m 1221.3228,311.99744 c -13.6865,0 -18.5535,6.94405 -18.5535,13.39205 0,6.448 4.867,13.39205 18.5535,13.39205 13.6865,0 18.445,-6.94405 18.445,-13.39205 0,-6.448 -4.7585,-13.39205 -18.445,-13.39205 m 0.7905,23.60653 c -2.7745,0 -4.6655,-0.79048 -5.952,-3.27048 -1.2865,-2.48 -3.069,-8.928 -3.1775,-11.5165 -0.2015,-2.6815 0.7905,-4.2625 3.1775,-5.053 1.1935,-0.40298 2.7745,-0.60455 4.371,-0.60455 2.666,0 4.464,0.60455 5.8435,3.28605 1.395,2.573 3.286,9.021 3.286,11.501 0,4.867 -3.5805,5.65748 -7.5485,5.65748"
     id="path280"
     style="stroke-width:0.992" />
  <path
     class="Note"
     d="m 1306.2628,299.59744 c -13.6865,0 -18.5535,6.94405 -18.5535,13.39205 0,6.448 4.867,13.39205 18.5535,13.39205 13.6865,0 18.445,-6.94405 18.445,-13.39205 0,-6.448 -4.7585,-13.39205 -18.445,-13.39205 m 0.7905,23.60653 c -2.7745,0 -4.6655,-0.79048 -5.952,-3.27048 -1.2865,-2.48 -3.069,-8.928 -3.1775,-11.5165 -0.2015,-2.6815 0.7905,-4.2625 3.1775,-5.053 1.1935,-0.40298 2.7745,-0.60455 4.371,-0.60455 2.666,0 4.464,0.60455 5.8435,3.28605 1.395,2.573 3.286,9.021 3.286,11.501 0,4.867 -3.5805,5.65748 -7.5485,5.65748"
     id="path282"
     style="stroke-width:0.992" />
  <path
     class="Note"
     d="m 1391.2128,287.19744 c -13.6865,0 -18.5535,6.94405 -18.5535,13.39205 0,6.448 4.867,13.39205 18.5535,13.39205 13.6865,0 18.445,-6.94405 18.445,-13.39205 0,-6.448 -4.7585,-13.39205 -18.445,-13.39205 m 0.7905,23.60653 c -2.7745,0 -4.6655,-0.79048 -5.952,-3.27048 -1.2865,-2.48 -3.069,-8.928 -3.1775,-11.5165 -0.2015,-2.6815 0.7905,-4.2625 3.1775,-5.053 1.1935,-0.40298 2.7745,-0.60455 4.371,-0.60455 2.666,0 4.464,0.60455 5.8435,3.28605 1.395,2.573 3.286,9.021 3.286,11.501 0,4.867 -3.5805,5.65748 -7.5485,5.65748"
     id="path284"
     style="stroke-width:0.992" />
  <path
     class="Note"
     d="m 1476.1628,274.79744 c -13.6865,0 -18.5535,6.94405 -18.5535,13.39205 0,6.448 4.867,13.39205 18.5535,13.39205 13.6865,0 18.445,-6.94405 18.445,-13.39205 0,-6.448 -4.7585,-13.39205 -18.445,-13.39205 m 0.7905,23.60653 c -2.7745,0 -4.6655,-0.79048 -5.952,-3.27048 -1.2865,-2.48 -3.069,-8.928 -3.1775,-11.5165 -0.2015,-2.6815 0.7905,-4.2625 3.1775,-5.053 1.1935,-0.40298 2.7745,-0.60455 4.371,-0.60455 2.666,0 4.464,0.60455 5.8435,3.28605 1.395,2.573 3.286,9.021 3.286,11.501 0,4.867 -3.5805,5.65748 -7.5485,5.65748"
     id="path286"
     style="stroke-width:0.992" />
  <path
     class="Clef"
     d="m 157.44786,463.16901 c 0,6.55653 4.96,15.19 18.352,15.19 4.66548,0 8.742,-1.19347 12.30696,-3.37904 5.36304,-3.76643 6.74252,-10.32296 6.74252,-16.56948 0,-3.85948 -0.58895,-8.32348 -1.58095,-13.98095 -0.29453,-1.984 -0.89905,-4.96 -1.488,-8.83505 9.71843,-3.17748 16.95695,-13.29895 16.95695,-23.5135 0,-14.97302 -10.61748,-25.0945 -25.09452,-25.0945 -0.992,-5.952 -1.984,-11.81105 -2.77443,-17.36 10.416,-11.02052 17.65443,-23.42052 17.65443,-39.184 0,-9.03652 -2.77443,-16.368 -4.37096,-19.94813 -2.37147,-5.05325 -5.25452,-8.52525 -7.03704,-8.52525 -0.69748,0 -3.76643,1.19338 -7.03696,5.05325 -6.35504,7.54813 -8.13747,20.24265 -8.13747,28.56613 0,5.36295 0.496,10.23 2.18547,21.34348 -0.10852,0.093 -5.27,5.34747 -7.34704,7.03704 -9.03643,8.33896 -21.52948,20.42896 -21.52948,40.28448 0,18.53805 16.16652,33.12352 34.62705,33.12352 2.86747,0 5.54895,-0.29452 7.82747,-0.69747 1.89096,9.53243 3.08453,16.47643 3.08453,21.73095 0,10.32305 -5.36305,15.77905 -15.376,15.77905 -2.38705,0 -4.464,-0.496 -4.66557,-0.496 -0.093,-0.10853 -0.29443,-0.20157 -0.29443,-0.29453 0,-0.20147 0.20147,-0.31 0.496,-0.31 4.66547,-0.79052 9.31547,-4.75852 9.31547,-11.098 0,-5.36304 -4.06104,-11.02052 -11.50104,-11.02052 -6.944,0 -11.31496,5.65748 -11.31496,12.19852 m 20.73896,-132.432 c 0.89904,-3.968 5.456,-14.384 10.61757,-14.384 1.488,0 3.85947,4.75843 3.85947,11.70243 0,10.32305 -7.626,18.05757 -14.47704,24.8 -0.58896,-3.968 -1.08496,-7.82747 -1.08496,-11.99695 0,-3.67348 0.29453,-7.05252 1.08496,-10.12148 m 8.72652,101.97453 c -1.984,0.40295 -3.85948,0.60443 -5.75052,0.60443 -14.18243,0 -26.28798,-9.92 -26.28798,-24.90848 0,-12.09005 8.52502,-22.909 17.26702,-30.45752 1.674,-1.488 3.27053,-2.86748 4.75853,-4.35548 0.88347,5.34748 1.58095,10.01295 2.27843,14.08948 -9.03643,2.68147 -15.17443,12.19852 -15.17443,21.52952 0,6.944 5.456,16.461 13.392,16.461 0.79043,0 1.68947,-0.40295 1.68947,-1.28652 0,-0.89896 -0.992,-1.39496 -2.18547,-2.18548 -3.87505,-2.387 -6.06053,-4.96 -6.06053,-9.827 0,-6.045 4.57253,-10.91205 10.32296,-12.29152 l 5.75052,32.62757 m 14.08948,-18.35205 c 0,7.0525 -2.88296,14.291 -9.92,17.17405 -2.07696,-11.90405 -4.75843,-27.68305 -5.456,-32.0541 8.928,0 15.376,6.06055 15.376,14.88005"
     id="path306"
     style="stroke-width:0.992" />
  <rect
     style="fill:#0e0e0e;fill-opacity:0"
     id="rect1993"
     width="83.271233"
     height="70.460274"
     x="79.219353"
     y="42.239136" />
  <path
     style="fill:#000000;fill-opacity:0;fill-rule:nonzero;stroke:#000000;stroke-width:1.8;stroke-dasharray:none;stroke-opacity:1"
     d="m 469.95277,405.55638 23.63483,-41.10406 27.97361,38.47797"
     id="path248"
     sodipodi:nodetypes="ccc" />
  <path
     style="fill:#000000;fill-opacity:0;fill-rule:nonzero;stroke:#000000;stroke-width:1.8;stroke-dasharray:none;stroke-opacity:1"
     d="M 806.58517,358.53121 830.22,317.42715 858.19361,355.90512"
     id="path4446"
     sodipodi:nodetypes="ccc" />
  <path
     style="fill:#000000;fill-opacity:0;fill-rule:nonzero;stroke:#000000;stroke-width:1.8;stroke-dasharray:none;stroke-opacity:1"
     d="m 1063.0028,321.71559 23.6348,-41.10406 27.9736,38.47797"
     id="path4448"
     sodipodi:nodetypes="ccc" />
  <path
     style="fill:#000000;fill-opacity:0;fill-rule:nonzero;stroke:#000000;stroke-width:1.8;stroke-dasharray:none;stroke-opacity:1"
     d="m 1400.8023,272.62809 23.6348,-41.10406 27.9736,38.47797"
     id="path4450"
     sodipodi:nodetypes="ccc" />
  <metadata
     id="metadata4815">
    <rdf:RDF>
      <cc:Work
         rdf:about="">
        <dc:title>c major 2 oct 15 1 (1)</dc:title>
      </cc:Work>
    </rdf:RDF>
  </metadata>
  <g
     id="g1"
     transform="translate(510.60389,-73.987326)">
    <ellipse
       style="fill:#000000;fill-opacity:0;fill-rule:nonzero;stroke:#000000;stroke-width:1.949;stroke-dasharray:none;stroke-opacity:1"
       id="path5271"
       cx="286.9613"
       cy="461.38791"
       rx="29.233112"
       ry="17.122707" />
    <ellipse
       style="fill:#000000;fill-opacity:0;fill-rule:nonzero;stroke:#000000;stroke-width:1.949;stroke-dasharray:none;stroke-opacity:1"
       id="ellipse8081"
       cx="371.39014"
       cy="449.47061"
       rx="29.233112"
       ry="17.122707" />
    <path
       style="fill:#000000;fill-opacity:0;fill-rule:nonzero;stroke:#000000;stroke-width:1.949;stroke-dasharray:none;stroke-opacity:1"
       d="m 282.33594,444.02852 c 13.97231,-47.15318 27.9442,-94.30491 42.8599,-96.33677 14.91571,-2.03186 30.77295,41.05734 46.63006,84.14621"
       id="path8083"
       inkscape:path-effect="#path-effect8085"
       inkscape:original-d="m 282.33594,444.02852 c 13.97231,-47.15318 27.94419,-94.30491 41.9173,-141.46075 15.85831,43.09212 31.71555,86.18132 47.57266,129.27019"
       sodipodi:nodetypes="ccc" />
  </g>
  <text
     xml:space="preserve"
     id="text27058"
     style="font-style:normal;font-variant:normal;font-weight:normal;font-stretch:normal;font-size:48px;font-family:'Times New Roman';-inkscape-font-specification:'Times New Roman, Normal';font-variant-ligatures:normal;font-variant-caps:normal;font-variant-numeric:normal;font-variant-east-asian:normal;white-space:pre;shape-inside:url(#rect27060);display:inline;fill:#000000;stroke:#000000;stroke-width:0.2"
     transform="translate(406.9062,-479.26826)"><tspan
       x="366.87891"
       y="724.27377"
       id="tspan1">minor</tspan></text>
</svg>
