<?xml version="1.0" encoding="UTF-8" standalone="no"?>
<svg
   width="94.99601mm"
   height="17.66328mm"
   viewBox="0 0 1346.4001 250.34571"
   version="1.2"
   id="svg212"
   xmlns="http://www.w3.org/2000/svg"
   xmlns:svg="http://www.w3.org/2000/svg">
  <defs
     id="defs212">
    <marker
       style="overflow:visible"
       id="Triangle-4-8-3-8"
       refX="0"
       refY="0"
       orient="auto-start-reverse"
       markerWidth="1"
       markerHeight="1"
       viewBox="0 0 1 1"
       preserveAspectRatio="xMidYMid">
      <path
         transform="scale(0.5)"
         style="fill:context-stroke;fill-rule:evenodd;stroke:context-stroke;stroke-width:1pt"
         d="M 5.77,0 -2.88,5 V -5 Z"
         id="path221-6-3-3-9" />
    </marker>
  </defs>
  <title
     id="title1">transposing (1)</title>
  <desc
     id="desc1">Generated by MuseScore Studio 4.5.2</desc>
  <polyline
     class="StaffLines"
     fill="none"
     stroke="#000000"
     stroke-width="2.81"
     stroke-linejoin="bevel"
     points="842.4,2717.7 2188.8,2717.7"
     id="polyline36"
     transform="translate(-842.4001,-2638.2701)" />
  <polyline
     class="StaffLines"
     fill="none"
     stroke="#000000"
     stroke-width="2.81"
     stroke-linejoin="bevel"
     points="842.4,2743.26 2188.8,2743.26"
     id="polyline37"
     transform="translate(-842.4001,-2638.2701)" />
  <polyline
     class="StaffLines"
     fill="none"
     stroke="#000000"
     stroke-width="2.81"
     stroke-linejoin="bevel"
     points="842.4,2768.82 2188.8,2768.82"
     id="polyline38"
     transform="translate(-842.4001,-2638.2701)" />
  <polyline
     class="StaffLines"
     fill="none"
     stroke="#000000"
     stroke-width="2.81"
     stroke-linejoin="bevel"
     points="842.4,2794.38 2188.8,2794.38"
     id="polyline39"
     transform="translate(-842.4001,-2638.2701)" />
  <polyline
     class="StaffLines"
     fill="none"
     stroke="#000000"
     stroke-width="2.81"
     stroke-linejoin="bevel"
     points="842.4,2819.94 2188.8,2819.94"
     id="polyline40"
     transform="translate(-842.4001,-2638.2701)" />
  <path
     class="MeasureNumber"
     d="m 17.358904,-1.4230394e-4 h -1.156 C 13.999904,1.6398577 9.765904,3.0298577 6.874904,3.0298577 l -0.469,1.77 h 2.75 c 2.438,0 2.719,0.08 2.719,0.8 0,0.36 0,0.36 -0.391,1.79 l -4.281,16.0000003 c -0.531,2 -0.562,2.13 -0.922,2.49 -0.406,0.39 -1.25,0.51 -3.359,0.56 h -1.719 l -0.20300002,1.87 H 15.796904 l 0.234,-1.87 h -2.156 c -2.594,0 -3.156,-0.2 -3.156,-1.08 0,-0.28 0.156,-1.2 0.359,-1.97 l 6.281,-23.39000030394 m 17.672,0.15999999394 c -8.594,0 -12.875,11.84000031 -12.875,18.87000031 0,5.8 2.891,9.88 6.969,9.88 6.828,0 12.953,-8.88 12.953,-18.8 0,-5.9500003 -2.844,-9.95000031 -7.047,-9.95000031 m -0.031,1.59000001 c 2.078,0 3.203,1.85 3.203,5.28 0,3.9300003 -1,9.0000003 -2.641,13.1300003 -1.921,5 -3.843,7.15 -6.25,7.15 -2.156,0 -3.359,-1.92 -3.359,-5.31 0,-5.2 1.844,-12.1700003 4.406,-16.7900003 1.235,-2.25 2.844,-3.46 4.641,-3.46"
     id="path60" />
  <polyline
     class="BarLine"
     fill="none"
     stroke="#000000"
     stroke-width="4.6"
     stroke-linejoin="bevel"
     points="2172.44,2716.3 2172.44,2821.35"
     id="polyline74"
     transform="translate(-842.4001,-2638.2701)" />
  <polyline
     class="BarLine"
     fill="none"
     stroke="#000000"
     stroke-width="4.6"
     stroke-linejoin="bevel"
     points="2186.5,2716.3 2186.5,2821.35"
     id="polyline75"
     transform="translate(-842.4001,-2638.2701)" />
  <polyline
     class="Stem"
     fill="none"
     stroke="#000000"
     stroke-width="2.56"
     stroke-linejoin="bevel"
     points="1119.58,2815.86 1119.58,2723.98"
     id="polyline95"
     transform="translate(-842.4001,-2638.2701)" />
  <polyline
     class="Stem"
     fill="none"
     stroke="#000000"
     stroke-width="2.56"
     stroke-linejoin="bevel"
     points="1263.91,2777.52 1263.91,2711.43"
     id="polyline97"
     transform="translate(-842.4001,-2638.2701)" />
  <polyline
     class="Stem"
     fill="none"
     stroke="#000000"
     stroke-width="2.56"
     stroke-linejoin="bevel"
     points="1408.25,2790.3 1408.25,2704.76"
     id="polyline99"
     transform="translate(-842.4001,-2638.2701)" />
  <polyline
     class="Stem"
     fill="none"
     stroke="#000000"
     stroke-width="2.56"
     stroke-linejoin="bevel"
     points="1552.58,2751.96 1552.58,2685.92"
     id="polyline100"
     transform="translate(-842.4001,-2638.2701)" />
  <polyline
     class="Stem"
     fill="none"
     stroke="#000000"
     stroke-width="2.56"
     stroke-linejoin="bevel"
     points="1696.91,2764.74 1696.91,2698.7"
     id="polyline101"
     transform="translate(-842.4001,-2638.2701)" />
  <polyline
     class="Stem"
     fill="none"
     stroke="#000000"
     stroke-width="2.56"
     stroke-linejoin="bevel"
     points="1841.24,2828.64 1841.24,2717.54"
     id="polyline102"
     transform="translate(-842.4001,-2638.2701)" />
  <polyline
     class="Stem"
     fill="none"
     stroke="#000000"
     stroke-width="2.56"
     stroke-linejoin="bevel"
     points="1985.58,2815.86 1985.58,2730.48"
     id="polyline104"
     transform="translate(-842.4001,-2638.2701)" />
  <path
     class="Note"
     d="m 966.9099,198.74715 c 0,4.3931 3.1631,9.2975 11.4541,9.2975 10.6234,0 21.7739,-8.6905 21.7739,-17.6844 0,-6.0386 -5.112,-9.4092 -11.454,-9.4092 -9.9205,0 -21.774,8.3868 -21.774,17.7961"
     id="path134"
     style="stroke-width:1.0224" />
  <path
     class="Note"
     d="m 1111.2399,185.96715 c 0,4.3931 3.1631,9.2975 11.4541,9.2975 10.6234,0 21.7739,-8.6905 21.7739,-17.6844 0,-6.0385 -5.112,-9.4092 -11.454,-9.4092 -9.9205,0 -21.774,8.3868 -21.774,17.7961"
     id="path143"
     style="stroke-width:1.0224" />
  <path
     class="Note"
     d="m 245.2499,185.96715 c 0,4.3931 3.1631,9.2975 11.4541,9.2975 10.6234,0 21.7739,-8.6905 21.7739,-17.6844 0,-6.0385 -5.112,-9.4092 -11.454,-9.4092 -9.9205,0 -21.774,8.3868 -21.774,17.7961"
     id="path152"
     style="stroke-width:1.0224" />
  <path
     class="Note"
     d="m 389.5799,147.62715 c 0,4.3931 3.1631,9.2975 11.4541,9.2975 10.6234,0 21.7739,-8.6905 21.7739,-17.6844 0,-6.0385 -5.112,-9.4092 -11.454,-9.4092 -9.9205,0 -21.774,8.3868 -21.774,17.7961"
     id="path155"
     style="stroke-width:1.0224" />
  <path
     class="Note"
     d="m 533.9099,160.40715 c 0,4.3931 3.1631,9.2975 11.4541,9.2975 10.6234,0 21.7739,-8.6905 21.7739,-17.6844 0,-6.0385 -5.112,-9.4092 -11.454,-9.4092 -9.9205,0 -21.774,8.3868 -21.774,17.7961"
     id="path157"
     style="stroke-width:1.0224" />
  <path
     class="Note"
     d="m 678.2499,122.06715 c 0,4.3931 3.1631,9.2975 11.4541,9.2975 10.6234,0 21.7739,-8.6905 21.7739,-17.6844 0,-6.0385 -5.112,-9.4092 -11.454,-9.4092 -9.9205,0 -21.774,8.3868 -21.774,17.7961"
     id="path160"
     style="stroke-width:1.0224" />
  <path
     class="Note"
     d="m 822.5799,134.84715 c 0,4.3931 3.1631,9.2975 11.4541,9.2975 10.6234,0 21.7739,-8.6905 21.7739,-17.6844 0,-6.0385 -5.112,-9.4092 -11.454,-9.4092 -9.9205,0 -21.774,8.3868 -21.774,17.7961"
     id="path162"
     style="stroke-width:1.0224" />
  <path
     class="Clef"
     d="m 76.632004,158.25055 c 0,7.2686 -2.9713,14.7289 -10.224,17.7003 -2.1406,-12.2688 -4.9043,-28.5314 -5.6232,-33.0364 9.2016,0 15.8472,6.2463 15.8472,15.3361 m -14.5213,18.9144 c -2.0448,0.4153 -3.9777,0.6229 -5.9267,0.6229 -14.6171,0 -27.0936,-10.224 -27.0936,-25.6717 0,-12.4606 8.7863,-23.6111 17.7962,-31.391 1.7253,-1.5336 3.3707,-2.9553 4.9043,-4.4889 0.9106,5.5113 1.6294,10.3198 2.3483,14.5212 -9.3134,2.7637 -15.6395,12.5724 -15.6395,22.1894 0,7.1568 5.6232,16.9654 13.8024,16.9654 0.8147,0 1.7413,-0.4153 1.7413,-1.326 0,-0.9264 -1.0224,-1.4376 -2.2525,-2.2524 -3.9938,-2.4601 -6.2462,-5.112 -6.2462,-10.1281 0,-6.2303 4.6008,-11.2465 10.6393,-12.6683 l 5.9267,33.6275 m -8.9939,-105.099492 c 0.9266,-4.0896 5.6232,-14.8248 10.9429,-14.8248 1.5336,0 3.9778,5.0001 3.9778,12.061 0,10.6394 -7.8597,18.611 -14.9207,25.56 -0.607,-4.0896 -1.1182,-8.0674 -1.1182,-12.3646 0,-3.786 0.3035,-7.2687 1.1182,-10.4316 m -21.4704,136.490392 c 0,6.7574 5.2079,15.6555 19.0103,15.6555 4.8084,0 9.0099,-1.2301 12.6841,-3.4827 5.5274,-3.8818 6.9491,-10.6392 6.9491,-17.0772 0,-3.9777 -0.607,-8.5785 -1.6294,-14.4094 -0.3035,-2.0448 -0.9266,-5.112 -1.5336,-9.1058 10.0163,-3.2748 17.4766,-13.7065 17.4766,-24.2341 0,-15.4319 -10.9428,-25.8635 -25.8635,-25.8635 -1.0224,-6.1344 -2.0448,-12.173 -2.9713,-17.892 10.847,-11.3583 18.3073,-24.138292 18.3073,-40.384792 0,-9.3135 -2.8595,-16.8696 -4.5049,-20.5594 -2.4442,-5.2081 -5.4156,-8.7865 -7.2527,-8.7865 -0.7189,0 -3.8819,1.2299 -7.2526,5.2081 -6.5498,7.7794 -8.3869,20.863 -8.3869,29.4415 0,5.5273 0.5112,10.5435 2.2525,21.9975 -0.1119,0.096 -5.4315,5.511392 -7.5722,7.252792 -9.3134,8.6904 -22.1893,21.0549 -22.1893,41.519 0,19.1061 16.662,34.1386 35.6882,34.1386 2.9554,0 5.719,-0.3036 8.0674,-0.7189 1.9489,9.8245 3.0672,16.9813 3.0672,22.3969 0,10.6394 -5.4156,16.2626 -15.7354,16.2626 -2.4602,0 -4.6008,-0.5112 -4.8085,-0.5112 -0.096,-0.1118 -0.3035,-0.2078 -0.3035,-0.3035 0,-0.2077 0.2077,-0.3195 0.5112,-0.4155 4.8085,-0.7188 9.601,-4.8084 9.601,-11.3421 0,-5.5275 -4.1855,-11.3583 -11.8535,-11.3583 -7.1568,0 -11.7576,5.8308 -11.7576,12.5724"
     id="path169"
     style="stroke-width:1.0224" />
  <path
     class="KeySig"
     d="m 124.3018,122.46655 c -0.6071,-3.9779 -3.0672,-7.7639 -8.2751,-7.7639 -5.112,0 -8.0833,3.163 -8.5945,3.786 l 0.4153,-32.828592 c 0,-0.8146 -0.607,-1.4218 -1.4377,-1.4218 h -1.2141 c -0.8307,0 -1.4378,0.6072 -1.4378,1.4218 l 0.5112,61.455792 c 0,0.8148 0.6071,1.4219 1.4378,1.4219 0.1917,0 0.607,-0.096 0.8147,-0.1917 0.3994,-0.2078 7.045,-3.4826 12.5723,-9.7128 3.882,-4.4091 5.4156,-9.4093 5.4156,-13.6107 0,-0.9106 -0.096,-1.7253 -0.2077,-2.556 m -7.045,3.9937 c 0,1.5336 -0.4153,6.2303 -2.9713,10.1282 -1.7413,2.6518 -5.2079,5.4154 -7.1569,6.949 l 0.3036,-19.9367 c 0.2076,-0.9266 1.7412,-3.882 5.8308,-3.882 3.6903,0 3.9938,3.4666 3.9938,5.6233 0,0.5112 0,0.8147 0,1.1182"
     id="path179"
     style="stroke-width:1.0224" />
  <path
     class="KeySig"
     d="m 152.7208,84.126558 c -0.6071,-3.9779 -3.0672,-7.7639 -8.2751,-7.7639 -5.112,0 -8.0833,3.163 -8.5945,3.786 l 0.4153,-32.8286 c 0,-0.8146 -0.607,-1.4218 -1.4377,-1.4218 h -1.2141 c -0.8307,0 -1.4378,0.6072 -1.4378,1.4218 l 0.5112,61.455792 c 0,0.8148 0.6071,1.4219 1.4378,1.4219 0.1917,0 0.607,-0.096 0.8147,-0.1917 0.3994,-0.2078 7.045,-3.4826 12.5723,-9.7128 3.882,-4.409092 5.4156,-9.409292 5.4156,-13.610692 0,-0.9106 -0.096,-1.7253 -0.2077,-2.556 m -7.045,3.9937 c 0,1.5336 -0.4153,6.2302 -2.9713,10.1282 -1.7413,2.651792 -5.2079,5.415392 -7.1569,6.948992 l 0.3036,-19.936692 c 0.2076,-0.9266 1.7412,-3.882 5.8308,-3.882 3.6903,0 3.9938,3.4666 3.9938,5.6233 0,0.5112 0,0.8147 0,1.1182"
     id="path180"
     style="stroke-width:1.0224" />
  <path
     class="KeySig"
     d="m 181.1438,135.24655 c -0.6071,-3.9779 -3.0672,-7.7639 -8.2751,-7.7639 -5.112,0 -8.0833,3.163 -8.5945,3.786 l 0.4153,-32.828592 c 0,-0.8146 -0.607,-1.4218 -1.4377,-1.4218 h -1.2141 c -0.8307,0 -1.4378,0.6072 -1.4378,1.4218 l 0.5112,61.455792 c 0,0.8148 0.6071,1.4219 1.4378,1.4219 0.1917,0 0.607,-0.096 0.8147,-0.1917 0.3994,-0.2078 7.045,-3.4826 12.5723,-9.7129 3.882,-4.409 5.4156,-9.4092 5.4156,-13.6106 0,-0.9106 -0.096,-1.7253 -0.2077,-2.556 m -7.045,3.9937 c 0,1.5336 -0.4153,6.2302 -2.9713,10.1282 -1.7413,2.6518 -5.2079,5.4154 -7.1569,6.949 l 0.3036,-19.9367 c 0.2076,-0.9266 1.7412,-3.882 5.8308,-3.882 3.6903,0 3.9938,3.4666 3.9938,5.6233 0,0.5112 0,0.8147 0,1.1182"
     id="path181"
     style="stroke-width:1.0224" />
  <path
     class="Beam"
     fill-rule="evenodd"
     d="m 564.5699,60.209858 146.89,-19.17 v 12.89 l -146.89,19.17 v -12.89"
     id="path201" />
  <path
     class="Beam"
     fill-rule="evenodd"
     d="m 275.8999,79.409858 146.89,-12.78 v 12.83 l -146.89,12.78 v -12.83"
     id="path203" />
  <path
     class="Beam"
     fill-rule="evenodd"
     d="m 853.2299,53.819858 146.89,19.17 v 12.89 l -146.89,-19.17 v -12.89"
     id="path204" />
  <path
     style="fill:#000000;stroke:#000000;stroke-width:2.83465;stroke-linecap:square;stroke-opacity:1;marker-end:url(#Triangle-4-8-3-8);paint-order:stroke fill markers"
     d="m 1009.3348,215.87845 80.5381,-19.205"
     id="path220-0-3-0-0" />
  <text
     xml:space="preserve"
     style="font-size:55px;font-family:'Times New Roman';-inkscape-font-specification:'Times New Roman, Normal';text-align:start;writing-mode:lr-tb;direction:ltr;text-anchor:start;fill:#000000;stroke:#000000;stroke-width:2.83465;stroke-linecap:square;stroke-opacity:0;paint-order:stroke fill markers"
     x="1025.304"
     y="248.9281"
     id="text214-7-5-1-5-9-7"><tspan
       id="tspan214-7-9-8-1-7-8"
       style="font-size:55px;stroke-width:2.83465"
       x="1025.304"
       y="248.9281">m2</tspan></text>
</svg>
