<?xml version="1.0" encoding="UTF-8" standalone="no"?>
<svg
   width="25.75313mm"
   height="14.633247mm"
   viewBox="0 0 365.00499 207.40036"
   version="1.2"
   id="svg190"
   sodipodi:docname="aa5-2.svg"
   xmlns:inkscape="http://www.inkscape.org/namespaces/inkscape"
   xmlns:sodipodi="http://sodipodi.sourceforge.net/DTD/sodipodi-0.dtd"
   xmlns="http://www.w3.org/2000/svg"
   xmlns:svg="http://www.w3.org/2000/svg">
  <defs
     id="defs190" />
  <sodipodi:namedview
     id="namedview190"
     pagecolor="#505050"
     bordercolor="#eeeeee"
     borderopacity="1"
     inkscape:showpageshadow="0"
     inkscape:pageopacity="0"
     inkscape:pagecheckerboard="0"
     inkscape:deskcolor="#505050"
     inkscape:document-units="mm">
    <inkscape:page
       x="1.3016655e-13"
       y="0"
       width="365.005"
       height="207.40036"
       id="page2"
       margin="0"
       bleed="0" />
  </sodipodi:namedview>
  <title
     id="title1">test1 (2)</title>
  <desc
     id="desc1">Generated by MuseScore Studio 4.5.2</desc>
  <polyline
     class="StaffLines"
     fill="none"
     stroke="#000000"
     stroke-width="3.21"
     stroke-linejoin="bevel"
     points="2399.6,416.718 2764.6,416.718"
     id="polyline1-0"
     transform="translate(-2399.6,-374.49082)"
     inkscape:export-filename="comp\dhigis.svg"
     inkscape:export-xdpi="96"
     inkscape:export-ydpi="96" />
  <polyline
     class="StaffLines"
     fill="none"
     stroke="#000000"
     stroke-width="3.21"
     stroke-linejoin="bevel"
     points="2399.6,445.878 2764.6,445.878"
     id="polyline2-9"
     transform="translate(-2399.6,-374.49082)" />
  <polyline
     class="StaffLines"
     fill="none"
     stroke="#000000"
     stroke-width="3.21"
     stroke-linejoin="bevel"
     points="2399.6,475.038 2764.6,475.038"
     id="polyline3-4"
     transform="translate(-2399.6,-374.49082)" />
  <polyline
     class="StaffLines"
     fill="none"
     stroke="#000000"
     stroke-width="3.21"
     stroke-linejoin="bevel"
     points="2399.6,504.198 2764.6,504.198"
     id="polyline4-8"
     transform="translate(-2399.6,-374.49082)" />
  <polyline
     class="StaffLines"
     fill="none"
     stroke="#000000"
     stroke-width="3.21"
     stroke-linejoin="bevel"
     points="2399.6,533.358 2764.6,533.358"
     id="polyline5-8"
     transform="translate(-2399.6,-374.49082)" />
  <polyline
     class="BarLine"
     fill="none"
     stroke="#000000"
     stroke-width="5.25"
     stroke-linejoin="bevel"
     points="2761.98,415.115 2761.98,534.962"
     id="polyline77-2"
     transform="translate(-2399.6,-374.49082)" />
  <path
     class="Accidental"
     d="m 259.31178,116.99618 c 0.71081,-0.1094 1.29401,-0.9295 1.29401,-1.6403 v -6.87077 c 0,-0.9295 -0.71081,-1.6402 -1.64031,-1.6402 -0.10929,0 -0.10929,0 -0.2369,0 l -3.8455,0.8201 V 90.278308 h -3.2623 v 18.079202 l -10.38822,2.1141 V 94.014508 h -3.26228 v 17.149702 l -4.55625,0.9295 c -0.69255,0.1275 -1.27575,0.92937 -1.27575,1.64017 v 0.2369 6.7615 -0.2369 c 0,0.9295 0.69255,1.6402 1.64025,1.6402 0.10935,0 0.2187,0 0.34628,0 l 3.84547,-0.8201 v 19.2456 l -4.55625,0.9295 c -0.69255,0.1094 -1.27575,0.9295 -1.27575,1.6403 v 6.7614 c 0,0.9295 0.69255,1.6221 1.64025,1.6221 0.10935,0 0.2187,0 0.34628,0 l 3.84547,-0.8019 v 17.3684 h 3.26228 v -18.0792 l 10.38822,-2.0959 v 16.4572 h 3.2623 v -17.1497 l 4.4287,-0.8202 c 0.71081,-0.1275 1.29401,-0.9294 1.29401,-1.6402 v -6.8709 c 0,-0.9477 -0.71081,-1.6402 -1.64031,-1.6402 -0.10929,0 -0.10929,0 -0.2369,0 l -3.8455,0.8201 v -19.2456 l 4.4287,-0.8201 m -18.07922,3.6085 10.38822,-2.0958 v 19.2456 l -10.38822,2.2234 v -19.3732"
     id="path120-4"
     style="stroke-width:1.1664"
     inkscape:export-filename="comp\dgis.svg"
     inkscape:export-xdpi="96"
     inkscape:export-ydpi="96" />
  <path
     class="Note"
     d="m 182.7953,157.59137 c -16.09265,0 -21.8153,8.16486 -21.8153,15.74646 0,7.5816 5.72265,15.74646 21.8153,15.74646 16.0927,0 21.6878,-8.16486 21.6878,-15.74646 0,-7.5816 -5.5951,-15.74646 -21.6878,-15.74646 m 5.9414,27.04596 c -1.40329,0.47385 -3.2623,0.71075 -5.0119,0.71075 -3.2623,0 -5.4857,-0.92945 -6.9984,-3.84545 -1.5127,-2.916 -3.60849,-10.38825 -3.7361,-13.54118 -0.23689,-3.15292 0.92951,-5.01187 3.7361,-5.94135 1.4033,-0.47382 3.2623,-0.71083 5.0119,-0.71083 3.26231,0 5.37641,0.71083 6.9984,3.86376 1.6402,3.1347 3.7361,10.60695 3.7361,13.52295 0,3.02535 -0.9295,5.13945 -3.7361,5.94135"
     id="path127-5"
     style="stroke-width:1.1664" />
  <path
     class="Note"
     d="m 287.7953,113.58786 c -16.09265,0 -21.8153,8.16486 -21.8153,15.74646 0,7.5816 5.72265,15.74646 21.8153,15.74646 16.0927,0 21.6878,-8.16486 21.6878,-15.74646 0,-7.5816 -5.5951,-15.74646 -21.6878,-15.74646 m 5.9414,27.04596 c -1.40329,0.47385 -3.2623,0.71075 -5.0119,0.71075 -3.2623,0 -5.4857,-0.92945 -6.9984,-3.84545 -1.5127,-2.916 -3.60849,-10.38825 -3.7361,-13.54118 -0.23689,-3.15292 0.92951,-5.01187 3.7361,-5.94135 1.4033,-0.47382 3.2623,-0.71083 5.0119,-0.71083 3.26231,0 5.37641,0.71083 6.9984,3.86376 1.6402,3.1347 3.7361,10.60695 3.7361,13.52295 0,3.02535 -0.9295,5.13945 -3.7361,5.94135"
     id="path128-5"
     style="stroke-width:1.1664" />
  <path
     class="Clef"
     d="m 87.425299,132.14933 c 0,8.29238 -3.3898,16.80345 -11.664,20.19336 -2.4421,-13.99686 -5.59499,-32.54991 -6.4152,-37.68942 10.4976,0 18.0792,7.12603 18.0792,17.49606 m -16.5665,21.57846 c -2.3328,0.47379 -4.538,0.71069 -6.7615,0.71069 -16.67579,0 -30.90957,-11.664 -30.90957,-29.28755 0,-14.21556 10.02377,-26.936552 20.30267,-35.812152 1.9683,-1.7496 3.84551,-3.3716 5.59511,-5.1212 1.03879,6.2876 1.85889,11.77329 2.67899,16.566502 -10.62509,3.15289 -17.84219,14.3431 -17.84219,25.31455 0,8.1648 6.4152,19.35495 15.7464,19.35495 0.92939,0 1.98649,-0.47379 1.98649,-1.5127 0,-1.057 -1.1664,-1.6402 -2.56969,-2.5697 -4.55631,-2.80665 -7.12601,-5.832 -7.12601,-11.55465 0,-7.10775 5.2488,-12.83046 12.1378,-14.45245 l 6.7615,38.36371 M 60.598099,33.825478 c 1.0571,-4.6656 6.4152,-16.9128 12.48421,-16.9128 1.7496,0 4.53799,5.7044 4.53799,13.75979 0,12.13791 -8.9667,21.23221 -17.0222,29.16 -0.6925,-4.6656 -1.2757,-9.20359 -1.2757,-14.10609 0,-4.3193 0.34631,-8.2924 1.2757,-11.9009 m -24.4944,155.714402 c 0,7.70921 5.9414,17.8605 21.6878,17.8605 5.4857,0 10.2789,-1.40329 14.4706,-3.9731 6.3059,-4.42859 7.9279,-12.1378 7.9279,-19.4825 0,-4.538 -0.69249,-9.7868 -1.85889,-16.43889 -0.34631,-2.3328 -1.05711,-5.832 -1.7496,-10.38831 11.42699,-3.7361 19.93809,-15.63699 19.93809,-27.64733 0,-17.60537 -12.4841,-29.506272 -29.5063,-29.506272 -1.1664,-6.9984 -2.3328,-13.88751 -3.3898,-20.412 12.37481,-12.958 20.8858,-27.538 20.8858,-46.0728 0,-10.6252 -3.26219,-19.2456 -5.1394,-23.45514 -2.78839,-5.9416399 -6.1783,-10.0240398411247 -8.2742,-10.0240398411247 -0.8201,0 -4.42859,1.4031799411247 -8.2741,5.9416399411247 -7.4723,8.8751399 -9.56809,23.8014399 -9.56809,33.5882399 0,6.30579 0.5832,12.0285 2.56969,25.0958 -0.1276,0.1094 -6.1965,6.28759 -8.6387,8.2742 -10.62509,9.9144 -25.3145,24.0205 -25.3145,47.366752 0,21.79716 19.0087,38.94685 40.71471,38.94685 3.37159,0 6.52449,-0.3463 9.20359,-0.82009 2.2234,11.20829 3.4992,19.37309 3.4992,25.55139 0,12.13791 -6.1783,18.55311 -17.95159,18.55311 -2.80671,0 -5.2488,-0.5832 -5.48581,-0.5832 -0.1093,-0.12761 -0.34619,-0.23701 -0.34619,-0.34631 0,-0.23689 0.23689,-0.3645 0.5832,-0.4739 5.48569,-0.8201 10.95319,-5.4857 10.95319,-12.9397 0,-6.3059 -4.775,-12.958 -13.523,-12.958 -8.1648,0 -13.4136,6.6521 -13.4136,14.3431"
     id="path148-1"
     style="stroke-width:1.1664" />
</svg>
